<svg width="481" height="320" viewBox="0 0 481 320" fill="none" xmlns="http://www.w3.org/2000/svg">
<line y1="-2.5" x2="464" y2="-2.5" transform="matrix(-1 0 0 1 481 5)" stroke="white" stroke-width="5"/>
<path d="M20.7678 318.768C19.7915 319.744 18.2086 319.744 17.2322 318.768L1.32234 302.858C0.346033 301.882 0.346033 300.299 1.32234 299.322C2.29865 298.346 3.88157 298.346 4.85788 299.322L19 313.464L33.1421 299.322C34.1185 298.346 35.7014 298.346 36.6777 299.322C37.654 300.299 37.654 301.882 36.6777 302.858L20.7678 318.768ZM21.5 -1.09278e-07L21.5 317L16.5 317L16.5 1.09278e-07L21.5 -1.09278e-07Z" fill="white"/>
</svg>
