<svg width="753" height="273" viewBox="0 0 753 273" fill="none" xmlns="http://www.w3.org/2000/svg">
<path d="M6.5918 24.1758C5.54883 24.1758 4.61719 23.8594 3.79688 23.2266C2.97656 22.5938 2.56641 21.4746 2.56641 19.8691V1.18359C2.56641 0.726562 2.98242 0.498047 3.81445 0.498047H3.95508C4.77539 0.498047 5.18555 0.726562 5.18555 1.18359V19.623C5.18555 20.4785 5.33789 21.0762 5.64258 21.416C5.94727 21.7559 6.35742 21.9258 6.87305 21.9258C7.25977 21.9258 7.56445 21.9023 7.78711 21.8555C8.00977 21.8086 8.15625 21.7852 8.22656 21.7852C8.41406 21.7852 8.56641 21.9727 8.68359 22.3477C8.8125 22.7227 8.87695 23.0215 8.87695 23.2441C8.87695 23.8652 8.11523 24.1758 6.5918 24.1758ZM18.7031 24.1758C16.1133 24.1758 14.1855 23.502 12.9199 22.1543C11.666 20.7949 11.0391 18.7207 11.0391 15.9316C11.0391 13.166 11.6543 11.0684 12.8848 9.63867C14.1152 8.19727 15.9258 7.47656 18.3164 7.47656C20.4492 7.47656 22.0547 8.16797 23.1328 9.55078C24.2227 10.9336 24.7676 12.9609 24.7676 15.6328C24.7676 15.75 24.7031 15.9141 24.5742 16.125C24.457 16.3242 24.3105 16.5059 24.1348 16.6699C23.9707 16.8223 23.8301 16.8984 23.7129 16.8984H13.8516C13.9805 18.6445 14.4258 19.9219 15.1875 20.7305C15.9609 21.5273 17.1211 21.9258 18.668 21.9258C19.5352 21.9258 20.2793 21.8203 20.9004 21.6094C21.5332 21.3984 22.1426 21.1406 22.7285 20.8359C22.7871 20.8125 22.875 20.7715 22.9922 20.7129C23.1094 20.6543 23.1914 20.625 23.2383 20.625C23.3672 20.625 23.5137 20.7305 23.6777 20.9414C23.8535 21.1406 24 21.3691 24.1172 21.627C24.2461 21.873 24.3105 22.0547 24.3105 22.1719C24.3105 22.4297 24.0527 22.7168 23.5371 23.0332C23.0215 23.3496 22.3301 23.6191 21.4629 23.8418C20.6074 24.0645 19.6875 24.1758 18.7031 24.1758ZM21.9727 14.6484C21.9727 11.3672 20.7246 9.72656 18.2285 9.72656C15.5449 9.72656 14.0859 11.3672 13.8516 14.6484H21.9727ZM33.5742 24.1758C32.5312 24.1758 31.5996 23.8594 30.7793 23.2266C29.959 22.5938 29.5488 21.4746 29.5488 19.8691V9.90234H27.9844C27.7617 9.90234 27.5977 9.83203 27.4922 9.69141C27.3984 9.53906 27.3516 9.29883 27.3516 8.9707V8.58398C27.3516 8.25586 27.3984 8.02148 27.4922 7.88086C27.5977 7.72852 27.7617 7.65234 27.9844 7.65234H29.5488L29.918 4.38281C29.9414 3.92578 30.2754 3.69727 30.9199 3.69727H31.2188C31.5469 3.69727 31.7871 3.75586 31.9395 3.87305C32.0918 3.97852 32.168 4.14844 32.168 4.38281V7.65234H34.7871C35.0098 7.65234 35.168 7.72852 35.2617 7.88086C35.3672 8.02148 35.4199 8.25586 35.4199 8.58398V8.9707C35.4199 9.29883 35.3672 9.53906 35.2617 9.69141C35.168 9.83203 35.0098 9.90234 34.7871 9.90234H32.168V19.623C32.168 20.4785 32.3145 21.0762 32.6074 21.416C32.9121 21.7559 33.3223 21.9258 33.8379 21.9258C34.2363 21.9258 34.541 21.9023 34.752 21.8555C34.9746 21.8086 35.1211 21.7852 35.1914 21.7852C35.3789 21.7852 35.5312 21.9727 35.6484 22.3477C35.7773 22.7227 35.8418 23.0215 35.8418 23.2441C35.8418 23.8652 35.0859 24.1758 33.5742 24.1758Z" fill="#C7FFFF"/>
<path d="M233.578 15.5273C233.285 15.5273 233.057 15.4453 232.893 15.2812C232.729 15.1055 232.646 14.8711 232.646 14.5781V14.3672C232.646 14.0625 232.729 13.834 232.893 13.6816C233.057 13.5176 233.285 13.4355 233.578 13.4355H246.217C246.85 13.4355 247.166 13.7461 247.166 14.3672V14.5781C247.166 14.8828 247.084 15.1172 246.92 15.2812C246.756 15.4453 246.521 15.5273 246.217 15.5273H233.578ZM233.578 20.6426C233.285 20.6426 233.057 20.5605 232.893 20.3965C232.729 20.2324 232.646 20.0039 232.646 19.7109V19.4648C232.646 19.1602 232.729 18.9258 232.893 18.7617C233.057 18.5977 233.285 18.5156 233.578 18.5156H246.217C246.521 18.5156 246.756 18.5977 246.92 18.7617C247.084 18.9258 247.166 19.1602 247.166 19.4648V19.7109C247.166 20.0156 247.084 20.25 246.92 20.4141C246.756 20.5664 246.521 20.6426 246.217 20.6426H233.578ZM261.615 28.3242C261.275 28.3242 260.918 28.2188 260.543 28.0078C260.18 27.8086 259.863 27.4336 259.594 26.8828C259.324 26.3438 259.189 25.6113 259.189 24.6855V19.4648C259.189 18.3164 259.084 17.4316 258.873 16.8105C258.662 16.1777 258.234 15.7148 257.59 15.4219C257.32 15.3164 257.121 15.1875 256.992 15.0352C256.875 14.8711 256.816 14.6484 256.816 14.3672V13.9277C256.816 13.6582 256.881 13.4414 257.01 13.2773C257.139 13.1133 257.332 12.9785 257.59 12.873C258.234 12.5801 258.662 12.123 258.873 11.502C259.084 10.8809 259.189 9.99609 259.189 8.84766V3.62695C259.189 2.71289 259.324 1.98633 259.594 1.44727C259.863 0.908203 260.18 0.533203 260.543 0.322266C260.918 0.111328 261.275 0.00585938 261.615 0.00585938H263.197C263.408 0.00585938 263.561 0.0761719 263.654 0.216797C263.76 0.357422 263.812 0.585938 263.812 0.902344V1.02539C263.812 1.3418 263.76 1.57031 263.654 1.71094C263.561 1.85156 263.408 1.92188 263.197 1.92188H262.512C262.09 1.92188 261.803 2.07422 261.65 2.37891C261.51 2.68359 261.439 3.16992 261.439 3.83789V9.33984C261.439 10.6523 261.176 11.6895 260.648 12.4512C260.121 13.2012 259.57 13.7812 258.996 14.1914C259.242 14.2969 259.553 14.5371 259.928 14.9121C260.314 15.2871 260.66 15.8203 260.965 16.5117C261.281 17.2031 261.439 18.0234 261.439 18.9727V24.4395C261.439 25.1074 261.51 25.5938 261.65 25.8984C261.803 26.2148 262.09 26.373 262.512 26.373H263.197C263.408 26.373 263.561 26.4434 263.654 26.584C263.76 26.7363 263.812 26.9707 263.812 27.2871V27.4102C263.812 27.7383 263.76 27.9727 263.654 28.1133C263.561 28.2539 263.408 28.3242 263.197 28.3242H261.615ZM94.2363 85.0527C93.791 85.0527 93.4688 85 93.2695 84.8945C93.0703 84.7773 92.9707 84.6016 92.9707 84.3672V73.3984C92.9707 72.0391 92.9062 71.0605 92.7773 70.4629C92.6484 69.8535 92.584 69.5195 92.584 69.4609C92.584 69.2031 92.7773 69.0215 93.1641 68.916C93.5625 68.7988 93.9375 68.7402 94.2891 68.7402C94.582 68.7402 94.7988 68.8984 94.9395 69.2148C95.0801 69.5312 95.1797 69.8535 95.2383 70.1816C95.3086 70.5098 95.3555 70.7207 95.3789 70.8145C96.0352 70.0762 96.791 69.502 97.6465 69.0918C98.5137 68.6816 99.3867 68.4766 100.266 68.4766C101.859 68.4766 103.102 68.9277 103.992 69.8301C104.895 70.7207 105.346 71.9512 105.346 73.5215V84.3672C105.346 84.6016 105.246 84.7773 105.047 84.8945C104.848 85 104.531 85.0527 104.098 85.0527H103.957C103.535 85.0527 103.225 85 103.025 84.8945C102.826 84.7773 102.727 84.6016 102.727 84.3672V73.7852C102.727 72.8242 102.445 72.0801 101.883 71.5527C101.332 71.0137 100.553 70.7441 99.5449 70.7441C98.8418 70.7441 98.1328 70.9434 97.418 71.3418C96.7148 71.7285 96.1055 72.2617 95.5898 72.9414V84.3672C95.5898 84.6016 95.4902 84.7773 95.291 84.8945C95.0918 85 94.7812 85.0527 94.3594 85.0527H94.2363ZM114.557 85.1758C112.963 85.1758 111.674 84.7832 110.689 83.998C109.705 83.2129 109.213 82.0469 109.213 80.5C109.213 78.8711 109.711 77.6465 110.707 76.8262C111.703 75.9941 112.916 75.4609 114.346 75.2266C115.787 74.9805 117.533 74.8398 119.584 74.8047V73.3281C119.584 72.543 119.314 71.916 118.775 71.4473C118.248 70.9668 117.375 70.7266 116.156 70.7266C115.23 70.7266 114.416 70.8379 113.713 71.0605C113.021 71.2715 112.371 71.5293 111.762 71.834C111.504 71.9629 111.346 72.0273 111.287 72.0273C111.146 72.0273 110.988 71.9277 110.812 71.7285C110.648 71.5176 110.502 71.2832 110.373 71.0254C110.256 70.7676 110.197 70.5801 110.197 70.4629C110.197 70.1934 110.473 69.9004 111.023 69.584C111.586 69.2676 112.318 69.0039 113.221 68.793C114.123 68.582 115.066 68.4766 116.051 68.4766C118.008 68.4766 119.525 68.9043 120.604 69.7598C121.682 70.6152 122.221 71.8164 122.221 73.3633V80.377C122.221 81.7363 122.279 82.7207 122.396 83.3301C122.525 83.9277 122.59 84.2559 122.59 84.3145C122.59 84.5723 122.391 84.7598 121.992 84.877C121.605 84.9824 121.242 85.0352 120.902 85.0352C120.621 85.0352 120.41 84.877 120.27 84.5605C120.141 84.2441 120.012 83.7871 119.883 83.1895L119.812 82.8379C119.168 83.5527 118.406 84.1211 117.527 84.543C116.66 84.9648 115.67 85.1758 114.557 85.1758ZM114.697 82.9082C115.729 82.9082 116.607 82.7207 117.334 82.3457C118.061 81.9707 118.811 81.4375 119.584 80.7461V77.0547C118.037 77.0664 116.766 77.1309 115.77 77.248C114.773 77.3652 113.9 77.6641 113.15 78.1445C112.4 78.6133 112.025 79.3457 112.025 80.3418C112.025 81.1738 112.248 81.8125 112.693 82.2578C113.15 82.6914 113.818 82.9082 114.697 82.9082ZM143.982 68.4766C145.283 68.4766 146.426 68.8457 147.41 69.584C148.395 70.3223 148.887 71.6348 148.887 73.5215V84.3672C148.887 84.6016 148.787 84.7773 148.588 84.8945C148.389 85 148.072 85.0527 147.639 85.0527H147.533C147.088 85.0527 146.766 85 146.566 84.8945C146.367 84.7773 146.268 84.6016 146.268 84.3672V73.7852C146.268 72.8359 146.01 72.0918 145.494 71.5527C144.99 71.0137 144.246 70.7441 143.262 70.7441C142.441 70.7441 141.697 70.9844 141.029 71.4648C140.373 71.9336 139.84 72.4258 139.43 72.9414C139.453 73.2227 139.465 73.4336 139.465 73.5742V84.3672C139.465 84.8242 139.043 85.0527 138.199 85.0527H138.076C137.244 85.0527 136.828 84.8242 136.828 84.3672V73.7852C136.828 72.8359 136.57 72.0918 136.055 71.5527C135.551 71.0137 134.807 70.7441 133.822 70.7441C133.143 70.7441 132.521 70.9082 131.959 71.2363C131.396 71.5527 130.928 71.8984 130.553 72.2734C130.189 72.6484 130.008 72.8594 130.008 72.9062V84.3672C130.008 84.6016 129.908 84.7773 129.709 84.8945C129.521 85 129.211 85.0527 128.777 85.0527H128.637C128.203 85.0527 127.887 85 127.688 84.8945C127.5 84.7773 127.406 84.6016 127.406 84.3672V73.3984C127.406 72.0391 127.342 71.0605 127.213 70.4629C127.084 69.8535 127.02 69.5195 127.02 69.4609C127.02 69.2031 127.213 69.0215 127.6 68.916C127.998 68.7988 128.367 68.7402 128.707 68.7402C129 68.7402 129.217 68.8984 129.357 69.2148C129.498 69.5312 129.598 69.8535 129.656 70.1816C129.727 70.5098 129.773 70.7207 129.797 70.8145C130.371 70.1465 131.074 69.5898 131.906 69.1445C132.738 68.6992 133.617 68.4766 134.543 68.4766C135.492 68.4766 136.377 68.6699 137.197 69.0566C138.018 69.4316 138.621 70.0996 139.008 71.0605C139.652 70.2988 140.408 69.6777 141.275 69.1973C142.143 68.7168 143.045 68.4766 143.982 68.4766ZM160.629 85.1758C158.039 85.1758 156.111 84.502 154.846 83.1543C153.592 81.7949 152.965 79.7207 152.965 76.9316C152.965 74.166 153.58 72.0684 154.811 70.6387C156.041 69.1973 157.852 68.4766 160.242 68.4766C162.375 68.4766 163.98 69.168 165.059 70.5508C166.148 71.9336 166.693 73.9609 166.693 76.6328C166.693 76.75 166.629 76.9141 166.5 77.125C166.383 77.3242 166.236 77.5059 166.061 77.6699C165.896 77.8223 165.756 77.8984 165.639 77.8984H155.777C155.906 79.6445 156.352 80.9219 157.113 81.7305C157.887 82.5273 159.047 82.9258 160.594 82.9258C161.461 82.9258 162.205 82.8203 162.826 82.6094C163.459 82.3984 164.068 82.1406 164.654 81.8359C164.713 81.8125 164.801 81.7715 164.918 81.7129C165.035 81.6543 165.117 81.625 165.164 81.625C165.293 81.625 165.439 81.7305 165.604 81.9414C165.779 82.1406 165.926 82.3691 166.043 82.627C166.172 82.873 166.236 83.0547 166.236 83.1719C166.236 83.4297 165.979 83.7168 165.463 84.0332C164.947 84.3496 164.256 84.6191 163.389 84.8418C162.533 85.0645 161.613 85.1758 160.629 85.1758ZM163.898 75.6484C163.898 72.3672 162.65 70.7266 160.154 70.7266C157.471 70.7266 156.012 72.3672 155.777 75.6484H163.898ZM178.066 76.5273C177.773 76.5273 177.545 76.4453 177.381 76.2812C177.217 76.1055 177.135 75.8711 177.135 75.5781V75.3672C177.135 75.0625 177.217 74.834 177.381 74.6816C177.545 74.5176 177.773 74.4355 178.066 74.4355H190.705C191.338 74.4355 191.654 74.7461 191.654 75.3672V75.5781C191.654 75.8828 191.572 76.1172 191.408 76.2812C191.244 76.4453 191.01 76.5273 190.705 76.5273H178.066ZM178.066 81.6426C177.773 81.6426 177.545 81.5605 177.381 81.3965C177.217 81.2324 177.135 81.0039 177.135 80.7109V80.4648C177.135 80.1602 177.217 79.9258 177.381 79.7617C177.545 79.5977 177.773 79.5156 178.066 79.5156H190.705C191.01 79.5156 191.244 79.5977 191.408 79.7617C191.572 79.9258 191.654 80.1602 191.654 80.4648V80.7109C191.654 81.0156 191.572 81.25 191.408 81.4141C191.244 81.5664 191.01 81.6426 190.705 81.6426H178.066ZM384.838 88.6211C384.604 88.6211 384.393 88.5859 384.205 88.5156C384.029 88.4453 383.941 88.3223 383.941 88.1465C383.941 88.0645 383.977 87.9355 384.047 87.7598C384.129 87.5957 384.182 87.4785 384.205 87.4082C384.568 86.7051 384.838 85.9668 385.014 85.1934C385.189 84.4316 385.277 83.5762 385.277 82.627C385.277 82.3223 385.383 82.082 385.594 81.9062C385.805 81.7188 386.115 81.625 386.525 81.625H386.824C387.211 81.625 387.51 81.707 387.721 81.8711C387.943 82.0234 388.055 82.2285 388.055 82.4863C388.055 83.6465 387.867 84.6953 387.492 85.6328C387.117 86.5703 386.672 87.3027 386.156 87.8301C385.652 88.3574 385.213 88.6211 384.838 88.6211ZM97.9629 146.176C96.7441 146.176 95.6777 145.824 94.7637 145.121C93.8496 144.406 93.1406 143.416 92.6367 142.15C92.1445 140.885 91.8984 139.449 91.8984 137.844C91.8984 136.074 92.1621 134.562 92.6895 133.309C93.2285 132.043 93.9785 131.088 94.9395 130.443C95.9004 129.799 97.0078 129.477 98.2617 129.477C99.1641 129.477 99.9609 129.611 100.652 129.881C101.355 130.15 102.047 130.543 102.727 131.059V123.184C102.727 122.727 103.137 122.498 103.957 122.498H104.098C104.93 122.498 105.346 122.727 105.346 123.184V141.377C105.346 142.736 105.41 143.721 105.539 144.33C105.668 144.928 105.732 145.256 105.732 145.314C105.732 145.572 105.533 145.76 105.135 145.877C104.748 145.982 104.385 146.035 104.045 146.035C103.811 146.035 103.623 145.924 103.482 145.701C103.342 145.479 103.242 145.256 103.184 145.033C103.137 144.799 103.055 144.4 102.938 143.838C101.449 145.396 99.791 146.176 97.9629 146.176ZM98.5078 143.908C99.1992 143.908 99.9141 143.721 100.652 143.346C101.402 142.971 102.094 142.438 102.727 141.746V133.186C101.602 132.248 100.318 131.779 98.877 131.779C97.4824 131.814 96.4277 132.324 95.7129 133.309C95.0098 134.293 94.6582 135.723 94.6582 137.598C94.6582 139.613 94.9863 141.172 95.6426 142.273C96.3105 143.363 97.2656 143.908 98.5078 143.908ZM117.352 146.176C114.762 146.176 112.834 145.502 111.568 144.154C110.314 142.795 109.688 140.721 109.688 137.932C109.688 135.166 110.303 133.068 111.533 131.639C112.764 130.197 114.574 129.477 116.965 129.477C119.098 129.477 120.703 130.168 121.781 131.551C122.871 132.934 123.416 134.961 123.416 137.633C123.416 137.75 123.352 137.914 123.223 138.125C123.105 138.324 122.959 138.506 122.783 138.67C122.619 138.822 122.479 138.898 122.361 138.898H112.5C112.629 140.645 113.074 141.922 113.836 142.73C114.609 143.527 115.77 143.926 117.316 143.926C118.184 143.926 118.928 143.82 119.549 143.609C120.182 143.398 120.791 143.141 121.377 142.836C121.436 142.812 121.523 142.771 121.641 142.713C121.758 142.654 121.84 142.625 121.887 142.625C122.016 142.625 122.162 142.73 122.326 142.941C122.502 143.141 122.648 143.369 122.766 143.627C122.895 143.873 122.959 144.055 122.959 144.172C122.959 144.43 122.701 144.717 122.186 145.033C121.67 145.35 120.979 145.619 120.111 145.842C119.256 146.064 118.336 146.176 117.352 146.176ZM120.621 136.648C120.621 133.367 119.373 131.727 116.877 131.727C114.193 131.727 112.734 133.367 112.5 136.648H120.621ZM132.223 146.176C131.18 146.176 130.248 145.859 129.428 145.227C128.607 144.594 128.197 143.475 128.197 141.869V131.902H126.633C126.41 131.902 126.246 131.832 126.141 131.691C126.047 131.539 126 131.299 126 130.971V130.584C126 130.256 126.047 130.021 126.141 129.881C126.246 129.729 126.41 129.652 126.633 129.652H128.197L128.566 126.383C128.59 125.926 128.924 125.697 129.568 125.697H129.867C130.195 125.697 130.436 125.756 130.588 125.873C130.74 125.979 130.816 126.148 130.816 126.383V129.652H133.436C133.658 129.652 133.816 129.729 133.91 129.881C134.016 130.021 134.068 130.256 134.068 130.584V130.971C134.068 131.299 134.016 131.539 133.91 131.691C133.816 131.832 133.658 131.902 133.436 131.902H130.816V141.623C130.816 142.479 130.963 143.076 131.256 143.416C131.561 143.756 131.971 143.926 132.486 143.926C132.885 143.926 133.189 143.902 133.4 143.855C133.623 143.809 133.77 143.785 133.84 143.785C134.027 143.785 134.18 143.973 134.297 144.348C134.426 144.723 134.49 145.021 134.49 145.244C134.49 145.865 133.734 146.176 132.223 146.176ZM142.436 146.176C140.842 146.176 139.553 145.783 138.568 144.998C137.584 144.213 137.092 143.047 137.092 141.5C137.092 139.871 137.59 138.646 138.586 137.826C139.582 136.994 140.795 136.461 142.225 136.227C143.666 135.98 145.412 135.84 147.463 135.805V134.328C147.463 133.543 147.193 132.916 146.654 132.447C146.127 131.967 145.254 131.727 144.035 131.727C143.109 131.727 142.295 131.838 141.592 132.061C140.9 132.271 140.25 132.529 139.641 132.834C139.383 132.963 139.225 133.027 139.166 133.027C139.025 133.027 138.867 132.928 138.691 132.729C138.527 132.518 138.381 132.283 138.252 132.025C138.135 131.768 138.076 131.58 138.076 131.463C138.076 131.193 138.352 130.9 138.902 130.584C139.465 130.268 140.197 130.004 141.1 129.793C142.002 129.582 142.945 129.477 143.93 129.477C145.887 129.477 147.404 129.904 148.482 130.76C149.561 131.615 150.1 132.816 150.1 134.363V141.377C150.1 142.736 150.158 143.721 150.275 144.33C150.404 144.928 150.469 145.256 150.469 145.314C150.469 145.572 150.27 145.76 149.871 145.877C149.484 145.982 149.121 146.035 148.781 146.035C148.5 146.035 148.289 145.877 148.148 145.561C148.02 145.244 147.891 144.787 147.762 144.189L147.691 143.838C147.047 144.553 146.285 145.121 145.406 145.543C144.539 145.965 143.549 146.176 142.436 146.176ZM142.576 143.908C143.607 143.908 144.486 143.721 145.213 143.346C145.939 142.971 146.689 142.438 147.463 141.746V138.055C145.916 138.066 144.645 138.131 143.648 138.248C142.652 138.365 141.779 138.664 141.029 139.145C140.279 139.613 139.904 140.346 139.904 141.342C139.904 142.174 140.127 142.812 140.572 143.258C141.029 143.691 141.697 143.908 142.576 143.908ZM156.586 125.715C155.754 125.715 155.338 125.486 155.338 125.029V123.184C155.338 122.727 155.754 122.498 156.586 122.498H156.955C157.799 122.498 158.221 122.727 158.221 123.184V125.029C158.221 125.486 157.799 125.715 156.955 125.715H156.586ZM156.709 146.053C155.877 146.053 155.461 145.824 155.461 145.367V130.285C155.461 129.828 155.877 129.6 156.709 129.6H156.832C157.676 129.6 158.098 129.828 158.098 130.285V145.367C158.098 145.824 157.676 146.053 156.832 146.053H156.709ZM167.502 146.176C166.459 146.176 165.527 145.859 164.707 145.227C163.887 144.594 163.477 143.475 163.477 141.869V123.184C163.477 122.727 163.893 122.498 164.725 122.498H164.865C165.686 122.498 166.096 122.727 166.096 123.184V141.623C166.096 142.479 166.248 143.076 166.553 143.416C166.857 143.756 167.268 143.926 167.783 143.926C168.17 143.926 168.475 143.902 168.697 143.855C168.92 143.809 169.066 143.785 169.137 143.785C169.324 143.785 169.477 143.973 169.594 144.348C169.723 144.723 169.787 145.021 169.787 145.244C169.787 145.865 169.025 146.176 167.502 146.176ZM176.291 146.299C175.412 146.299 174.592 146.188 173.83 145.965C173.068 145.742 172.459 145.473 172.002 145.156C171.557 144.828 171.334 144.541 171.334 144.295C171.334 144.178 171.393 143.99 171.51 143.732C171.639 143.475 171.785 143.246 171.949 143.047C172.125 142.836 172.283 142.73 172.424 142.73C172.459 142.73 172.564 142.789 172.74 142.906C173.209 143.211 173.701 143.469 174.217 143.68C174.744 143.891 175.371 143.996 176.098 143.996C178.137 143.996 179.156 143.152 179.156 141.465C179.156 140.984 179.057 140.58 178.857 140.252C178.67 139.924 178.348 139.637 177.891 139.391C177.445 139.133 176.83 138.887 176.045 138.652C174.92 138.324 174.041 137.949 173.408 137.527C172.787 137.105 172.348 136.613 172.09 136.051C171.832 135.477 171.703 134.785 171.703 133.977C171.703 133.109 171.92 132.33 172.354 131.639C172.799 130.947 173.414 130.408 174.199 130.021C174.996 129.635 175.893 129.441 176.889 129.441C177.58 129.441 178.242 129.506 178.875 129.635C179.52 129.764 180.035 129.934 180.422 130.145C180.82 130.344 181.02 130.555 181.02 130.777C181.02 130.941 180.961 131.164 180.844 131.445C180.738 131.715 180.604 131.955 180.439 132.166C180.275 132.365 180.129 132.465 180 132.465C179.977 132.465 179.83 132.395 179.561 132.254C179.291 132.102 178.945 131.967 178.523 131.85C178.113 131.721 177.656 131.656 177.152 131.656C176.355 131.656 175.693 131.838 175.166 132.201C174.65 132.553 174.393 133.027 174.393 133.625C174.393 134.328 174.58 134.891 174.955 135.312C175.33 135.734 175.951 136.08 176.818 136.35C178.154 136.76 179.174 137.17 179.877 137.58C180.58 137.99 181.078 138.494 181.371 139.092C181.676 139.678 181.828 140.451 181.828 141.412C181.828 142.326 181.582 143.158 181.09 143.908C180.598 144.646 179.93 145.232 179.086 145.666C178.242 146.088 177.311 146.299 176.291 146.299ZM193.078 137.527C192.785 137.527 192.557 137.445 192.393 137.281C192.229 137.105 192.146 136.871 192.146 136.578V136.367C192.146 136.062 192.229 135.834 192.393 135.682C192.557 135.518 192.785 135.436 193.078 135.436H205.717C206.35 135.436 206.666 135.746 206.666 136.367V136.578C206.666 136.883 206.584 137.117 206.42 137.281C206.256 137.445 206.021 137.527 205.717 137.527H193.078ZM193.078 142.643C192.785 142.643 192.557 142.561 192.393 142.396C192.229 142.232 192.146 142.004 192.146 141.711V141.465C192.146 141.16 192.229 140.926 192.393 140.762C192.557 140.598 192.785 140.516 193.078 140.516H205.717C206.021 140.516 206.256 140.598 206.42 140.762C206.584 140.926 206.666 141.16 206.666 141.465V141.711C206.666 142.016 206.584 142.25 206.42 142.414C206.256 142.566 206.021 142.643 205.717 142.643H193.078ZM748.951 149.621C748.717 149.621 748.506 149.586 748.318 149.516C748.143 149.445 748.055 149.322 748.055 149.146C748.055 149.064 748.09 148.936 748.16 148.76C748.242 148.596 748.295 148.479 748.318 148.408C748.682 147.705 748.951 146.967 749.127 146.193C749.303 145.432 749.391 144.576 749.391 143.627C749.391 143.322 749.496 143.082 749.707 142.906C749.918 142.719 750.229 142.625 750.639 142.625H750.938C751.324 142.625 751.623 142.707 751.834 142.871C752.057 143.023 752.168 143.229 752.168 143.486C752.168 144.646 751.98 145.695 751.605 146.633C751.23 147.57 750.785 148.303 750.27 148.83C749.766 149.357 749.326 149.621 748.951 149.621ZM94.2363 213.504C93.3926 213.504 92.9707 213.275 92.9707 212.818V195.398C92.9707 194.039 92.9062 193.061 92.7773 192.463C92.6484 191.854 92.584 191.52 92.584 191.461C92.584 191.203 92.7773 191.021 93.1641 190.916C93.5625 190.799 93.9375 190.74 94.2891 190.74C94.582 190.74 94.7988 190.898 94.9395 191.215C95.0801 191.531 95.1797 191.854 95.2383 192.182C95.3086 192.51 95.3555 192.721 95.3789 192.814C96.8672 191.256 98.5254 190.477 100.354 190.477C101.607 190.477 102.691 190.834 103.605 191.549C104.52 192.264 105.217 193.254 105.697 194.52C106.178 195.785 106.418 197.227 106.418 198.844C106.418 200.602 106.148 202.107 105.609 203.361C105.082 204.615 104.338 205.564 103.377 206.209C102.416 206.854 101.309 207.176 100.055 207.176C99.1523 207.176 98.3496 207.041 97.6465 206.771C96.9551 206.502 96.2695 206.109 95.5898 205.594V212.818C95.5898 213.275 95.1797 213.504 94.3594 213.504H94.2363ZM99.457 204.873C100.852 204.838 101.9 204.328 102.604 203.344C103.307 202.359 103.658 200.93 103.658 199.055C103.658 197.039 103.324 195.486 102.656 194.396C102 193.295 101.051 192.744 99.8086 192.744C99.1172 192.744 98.3965 192.932 97.6465 193.307C96.9082 193.682 96.2227 194.215 95.5898 194.906V203.467C96.7383 204.404 98.0273 204.873 99.457 204.873ZM112.289 207.053C111.844 207.053 111.521 207 111.322 206.895C111.123 206.777 111.023 206.602 111.023 206.367V195.398C111.023 194.039 110.959 193.061 110.83 192.463C110.701 191.854 110.637 191.52 110.637 191.461C110.637 191.203 110.83 191.021 111.217 190.916C111.615 190.799 111.99 190.74 112.342 190.74C112.623 190.74 112.834 190.893 112.975 191.197C113.115 191.49 113.238 191.906 113.344 192.445L113.432 192.814C114.545 191.256 115.752 190.477 117.053 190.477C117.65 190.477 118.102 190.588 118.406 190.811C118.711 191.021 118.863 191.309 118.863 191.672C118.863 192.023 118.799 192.398 118.67 192.797C118.553 193.184 118.412 193.377 118.248 193.377C118.166 193.377 118.02 193.342 117.809 193.271C117.621 193.189 117.434 193.131 117.246 193.096C117.059 193.049 116.818 193.025 116.525 193.025C116.045 193.025 115.588 193.166 115.154 193.447C114.732 193.729 114.375 194.039 114.082 194.379C113.789 194.719 113.643 194.906 113.643 194.941V206.367C113.643 206.602 113.543 206.777 113.344 206.895C113.145 207 112.834 207.053 112.412 207.053H112.289ZM123.609 186.715C122.777 186.715 122.361 186.486 122.361 186.029V184.184C122.361 183.727 122.777 183.498 123.609 183.498H123.979C124.822 183.498 125.244 183.727 125.244 184.184V186.029C125.244 186.486 124.822 186.715 123.979 186.715H123.609ZM123.732 207.053C122.9 207.053 122.484 206.824 122.484 206.367V191.285C122.484 190.828 122.9 190.6 123.732 190.6H123.855C124.699 190.6 125.121 190.828 125.121 191.285V206.367C125.121 206.824 124.699 207.053 123.855 207.053H123.732ZM137.25 207.176C134.66 207.176 132.727 206.514 131.449 205.189C130.184 203.854 129.551 201.709 129.551 198.756C129.551 195.768 130.26 193.641 131.678 192.375C133.096 191.109 134.859 190.477 136.969 190.477C137.754 190.477 138.51 190.547 139.236 190.688C139.963 190.816 140.549 190.992 140.994 191.215C141.439 191.438 141.662 191.672 141.662 191.918C141.662 192.082 141.604 192.299 141.486 192.568C141.381 192.838 141.246 193.078 141.082 193.289C140.93 193.488 140.789 193.588 140.66 193.588C140.625 193.588 140.572 193.576 140.502 193.553C140.432 193.518 140.367 193.488 140.309 193.465C139.254 192.973 138.117 192.727 136.898 192.727C135.457 192.727 134.344 193.201 133.559 194.15C132.773 195.088 132.381 196.6 132.381 198.686C132.381 200.162 132.539 201.357 132.855 202.271C133.172 203.174 133.682 203.842 134.385 204.275C135.1 204.709 136.049 204.926 137.232 204.926C138.533 204.926 139.705 204.656 140.748 204.117C140.854 204.094 140.93 204.07 140.977 204.047C141.035 204.012 141.076 203.994 141.1 203.994C141.229 203.994 141.375 204.094 141.539 204.293C141.703 204.492 141.844 204.721 141.961 204.979C142.09 205.236 142.154 205.441 142.154 205.594C142.154 205.84 141.932 206.086 141.486 206.332C141.041 206.578 140.438 206.783 139.676 206.947C138.926 207.1 138.117 207.176 137.25 207.176ZM152.473 207.176C149.883 207.176 147.955 206.502 146.689 205.154C145.436 203.795 144.809 201.721 144.809 198.932C144.809 196.166 145.424 194.068 146.654 192.639C147.885 191.197 149.695 190.477 152.086 190.477C154.219 190.477 155.824 191.168 156.902 192.551C157.992 193.934 158.537 195.961 158.537 198.633C158.537 198.75 158.473 198.914 158.344 199.125C158.227 199.324 158.08 199.506 157.904 199.67C157.74 199.822 157.6 199.898 157.482 199.898H147.621C147.75 201.645 148.195 202.922 148.957 203.73C149.73 204.527 150.891 204.926 152.438 204.926C153.305 204.926 154.049 204.82 154.67 204.609C155.303 204.398 155.912 204.141 156.498 203.836C156.557 203.812 156.645 203.771 156.762 203.713C156.879 203.654 156.961 203.625 157.008 203.625C157.137 203.625 157.283 203.73 157.447 203.941C157.623 204.141 157.77 204.369 157.887 204.627C158.016 204.873 158.08 205.055 158.08 205.172C158.08 205.43 157.822 205.717 157.307 206.033C156.791 206.35 156.1 206.619 155.232 206.842C154.377 207.064 153.457 207.176 152.473 207.176ZM155.742 197.648C155.742 194.367 154.494 192.727 151.998 192.727C149.314 192.727 147.855 194.367 147.621 197.648H155.742ZM169.91 198.527C169.617 198.527 169.389 198.445 169.225 198.281C169.061 198.105 168.979 197.871 168.979 197.578V197.367C168.979 197.062 169.061 196.834 169.225 196.682C169.389 196.518 169.617 196.436 169.91 196.436H182.549C183.182 196.436 183.498 196.746 183.498 197.367V197.578C183.498 197.883 183.416 198.117 183.252 198.281C183.088 198.445 182.854 198.527 182.549 198.527H169.91ZM169.91 203.643C169.617 203.643 169.389 203.561 169.225 203.396C169.061 203.232 168.979 203.004 168.979 202.711V202.465C168.979 202.16 169.061 201.926 169.225 201.762C169.389 201.598 169.617 201.516 169.91 201.516H182.549C182.854 201.516 183.088 201.598 183.252 201.762C183.416 201.926 183.498 202.16 183.498 202.465V202.711C183.498 203.016 183.416 203.25 183.252 203.414C183.088 203.566 182.854 203.643 182.549 203.643H169.91ZM1.56445 272.324C1.3418 272.324 1.17773 272.254 1.07227 272.113C0.978516 271.973 0.931641 271.738 0.931641 271.41V271.287C0.931641 270.959 0.978516 270.725 1.07227 270.584C1.17773 270.443 1.3418 270.373 1.56445 270.373H2.25C2.66016 270.373 2.94141 270.215 3.09375 269.898C3.24609 269.582 3.32227 269.096 3.32227 268.439V262.973C3.32227 262.023 3.47461 261.203 3.7793 260.512C4.0957 259.82 4.44141 259.287 4.81641 258.912C5.19141 258.537 5.50195 258.297 5.74805 258.191C4.13086 257.008 3.32227 255.391 3.32227 253.34V247.838C3.32227 247.182 3.24609 246.701 3.09375 246.396C2.94141 246.08 2.66016 245.922 2.25 245.922H1.56445C1.3418 245.922 1.17773 245.852 1.07227 245.711C0.978516 245.57 0.931641 245.342 0.931641 245.025V244.902C0.931641 244.586 0.978516 244.357 1.07227 244.217C1.17773 244.076 1.3418 244.006 1.56445 244.006H3.12891C3.46875 244.006 3.82617 244.111 4.20117 244.322C4.57617 244.533 4.89844 244.908 5.16797 245.447C5.4375 245.986 5.57227 246.713 5.57227 247.627V252.848C5.57227 253.996 5.67773 254.881 5.88867 255.502C6.09961 256.123 6.52734 256.58 7.17188 256.873C7.42969 256.99 7.62305 257.131 7.75195 257.295C7.88086 257.459 7.94531 257.67 7.94531 257.928V258.367C7.94531 258.637 7.88086 258.854 7.75195 259.018C7.62305 259.17 7.42969 259.305 7.17188 259.422C6.52734 259.715 6.09961 260.178 5.88867 260.811C5.67773 261.432 5.57227 262.316 5.57227 263.465V268.686C5.57227 269.611 5.4375 270.344 5.16797 270.883C4.89844 271.434 4.57617 271.809 4.20117 272.008C3.83789 272.219 3.48047 272.324 3.12891 272.324H1.56445Z" fill="white"/>
<path d="M54.4746 24.1758C52.6465 24.1758 50.9883 23.3965 49.5 21.8379C49.4062 22.4824 49.2363 23.0977 48.9902 23.6836C48.9434 23.8242 48.8496 23.9238 48.709 23.9824C48.5801 24.0293 48.3984 24.0527 48.1641 24.0527H48.041C47.7129 24.0527 47.4727 24 47.3203 23.8945C47.1797 23.7773 47.1094 23.6016 47.1094 23.3672V1.18359C47.1094 0.726562 47.5195 0.498047 48.3398 0.498047H48.4805C49.3008 0.498047 49.7109 0.726562 49.7109 1.18359V9.05859C50.3906 8.54297 51.082 8.15039 51.7852 7.88086C52.4883 7.61133 53.291 7.47656 54.1934 7.47656C55.4355 7.47656 56.5371 7.79883 57.498 8.44336C58.459 9.08789 59.2031 10.0371 59.7305 11.291C60.2695 12.5449 60.5391 14.0508 60.5391 15.8086C60.5391 17.4258 60.293 18.873 59.8008 20.1504C59.3086 21.416 58.6055 22.4062 57.6914 23.1211C56.7773 23.8242 55.7051 24.1758 54.4746 24.1758ZM53.9473 21.9082C55.1777 21.9082 56.1211 21.3633 56.7773 20.2734C57.4453 19.1719 57.7793 17.6133 57.7793 15.5977C57.7793 13.7227 57.4277 12.293 56.7246 11.3086C56.0215 10.3242 54.9785 9.81445 53.5957 9.7793C52.9043 9.7793 52.2246 9.89648 51.5566 10.1309C50.8887 10.3652 50.2734 10.7168 49.7109 11.1855V19.7461C50.3555 20.4375 51.0469 20.9707 51.7852 21.3457C52.5234 21.7207 53.2441 21.9082 53.9473 21.9082ZM69.0996 24.1758C67.5059 24.1758 66.2168 23.7832 65.2324 22.998C64.248 22.2129 63.7559 21.0469 63.7559 19.5C63.7559 17.8711 64.2539 16.6465 65.25 15.8262C66.2461 14.9941 67.459 14.4609 68.8887 14.2266C70.3301 13.9805 72.0762 13.8398 74.127 13.8047V12.3281C74.127 11.543 73.8574 10.916 73.3184 10.4473C72.791 9.9668 71.918 9.72656 70.6992 9.72656C69.7734 9.72656 68.959 9.83789 68.2559 10.0605C67.5645 10.2715 66.9141 10.5293 66.3047 10.834C66.0469 10.9629 65.8887 11.0273 65.8301 11.0273C65.6895 11.0273 65.5312 10.9277 65.3555 10.7285C65.1914 10.5176 65.0449 10.2832 64.916 10.0254C64.7988 9.76758 64.7402 9.58008 64.7402 9.46289C64.7402 9.19336 65.0156 8.90039 65.5664 8.58398C66.1289 8.26758 66.8613 8.00391 67.7637 7.79297C68.666 7.58203 69.6094 7.47656 70.5938 7.47656C72.5508 7.47656 74.0684 7.9043 75.1465 8.75977C76.2246 9.61523 76.7637 10.8164 76.7637 12.3633V19.377C76.7637 20.7363 76.8223 21.7207 76.9395 22.3301C77.0684 22.9277 77.1328 23.2559 77.1328 23.3145C77.1328 23.5723 76.9336 23.7598 76.5352 23.877C76.1484 23.9824 75.7852 24.0352 75.4453 24.0352C75.1641 24.0352 74.9531 23.877 74.8125 23.5605C74.6836 23.2441 74.5547 22.7871 74.4258 22.1895L74.3555 21.8379C73.7109 22.5527 72.9492 23.1211 72.0703 23.543C71.2031 23.9648 70.2129 24.1758 69.0996 24.1758ZM69.2402 21.9082C70.2715 21.9082 71.1504 21.7207 71.877 21.3457C72.6035 20.9707 73.3535 20.4375 74.127 19.7461V16.0547C72.5801 16.0664 71.3086 16.1309 70.3125 16.248C69.3164 16.3652 68.4434 16.6641 67.6934 17.1445C66.9434 17.6133 66.5684 18.3457 66.5684 19.3418C66.5684 20.1738 66.791 20.8125 67.2363 21.2578C67.6934 21.6914 68.3613 21.9082 69.2402 21.9082ZM85.3418 24.2988C84.4629 24.2988 83.6426 24.1875 82.8809 23.9648C82.1191 23.7422 81.5098 23.4727 81.0527 23.1562C80.6074 22.8281 80.3848 22.541 80.3848 22.2949C80.3848 22.1777 80.4434 21.9902 80.5605 21.7324C80.6895 21.4746 80.8359 21.2461 81 21.0469C81.1758 20.8359 81.334 20.7305 81.4746 20.7305C81.5098 20.7305 81.6152 20.7891 81.791 20.9062C82.2598 21.2109 82.752 21.4688 83.2676 21.6797C83.7949 21.8906 84.4219 21.9961 85.1484 21.9961C87.1875 21.9961 88.207 21.1523 88.207 19.4648C88.207 18.9844 88.1074 18.5801 87.9082 18.252C87.7207 17.9238 87.3984 17.6367 86.9414 17.3906C86.4961 17.1328 85.8809 16.8867 85.0957 16.6523C83.9707 16.3242 83.0918 15.9492 82.459 15.5273C81.8379 15.1055 81.3984 14.6133 81.1406 14.0508C80.8828 13.4766 80.7539 12.7852 80.7539 11.9766C80.7539 11.1094 80.9707 10.3301 81.4043 9.63867C81.8496 8.94727 82.4648 8.4082 83.25 8.02148C84.0469 7.63477 84.9434 7.44141 85.9395 7.44141C86.6309 7.44141 87.293 7.50586 87.9258 7.63477C88.5703 7.76367 89.0859 7.93359 89.4727 8.14453C89.8711 8.34375 90.0703 8.55469 90.0703 8.77734C90.0703 8.94141 90.0117 9.16406 89.8945 9.44531C89.7891 9.71484 89.6543 9.95508 89.4902 10.166C89.3262 10.3652 89.1797 10.4648 89.0508 10.4648C89.0273 10.4648 88.8809 10.3945 88.6113 10.2539C88.3418 10.1016 87.9961 9.9668 87.5742 9.84961C87.1641 9.7207 86.707 9.65625 86.2031 9.65625C85.4062 9.65625 84.7441 9.83789 84.2168 10.2012C83.7012 10.5527 83.4434 11.0273 83.4434 11.625C83.4434 12.3281 83.6309 12.8906 84.0059 13.3125C84.3809 13.7344 85.002 14.0801 85.8691 14.3496C87.2051 14.7598 88.2246 15.1699 88.9277 15.5801C89.6309 15.9902 90.1289 16.4941 90.4219 17.0918C90.7266 17.6777 90.8789 18.4512 90.8789 19.4121C90.8789 20.3262 90.6328 21.1582 90.1406 21.9082C89.6484 22.6465 88.9805 23.2324 88.1367 23.666C87.293 24.0879 86.3613 24.2988 85.3418 24.2988ZM96.1523 3.71484C95.3203 3.71484 94.9043 3.48633 94.9043 3.0293V1.18359C94.9043 0.726562 95.3203 0.498047 96.1523 0.498047H96.5215C97.3652 0.498047 97.7871 0.726562 97.7871 1.18359V3.0293C97.7871 3.48633 97.3652 3.71484 96.5215 3.71484H96.1523ZM96.2754 24.0527C95.4434 24.0527 95.0273 23.8242 95.0273 23.3672V8.28516C95.0273 7.82812 95.4434 7.59961 96.2754 7.59961H96.3984C97.2422 7.59961 97.6641 7.82812 97.6641 8.28516V23.3672C97.6641 23.8242 97.2422 24.0527 96.3984 24.0527H96.2754ZM109.793 24.1758C107.203 24.1758 105.27 23.5137 103.992 22.1895C102.727 20.8535 102.094 18.709 102.094 15.7559C102.094 12.7676 102.803 10.6406 104.221 9.375C105.639 8.10938 107.402 7.47656 109.512 7.47656C110.297 7.47656 111.053 7.54688 111.779 7.6875C112.506 7.81641 113.092 7.99219 113.537 8.21484C113.982 8.4375 114.205 8.67188 114.205 8.91797C114.205 9.08203 114.146 9.29883 114.029 9.56836C113.924 9.83789 113.789 10.0781 113.625 10.2891C113.473 10.4883 113.332 10.5879 113.203 10.5879C113.168 10.5879 113.115 10.5762 113.045 10.5527C112.975 10.5176 112.91 10.4883 112.852 10.4648C111.797 9.97266 110.66 9.72656 109.441 9.72656C108 9.72656 106.887 10.2012 106.102 11.1504C105.316 12.0879 104.924 13.5996 104.924 15.6855C104.924 17.1621 105.082 18.3574 105.398 19.2715C105.715 20.1738 106.225 20.8418 106.928 21.2754C107.643 21.709 108.592 21.9258 109.775 21.9258C111.076 21.9258 112.248 21.6562 113.291 21.1172C113.396 21.0938 113.473 21.0703 113.52 21.0469C113.578 21.0117 113.619 20.9941 113.643 20.9941C113.771 20.9941 113.918 21.0938 114.082 21.293C114.246 21.4922 114.387 21.7207 114.504 21.9785C114.633 22.2363 114.697 22.4414 114.697 22.5938C114.697 22.8398 114.475 23.0859 114.029 23.332C113.584 23.5781 112.98 23.7832 112.219 23.9473C111.469 24.0996 110.66 24.1758 109.793 24.1758ZM119.531 24.0527C119.098 24.0527 118.781 24 118.582 23.8945C118.395 23.7773 118.301 23.6016 118.301 23.3672V3.06445C118.301 2.72461 118.371 2.48438 118.512 2.34375C118.664 2.20312 118.904 2.13281 119.232 2.13281H125.561C127.389 2.13281 129.006 2.57227 130.412 3.45117C131.83 4.31836 132.539 5.91797 132.539 8.25C132.539 9.98438 132.135 11.332 131.326 12.293C130.518 13.2422 129.609 13.8809 128.602 14.209C127.594 14.5254 126.686 14.6836 125.877 14.6836H121.025V23.3672C121.025 23.6016 120.926 23.7773 120.727 23.8945C120.527 24 120.217 24.0527 119.795 24.0527H119.531ZM125.912 12.3105C126.439 12.3105 126.99 12.1992 127.564 11.9766C128.139 11.7422 128.637 11.3262 129.059 10.7285C129.48 10.1191 129.691 9.29297 129.691 8.25C129.691 6.85547 129.275 5.88281 128.443 5.33203C127.623 4.78125 126.633 4.50586 125.473 4.50586H121.025V12.3105H125.912ZM137.531 24.0527C137.086 24.0527 136.764 24 136.564 23.8945C136.365 23.7773 136.266 23.6016 136.266 23.3672V12.3984C136.266 11.0391 136.201 10.0605 136.072 9.46289C135.943 8.85352 135.879 8.51953 135.879 8.46094C135.879 8.20312 136.072 8.02148 136.459 7.91602C136.857 7.79883 137.232 7.74023 137.584 7.74023C137.865 7.74023 138.076 7.89258 138.217 8.19727C138.357 8.49023 138.48 8.90625 138.586 9.44531L138.674 9.81445C139.787 8.25586 140.994 7.47656 142.295 7.47656C142.893 7.47656 143.344 7.58789 143.648 7.81055C143.953 8.02148 144.105 8.30859 144.105 8.67188C144.105 9.02344 144.041 9.39844 143.912 9.79688C143.795 10.1836 143.654 10.377 143.49 10.377C143.408 10.377 143.262 10.3418 143.051 10.2715C142.863 10.1895 142.676 10.1309 142.488 10.0957C142.301 10.0488 142.061 10.0254 141.768 10.0254C141.287 10.0254 140.83 10.166 140.396 10.4473C139.975 10.7285 139.617 11.0391 139.324 11.3789C139.031 11.7188 138.885 11.9062 138.885 11.9414V23.3672C138.885 23.6016 138.785 23.7773 138.586 23.8945C138.387 24 138.076 24.0527 137.654 24.0527H137.531ZM153.844 24.1758C151.488 24.1758 149.689 23.4727 148.447 22.0664C147.217 20.6484 146.602 18.5918 146.602 15.8965C146.602 13.2012 147.229 11.127 148.482 9.67383C149.736 8.20898 151.523 7.47656 153.844 7.47656C156.141 7.47656 157.898 8.20312 159.117 9.65625C160.336 11.0977 160.945 13.1777 160.945 15.8965C160.945 18.6035 160.342 20.6602 159.135 22.0664C157.939 23.4727 156.176 24.1758 153.844 24.1758ZM153.756 21.9258C155.279 21.9258 156.404 21.4336 157.131 20.4492C157.857 19.4531 158.221 17.918 158.221 15.8438C158.221 13.7578 157.857 12.2168 157.131 11.2207C156.404 10.2246 155.279 9.72656 153.756 9.72656C152.244 9.72656 151.131 10.2246 150.416 11.2207C149.701 12.2051 149.344 13.7461 149.344 15.8438C149.344 17.9297 149.695 19.4648 150.398 20.4492C151.113 21.4336 152.232 21.9258 153.756 21.9258ZM170.35 24.1758C169.131 24.1758 168.064 23.8242 167.15 23.1211C166.236 22.4062 165.527 21.416 165.023 20.1504C164.531 18.8848 164.285 17.4492 164.285 15.8438C164.285 14.0742 164.549 12.5625 165.076 11.3086C165.615 10.043 166.365 9.08789 167.326 8.44336C168.287 7.79883 169.395 7.47656 170.648 7.47656C171.551 7.47656 172.348 7.61133 173.039 7.88086C173.742 8.15039 174.434 8.54297 175.113 9.05859V1.18359C175.113 0.726562 175.523 0.498047 176.344 0.498047H176.484C177.316 0.498047 177.732 0.726562 177.732 1.18359V19.377C177.732 20.7363 177.797 21.7207 177.926 22.3301C178.055 22.9277 178.119 23.2559 178.119 23.3145C178.119 23.5723 177.92 23.7598 177.521 23.877C177.135 23.9824 176.771 24.0352 176.432 24.0352C176.197 24.0352 176.01 23.9238 175.869 23.7012C175.729 23.4785 175.629 23.2559 175.57 23.0332C175.523 22.7988 175.441 22.4004 175.324 21.8379C173.836 23.3965 172.178 24.1758 170.35 24.1758ZM170.895 21.9082C171.586 21.9082 172.301 21.7207 173.039 21.3457C173.789 20.9707 174.48 20.4375 175.113 19.7461V11.1855C173.988 10.248 172.705 9.7793 171.264 9.7793C169.869 9.81445 168.814 10.3242 168.1 11.3086C167.396 12.293 167.045 13.7227 167.045 15.5977C167.045 17.6133 167.373 19.1719 168.029 20.2734C168.697 21.3633 169.652 21.9082 170.895 21.9082ZM187.787 24.1758C186.193 24.1758 184.945 23.7305 184.043 22.8398C183.141 21.9375 182.689 20.6953 182.689 19.1133V8.28516C182.689 7.82812 183.111 7.59961 183.955 7.59961H184.078C184.91 7.59961 185.326 7.82812 185.326 8.28516V18.8672C185.326 19.8281 185.602 20.5781 186.152 21.1172C186.715 21.6445 187.5 21.9082 188.508 21.9082C189.211 21.9082 189.914 21.7148 190.617 21.3281C191.32 20.9297 191.93 20.3906 192.445 19.7109V8.28516C192.445 7.82812 192.861 7.59961 193.693 7.59961H193.816C194.66 7.59961 195.082 7.82812 195.082 8.28516V19.377C195.082 20.7363 195.141 21.7207 195.258 22.3301C195.375 22.9277 195.434 23.2559 195.434 23.3145C195.434 23.5723 195.24 23.7598 194.854 23.877C194.467 23.9824 194.104 24.0352 193.764 24.0352C193.471 24.0352 193.254 23.8711 193.113 23.543C192.973 23.2031 192.867 22.8574 192.797 22.5059C192.738 22.1543 192.697 21.9316 192.674 21.8379C192.018 22.5762 191.256 23.1504 190.389 23.5605C189.533 23.9707 188.666 24.1758 187.787 24.1758ZM207.07 24.1758C204.48 24.1758 202.547 23.5137 201.27 22.1895C200.004 20.8535 199.371 18.709 199.371 15.7559C199.371 12.7676 200.08 10.6406 201.498 9.375C202.916 8.10938 204.68 7.47656 206.789 7.47656C207.574 7.47656 208.33 7.54688 209.057 7.6875C209.783 7.81641 210.369 7.99219 210.814 8.21484C211.26 8.4375 211.482 8.67188 211.482 8.91797C211.482 9.08203 211.424 9.29883 211.307 9.56836C211.201 9.83789 211.066 10.0781 210.902 10.2891C210.75 10.4883 210.609 10.5879 210.48 10.5879C210.445 10.5879 210.393 10.5762 210.322 10.5527C210.252 10.5176 210.188 10.4883 210.129 10.4648C209.074 9.97266 207.938 9.72656 206.719 9.72656C205.277 9.72656 204.164 10.2012 203.379 11.1504C202.594 12.0879 202.201 13.5996 202.201 15.6855C202.201 17.1621 202.359 18.3574 202.676 19.2715C202.992 20.1738 203.502 20.8418 204.205 21.2754C204.92 21.709 205.869 21.9258 207.053 21.9258C208.354 21.9258 209.525 21.6562 210.568 21.1172C210.674 21.0938 210.75 21.0703 210.797 21.0469C210.855 21.0117 210.896 20.9941 210.92 20.9941C211.049 20.9941 211.195 21.0938 211.359 21.293C211.523 21.4922 211.664 21.7207 211.781 21.9785C211.91 22.2363 211.975 22.4414 211.975 22.5938C211.975 22.8398 211.752 23.0859 211.307 23.332C210.861 23.5781 210.258 23.7832 209.496 23.9473C208.746 24.0996 207.938 24.1758 207.07 24.1758ZM220.289 24.1758C219.246 24.1758 218.314 23.8594 217.494 23.2266C216.674 22.5938 216.264 21.4746 216.264 19.8691V9.90234H214.699C214.477 9.90234 214.312 9.83203 214.207 9.69141C214.113 9.53906 214.066 9.29883 214.066 8.9707V8.58398C214.066 8.25586 214.113 8.02148 214.207 7.88086C214.312 7.72852 214.477 7.65234 214.699 7.65234H216.264L216.633 4.38281C216.656 3.92578 216.99 3.69727 217.635 3.69727H217.934C218.262 3.69727 218.502 3.75586 218.654 3.87305C218.807 3.97852 218.883 4.14844 218.883 4.38281V7.65234H221.502C221.725 7.65234 221.883 7.72852 221.977 7.88086C222.082 8.02148 222.135 8.25586 222.135 8.58398V8.9707C222.135 9.29883 222.082 9.53906 221.977 9.69141C221.883 9.83203 221.725 9.90234 221.502 9.90234H218.883V19.623C218.883 20.4785 219.029 21.0762 219.322 21.416C219.627 21.7559 220.037 21.9258 220.553 21.9258C220.951 21.9258 221.256 21.9023 221.467 21.8555C221.689 21.8086 221.836 21.7852 221.906 21.7852C222.094 21.7852 222.246 21.9727 222.363 22.3477C222.492 22.7227 222.557 23.0215 222.557 23.2441C222.557 23.8652 221.801 24.1758 220.289 24.1758Z" fill="#F9FFB9"/>
<path d="M207.51 68.8984C207.123 68.8984 206.818 68.8223 206.596 68.6699C206.385 68.5059 206.279 68.2891 206.279 68.0195C206.279 66.8594 206.461 65.8164 206.824 64.8906C207.199 63.9531 207.645 63.2207 208.16 62.6934C208.676 62.166 209.115 61.9023 209.479 61.9023C209.713 61.9023 209.924 61.9375 210.111 62.0078C210.299 62.0781 210.393 62.2012 210.393 62.377C210.393 62.4824 210.352 62.6289 210.27 62.8164C210.188 62.9922 210.135 63.0977 210.111 63.1328C209.748 63.8125 209.479 64.5391 209.303 65.3125C209.127 66.0742 209.039 66.9355 209.039 67.8965C209.039 68.2012 208.934 68.4473 208.723 68.6348C208.523 68.8105 208.219 68.8984 207.809 68.8984H207.51ZM203.168 68.8984C202.781 68.8984 202.477 68.8223 202.254 68.6699C202.043 68.5059 201.938 68.2891 201.938 68.0195C201.938 66.8594 202.119 65.8164 202.482 64.8906C202.857 63.9531 203.303 63.2207 203.818 62.6934C204.334 62.166 204.773 61.9023 205.137 61.9023C205.371 61.9023 205.582 61.9375 205.77 62.0078C205.957 62.0781 206.051 62.2012 206.051 62.377C206.051 62.4824 206.01 62.6289 205.928 62.8164C205.846 62.9922 205.793 63.0977 205.77 63.1328C205.406 63.8125 205.137 64.5391 204.961 65.3125C204.785 66.0742 204.697 66.9355 204.697 67.8965C204.697 68.2012 204.592 68.4473 204.381 68.6348C204.182 68.8105 203.877 68.8984 203.467 68.8984H203.168ZM212.414 85.0527C211.945 85.0527 211.605 85.0117 211.395 84.9297C211.184 84.8359 211.078 84.7012 211.078 84.5254C211.078 84.4434 211.107 84.3027 211.166 84.1035L218.566 63.5547C218.684 63.2148 219.1 63.0449 219.814 63.0449H220.729C221.443 63.0449 221.859 63.2148 221.977 63.5547L229.377 84.1211C229.436 84.25 229.465 84.3848 229.465 84.5254C229.465 84.877 229.025 85.0527 228.146 85.0527H227.883C227.156 85.0527 226.734 84.8887 226.617 84.5605L224.789 79.4277H215.613L213.82 84.5605C213.715 84.8887 213.299 85.0527 212.572 85.0527H212.414ZM223.945 77.0547L220.676 67.7559C220.582 67.498 220.506 67.2051 220.447 66.877C220.389 66.5488 220.336 66.2324 220.289 65.9277H220.219C220.078 66.7129 219.92 67.3223 219.744 67.7559L216.475 77.0547H223.945ZM236.9 85.0527C236.162 85.0527 235.74 84.8887 235.635 84.5605L230.607 69.5312C230.537 69.3203 230.502 69.1855 230.502 69.127C230.502 68.9629 230.613 68.834 230.836 68.7402C231.059 68.6465 231.398 68.5996 231.855 68.5996H232.014C232.74 68.5996 233.156 68.7637 233.262 69.0918L236.443 79.0586C236.701 79.832 237 80.8867 237.34 82.2227L237.533 82.9609H237.674L237.885 82.0293C238.143 80.7988 238.383 79.832 238.605 79.1289L241.822 69.0918C241.928 68.7637 242.355 68.5996 243.105 68.5996H243.193C243.979 68.5996 244.371 68.7754 244.371 69.127C244.371 69.2441 244.33 69.3848 244.248 69.5488L239.238 84.5605C239.133 84.8887 238.711 85.0527 237.973 85.0527H236.9ZM251.877 85.1758C250.283 85.1758 248.994 84.7832 248.01 83.998C247.025 83.2129 246.533 82.0469 246.533 80.5C246.533 78.8711 247.031 77.6465 248.027 76.8262C249.023 75.9941 250.236 75.4609 251.666 75.2266C253.107 74.9805 254.854 74.8398 256.904 74.8047V73.3281C256.904 72.543 256.635 71.916 256.096 71.4473C255.568 70.9668 254.695 70.7266 253.477 70.7266C252.551 70.7266 251.736 70.8379 251.033 71.0605C250.342 71.2715 249.691 71.5293 249.082 71.834C248.824 71.9629 248.666 72.0273 248.607 72.0273C248.467 72.0273 248.309 71.9277 248.133 71.7285C247.969 71.5176 247.822 71.2832 247.693 71.0254C247.576 70.7676 247.518 70.5801 247.518 70.4629C247.518 70.1934 247.793 69.9004 248.344 69.584C248.906 69.2676 249.639 69.0039 250.541 68.793C251.443 68.582 252.387 68.4766 253.371 68.4766C255.328 68.4766 256.846 68.9043 257.924 69.7598C259.002 70.6152 259.541 71.8164 259.541 73.3633V80.377C259.541 81.7363 259.6 82.7207 259.717 83.3301C259.846 83.9277 259.91 84.2559 259.91 84.3145C259.91 84.5723 259.711 84.7598 259.312 84.877C258.926 84.9824 258.562 85.0352 258.223 85.0352C257.941 85.0352 257.73 84.877 257.59 84.5605C257.461 84.2441 257.332 83.7871 257.203 83.1895L257.133 82.8379C256.488 83.5527 255.727 84.1211 254.848 84.543C253.98 84.9648 252.99 85.1758 251.877 85.1758ZM252.018 82.9082C253.049 82.9082 253.928 82.7207 254.654 82.3457C255.381 81.9707 256.131 81.4375 256.904 80.7461V77.0547C255.357 77.0664 254.086 77.1309 253.09 77.248C252.094 77.3652 251.221 77.6641 250.471 78.1445C249.721 78.6133 249.346 79.3457 249.346 80.3418C249.346 81.1738 249.568 81.8125 250.014 82.2578C250.471 82.6914 251.139 82.9082 252.018 82.9082ZM269.438 85.1758C268.395 85.1758 267.463 84.8594 266.643 84.2266C265.822 83.5938 265.412 82.4746 265.412 80.8691V70.9023H263.848C263.625 70.9023 263.461 70.832 263.355 70.6914C263.262 70.5391 263.215 70.2988 263.215 69.9707V69.584C263.215 69.2559 263.262 69.0215 263.355 68.8809C263.461 68.7285 263.625 68.6523 263.848 68.6523H265.412L265.781 65.3828C265.805 64.9258 266.139 64.6973 266.783 64.6973H267.082C267.41 64.6973 267.65 64.7559 267.803 64.873C267.955 64.9785 268.031 65.1484 268.031 65.3828V68.6523H270.65C270.873 68.6523 271.031 68.7285 271.125 68.8809C271.23 69.0215 271.283 69.2559 271.283 69.584V69.9707C271.283 70.2988 271.23 70.5391 271.125 70.6914C271.031 70.832 270.873 70.9023 270.65 70.9023H268.031V80.623C268.031 81.4785 268.178 82.0762 268.471 82.416C268.775 82.7559 269.186 82.9258 269.701 82.9258C270.1 82.9258 270.404 82.9023 270.615 82.8555C270.838 82.8086 270.984 82.7852 271.055 82.7852C271.242 82.7852 271.395 82.9727 271.512 83.3477C271.641 83.7227 271.705 84.0215 271.705 84.2441C271.705 84.8652 270.949 85.1758 269.438 85.1758ZM279.65 85.1758C278.057 85.1758 276.768 84.7832 275.783 83.998C274.799 83.2129 274.307 82.0469 274.307 80.5C274.307 78.8711 274.805 77.6465 275.801 76.8262C276.797 75.9941 278.01 75.4609 279.439 75.2266C280.881 74.9805 282.627 74.8398 284.678 74.8047V73.3281C284.678 72.543 284.408 71.916 283.869 71.4473C283.342 70.9668 282.469 70.7266 281.25 70.7266C280.324 70.7266 279.51 70.8379 278.807 71.0605C278.115 71.2715 277.465 71.5293 276.855 71.834C276.598 71.9629 276.439 72.0273 276.381 72.0273C276.24 72.0273 276.082 71.9277 275.906 71.7285C275.742 71.5176 275.596 71.2832 275.467 71.0254C275.35 70.7676 275.291 70.5801 275.291 70.4629C275.291 70.1934 275.566 69.9004 276.117 69.584C276.68 69.2676 277.412 69.0039 278.314 68.793C279.217 68.582 280.16 68.4766 281.145 68.4766C283.102 68.4766 284.619 68.9043 285.697 69.7598C286.775 70.6152 287.314 71.8164 287.314 73.3633V80.377C287.314 81.7363 287.373 82.7207 287.49 83.3301C287.619 83.9277 287.684 84.2559 287.684 84.3145C287.684 84.5723 287.484 84.7598 287.086 84.877C286.699 84.9824 286.336 85.0352 285.996 85.0352C285.715 85.0352 285.504 84.877 285.363 84.5605C285.234 84.2441 285.105 83.7871 284.977 83.1895L284.906 82.8379C284.262 83.5527 283.5 84.1211 282.621 84.543C281.754 84.9648 280.764 85.1758 279.65 85.1758ZM279.791 82.9082C280.822 82.9082 281.701 82.7207 282.428 82.3457C283.154 81.9707 283.904 81.4375 284.678 80.7461V77.0547C283.131 77.0664 281.859 77.1309 280.863 77.248C279.867 77.3652 278.994 77.6641 278.244 78.1445C277.494 78.6133 277.119 79.3457 277.119 80.3418C277.119 81.1738 277.342 81.8125 277.787 82.2578C278.244 82.6914 278.912 82.9082 279.791 82.9082ZM293.906 85.0527C293.461 85.0527 293.139 85 292.939 84.8945C292.74 84.7773 292.641 84.6016 292.641 84.3672V73.3984C292.641 72.0391 292.576 71.0605 292.447 70.4629C292.318 69.8535 292.254 69.5195 292.254 69.4609C292.254 69.2031 292.447 69.0215 292.834 68.916C293.232 68.7988 293.607 68.7402 293.959 68.7402C294.24 68.7402 294.451 68.8926 294.592 69.1973C294.732 69.4902 294.855 69.9062 294.961 70.4453L295.049 70.8145C296.162 69.2559 297.369 68.4766 298.67 68.4766C299.268 68.4766 299.719 68.5879 300.023 68.8105C300.328 69.0215 300.48 69.3086 300.48 69.6719C300.48 70.0234 300.416 70.3984 300.287 70.7969C300.17 71.1836 300.029 71.377 299.865 71.377C299.783 71.377 299.637 71.3418 299.426 71.2715C299.238 71.1895 299.051 71.1309 298.863 71.0957C298.676 71.0488 298.436 71.0254 298.143 71.0254C297.662 71.0254 297.205 71.166 296.771 71.4473C296.35 71.7285 295.992 72.0391 295.699 72.3789C295.406 72.7188 295.26 72.9062 295.26 72.9414V84.3672C295.26 84.6016 295.16 84.7773 294.961 84.8945C294.762 85 294.451 85.0527 294.029 85.0527H293.906ZM303.205 85C303.041 85 302.871 84.8066 302.695 84.4199C302.531 84.0215 302.449 83.6641 302.449 83.3477C302.449 83.1836 302.479 83.0547 302.537 82.9609L315.352 65.5059H304.102C303.879 65.5059 303.715 65.4238 303.609 65.2598C303.516 65.084 303.469 64.8086 303.469 64.4336V64.1875C303.469 63.8125 303.516 63.543 303.609 63.3789C303.715 63.2148 303.879 63.1328 304.102 63.1328H318.41C318.48 63.1328 318.568 63.2266 318.674 63.4141C318.791 63.6016 318.891 63.8242 318.973 64.082C319.055 64.3398 319.096 64.5742 319.096 64.7852C319.096 64.9375 319.066 65.0605 319.008 65.1543L306.193 82.627H318.41C318.633 82.627 318.791 82.709 318.885 82.873C318.99 83.0371 319.043 83.3066 319.043 83.6816V83.9277C319.043 84.3027 318.99 84.5781 318.885 84.7539C318.791 84.918 318.633 85 318.41 85H303.205ZM329.484 85.1758C327.129 85.1758 325.33 84.4727 324.088 83.0664C322.857 81.6484 322.242 79.5918 322.242 76.8965C322.242 74.2012 322.869 72.127 324.123 70.6738C325.377 69.209 327.164 68.4766 329.484 68.4766C331.781 68.4766 333.539 69.2031 334.758 70.6562C335.977 72.0977 336.586 74.1777 336.586 76.8965C336.586 79.6035 335.982 81.6602 334.775 83.0664C333.58 84.4727 331.816 85.1758 329.484 85.1758ZM329.396 82.9258C330.92 82.9258 332.045 82.4336 332.771 81.4492C333.498 80.4531 333.861 78.918 333.861 76.8438C333.861 74.7578 333.498 73.2168 332.771 72.2207C332.045 71.2246 330.92 70.7266 329.396 70.7266C327.885 70.7266 326.771 71.2246 326.057 72.2207C325.342 73.2051 324.984 74.7461 324.984 76.8438C324.984 78.9297 325.336 80.4648 326.039 81.4492C326.754 82.4336 327.873 82.9258 329.396 82.9258ZM342.264 85.0527C341.818 85.0527 341.496 85 341.297 84.8945C341.098 84.7773 340.998 84.6016 340.998 84.3672V73.3984C340.998 72.0391 340.934 71.0605 340.805 70.4629C340.676 69.8535 340.611 69.5195 340.611 69.4609C340.611 69.2031 340.805 69.0215 341.191 68.916C341.59 68.7988 341.965 68.7402 342.316 68.7402C342.609 68.7402 342.826 68.8984 342.967 69.2148C343.107 69.5312 343.207 69.8535 343.266 70.1816C343.336 70.5098 343.383 70.7207 343.406 70.8145C344.062 70.0762 344.818 69.502 345.674 69.0918C346.541 68.6816 347.414 68.4766 348.293 68.4766C349.887 68.4766 351.129 68.9277 352.02 69.8301C352.922 70.7207 353.373 71.9512 353.373 73.5215V84.3672C353.373 84.6016 353.273 84.7773 353.074 84.8945C352.875 85 352.559 85.0527 352.125 85.0527H351.984C351.562 85.0527 351.252 85 351.053 84.8945C350.854 84.7773 350.754 84.6016 350.754 84.3672V73.7852C350.754 72.8242 350.473 72.0801 349.91 71.5527C349.359 71.0137 348.58 70.7441 347.572 70.7441C346.869 70.7441 346.16 70.9434 345.445 71.3418C344.742 71.7285 344.133 72.2617 343.617 72.9414V84.3672C343.617 84.6016 343.518 84.7773 343.318 84.8945C343.119 85 342.809 85.0527 342.387 85.0527H342.264ZM365.098 85.1758C362.508 85.1758 360.58 84.502 359.314 83.1543C358.061 81.7949 357.434 79.7207 357.434 76.9316C357.434 74.166 358.049 72.0684 359.279 70.6387C360.51 69.1973 362.32 68.4766 364.711 68.4766C366.844 68.4766 368.449 69.168 369.527 70.5508C370.617 71.9336 371.162 73.9609 371.162 76.6328C371.162 76.75 371.098 76.9141 370.969 77.125C370.852 77.3242 370.705 77.5059 370.529 77.6699C370.365 77.8223 370.225 77.8984 370.107 77.8984H360.246C360.375 79.6445 360.82 80.9219 361.582 81.7305C362.355 82.5273 363.516 82.9258 365.062 82.9258C365.93 82.9258 366.674 82.8203 367.295 82.6094C367.928 82.3984 368.537 82.1406 369.123 81.8359C369.182 81.8125 369.27 81.7715 369.387 81.7129C369.504 81.6543 369.586 81.625 369.633 81.625C369.762 81.625 369.908 81.7305 370.072 81.9414C370.248 82.1406 370.395 82.3691 370.512 82.627C370.641 82.873 370.705 83.0547 370.705 83.1719C370.705 83.4297 370.447 83.7168 369.932 84.0332C369.416 84.3496 368.725 84.6191 367.857 84.8418C367.002 85.0645 366.082 85.1758 365.098 85.1758ZM368.367 75.6484C368.367 72.3672 367.119 70.7266 364.623 70.7266C361.939 70.7266 360.48 72.3672 360.246 75.6484H368.367ZM378.914 68.4414C378.68 68.4414 378.469 68.4062 378.281 68.3359C378.105 68.2656 378.018 68.1426 378.018 67.9668C378.018 67.8145 378.105 67.5625 378.281 67.2109C378.633 66.5078 378.896 65.7754 379.072 65.0137C379.248 64.2402 379.336 63.3848 379.336 62.4473C379.336 62.1426 379.441 61.8965 379.652 61.709C379.875 61.5215 380.191 61.4277 380.602 61.4277H380.865C381.264 61.4277 381.574 61.5098 381.797 61.6738C382.02 61.8379 382.131 62.0547 382.131 62.3242C382.131 63.4844 381.943 64.5332 381.568 65.4707C381.193 66.3965 380.748 67.123 380.232 67.6504C379.729 68.1777 379.289 68.4414 378.914 68.4414ZM374.572 68.4414C374.338 68.4414 374.127 68.4062 373.939 68.3359C373.764 68.2656 373.676 68.1426 373.676 67.9668C373.676 67.8145 373.764 67.5625 373.939 67.2109C374.291 66.5078 374.555 65.7754 374.73 65.0137C374.906 64.2402 374.994 63.3848 374.994 62.4473C374.994 62.1426 375.1 61.8965 375.311 61.709C375.533 61.5215 375.85 61.4277 376.26 61.4277H376.523C376.922 61.4277 377.232 61.5098 377.455 61.6738C377.678 61.8379 377.789 62.0547 377.789 62.3242C377.789 63.4844 377.602 64.5332 377.227 65.4707C376.852 66.3965 376.406 67.123 375.891 67.6504C375.387 68.1777 374.947 68.4414 374.572 68.4414Z" fill="#B8F9B6"/>
<path d="M219.428 150.324C219.1 150.324 218.859 150.248 218.707 150.096C218.566 149.943 218.496 149.703 218.496 149.375V122.938C218.496 122.609 218.566 122.375 218.707 122.234C218.859 122.082 219.1 122.006 219.428 122.006H223.207C223.441 122.006 223.605 122.076 223.699 122.217C223.793 122.346 223.84 122.574 223.84 122.902V123.061C223.84 123.389 223.793 123.623 223.699 123.764C223.605 123.893 223.441 123.957 223.207 123.957H220.816V148.373H223.207C223.43 148.373 223.588 148.443 223.682 148.584C223.787 148.725 223.84 148.959 223.84 149.287V149.41C223.84 149.738 223.793 149.973 223.699 150.113C223.605 150.254 223.441 150.324 223.207 150.324H219.428ZM231.627 129.898C231.24 129.898 230.936 129.822 230.713 129.67C230.502 129.506 230.396 129.289 230.396 129.02C230.396 127.859 230.578 126.816 230.941 125.891C231.316 124.953 231.762 124.221 232.277 123.693C232.793 123.166 233.232 122.902 233.596 122.902C233.83 122.902 234.041 122.938 234.229 123.008C234.416 123.078 234.51 123.201 234.51 123.377C234.51 123.482 234.469 123.629 234.387 123.816C234.305 123.992 234.252 124.098 234.229 124.133C233.865 124.812 233.596 125.539 233.42 126.312C233.244 127.074 233.156 127.936 233.156 128.896C233.156 129.201 233.051 129.447 232.84 129.635C232.641 129.811 232.336 129.898 231.926 129.898H231.627ZM227.285 129.898C226.898 129.898 226.594 129.822 226.371 129.67C226.16 129.506 226.055 129.289 226.055 129.02C226.055 127.859 226.236 126.816 226.6 125.891C226.975 124.953 227.42 124.221 227.936 123.693C228.451 123.166 228.891 122.902 229.254 122.902C229.488 122.902 229.699 122.938 229.887 123.008C230.074 123.078 230.168 123.201 230.168 123.377C230.168 123.482 230.127 123.629 230.045 123.816C229.963 123.992 229.91 124.098 229.887 124.133C229.523 124.812 229.254 125.539 229.078 126.312C228.902 127.074 228.814 127.936 228.814 128.896C228.814 129.201 228.709 129.447 228.498 129.635C228.299 129.811 227.994 129.898 227.584 129.898H227.285ZM237.727 146C237.504 146 237.346 145.924 237.252 145.771C237.158 145.619 237.111 145.385 237.111 145.068V144.682C237.111 144.354 237.158 144.119 237.252 143.979C237.346 143.826 237.504 143.75 237.727 143.75H243.158V126.893L237.639 127.842C237.439 127.842 237.281 127.666 237.164 127.314C237.059 126.951 237.006 126.594 237.006 126.242C237.006 126.078 237.053 125.955 237.146 125.873C237.24 125.779 237.387 125.709 237.586 125.662L244.811 124.045C245.057 124.045 245.279 124.115 245.479 124.256C245.689 124.385 245.795 124.537 245.795 124.713V143.75H250.418C250.84 143.75 251.051 144.061 251.051 144.682V145.068C251.051 145.689 250.84 146 250.418 146H237.727ZM260.807 146.176C259.494 146.176 258.305 145.777 257.238 144.98C256.172 144.184 255.316 142.953 254.672 141.289C254.039 139.625 253.723 137.545 253.723 135.049C253.723 132.564 254.039 130.49 254.672 128.826C255.316 127.162 256.172 125.932 257.238 125.135C258.305 124.326 259.494 123.922 260.807 123.922C262.119 123.922 263.314 124.326 264.393 125.135C265.482 125.932 266.35 127.162 266.994 128.826C267.639 130.49 267.961 132.564 267.961 135.049C267.961 137.545 267.639 139.625 266.994 141.289C266.35 142.953 265.482 144.184 264.393 144.98C263.314 145.777 262.119 146.176 260.807 146.176ZM260.807 143.926C261.615 143.926 262.354 143.627 263.021 143.029C263.701 142.432 264.252 141.471 264.674 140.146C265.096 138.822 265.307 137.123 265.307 135.049C265.307 132.986 265.096 131.293 264.674 129.969C264.252 128.645 263.701 127.684 263.021 127.086C262.354 126.477 261.615 126.172 260.807 126.172C260.01 126.172 259.271 126.471 258.592 127.068C257.924 127.666 257.385 128.633 256.975 129.969C256.564 131.293 256.359 132.986 256.359 135.049C256.359 137.123 256.564 138.822 256.975 140.146C257.385 141.471 257.924 142.432 258.592 143.029C259.271 143.627 260.01 143.926 260.807 143.926ZM281.039 146.053C280.195 146.053 279.773 145.824 279.773 145.367V125.064C279.773 124.736 279.85 124.502 280.002 124.361C280.154 124.209 280.395 124.133 280.723 124.133H285.979C288.475 124.133 290.35 124.572 291.604 125.451C292.869 126.33 293.502 127.73 293.502 129.652C293.502 130.953 293.186 132.049 292.553 132.939C291.932 133.818 291.053 134.48 289.916 134.926V135.049C290.525 135.26 291.023 135.67 291.41 136.279C291.809 136.877 292.248 137.768 292.729 138.951L295.172 145.121C295.23 145.332 295.26 145.479 295.26 145.561C295.26 145.889 294.82 146.053 293.941 146.053H293.625C293.309 146.053 293.033 146.012 292.799 145.93C292.576 145.836 292.436 145.713 292.377 145.561L290.004 139.426C289.699 138.629 289.342 138.008 288.932 137.562C288.521 137.117 288.035 136.807 287.473 136.631C286.91 136.455 286.201 136.367 285.346 136.367H282.533V145.367C282.533 145.824 282.117 146.053 281.285 146.053H281.039ZM286.646 133.994C287.385 133.994 288.059 133.818 288.668 133.467C289.289 133.115 289.775 132.646 290.127 132.061C290.49 131.463 290.672 130.83 290.672 130.162C290.672 128.932 290.297 128.018 289.547 127.42C288.797 126.811 287.76 126.506 286.436 126.506H282.533V133.994H286.646ZM305.227 146.176C302.637 146.176 300.709 145.502 299.443 144.154C298.189 142.795 297.562 140.721 297.562 137.932C297.562 135.166 298.178 133.068 299.408 131.639C300.639 130.197 302.449 129.477 304.84 129.477C306.973 129.477 308.578 130.168 309.656 131.551C310.746 132.934 311.291 134.961 311.291 137.633C311.291 137.75 311.227 137.914 311.098 138.125C310.98 138.324 310.834 138.506 310.658 138.67C310.494 138.822 310.354 138.898 310.236 138.898H300.375C300.504 140.645 300.949 141.922 301.711 142.73C302.484 143.527 303.645 143.926 305.191 143.926C306.059 143.926 306.803 143.82 307.424 143.609C308.057 143.398 308.666 143.141 309.252 142.836C309.311 142.812 309.398 142.771 309.516 142.713C309.633 142.654 309.715 142.625 309.762 142.625C309.891 142.625 310.037 142.73 310.201 142.941C310.377 143.141 310.523 143.369 310.641 143.627C310.77 143.873 310.834 144.055 310.834 144.172C310.834 144.43 310.576 144.717 310.061 145.033C309.545 145.35 308.854 145.619 307.986 145.842C307.131 146.064 306.211 146.176 305.227 146.176ZM308.496 136.648C308.496 133.367 307.248 131.727 304.752 131.727C302.068 131.727 300.609 133.367 300.375 136.648H308.496ZM326.391 152.504C325.57 152.504 325.16 152.275 325.16 151.818V144.594C324.48 145.109 323.789 145.502 323.086 145.771C322.395 146.041 321.598 146.176 320.695 146.176C319.441 146.176 318.334 145.854 317.373 145.209C316.424 144.564 315.68 143.621 315.141 142.379C314.602 141.125 314.332 139.625 314.332 137.879C314.332 136.238 314.578 134.785 315.07 133.52C315.562 132.242 316.266 131.252 317.18 130.549C318.105 129.834 319.178 129.477 320.396 129.477C322.225 129.477 323.883 130.256 325.371 131.814C325.523 131.018 325.693 130.396 325.881 129.951C325.939 129.822 326.033 129.734 326.162 129.688C326.303 129.629 326.49 129.6 326.725 129.6H326.848C327.469 129.6 327.779 129.828 327.779 130.285V151.818C327.779 152.275 327.363 152.504 326.531 152.504H326.391ZM321.293 143.873C322.723 143.873 324.012 143.404 325.16 142.467V133.906C324.527 133.215 323.836 132.682 323.086 132.307C322.348 131.932 321.633 131.744 320.941 131.744C319.699 131.744 318.744 132.295 318.076 133.396C317.42 134.486 317.092 136.039 317.092 138.055C317.092 139.93 317.443 141.359 318.146 142.344C318.85 143.328 319.898 143.838 321.293 143.873ZM337.869 146.176C336.275 146.176 335.027 145.73 334.125 144.84C333.223 143.938 332.771 142.695 332.771 141.113V130.285C332.771 129.828 333.193 129.6 334.037 129.6H334.16C334.992 129.6 335.408 129.828 335.408 130.285V140.867C335.408 141.828 335.684 142.578 336.234 143.117C336.797 143.645 337.582 143.908 338.59 143.908C339.293 143.908 339.996 143.715 340.699 143.328C341.402 142.93 342.012 142.391 342.527 141.711V130.285C342.527 129.828 342.943 129.6 343.775 129.6H343.898C344.742 129.6 345.164 129.828 345.164 130.285V141.377C345.164 142.736 345.223 143.721 345.34 144.33C345.457 144.928 345.516 145.256 345.516 145.314C345.516 145.572 345.322 145.76 344.936 145.877C344.549 145.982 344.186 146.035 343.846 146.035C343.553 146.035 343.336 145.871 343.195 145.543C343.055 145.203 342.949 144.857 342.879 144.506C342.82 144.154 342.779 143.932 342.756 143.838C342.1 144.576 341.338 145.15 340.471 145.561C339.615 145.971 338.748 146.176 337.869 146.176ZM357.223 146.176C354.633 146.176 352.705 145.502 351.439 144.154C350.186 142.795 349.559 140.721 349.559 137.932C349.559 135.166 350.174 133.068 351.404 131.639C352.635 130.197 354.445 129.477 356.836 129.477C358.969 129.477 360.574 130.168 361.652 131.551C362.742 132.934 363.287 134.961 363.287 137.633C363.287 137.75 363.223 137.914 363.094 138.125C362.977 138.324 362.83 138.506 362.654 138.67C362.49 138.822 362.35 138.898 362.232 138.898H352.371C352.5 140.645 352.945 141.922 353.707 142.73C354.48 143.527 355.641 143.926 357.188 143.926C358.055 143.926 358.799 143.82 359.42 143.609C360.053 143.398 360.662 143.141 361.248 142.836C361.307 142.812 361.395 142.771 361.512 142.713C361.629 142.654 361.711 142.625 361.758 142.625C361.887 142.625 362.033 142.73 362.197 142.941C362.373 143.141 362.52 143.369 362.637 143.627C362.766 143.873 362.83 144.055 362.83 144.172C362.83 144.43 362.572 144.717 362.057 145.033C361.541 145.35 360.85 145.619 359.982 145.842C359.127 146.064 358.207 146.176 357.223 146.176ZM360.492 136.648C360.492 133.367 359.244 131.727 356.748 131.727C354.064 131.727 352.605 133.367 352.371 136.648H360.492ZM370.775 146.299C369.896 146.299 369.076 146.188 368.314 145.965C367.553 145.742 366.943 145.473 366.486 145.156C366.041 144.828 365.818 144.541 365.818 144.295C365.818 144.178 365.877 143.99 365.994 143.732C366.123 143.475 366.27 143.246 366.434 143.047C366.609 142.836 366.768 142.73 366.908 142.73C366.943 142.73 367.049 142.789 367.225 142.906C367.693 143.211 368.186 143.469 368.701 143.68C369.229 143.891 369.855 143.996 370.582 143.996C372.621 143.996 373.641 143.152 373.641 141.465C373.641 140.984 373.541 140.58 373.342 140.252C373.154 139.924 372.832 139.637 372.375 139.391C371.93 139.133 371.314 138.887 370.529 138.652C369.404 138.324 368.525 137.949 367.893 137.527C367.271 137.105 366.832 136.613 366.574 136.051C366.316 135.477 366.188 134.785 366.188 133.977C366.188 133.109 366.404 132.33 366.838 131.639C367.283 130.947 367.898 130.408 368.684 130.021C369.48 129.635 370.377 129.441 371.373 129.441C372.064 129.441 372.727 129.506 373.359 129.635C374.004 129.764 374.52 129.934 374.906 130.145C375.305 130.344 375.504 130.555 375.504 130.777C375.504 130.941 375.445 131.164 375.328 131.445C375.223 131.715 375.088 131.955 374.924 132.166C374.76 132.365 374.613 132.465 374.484 132.465C374.461 132.465 374.314 132.395 374.045 132.254C373.775 132.102 373.43 131.967 373.008 131.85C372.598 131.721 372.141 131.656 371.637 131.656C370.84 131.656 370.178 131.838 369.65 132.201C369.135 132.553 368.877 133.027 368.877 133.625C368.877 134.328 369.064 134.891 369.439 135.312C369.814 135.734 370.436 136.08 371.303 136.35C372.639 136.76 373.658 137.17 374.361 137.58C375.064 137.99 375.562 138.494 375.855 139.092C376.16 139.678 376.312 140.451 376.312 141.412C376.312 142.326 376.066 143.158 375.574 143.908C375.082 144.646 374.414 145.232 373.57 145.666C372.727 146.088 371.795 146.299 370.775 146.299ZM384.996 146.176C383.953 146.176 383.021 145.859 382.201 145.227C381.381 144.594 380.971 143.475 380.971 141.869V131.902H379.406C379.184 131.902 379.02 131.832 378.914 131.691C378.82 131.539 378.773 131.299 378.773 130.971V130.584C378.773 130.256 378.82 130.021 378.914 129.881C379.02 129.729 379.184 129.652 379.406 129.652H380.971L381.34 126.383C381.363 125.926 381.697 125.697 382.342 125.697H382.641C382.969 125.697 383.209 125.756 383.361 125.873C383.514 125.979 383.59 126.148 383.59 126.383V129.652H386.209C386.432 129.652 386.59 129.729 386.684 129.881C386.789 130.021 386.842 130.256 386.842 130.584V130.971C386.842 131.299 386.789 131.539 386.684 131.691C386.59 131.832 386.432 131.902 386.209 131.902H383.59V141.623C383.59 142.479 383.736 143.076 384.029 143.416C384.334 143.756 384.744 143.926 385.26 143.926C385.658 143.926 385.963 143.902 386.174 143.855C386.396 143.809 386.543 143.785 386.613 143.785C386.801 143.785 386.953 143.973 387.07 144.348C387.199 144.723 387.264 145.021 387.264 145.244C387.264 145.865 386.508 146.176 384.996 146.176ZM399.832 125.715C399 125.715 398.584 125.486 398.584 125.029V123.184C398.584 122.727 399 122.498 399.832 122.498H400.201C401.045 122.498 401.467 122.727 401.467 123.184V125.029C401.467 125.486 401.045 125.715 400.201 125.715H399.832ZM399.955 146.053C399.123 146.053 398.707 145.824 398.707 145.367V130.285C398.707 129.828 399.123 129.6 399.955 129.6H400.078C400.922 129.6 401.344 129.828 401.344 130.285V145.367C401.344 145.824 400.922 146.053 400.078 146.053H399.955ZM408.111 146.053C407.666 146.053 407.344 146 407.145 145.895C406.945 145.777 406.846 145.602 406.846 145.367V134.398C406.846 133.039 406.781 132.061 406.652 131.463C406.523 130.854 406.459 130.52 406.459 130.461C406.459 130.203 406.652 130.021 407.039 129.916C407.438 129.799 407.812 129.74 408.164 129.74C408.457 129.74 408.674 129.898 408.814 130.215C408.955 130.531 409.055 130.854 409.113 131.182C409.184 131.51 409.23 131.721 409.254 131.814C409.91 131.076 410.666 130.502 411.521 130.092C412.389 129.682 413.262 129.477 414.141 129.477C415.734 129.477 416.977 129.928 417.867 130.83C418.77 131.721 419.221 132.951 419.221 134.521V145.367C419.221 145.602 419.121 145.777 418.922 145.895C418.723 146 418.406 146.053 417.973 146.053H417.832C417.41 146.053 417.1 146 416.9 145.895C416.701 145.777 416.602 145.602 416.602 145.367V134.785C416.602 133.824 416.32 133.08 415.758 132.553C415.207 132.014 414.428 131.744 413.42 131.744C412.717 131.744 412.008 131.943 411.293 132.342C410.59 132.729 409.98 133.262 409.465 133.941V145.367C409.465 145.602 409.365 145.777 409.166 145.895C408.967 146 408.656 146.053 408.234 146.053H408.111ZM431.051 146C430.828 146 430.67 145.924 430.576 145.771C430.482 145.619 430.436 145.385 430.436 145.068V144.682C430.436 144.354 430.482 144.119 430.576 143.979C430.67 143.826 430.828 143.75 431.051 143.75H436.482V126.893L430.963 127.842C430.764 127.842 430.605 127.666 430.488 127.314C430.383 126.951 430.33 126.594 430.33 126.242C430.33 126.078 430.377 125.955 430.471 125.873C430.564 125.779 430.711 125.709 430.91 125.662L438.135 124.045C438.381 124.045 438.604 124.115 438.803 124.256C439.014 124.385 439.119 124.537 439.119 124.713V143.75H443.742C444.164 143.75 444.375 144.061 444.375 144.682V145.068C444.375 145.689 444.164 146 443.742 146H431.051ZM457.629 146.053C456.785 146.053 456.363 145.824 456.363 145.367V124.748C456.363 124.279 456.785 124.045 457.629 124.045H457.875C458.707 124.045 459.123 124.279 459.123 124.748V133.59H470.443V124.748C470.443 124.279 470.859 124.045 471.691 124.045H471.938C472.77 124.045 473.186 124.279 473.186 124.748V145.367C473.186 145.602 473.086 145.777 472.887 145.895C472.688 146 472.371 146.053 471.938 146.053H471.691C471.258 146.053 470.941 146 470.742 145.895C470.543 145.777 470.443 145.602 470.443 145.367V135.963H459.123V145.367C459.123 145.824 458.707 146.053 457.875 146.053H457.629ZM485.227 146.176C482.871 146.176 481.072 145.473 479.83 144.066C478.6 142.648 477.984 140.592 477.984 137.896C477.984 135.201 478.611 133.127 479.865 131.674C481.119 130.209 482.906 129.477 485.227 129.477C487.523 129.477 489.281 130.203 490.5 131.656C491.719 133.098 492.328 135.178 492.328 137.896C492.328 140.604 491.725 142.66 490.518 144.066C489.322 145.473 487.559 146.176 485.227 146.176ZM485.139 143.926C486.662 143.926 487.787 143.434 488.514 142.449C489.24 141.453 489.604 139.918 489.604 137.844C489.604 135.758 489.24 134.217 488.514 133.221C487.787 132.225 486.662 131.727 485.139 131.727C483.627 131.727 482.514 132.225 481.799 133.221C481.084 134.205 480.727 135.746 480.727 137.844C480.727 139.93 481.078 141.465 481.781 142.449C482.496 143.434 483.615 143.926 485.139 143.926ZM501.486 146.176C499.893 146.176 498.645 145.73 497.742 144.84C496.84 143.938 496.389 142.695 496.389 141.113V130.285C496.389 129.828 496.811 129.6 497.654 129.6H497.777C498.609 129.6 499.025 129.828 499.025 130.285V140.867C499.025 141.828 499.301 142.578 499.852 143.117C500.414 143.645 501.199 143.908 502.207 143.908C502.91 143.908 503.613 143.715 504.316 143.328C505.02 142.93 505.629 142.391 506.145 141.711V130.285C506.145 129.828 506.561 129.6 507.393 129.6H507.516C508.359 129.6 508.781 129.828 508.781 130.285V141.377C508.781 142.736 508.84 143.721 508.957 144.33C509.074 144.928 509.133 145.256 509.133 145.314C509.133 145.572 508.939 145.76 508.553 145.877C508.166 145.982 507.803 146.035 507.463 146.035C507.17 146.035 506.953 145.871 506.812 145.543C506.672 145.203 506.566 144.857 506.496 144.506C506.438 144.154 506.396 143.932 506.373 143.838C505.717 144.576 504.955 145.15 504.088 145.561C503.232 145.971 502.365 146.176 501.486 146.176ZM515.531 146.053C515.086 146.053 514.764 146 514.564 145.895C514.365 145.777 514.266 145.602 514.266 145.367V134.398C514.266 133.039 514.201 132.061 514.072 131.463C513.943 130.854 513.879 130.52 513.879 130.461C513.879 130.203 514.072 130.021 514.459 129.916C514.857 129.799 515.232 129.74 515.584 129.74C515.865 129.74 516.076 129.893 516.217 130.197C516.357 130.49 516.48 130.906 516.586 131.445L516.674 131.814C517.787 130.256 518.994 129.477 520.295 129.477C520.893 129.477 521.344 129.588 521.648 129.811C521.953 130.021 522.105 130.309 522.105 130.672C522.105 131.023 522.041 131.398 521.912 131.797C521.795 132.184 521.654 132.377 521.49 132.377C521.408 132.377 521.262 132.342 521.051 132.271C520.863 132.189 520.676 132.131 520.488 132.096C520.301 132.049 520.061 132.025 519.768 132.025C519.287 132.025 518.83 132.166 518.396 132.447C517.975 132.729 517.617 133.039 517.324 133.379C517.031 133.719 516.885 133.906 516.885 133.941V145.367C516.885 145.602 516.785 145.777 516.586 145.895C516.387 146 516.076 146.053 515.654 146.053H515.531ZM529.207 129.441C528.973 129.441 528.762 129.406 528.574 129.336C528.398 129.266 528.311 129.143 528.311 128.967C528.311 128.814 528.398 128.562 528.574 128.211C528.926 127.508 529.189 126.775 529.365 126.014C529.541 125.24 529.629 124.385 529.629 123.447C529.629 123.143 529.734 122.896 529.945 122.709C530.168 122.521 530.484 122.428 530.895 122.428H531.158C531.557 122.428 531.867 122.51 532.09 122.674C532.312 122.838 532.424 123.055 532.424 123.324C532.424 124.484 532.236 125.533 531.861 126.471C531.486 127.396 531.041 128.123 530.525 128.65C530.021 129.178 529.582 129.441 529.207 129.441ZM524.865 129.441C524.631 129.441 524.42 129.406 524.232 129.336C524.057 129.266 523.969 129.143 523.969 128.967C523.969 128.814 524.057 128.562 524.232 128.211C524.584 127.508 524.848 126.775 525.023 126.014C525.199 125.24 525.287 124.385 525.287 123.447C525.287 123.143 525.393 122.896 525.604 122.709C525.826 122.521 526.143 122.428 526.553 122.428H526.816C527.215 122.428 527.525 122.51 527.748 122.674C527.971 122.838 528.082 123.055 528.082 123.324C528.082 124.484 527.895 125.533 527.52 126.471C527.145 127.396 526.699 128.123 526.184 128.65C525.68 129.178 525.24 129.441 524.865 129.441ZM535.131 149.621C534.896 149.621 534.686 149.586 534.498 149.516C534.322 149.445 534.234 149.322 534.234 149.146C534.234 149.064 534.27 148.936 534.34 148.76C534.422 148.596 534.475 148.479 534.498 148.408C534.861 147.705 535.131 146.967 535.307 146.193C535.482 145.432 535.57 144.576 535.57 143.627C535.57 143.322 535.676 143.082 535.887 142.906C536.098 142.719 536.408 142.625 536.818 142.625H537.117C537.504 142.625 537.803 142.707 538.014 142.871C538.236 143.023 538.348 143.229 538.348 143.486C538.348 144.646 538.16 145.695 537.785 146.633C537.41 147.57 536.965 148.303 536.449 148.83C535.945 149.357 535.506 149.621 535.131 149.621ZM554.432 129.898C554.045 129.898 553.74 129.822 553.518 129.67C553.307 129.506 553.201 129.289 553.201 129.02C553.201 127.859 553.383 126.816 553.746 125.891C554.121 124.953 554.566 124.221 555.082 123.693C555.598 123.166 556.037 122.902 556.4 122.902C556.635 122.902 556.846 122.938 557.033 123.008C557.221 123.078 557.314 123.201 557.314 123.377C557.314 123.482 557.273 123.629 557.191 123.816C557.109 123.992 557.057 124.098 557.033 124.133C556.67 124.812 556.4 125.539 556.225 126.312C556.049 127.074 555.961 127.936 555.961 128.896C555.961 129.201 555.855 129.447 555.645 129.635C555.445 129.811 555.141 129.898 554.73 129.898H554.432ZM550.09 129.898C549.703 129.898 549.398 129.822 549.176 129.67C548.965 129.506 548.859 129.289 548.859 129.02C548.859 127.859 549.041 126.816 549.404 125.891C549.779 124.953 550.225 124.221 550.74 123.693C551.256 123.166 551.695 122.902 552.059 122.902C552.293 122.902 552.504 122.938 552.691 123.008C552.879 123.078 552.973 123.201 552.973 123.377C552.973 123.482 552.932 123.629 552.85 123.816C552.768 123.992 552.715 124.098 552.691 124.133C552.328 124.812 552.059 125.539 551.883 126.312C551.707 127.074 551.619 127.936 551.619 128.896C551.619 129.201 551.514 129.447 551.303 129.635C551.104 129.811 550.799 129.898 550.389 129.898H550.09ZM562.852 146.053C562.008 146.053 561.586 145.824 561.586 145.367V124.748C561.586 124.279 562.008 124.045 562.852 124.045H563.098C563.93 124.045 564.346 124.279 564.346 124.748V133.59H575.666V124.748C575.666 124.279 576.082 124.045 576.914 124.045H577.16C577.992 124.045 578.408 124.279 578.408 124.748V145.367C578.408 145.602 578.309 145.777 578.109 145.895C577.91 146 577.594 146.053 577.16 146.053H576.914C576.48 146.053 576.164 146 575.965 145.895C575.766 145.777 575.666 145.602 575.666 145.367V135.963H564.346V145.367C564.346 145.824 563.93 146.053 563.098 146.053H562.852ZM590.449 146.176C588.094 146.176 586.295 145.473 585.053 144.066C583.822 142.648 583.207 140.592 583.207 137.896C583.207 135.201 583.834 133.127 585.088 131.674C586.342 130.209 588.129 129.477 590.449 129.477C592.746 129.477 594.504 130.203 595.723 131.656C596.941 133.098 597.551 135.178 597.551 137.896C597.551 140.604 596.947 142.66 595.74 144.066C594.545 145.473 592.781 146.176 590.449 146.176ZM590.361 143.926C591.885 143.926 593.01 143.434 593.736 142.449C594.463 141.453 594.826 139.918 594.826 137.844C594.826 135.758 594.463 134.217 593.736 133.221C593.01 132.225 591.885 131.727 590.361 131.727C588.85 131.727 587.736 132.225 587.021 133.221C586.307 134.205 585.949 135.746 585.949 137.844C585.949 139.93 586.301 141.465 587.004 142.449C587.719 143.434 588.838 143.926 590.361 143.926ZM605.865 146.176C604.822 146.176 603.891 145.859 603.07 145.227C602.25 144.594 601.84 143.475 601.84 141.869V123.184C601.84 122.727 602.256 122.498 603.088 122.498H603.229C604.049 122.498 604.459 122.727 604.459 123.184V141.623C604.459 142.479 604.611 143.076 604.916 143.416C605.221 143.756 605.631 143.926 606.146 143.926C606.533 143.926 606.838 143.902 607.061 143.855C607.283 143.809 607.43 143.785 607.5 143.785C607.688 143.785 607.84 143.973 607.957 144.348C608.086 144.723 608.15 145.021 608.15 145.244C608.15 145.865 607.389 146.176 605.865 146.176ZM616.271 146.176C615.053 146.176 613.986 145.824 613.072 145.121C612.158 144.406 611.449 143.416 610.945 142.15C610.453 140.885 610.207 139.449 610.207 137.844C610.207 136.074 610.471 134.562 610.998 133.309C611.537 132.043 612.287 131.088 613.248 130.443C614.209 129.799 615.316 129.477 616.57 129.477C617.473 129.477 618.27 129.611 618.961 129.881C619.664 130.15 620.355 130.543 621.035 131.059V123.184C621.035 122.727 621.445 122.498 622.266 122.498H622.406C623.238 122.498 623.654 122.727 623.654 123.184V141.377C623.654 142.736 623.719 143.721 623.848 144.33C623.977 144.928 624.041 145.256 624.041 145.314C624.041 145.572 623.842 145.76 623.443 145.877C623.057 145.982 622.693 146.035 622.354 146.035C622.119 146.035 621.932 145.924 621.791 145.701C621.65 145.479 621.551 145.256 621.492 145.033C621.445 144.799 621.363 144.4 621.246 143.838C619.758 145.396 618.1 146.176 616.271 146.176ZM616.816 143.908C617.508 143.908 618.223 143.721 618.961 143.346C619.711 142.971 620.402 142.438 621.035 141.746V133.186C619.91 132.248 618.627 131.779 617.186 131.779C615.791 131.814 614.736 132.324 614.021 133.309C613.318 134.293 612.967 135.723 612.967 137.598C612.967 139.613 613.295 141.172 613.951 142.273C614.619 143.363 615.574 143.908 616.816 143.908ZM635.766 146C635.543 146 635.385 145.924 635.291 145.771C635.197 145.619 635.15 145.385 635.15 145.068V144.682C635.15 144.354 635.197 144.119 635.291 143.979C635.385 143.826 635.543 143.75 635.766 143.75H641.197V126.893L635.678 127.842C635.479 127.842 635.32 127.666 635.203 127.314C635.098 126.951 635.045 126.594 635.045 126.242C635.045 126.078 635.092 125.955 635.186 125.873C635.279 125.779 635.426 125.709 635.625 125.662L642.85 124.045C643.096 124.045 643.318 124.115 643.518 124.256C643.729 124.385 643.834 124.537 643.834 124.713V143.75H648.457C648.879 143.75 649.09 144.061 649.09 144.682V145.068C649.09 145.689 648.879 146 648.457 146H635.766ZM662.344 146.053C661.5 146.053 661.078 145.824 661.078 145.367V124.748C661.078 124.279 661.5 124.045 662.344 124.045H662.59C663.422 124.045 663.838 124.279 663.838 124.748V133.59H675.158V124.748C675.158 124.279 675.574 124.045 676.406 124.045H676.652C677.484 124.045 677.9 124.279 677.9 124.748V145.367C677.9 145.602 677.801 145.777 677.602 145.895C677.402 146 677.086 146.053 676.652 146.053H676.406C675.973 146.053 675.656 146 675.457 145.895C675.258 145.777 675.158 145.602 675.158 145.367V135.963H663.838V145.367C663.838 145.824 663.422 146.053 662.59 146.053H662.344ZM689.941 146.176C687.586 146.176 685.787 145.473 684.545 144.066C683.314 142.648 682.699 140.592 682.699 137.896C682.699 135.201 683.326 133.127 684.58 131.674C685.834 130.209 687.621 129.477 689.941 129.477C692.238 129.477 693.996 130.203 695.215 131.656C696.434 133.098 697.043 135.178 697.043 137.896C697.043 140.604 696.439 142.66 695.232 144.066C694.037 145.473 692.273 146.176 689.941 146.176ZM689.854 143.926C691.377 143.926 692.502 143.434 693.229 142.449C693.955 141.453 694.318 139.918 694.318 137.844C694.318 135.758 693.955 134.217 693.229 133.221C692.502 132.225 691.377 131.727 689.854 131.727C688.342 131.727 687.229 132.225 686.514 133.221C685.799 134.205 685.441 135.746 685.441 137.844C685.441 139.93 685.793 141.465 686.496 142.449C687.211 143.434 688.33 143.926 689.854 143.926ZM706.201 146.176C704.607 146.176 703.359 145.73 702.457 144.84C701.555 143.938 701.104 142.695 701.104 141.113V130.285C701.104 129.828 701.525 129.6 702.369 129.6H702.492C703.324 129.6 703.74 129.828 703.74 130.285V140.867C703.74 141.828 704.016 142.578 704.566 143.117C705.129 143.645 705.914 143.908 706.922 143.908C707.625 143.908 708.328 143.715 709.031 143.328C709.734 142.93 710.344 142.391 710.859 141.711V130.285C710.859 129.828 711.275 129.6 712.107 129.6H712.23C713.074 129.6 713.496 129.828 713.496 130.285V141.377C713.496 142.736 713.555 143.721 713.672 144.33C713.789 144.928 713.848 145.256 713.848 145.314C713.848 145.572 713.654 145.76 713.268 145.877C712.881 145.982 712.518 146.035 712.178 146.035C711.885 146.035 711.668 145.871 711.527 145.543C711.387 145.203 711.281 144.857 711.211 144.506C711.152 144.154 711.111 143.932 711.088 143.838C710.432 144.576 709.67 145.15 708.803 145.561C707.947 145.971 707.08 146.176 706.201 146.176ZM720.246 146.053C719.801 146.053 719.479 146 719.279 145.895C719.08 145.777 718.98 145.602 718.98 145.367V134.398C718.98 133.039 718.916 132.061 718.787 131.463C718.658 130.854 718.594 130.52 718.594 130.461C718.594 130.203 718.787 130.021 719.174 129.916C719.572 129.799 719.947 129.74 720.299 129.74C720.58 129.74 720.791 129.893 720.932 130.197C721.072 130.49 721.195 130.906 721.301 131.445L721.389 131.814C722.502 130.256 723.709 129.477 725.01 129.477C725.607 129.477 726.059 129.588 726.363 129.811C726.668 130.021 726.82 130.309 726.82 130.672C726.82 131.023 726.756 131.398 726.627 131.797C726.51 132.184 726.369 132.377 726.205 132.377C726.123 132.377 725.977 132.342 725.766 132.271C725.578 132.189 725.391 132.131 725.203 132.096C725.016 132.049 724.775 132.025 724.482 132.025C724.002 132.025 723.545 132.166 723.111 132.447C722.689 132.729 722.332 133.039 722.039 133.379C721.746 133.719 721.6 133.906 721.6 133.941V145.367C721.6 145.602 721.5 145.777 721.301 145.895C721.102 146 720.791 146.053 720.369 146.053H720.246ZM733.922 129.441C733.688 129.441 733.477 129.406 733.289 129.336C733.113 129.266 733.025 129.143 733.025 128.967C733.025 128.814 733.113 128.562 733.289 128.211C733.641 127.508 733.904 126.775 734.08 126.014C734.256 125.24 734.344 124.385 734.344 123.447C734.344 123.143 734.449 122.896 734.66 122.709C734.883 122.521 735.199 122.428 735.609 122.428H735.873C736.271 122.428 736.582 122.51 736.805 122.674C737.027 122.838 737.139 123.055 737.139 123.324C737.139 124.484 736.951 125.533 736.576 126.471C736.201 127.396 735.756 128.123 735.24 128.65C734.736 129.178 734.297 129.441 733.922 129.441ZM729.58 129.441C729.346 129.441 729.135 129.406 728.947 129.336C728.771 129.266 728.684 129.143 728.684 128.967C728.684 128.814 728.771 128.562 728.947 128.211C729.299 127.508 729.562 126.775 729.738 126.014C729.914 125.24 730.002 124.385 730.002 123.447C730.002 123.143 730.107 122.896 730.318 122.709C730.541 122.521 730.857 122.428 731.268 122.428H731.531C731.93 122.428 732.24 122.51 732.463 122.674C732.686 122.838 732.797 123.055 732.797 123.324C732.797 124.484 732.609 125.533 732.234 126.471C731.859 127.396 731.414 128.123 730.898 128.65C730.395 129.178 729.955 129.441 729.58 129.441ZM740.127 150.324C739.904 150.324 739.74 150.254 739.635 150.113C739.541 149.973 739.494 149.738 739.494 149.41V149.287C739.494 148.959 739.541 148.725 739.635 148.584C739.74 148.443 739.904 148.373 740.127 148.373H742.535V123.957H740.127C739.904 123.957 739.74 123.887 739.635 123.746C739.541 123.605 739.494 123.377 739.494 123.061V122.902C739.494 122.586 739.541 122.357 739.635 122.217C739.74 122.076 739.904 122.006 740.127 122.006H743.906C744.234 122.006 744.475 122.082 744.627 122.234C744.779 122.375 744.855 122.609 744.855 122.938V149.375C744.855 149.703 744.779 149.943 744.627 150.096C744.475 150.248 744.234 150.324 743.906 150.324H740.127ZM199.828 207.176C198.738 207.176 197.742 207.082 196.84 206.895C195.949 206.695 195.252 206.449 194.748 206.156C194.244 205.863 193.992 205.576 193.992 205.295C193.992 205.107 194.057 204.891 194.186 204.645C194.314 204.398 194.467 204.188 194.643 204.012C194.818 203.824 194.965 203.73 195.082 203.73C195.199 203.73 195.469 203.824 195.891 204.012C196.5 204.281 197.098 204.504 197.684 204.68C198.281 204.844 198.984 204.926 199.793 204.926C200.66 204.926 201.463 204.756 202.201 204.416C202.939 204.064 203.531 203.543 203.977 202.852C204.422 202.16 204.645 201.322 204.645 200.338C204.645 198.943 204.164 197.883 203.203 197.156C202.242 196.418 200.848 196.049 199.02 196.049H196.365C196.025 196.049 195.791 195.979 195.662 195.838C195.545 195.697 195.486 195.457 195.486 195.117L196.014 186.064C196.025 185.736 196.113 185.502 196.277 185.361C196.441 185.209 196.688 185.133 197.016 185.133H205.33C205.553 185.133 205.711 185.209 205.805 185.361C205.898 185.502 205.945 185.736 205.945 186.064V186.434C205.945 186.762 205.898 187.002 205.805 187.154C205.711 187.307 205.553 187.383 205.33 187.383H198.545L198.141 193.799H199.775C201.029 193.799 202.225 194.01 203.361 194.432C204.51 194.842 205.459 195.533 206.209 196.506C206.959 197.479 207.334 198.756 207.334 200.338C207.334 202.037 206.971 203.396 206.244 204.416C205.529 205.436 204.609 206.15 203.484 206.561C202.371 206.971 201.152 207.176 199.828 207.176ZM217.564 207.176C216.252 207.176 215.062 206.777 213.996 205.98C212.93 205.184 212.074 203.953 211.43 202.289C210.797 200.625 210.48 198.545 210.48 196.049C210.48 193.564 210.797 191.49 211.43 189.826C212.074 188.162 212.93 186.932 213.996 186.135C215.062 185.326 216.252 184.922 217.564 184.922C218.877 184.922 220.072 185.326 221.15 186.135C222.24 186.932 223.107 188.162 223.752 189.826C224.396 191.49 224.719 193.564 224.719 196.049C224.719 198.545 224.396 200.625 223.752 202.289C223.107 203.953 222.24 205.184 221.15 205.98C220.072 206.777 218.877 207.176 217.564 207.176ZM217.564 204.926C218.373 204.926 219.111 204.627 219.779 204.029C220.459 203.432 221.01 202.471 221.432 201.146C221.854 199.822 222.064 198.123 222.064 196.049C222.064 193.986 221.854 192.293 221.432 190.969C221.01 189.645 220.459 188.684 219.779 188.086C219.111 187.477 218.373 187.172 217.564 187.172C216.768 187.172 216.029 187.471 215.35 188.068C214.682 188.666 214.143 189.633 213.732 190.969C213.322 192.293 213.117 193.986 213.117 196.049C213.117 198.123 213.322 199.822 213.732 201.146C214.143 202.471 214.682 203.432 215.35 204.029C216.029 204.627 216.768 204.926 217.564 204.926ZM237.41 207.176C234.27 207.176 231.879 206.273 230.238 204.469C228.598 202.652 227.777 199.91 227.777 196.242C227.777 188.695 231.146 184.922 237.885 184.922C238.869 184.922 239.824 185.027 240.75 185.238C241.676 185.438 242.426 185.689 243 185.994C243.574 186.299 243.861 186.592 243.861 186.873C243.861 187.049 243.797 187.283 243.668 187.576C243.551 187.869 243.41 188.127 243.246 188.35C243.082 188.572 242.936 188.684 242.807 188.684C242.748 188.684 242.584 188.607 242.314 188.455C241.705 188.127 241.066 187.852 240.398 187.629C239.73 187.406 238.916 187.295 237.955 187.295C235.307 187.295 233.42 188.027 232.295 189.492C231.17 190.945 230.607 193.102 230.607 195.961C230.607 198.656 231.129 200.807 232.172 202.412C233.227 204.006 235.043 204.803 237.621 204.803C238.406 204.803 239.162 204.768 239.889 204.697C240.627 204.615 241.213 204.516 241.646 204.398V198.088H237.99C237.768 198.088 237.604 198.018 237.498 197.877C237.404 197.725 237.357 197.484 237.357 197.156V196.646C237.357 196.318 237.404 196.084 237.498 195.943C237.604 195.791 237.768 195.715 237.99 195.715H243.457C243.785 195.715 244.025 195.791 244.178 195.943C244.33 196.084 244.406 196.318 244.406 196.646V204.926C244.406 205.734 243.75 206.314 242.438 206.666C241.125 207.006 239.449 207.176 237.41 207.176ZM250.98 207C250.652 207 250.412 206.924 250.26 206.771C250.107 206.619 250.031 206.385 250.031 206.068V186.064C250.031 185.736 250.107 185.502 250.26 185.361C250.412 185.209 250.652 185.133 250.98 185.133H261.879C262.102 185.133 262.26 185.203 262.354 185.344C262.459 185.484 262.512 185.725 262.512 186.064V186.574C262.512 186.891 262.459 187.125 262.354 187.277C262.26 187.43 262.102 187.506 261.879 187.506H252.791V194.625H260.947C261.17 194.625 261.328 194.701 261.422 194.854C261.527 195.006 261.58 195.246 261.58 195.574V196.049C261.58 196.377 261.527 196.617 261.422 196.77C261.328 196.91 261.17 196.98 260.947 196.98H252.791V204.627H261.914C262.137 204.627 262.295 204.703 262.389 204.855C262.494 204.996 262.547 205.23 262.547 205.559V206.068C262.547 206.385 262.494 206.619 262.389 206.771C262.295 206.924 262.137 207 261.914 207H250.98ZM268.066 207C267.738 207 267.498 206.924 267.346 206.771C267.193 206.619 267.117 206.385 267.117 206.068V185.748C267.117 185.279 267.539 185.045 268.383 185.045H268.629C269.461 185.045 269.877 185.279 269.877 185.748V204.627H278.473C278.695 204.627 278.854 204.703 278.947 204.855C279.041 204.996 279.088 205.23 279.088 205.559V206.068C279.088 206.385 279.041 206.619 278.947 206.771C278.854 206.924 278.695 207 278.473 207H268.066Z" fill="#B8F9B6"/>
</svg>
