<svg width="787" height="273" viewBox="0 0 787 273" fill="none" xmlns="http://www.w3.org/2000/svg">
<path d="M6.5918 24.1758C5.54883 24.1758 4.61719 23.8594 3.79688 23.2266C2.97656 22.5938 2.56641 21.4746 2.56641 19.8691V1.18359C2.56641 0.726562 2.98242 0.498047 3.81445 0.498047H3.95508C4.77539 0.498047 5.18555 0.726562 5.18555 1.18359V19.623C5.18555 20.4785 5.33789 21.0762 5.64258 21.416C5.94727 21.7559 6.35742 21.9258 6.87305 21.9258C7.25977 21.9258 7.56445 21.9023 7.78711 21.8555C8.00977 21.8086 8.15625 21.7852 8.22656 21.7852C8.41406 21.7852 8.56641 21.9727 8.68359 22.3477C8.8125 22.7227 8.87695 23.0215 8.87695 23.2441C8.87695 23.8652 8.11523 24.1758 6.5918 24.1758ZM18.7031 24.1758C16.1133 24.1758 14.1855 23.502 12.9199 22.1543C11.666 20.7949 11.0391 18.7207 11.0391 15.9316C11.0391 13.166 11.6543 11.0684 12.8848 9.63867C14.1152 8.19727 15.9258 7.47656 18.3164 7.47656C20.4492 7.47656 22.0547 8.16797 23.1328 9.55078C24.2227 10.9336 24.7676 12.9609 24.7676 15.6328C24.7676 15.75 24.7031 15.9141 24.5742 16.125C24.457 16.3242 24.3105 16.5059 24.1348 16.6699C23.9707 16.8223 23.8301 16.8984 23.7129 16.8984H13.8516C13.9805 18.6445 14.4258 19.9219 15.1875 20.7305C15.9609 21.5273 17.1211 21.9258 18.668 21.9258C19.5352 21.9258 20.2793 21.8203 20.9004 21.6094C21.5332 21.3984 22.1426 21.1406 22.7285 20.8359C22.7871 20.8125 22.875 20.7715 22.9922 20.7129C23.1094 20.6543 23.1914 20.625 23.2383 20.625C23.3672 20.625 23.5137 20.7305 23.6777 20.9414C23.8535 21.1406 24 21.3691 24.1172 21.627C24.2461 21.873 24.3105 22.0547 24.3105 22.1719C24.3105 22.4297 24.0527 22.7168 23.5371 23.0332C23.0215 23.3496 22.3301 23.6191 21.4629 23.8418C20.6074 24.0645 19.6875 24.1758 18.7031 24.1758ZM21.9727 14.6484C21.9727 11.3672 20.7246 9.72656 18.2285 9.72656C15.5449 9.72656 14.0859 11.3672 13.8516 14.6484H21.9727ZM33.5742 24.1758C32.5312 24.1758 31.5996 23.8594 30.7793 23.2266C29.959 22.5938 29.5488 21.4746 29.5488 19.8691V9.90234H27.9844C27.7617 9.90234 27.5977 9.83203 27.4922 9.69141C27.3984 9.53906 27.3516 9.29883 27.3516 8.9707V8.58398C27.3516 8.25586 27.3984 8.02148 27.4922 7.88086C27.5977 7.72852 27.7617 7.65234 27.9844 7.65234H29.5488L29.918 4.38281C29.9414 3.92578 30.2754 3.69727 30.9199 3.69727H31.2188C31.5469 3.69727 31.7871 3.75586 31.9395 3.87305C32.0918 3.97852 32.168 4.14844 32.168 4.38281V7.65234H34.7871C35.0098 7.65234 35.168 7.72852 35.2617 7.88086C35.3672 8.02148 35.4199 8.25586 35.4199 8.58398V8.9707C35.4199 9.29883 35.3672 9.53906 35.2617 9.69141C35.168 9.83203 35.0098 9.90234 34.7871 9.90234H32.168V19.623C32.168 20.4785 32.3145 21.0762 32.6074 21.416C32.9121 21.7559 33.3223 21.9258 33.8379 21.9258C34.2363 21.9258 34.541 21.9023 34.752 21.8555C34.9746 21.8086 35.1211 21.7852 35.1914 21.7852C35.3789 21.7852 35.5312 21.9727 35.6484 22.3477C35.7773 22.7227 35.8418 23.0215 35.8418 23.2441C35.8418 23.8652 35.0859 24.1758 33.5742 24.1758Z" fill="#C7FFFF"/>
<path d="M287.332 15.5273C287.039 15.5273 286.811 15.4453 286.646 15.2812C286.482 15.1055 286.4 14.8711 286.4 14.5781V14.3672C286.4 14.0625 286.482 13.834 286.646 13.6816C286.811 13.5176 287.039 13.4355 287.332 13.4355H299.971C300.604 13.4355 300.92 13.7461 300.92 14.3672V14.5781C300.92 14.8828 300.838 15.1172 300.674 15.2812C300.51 15.4453 300.275 15.5273 299.971 15.5273H287.332ZM287.332 20.6426C287.039 20.6426 286.811 20.5605 286.646 20.3965C286.482 20.2324 286.4 20.0039 286.4 19.7109V19.4648C286.4 19.1602 286.482 18.9258 286.646 18.7617C286.811 18.5977 287.039 18.5156 287.332 18.5156H299.971C300.275 18.5156 300.51 18.5977 300.674 18.7617C300.838 18.9258 300.92 19.1602 300.92 19.4648V19.7109C300.92 20.0156 300.838 20.25 300.674 20.4141C300.51 20.5664 300.275 20.6426 299.971 20.6426H287.332ZM315.369 28.3242C315.029 28.3242 314.672 28.2188 314.297 28.0078C313.934 27.8086 313.617 27.4336 313.348 26.8828C313.078 26.3438 312.943 25.6113 312.943 24.6855V19.4648C312.943 18.3164 312.838 17.4316 312.627 16.8105C312.416 16.1777 311.988 15.7148 311.344 15.4219C311.074 15.3164 310.875 15.1875 310.746 15.0352C310.629 14.8711 310.57 14.6484 310.57 14.3672V13.9277C310.57 13.6582 310.635 13.4414 310.764 13.2773C310.893 13.1133 311.086 12.9785 311.344 12.873C311.988 12.5801 312.416 12.123 312.627 11.502C312.838 10.8809 312.943 9.99609 312.943 8.84766V3.62695C312.943 2.71289 313.078 1.98633 313.348 1.44727C313.617 0.908203 313.934 0.533203 314.297 0.322266C314.672 0.111328 315.029 0.00585938 315.369 0.00585938H316.951C317.162 0.00585938 317.314 0.0761719 317.408 0.216797C317.514 0.357422 317.566 0.585938 317.566 0.902344V1.02539C317.566 1.3418 317.514 1.57031 317.408 1.71094C317.314 1.85156 317.162 1.92188 316.951 1.92188H316.266C315.844 1.92188 315.557 2.07422 315.404 2.37891C315.264 2.68359 315.193 3.16992 315.193 3.83789V9.33984C315.193 10.6523 314.93 11.6895 314.402 12.4512C313.875 13.2012 313.324 13.7812 312.75 14.1914C312.996 14.2969 313.307 14.5371 313.682 14.9121C314.068 15.2871 314.414 15.8203 314.719 16.5117C315.035 17.2031 315.193 18.0234 315.193 18.9727V24.4395C315.193 25.1074 315.264 25.5938 315.404 25.8984C315.557 26.2148 315.844 26.373 316.266 26.373H316.951C317.162 26.373 317.314 26.4434 317.408 26.584C317.514 26.7363 317.566 26.9707 317.566 27.2871V27.4102C317.566 27.7383 317.514 27.9727 317.408 28.1133C317.314 28.2539 317.162 28.3242 316.951 28.3242H315.369ZM94.2363 85.0527C93.791 85.0527 93.4688 85 93.2695 84.8945C93.0703 84.7773 92.9707 84.6016 92.9707 84.3672V73.3984C92.9707 72.0391 92.9062 71.0605 92.7773 70.4629C92.6484 69.8535 92.584 69.5195 92.584 69.4609C92.584 69.2031 92.7773 69.0215 93.1641 68.916C93.5625 68.7988 93.9375 68.7402 94.2891 68.7402C94.582 68.7402 94.7988 68.8984 94.9395 69.2148C95.0801 69.5312 95.1797 69.8535 95.2383 70.1816C95.3086 70.5098 95.3555 70.7207 95.3789 70.8145C96.0352 70.0762 96.791 69.502 97.6465 69.0918C98.5137 68.6816 99.3867 68.4766 100.266 68.4766C101.859 68.4766 103.102 68.9277 103.992 69.8301C104.895 70.7207 105.346 71.9512 105.346 73.5215V84.3672C105.346 84.6016 105.246 84.7773 105.047 84.8945C104.848 85 104.531 85.0527 104.098 85.0527H103.957C103.535 85.0527 103.225 85 103.025 84.8945C102.826 84.7773 102.727 84.6016 102.727 84.3672V73.7852C102.727 72.8242 102.445 72.0801 101.883 71.5527C101.332 71.0137 100.553 70.7441 99.5449 70.7441C98.8418 70.7441 98.1328 70.9434 97.418 71.3418C96.7148 71.7285 96.1055 72.2617 95.5898 72.9414V84.3672C95.5898 84.6016 95.4902 84.7773 95.291 84.8945C95.0918 85 94.7812 85.0527 94.3594 85.0527H94.2363ZM114.557 85.1758C112.963 85.1758 111.674 84.7832 110.689 83.998C109.705 83.2129 109.213 82.0469 109.213 80.5C109.213 78.8711 109.711 77.6465 110.707 76.8262C111.703 75.9941 112.916 75.4609 114.346 75.2266C115.787 74.9805 117.533 74.8398 119.584 74.8047V73.3281C119.584 72.543 119.314 71.916 118.775 71.4473C118.248 70.9668 117.375 70.7266 116.156 70.7266C115.23 70.7266 114.416 70.8379 113.713 71.0605C113.021 71.2715 112.371 71.5293 111.762 71.834C111.504 71.9629 111.346 72.0273 111.287 72.0273C111.146 72.0273 110.988 71.9277 110.812 71.7285C110.648 71.5176 110.502 71.2832 110.373 71.0254C110.256 70.7676 110.197 70.5801 110.197 70.4629C110.197 70.1934 110.473 69.9004 111.023 69.584C111.586 69.2676 112.318 69.0039 113.221 68.793C114.123 68.582 115.066 68.4766 116.051 68.4766C118.008 68.4766 119.525 68.9043 120.604 69.7598C121.682 70.6152 122.221 71.8164 122.221 73.3633V80.377C122.221 81.7363 122.279 82.7207 122.396 83.3301C122.525 83.9277 122.59 84.2559 122.59 84.3145C122.59 84.5723 122.391 84.7598 121.992 84.877C121.605 84.9824 121.242 85.0352 120.902 85.0352C120.621 85.0352 120.41 84.877 120.27 84.5605C120.141 84.2441 120.012 83.7871 119.883 83.1895L119.812 82.8379C119.168 83.5527 118.406 84.1211 117.527 84.543C116.66 84.9648 115.67 85.1758 114.557 85.1758ZM114.697 82.9082C115.729 82.9082 116.607 82.7207 117.334 82.3457C118.061 81.9707 118.811 81.4375 119.584 80.7461V77.0547C118.037 77.0664 116.766 77.1309 115.77 77.248C114.773 77.3652 113.9 77.6641 113.15 78.1445C112.4 78.6133 112.025 79.3457 112.025 80.3418C112.025 81.1738 112.248 81.8125 112.693 82.2578C113.15 82.6914 113.818 82.9082 114.697 82.9082ZM143.982 68.4766C145.283 68.4766 146.426 68.8457 147.41 69.584C148.395 70.3223 148.887 71.6348 148.887 73.5215V84.3672C148.887 84.6016 148.787 84.7773 148.588 84.8945C148.389 85 148.072 85.0527 147.639 85.0527H147.533C147.088 85.0527 146.766 85 146.566 84.8945C146.367 84.7773 146.268 84.6016 146.268 84.3672V73.7852C146.268 72.8359 146.01 72.0918 145.494 71.5527C144.99 71.0137 144.246 70.7441 143.262 70.7441C142.441 70.7441 141.697 70.9844 141.029 71.4648C140.373 71.9336 139.84 72.4258 139.43 72.9414C139.453 73.2227 139.465 73.4336 139.465 73.5742V84.3672C139.465 84.8242 139.043 85.0527 138.199 85.0527H138.076C137.244 85.0527 136.828 84.8242 136.828 84.3672V73.7852C136.828 72.8359 136.57 72.0918 136.055 71.5527C135.551 71.0137 134.807 70.7441 133.822 70.7441C133.143 70.7441 132.521 70.9082 131.959 71.2363C131.396 71.5527 130.928 71.8984 130.553 72.2734C130.189 72.6484 130.008 72.8594 130.008 72.9062V84.3672C130.008 84.6016 129.908 84.7773 129.709 84.8945C129.521 85 129.211 85.0527 128.777 85.0527H128.637C128.203 85.0527 127.887 85 127.688 84.8945C127.5 84.7773 127.406 84.6016 127.406 84.3672V73.3984C127.406 72.0391 127.342 71.0605 127.213 70.4629C127.084 69.8535 127.02 69.5195 127.02 69.4609C127.02 69.2031 127.213 69.0215 127.6 68.916C127.998 68.7988 128.367 68.7402 128.707 68.7402C129 68.7402 129.217 68.8984 129.357 69.2148C129.498 69.5312 129.598 69.8535 129.656 70.1816C129.727 70.5098 129.773 70.7207 129.797 70.8145C130.371 70.1465 131.074 69.5898 131.906 69.1445C132.738 68.6992 133.617 68.4766 134.543 68.4766C135.492 68.4766 136.377 68.6699 137.197 69.0566C138.018 69.4316 138.621 70.0996 139.008 71.0605C139.652 70.2988 140.408 69.6777 141.275 69.1973C142.143 68.7168 143.045 68.4766 143.982 68.4766ZM160.629 85.1758C158.039 85.1758 156.111 84.502 154.846 83.1543C153.592 81.7949 152.965 79.7207 152.965 76.9316C152.965 74.166 153.58 72.0684 154.811 70.6387C156.041 69.1973 157.852 68.4766 160.242 68.4766C162.375 68.4766 163.98 69.168 165.059 70.5508C166.148 71.9336 166.693 73.9609 166.693 76.6328C166.693 76.75 166.629 76.9141 166.5 77.125C166.383 77.3242 166.236 77.5059 166.061 77.6699C165.896 77.8223 165.756 77.8984 165.639 77.8984H155.777C155.906 79.6445 156.352 80.9219 157.113 81.7305C157.887 82.5273 159.047 82.9258 160.594 82.9258C161.461 82.9258 162.205 82.8203 162.826 82.6094C163.459 82.3984 164.068 82.1406 164.654 81.8359C164.713 81.8125 164.801 81.7715 164.918 81.7129C165.035 81.6543 165.117 81.625 165.164 81.625C165.293 81.625 165.439 81.7305 165.604 81.9414C165.779 82.1406 165.926 82.3691 166.043 82.627C166.172 82.873 166.236 83.0547 166.236 83.1719C166.236 83.4297 165.979 83.7168 165.463 84.0332C164.947 84.3496 164.256 84.6191 163.389 84.8418C162.533 85.0645 161.613 85.1758 160.629 85.1758ZM163.898 75.6484C163.898 72.3672 162.65 70.7266 160.154 70.7266C157.471 70.7266 156.012 72.3672 155.777 75.6484H163.898ZM178.066 76.5273C177.773 76.5273 177.545 76.4453 177.381 76.2812C177.217 76.1055 177.135 75.8711 177.135 75.5781V75.3672C177.135 75.0625 177.217 74.834 177.381 74.6816C177.545 74.5176 177.773 74.4355 178.066 74.4355H190.705C191.338 74.4355 191.654 74.7461 191.654 75.3672V75.5781C191.654 75.8828 191.572 76.1172 191.408 76.2812C191.244 76.4453 191.01 76.5273 190.705 76.5273H178.066ZM178.066 81.6426C177.773 81.6426 177.545 81.5605 177.381 81.3965C177.217 81.2324 177.135 81.0039 177.135 80.7109V80.4648C177.135 80.1602 177.217 79.9258 177.381 79.7617C177.545 79.5977 177.773 79.5156 178.066 79.5156H190.705C191.01 79.5156 191.244 79.5977 191.408 79.7617C191.572 79.9258 191.654 80.1602 191.654 80.4648V80.7109C191.654 81.0156 191.572 81.25 191.408 81.4141C191.244 81.5664 191.01 81.6426 190.705 81.6426H178.066ZM384.838 88.6211C384.604 88.6211 384.393 88.5859 384.205 88.5156C384.029 88.4453 383.941 88.3223 383.941 88.1465C383.941 88.0645 383.977 87.9355 384.047 87.7598C384.129 87.5957 384.182 87.4785 384.205 87.4082C384.568 86.7051 384.838 85.9668 385.014 85.1934C385.189 84.4316 385.277 83.5762 385.277 82.627C385.277 82.3223 385.383 82.082 385.594 81.9062C385.805 81.7188 386.115 81.625 386.525 81.625H386.824C387.211 81.625 387.51 81.707 387.721 81.8711C387.943 82.0234 388.055 82.2285 388.055 82.4863C388.055 83.6465 387.867 84.6953 387.492 85.6328C387.117 86.5703 386.672 87.3027 386.156 87.8301C385.652 88.3574 385.213 88.6211 384.838 88.6211ZM97.9629 146.176C96.7441 146.176 95.6777 145.824 94.7637 145.121C93.8496 144.406 93.1406 143.416 92.6367 142.15C92.1445 140.885 91.8984 139.449 91.8984 137.844C91.8984 136.074 92.1621 134.562 92.6895 133.309C93.2285 132.043 93.9785 131.088 94.9395 130.443C95.9004 129.799 97.0078 129.477 98.2617 129.477C99.1641 129.477 99.9609 129.611 100.652 129.881C101.355 130.15 102.047 130.543 102.727 131.059V123.184C102.727 122.727 103.137 122.498 103.957 122.498H104.098C104.93 122.498 105.346 122.727 105.346 123.184V141.377C105.346 142.736 105.41 143.721 105.539 144.33C105.668 144.928 105.732 145.256 105.732 145.314C105.732 145.572 105.533 145.76 105.135 145.877C104.748 145.982 104.385 146.035 104.045 146.035C103.811 146.035 103.623 145.924 103.482 145.701C103.342 145.479 103.242 145.256 103.184 145.033C103.137 144.799 103.055 144.4 102.938 143.838C101.449 145.396 99.791 146.176 97.9629 146.176ZM98.5078 143.908C99.1992 143.908 99.9141 143.721 100.652 143.346C101.402 142.971 102.094 142.438 102.727 141.746V133.186C101.602 132.248 100.318 131.779 98.877 131.779C97.4824 131.814 96.4277 132.324 95.7129 133.309C95.0098 134.293 94.6582 135.723 94.6582 137.598C94.6582 139.613 94.9863 141.172 95.6426 142.273C96.3105 143.363 97.2656 143.908 98.5078 143.908ZM117.352 146.176C114.762 146.176 112.834 145.502 111.568 144.154C110.314 142.795 109.688 140.721 109.688 137.932C109.688 135.166 110.303 133.068 111.533 131.639C112.764 130.197 114.574 129.477 116.965 129.477C119.098 129.477 120.703 130.168 121.781 131.551C122.871 132.934 123.416 134.961 123.416 137.633C123.416 137.75 123.352 137.914 123.223 138.125C123.105 138.324 122.959 138.506 122.783 138.67C122.619 138.822 122.479 138.898 122.361 138.898H112.5C112.629 140.645 113.074 141.922 113.836 142.73C114.609 143.527 115.77 143.926 117.316 143.926C118.184 143.926 118.928 143.82 119.549 143.609C120.182 143.398 120.791 143.141 121.377 142.836C121.436 142.812 121.523 142.771 121.641 142.713C121.758 142.654 121.84 142.625 121.887 142.625C122.016 142.625 122.162 142.73 122.326 142.941C122.502 143.141 122.648 143.369 122.766 143.627C122.895 143.873 122.959 144.055 122.959 144.172C122.959 144.43 122.701 144.717 122.186 145.033C121.67 145.35 120.979 145.619 120.111 145.842C119.256 146.064 118.336 146.176 117.352 146.176ZM120.621 136.648C120.621 133.367 119.373 131.727 116.877 131.727C114.193 131.727 112.734 133.367 112.5 136.648H120.621ZM132.223 146.176C131.18 146.176 130.248 145.859 129.428 145.227C128.607 144.594 128.197 143.475 128.197 141.869V131.902H126.633C126.41 131.902 126.246 131.832 126.141 131.691C126.047 131.539 126 131.299 126 130.971V130.584C126 130.256 126.047 130.021 126.141 129.881C126.246 129.729 126.41 129.652 126.633 129.652H128.197L128.566 126.383C128.59 125.926 128.924 125.697 129.568 125.697H129.867C130.195 125.697 130.436 125.756 130.588 125.873C130.74 125.979 130.816 126.148 130.816 126.383V129.652H133.436C133.658 129.652 133.816 129.729 133.91 129.881C134.016 130.021 134.068 130.256 134.068 130.584V130.971C134.068 131.299 134.016 131.539 133.91 131.691C133.816 131.832 133.658 131.902 133.436 131.902H130.816V141.623C130.816 142.479 130.963 143.076 131.256 143.416C131.561 143.756 131.971 143.926 132.486 143.926C132.885 143.926 133.189 143.902 133.4 143.855C133.623 143.809 133.77 143.785 133.84 143.785C134.027 143.785 134.18 143.973 134.297 144.348C134.426 144.723 134.49 145.021 134.49 145.244C134.49 145.865 133.734 146.176 132.223 146.176ZM142.436 146.176C140.842 146.176 139.553 145.783 138.568 144.998C137.584 144.213 137.092 143.047 137.092 141.5C137.092 139.871 137.59 138.646 138.586 137.826C139.582 136.994 140.795 136.461 142.225 136.227C143.666 135.98 145.412 135.84 147.463 135.805V134.328C147.463 133.543 147.193 132.916 146.654 132.447C146.127 131.967 145.254 131.727 144.035 131.727C143.109 131.727 142.295 131.838 141.592 132.061C140.9 132.271 140.25 132.529 139.641 132.834C139.383 132.963 139.225 133.027 139.166 133.027C139.025 133.027 138.867 132.928 138.691 132.729C138.527 132.518 138.381 132.283 138.252 132.025C138.135 131.768 138.076 131.58 138.076 131.463C138.076 131.193 138.352 130.9 138.902 130.584C139.465 130.268 140.197 130.004 141.1 129.793C142.002 129.582 142.945 129.477 143.93 129.477C145.887 129.477 147.404 129.904 148.482 130.76C149.561 131.615 150.1 132.816 150.1 134.363V141.377C150.1 142.736 150.158 143.721 150.275 144.33C150.404 144.928 150.469 145.256 150.469 145.314C150.469 145.572 150.27 145.76 149.871 145.877C149.484 145.982 149.121 146.035 148.781 146.035C148.5 146.035 148.289 145.877 148.148 145.561C148.02 145.244 147.891 144.787 147.762 144.189L147.691 143.838C147.047 144.553 146.285 145.121 145.406 145.543C144.539 145.965 143.549 146.176 142.436 146.176ZM142.576 143.908C143.607 143.908 144.486 143.721 145.213 143.346C145.939 142.971 146.689 142.438 147.463 141.746V138.055C145.916 138.066 144.645 138.131 143.648 138.248C142.652 138.365 141.779 138.664 141.029 139.145C140.279 139.613 139.904 140.346 139.904 141.342C139.904 142.174 140.127 142.812 140.572 143.258C141.029 143.691 141.697 143.908 142.576 143.908ZM156.586 125.715C155.754 125.715 155.338 125.486 155.338 125.029V123.184C155.338 122.727 155.754 122.498 156.586 122.498H156.955C157.799 122.498 158.221 122.727 158.221 123.184V125.029C158.221 125.486 157.799 125.715 156.955 125.715H156.586ZM156.709 146.053C155.877 146.053 155.461 145.824 155.461 145.367V130.285C155.461 129.828 155.877 129.6 156.709 129.6H156.832C157.676 129.6 158.098 129.828 158.098 130.285V145.367C158.098 145.824 157.676 146.053 156.832 146.053H156.709ZM167.502 146.176C166.459 146.176 165.527 145.859 164.707 145.227C163.887 144.594 163.477 143.475 163.477 141.869V123.184C163.477 122.727 163.893 122.498 164.725 122.498H164.865C165.686 122.498 166.096 122.727 166.096 123.184V141.623C166.096 142.479 166.248 143.076 166.553 143.416C166.857 143.756 167.268 143.926 167.783 143.926C168.17 143.926 168.475 143.902 168.697 143.855C168.92 143.809 169.066 143.785 169.137 143.785C169.324 143.785 169.477 143.973 169.594 144.348C169.723 144.723 169.787 145.021 169.787 145.244C169.787 145.865 169.025 146.176 167.502 146.176ZM176.291 146.299C175.412 146.299 174.592 146.188 173.83 145.965C173.068 145.742 172.459 145.473 172.002 145.156C171.557 144.828 171.334 144.541 171.334 144.295C171.334 144.178 171.393 143.99 171.51 143.732C171.639 143.475 171.785 143.246 171.949 143.047C172.125 142.836 172.283 142.73 172.424 142.73C172.459 142.73 172.564 142.789 172.74 142.906C173.209 143.211 173.701 143.469 174.217 143.68C174.744 143.891 175.371 143.996 176.098 143.996C178.137 143.996 179.156 143.152 179.156 141.465C179.156 140.984 179.057 140.58 178.857 140.252C178.67 139.924 178.348 139.637 177.891 139.391C177.445 139.133 176.83 138.887 176.045 138.652C174.92 138.324 174.041 137.949 173.408 137.527C172.787 137.105 172.348 136.613 172.09 136.051C171.832 135.477 171.703 134.785 171.703 133.977C171.703 133.109 171.92 132.33 172.354 131.639C172.799 130.947 173.414 130.408 174.199 130.021C174.996 129.635 175.893 129.441 176.889 129.441C177.58 129.441 178.242 129.506 178.875 129.635C179.52 129.764 180.035 129.934 180.422 130.145C180.82 130.344 181.02 130.555 181.02 130.777C181.02 130.941 180.961 131.164 180.844 131.445C180.738 131.715 180.604 131.955 180.439 132.166C180.275 132.365 180.129 132.465 180 132.465C179.977 132.465 179.83 132.395 179.561 132.254C179.291 132.102 178.945 131.967 178.523 131.85C178.113 131.721 177.656 131.656 177.152 131.656C176.355 131.656 175.693 131.838 175.166 132.201C174.65 132.553 174.393 133.027 174.393 133.625C174.393 134.328 174.58 134.891 174.955 135.312C175.33 135.734 175.951 136.08 176.818 136.35C178.154 136.76 179.174 137.17 179.877 137.58C180.58 137.99 181.078 138.494 181.371 139.092C181.676 139.678 181.828 140.451 181.828 141.412C181.828 142.326 181.582 143.158 181.09 143.908C180.598 144.646 179.93 145.232 179.086 145.666C178.242 146.088 177.311 146.299 176.291 146.299ZM193.078 137.527C192.785 137.527 192.557 137.445 192.393 137.281C192.229 137.105 192.146 136.871 192.146 136.578V136.367C192.146 136.062 192.229 135.834 192.393 135.682C192.557 135.518 192.785 135.436 193.078 135.436H205.717C206.35 135.436 206.666 135.746 206.666 136.367V136.578C206.666 136.883 206.584 137.117 206.42 137.281C206.256 137.445 206.021 137.527 205.717 137.527H193.078ZM193.078 142.643C192.785 142.643 192.557 142.561 192.393 142.396C192.229 142.232 192.146 142.004 192.146 141.711V141.465C192.146 141.16 192.229 140.926 192.393 140.762C192.557 140.598 192.785 140.516 193.078 140.516H205.717C206.021 140.516 206.256 140.598 206.42 140.762C206.584 140.926 206.666 141.16 206.666 141.465V141.711C206.666 142.016 206.584 142.25 206.42 142.414C206.256 142.566 206.021 142.643 205.717 142.643H193.078ZM783.193 149.621C782.959 149.621 782.748 149.586 782.561 149.516C782.385 149.445 782.297 149.322 782.297 149.146C782.297 149.064 782.332 148.936 782.402 148.76C782.484 148.596 782.537 148.479 782.561 148.408C782.924 147.705 783.193 146.967 783.369 146.193C783.545 145.432 783.633 144.576 783.633 143.627C783.633 143.322 783.738 143.082 783.949 142.906C784.16 142.719 784.471 142.625 784.881 142.625H785.18C785.566 142.625 785.865 142.707 786.076 142.871C786.299 143.023 786.41 143.229 786.41 143.486C786.41 144.646 786.223 145.695 785.848 146.633C785.473 147.57 785.027 148.303 784.512 148.83C784.008 149.357 783.568 149.621 783.193 149.621ZM94.2363 213.504C93.3926 213.504 92.9707 213.275 92.9707 212.818V195.398C92.9707 194.039 92.9062 193.061 92.7773 192.463C92.6484 191.854 92.584 191.52 92.584 191.461C92.584 191.203 92.7773 191.021 93.1641 190.916C93.5625 190.799 93.9375 190.74 94.2891 190.74C94.582 190.74 94.7988 190.898 94.9395 191.215C95.0801 191.531 95.1797 191.854 95.2383 192.182C95.3086 192.51 95.3555 192.721 95.3789 192.814C96.8672 191.256 98.5254 190.477 100.354 190.477C101.607 190.477 102.691 190.834 103.605 191.549C104.52 192.264 105.217 193.254 105.697 194.52C106.178 195.785 106.418 197.227 106.418 198.844C106.418 200.602 106.148 202.107 105.609 203.361C105.082 204.615 104.338 205.564 103.377 206.209C102.416 206.854 101.309 207.176 100.055 207.176C99.1523 207.176 98.3496 207.041 97.6465 206.771C96.9551 206.502 96.2695 206.109 95.5898 205.594V212.818C95.5898 213.275 95.1797 213.504 94.3594 213.504H94.2363ZM99.457 204.873C100.852 204.838 101.9 204.328 102.604 203.344C103.307 202.359 103.658 200.93 103.658 199.055C103.658 197.039 103.324 195.486 102.656 194.396C102 193.295 101.051 192.744 99.8086 192.744C99.1172 192.744 98.3965 192.932 97.6465 193.307C96.9082 193.682 96.2227 194.215 95.5898 194.906V203.467C96.7383 204.404 98.0273 204.873 99.457 204.873ZM112.289 207.053C111.844 207.053 111.521 207 111.322 206.895C111.123 206.777 111.023 206.602 111.023 206.367V195.398C111.023 194.039 110.959 193.061 110.83 192.463C110.701 191.854 110.637 191.52 110.637 191.461C110.637 191.203 110.83 191.021 111.217 190.916C111.615 190.799 111.99 190.74 112.342 190.74C112.623 190.74 112.834 190.893 112.975 191.197C113.115 191.49 113.238 191.906 113.344 192.445L113.432 192.814C114.545 191.256 115.752 190.477 117.053 190.477C117.65 190.477 118.102 190.588 118.406 190.811C118.711 191.021 118.863 191.309 118.863 191.672C118.863 192.023 118.799 192.398 118.67 192.797C118.553 193.184 118.412 193.377 118.248 193.377C118.166 193.377 118.02 193.342 117.809 193.271C117.621 193.189 117.434 193.131 117.246 193.096C117.059 193.049 116.818 193.025 116.525 193.025C116.045 193.025 115.588 193.166 115.154 193.447C114.732 193.729 114.375 194.039 114.082 194.379C113.789 194.719 113.643 194.906 113.643 194.941V206.367C113.643 206.602 113.543 206.777 113.344 206.895C113.145 207 112.834 207.053 112.412 207.053H112.289ZM123.609 186.715C122.777 186.715 122.361 186.486 122.361 186.029V184.184C122.361 183.727 122.777 183.498 123.609 183.498H123.979C124.822 183.498 125.244 183.727 125.244 184.184V186.029C125.244 186.486 124.822 186.715 123.979 186.715H123.609ZM123.732 207.053C122.9 207.053 122.484 206.824 122.484 206.367V191.285C122.484 190.828 122.9 190.6 123.732 190.6H123.855C124.699 190.6 125.121 190.828 125.121 191.285V206.367C125.121 206.824 124.699 207.053 123.855 207.053H123.732ZM137.25 207.176C134.66 207.176 132.727 206.514 131.449 205.189C130.184 203.854 129.551 201.709 129.551 198.756C129.551 195.768 130.26 193.641 131.678 192.375C133.096 191.109 134.859 190.477 136.969 190.477C137.754 190.477 138.51 190.547 139.236 190.688C139.963 190.816 140.549 190.992 140.994 191.215C141.439 191.438 141.662 191.672 141.662 191.918C141.662 192.082 141.604 192.299 141.486 192.568C141.381 192.838 141.246 193.078 141.082 193.289C140.93 193.488 140.789 193.588 140.66 193.588C140.625 193.588 140.572 193.576 140.502 193.553C140.432 193.518 140.367 193.488 140.309 193.465C139.254 192.973 138.117 192.727 136.898 192.727C135.457 192.727 134.344 193.201 133.559 194.15C132.773 195.088 132.381 196.6 132.381 198.686C132.381 200.162 132.539 201.357 132.855 202.271C133.172 203.174 133.682 203.842 134.385 204.275C135.1 204.709 136.049 204.926 137.232 204.926C138.533 204.926 139.705 204.656 140.748 204.117C140.854 204.094 140.93 204.07 140.977 204.047C141.035 204.012 141.076 203.994 141.1 203.994C141.229 203.994 141.375 204.094 141.539 204.293C141.703 204.492 141.844 204.721 141.961 204.979C142.09 205.236 142.154 205.441 142.154 205.594C142.154 205.84 141.932 206.086 141.486 206.332C141.041 206.578 140.438 206.783 139.676 206.947C138.926 207.1 138.117 207.176 137.25 207.176ZM152.473 207.176C149.883 207.176 147.955 206.502 146.689 205.154C145.436 203.795 144.809 201.721 144.809 198.932C144.809 196.166 145.424 194.068 146.654 192.639C147.885 191.197 149.695 190.477 152.086 190.477C154.219 190.477 155.824 191.168 156.902 192.551C157.992 193.934 158.537 195.961 158.537 198.633C158.537 198.75 158.473 198.914 158.344 199.125C158.227 199.324 158.08 199.506 157.904 199.67C157.74 199.822 157.6 199.898 157.482 199.898H147.621C147.75 201.645 148.195 202.922 148.957 203.73C149.73 204.527 150.891 204.926 152.438 204.926C153.305 204.926 154.049 204.82 154.67 204.609C155.303 204.398 155.912 204.141 156.498 203.836C156.557 203.812 156.645 203.771 156.762 203.713C156.879 203.654 156.961 203.625 157.008 203.625C157.137 203.625 157.283 203.73 157.447 203.941C157.623 204.141 157.77 204.369 157.887 204.627C158.016 204.873 158.08 205.055 158.08 205.172C158.08 205.43 157.822 205.717 157.307 206.033C156.791 206.35 156.1 206.619 155.232 206.842C154.377 207.064 153.457 207.176 152.473 207.176ZM155.742 197.648C155.742 194.367 154.494 192.727 151.998 192.727C149.314 192.727 147.855 194.367 147.621 197.648H155.742ZM169.91 198.527C169.617 198.527 169.389 198.445 169.225 198.281C169.061 198.105 168.979 197.871 168.979 197.578V197.367C168.979 197.062 169.061 196.834 169.225 196.682C169.389 196.518 169.617 196.436 169.91 196.436H182.549C183.182 196.436 183.498 196.746 183.498 197.367V197.578C183.498 197.883 183.416 198.117 183.252 198.281C183.088 198.445 182.854 198.527 182.549 198.527H169.91ZM169.91 203.643C169.617 203.643 169.389 203.561 169.225 203.396C169.061 203.232 168.979 203.004 168.979 202.711V202.465C168.979 202.16 169.061 201.926 169.225 201.762C169.389 201.598 169.617 201.516 169.91 201.516H182.549C182.854 201.516 183.088 201.598 183.252 201.762C183.416 201.926 183.498 202.16 183.498 202.465V202.711C183.498 203.016 183.416 203.25 183.252 203.414C183.088 203.566 182.854 203.643 182.549 203.643H169.91ZM1.56445 272.324C1.3418 272.324 1.17773 272.254 1.07227 272.113C0.978516 271.973 0.931641 271.738 0.931641 271.41V271.287C0.931641 270.959 0.978516 270.725 1.07227 270.584C1.17773 270.443 1.3418 270.373 1.56445 270.373H2.25C2.66016 270.373 2.94141 270.215 3.09375 269.898C3.24609 269.582 3.32227 269.096 3.32227 268.439V262.973C3.32227 262.023 3.47461 261.203 3.7793 260.512C4.0957 259.82 4.44141 259.287 4.81641 258.912C5.19141 258.537 5.50195 258.297 5.74805 258.191C4.13086 257.008 3.32227 255.391 3.32227 253.34V247.838C3.32227 247.182 3.24609 246.701 3.09375 246.396C2.94141 246.08 2.66016 245.922 2.25 245.922H1.56445C1.3418 245.922 1.17773 245.852 1.07227 245.711C0.978516 245.57 0.931641 245.342 0.931641 245.025V244.902C0.931641 244.586 0.978516 244.357 1.07227 244.217C1.17773 244.076 1.3418 244.006 1.56445 244.006H3.12891C3.46875 244.006 3.82617 244.111 4.20117 244.322C4.57617 244.533 4.89844 244.908 5.16797 245.447C5.4375 245.986 5.57227 246.713 5.57227 247.627V252.848C5.57227 253.996 5.67773 254.881 5.88867 255.502C6.09961 256.123 6.52734 256.58 7.17188 256.873C7.42969 256.99 7.62305 257.131 7.75195 257.295C7.88086 257.459 7.94531 257.67 7.94531 257.928V258.367C7.94531 258.637 7.88086 258.854 7.75195 259.018C7.62305 259.17 7.42969 259.305 7.17188 259.422C6.52734 259.715 6.09961 260.178 5.88867 260.811C5.67773 261.432 5.57227 262.316 5.57227 263.465V268.686C5.57227 269.611 5.4375 270.344 5.16797 270.883C4.89844 271.434 4.57617 271.809 4.20117 272.008C3.83789 272.219 3.48047 272.324 3.12891 272.324H1.56445Z" fill="white"/>
<path d="M48.3926 30.5039C47.5488 30.5039 47.127 30.2754 47.127 29.8184V12.3984C47.127 11.0391 47.0625 10.0605 46.9336 9.46289C46.8047 8.85352 46.7402 8.51953 46.7402 8.46094C46.7402 8.20312 46.9336 8.02148 47.3203 7.91602C47.7188 7.79883 48.0938 7.74023 48.4453 7.74023C48.7383 7.74023 48.9551 7.89844 49.0957 8.21484C49.2363 8.53125 49.3359 8.85352 49.3945 9.18164C49.4648 9.50977 49.5117 9.7207 49.5352 9.81445C51.0234 8.25586 52.6816 7.47656 54.5098 7.47656C55.7637 7.47656 56.8477 7.83398 57.7617 8.54883C58.6758 9.26367 59.373 10.2539 59.8535 11.5195C60.334 12.7852 60.5742 14.2266 60.5742 15.8438C60.5742 17.6016 60.3047 19.1074 59.7656 20.3613C59.2383 21.6152 58.4941 22.5645 57.5332 23.209C56.5723 23.8535 55.4648 24.1758 54.2109 24.1758C53.3086 24.1758 52.5059 24.041 51.8027 23.7715C51.1113 23.502 50.4258 23.1094 49.7461 22.5938V29.8184C49.7461 30.2754 49.3359 30.5039 48.5156 30.5039H48.3926ZM53.6133 21.873C55.0078 21.8379 56.0566 21.3281 56.7598 20.3438C57.4629 19.3594 57.8145 17.9297 57.8145 16.0547C57.8145 14.0391 57.4805 12.4863 56.8125 11.3965C56.1562 10.2949 55.207 9.74414 53.9648 9.74414C53.2734 9.74414 52.5527 9.93164 51.8027 10.3066C51.0645 10.6816 50.3789 11.2148 49.7461 11.9062V20.4668C50.8945 21.4043 52.1836 21.873 53.6133 21.873ZM66.4453 24.0527C66 24.0527 65.6777 24 65.4785 23.8945C65.2793 23.7773 65.1797 23.6016 65.1797 23.3672V12.3984C65.1797 11.0391 65.1152 10.0605 64.9863 9.46289C64.8574 8.85352 64.793 8.51953 64.793 8.46094C64.793 8.20312 64.9863 8.02148 65.373 7.91602C65.7715 7.79883 66.1465 7.74023 66.498 7.74023C66.7793 7.74023 66.9902 7.89258 67.1309 8.19727C67.2715 8.49023 67.3945 8.90625 67.5 9.44531L67.5879 9.81445C68.7012 8.25586 69.9082 7.47656 71.209 7.47656C71.8066 7.47656 72.2578 7.58789 72.5625 7.81055C72.8672 8.02148 73.0195 8.30859 73.0195 8.67188C73.0195 9.02344 72.9551 9.39844 72.8262 9.79688C72.709 10.1836 72.5684 10.377 72.4043 10.377C72.3223 10.377 72.1758 10.3418 71.9648 10.2715C71.7773 10.1895 71.5898 10.1309 71.4023 10.0957C71.2148 10.0488 70.9746 10.0254 70.6816 10.0254C70.2012 10.0254 69.7441 10.166 69.3105 10.4473C68.8887 10.7285 68.5312 11.0391 68.2383 11.3789C67.9453 11.7188 67.7988 11.9062 67.7988 11.9414V23.3672C67.7988 23.6016 67.6992 23.7773 67.5 23.8945C67.3008 24 66.9902 24.0527 66.5684 24.0527H66.4453ZM83.1797 24.1758C80.5898 24.1758 78.6621 23.502 77.3965 22.1543C76.1426 20.7949 75.5156 18.7207 75.5156 15.9316C75.5156 13.166 76.1309 11.0684 77.3613 9.63867C78.5918 8.19727 80.4023 7.47656 82.793 7.47656C84.9258 7.47656 86.5312 8.16797 87.6094 9.55078C88.6992 10.9336 89.2441 12.9609 89.2441 15.6328C89.2441 15.75 89.1797 15.9141 89.0508 16.125C88.9336 16.3242 88.7871 16.5059 88.6113 16.6699C88.4473 16.8223 88.3066 16.8984 88.1895 16.8984H78.3281C78.457 18.6445 78.9023 19.9219 79.6641 20.7305C80.4375 21.5273 81.5977 21.9258 83.1445 21.9258C84.0117 21.9258 84.7559 21.8203 85.377 21.6094C86.0098 21.3984 86.6191 21.1406 87.2051 20.8359C87.2637 20.8125 87.3516 20.7715 87.4688 20.7129C87.5859 20.6543 87.668 20.625 87.7148 20.625C87.8438 20.625 87.9902 20.7305 88.1543 20.9414C88.3301 21.1406 88.4766 21.3691 88.5938 21.627C88.7227 21.873 88.7871 22.0547 88.7871 22.1719C88.7871 22.4297 88.5293 22.7168 88.0137 23.0332C87.498 23.3496 86.8066 23.6191 85.9395 23.8418C85.084 24.0645 84.1641 24.1758 83.1797 24.1758ZM86.4492 14.6484C86.4492 11.3672 85.2012 9.72656 82.7051 9.72656C80.0215 9.72656 78.5625 11.3672 78.3281 14.6484H86.4492ZM109.916 7.47656C111.217 7.47656 112.359 7.8457 113.344 8.58398C114.328 9.32227 114.82 10.6348 114.82 12.5215V23.3672C114.82 23.6016 114.721 23.7773 114.521 23.8945C114.322 24 114.006 24.0527 113.572 24.0527H113.467C113.021 24.0527 112.699 24 112.5 23.8945C112.301 23.7773 112.201 23.6016 112.201 23.3672V12.7852C112.201 11.8359 111.943 11.0918 111.428 10.5527C110.924 10.0137 110.18 9.74414 109.195 9.74414C108.375 9.74414 107.631 9.98438 106.963 10.4648C106.307 10.9336 105.773 11.4258 105.363 11.9414C105.387 12.2227 105.398 12.4336 105.398 12.5742V23.3672C105.398 23.8242 104.977 24.0527 104.133 24.0527H104.01C103.178 24.0527 102.762 23.8242 102.762 23.3672V12.7852C102.762 11.8359 102.504 11.0918 101.988 10.5527C101.484 10.0137 100.74 9.74414 99.7559 9.74414C99.0762 9.74414 98.4551 9.9082 97.8926 10.2363C97.3301 10.5527 96.8613 10.8984 96.4863 11.2734C96.123 11.6484 95.9414 11.8594 95.9414 11.9062V23.3672C95.9414 23.6016 95.8418 23.7773 95.6426 23.8945C95.4551 24 95.1445 24.0527 94.7109 24.0527H94.5703C94.1367 24.0527 93.8203 24 93.6211 23.8945C93.4336 23.7773 93.3398 23.6016 93.3398 23.3672V12.3984C93.3398 11.0391 93.2754 10.0605 93.1465 9.46289C93.0176 8.85352 92.9531 8.51953 92.9531 8.46094C92.9531 8.20312 93.1465 8.02148 93.5332 7.91602C93.9316 7.79883 94.3008 7.74023 94.6406 7.74023C94.9336 7.74023 95.1504 7.89844 95.291 8.21484C95.4316 8.53125 95.5312 8.85352 95.5898 9.18164C95.6602 9.50977 95.707 9.7207 95.7305 9.81445C96.3047 9.14648 97.0078 8.58984 97.8398 8.14453C98.6719 7.69922 99.5508 7.47656 100.477 7.47656C101.426 7.47656 102.311 7.66992 103.131 8.05664C103.951 8.43164 104.555 9.09961 104.941 10.0605C105.586 9.29883 106.342 8.67773 107.209 8.19727C108.076 7.7168 108.979 7.47656 109.916 7.47656ZM121.148 3.71484C120.316 3.71484 119.9 3.48633 119.9 3.0293V1.18359C119.9 0.726562 120.316 0.498047 121.148 0.498047H121.518C122.361 0.498047 122.783 0.726562 122.783 1.18359V3.0293C122.783 3.48633 122.361 3.71484 121.518 3.71484H121.148ZM121.271 24.0527C120.439 24.0527 120.023 23.8242 120.023 23.3672V8.28516C120.023 7.82812 120.439 7.59961 121.271 7.59961H121.395C122.238 7.59961 122.66 7.82812 122.66 8.28516V23.3672C122.66 23.8242 122.238 24.0527 121.395 24.0527H121.271ZM132.908 24.1758C131.314 24.1758 130.066 23.7305 129.164 22.8398C128.262 21.9375 127.811 20.6953 127.811 19.1133V8.28516C127.811 7.82812 128.232 7.59961 129.076 7.59961H129.199C130.031 7.59961 130.447 7.82812 130.447 8.28516V18.8672C130.447 19.8281 130.723 20.5781 131.273 21.1172C131.836 21.6445 132.621 21.9082 133.629 21.9082C134.332 21.9082 135.035 21.7148 135.738 21.3281C136.441 20.9297 137.051 20.3906 137.566 19.7109V8.28516C137.566 7.82812 137.982 7.59961 138.814 7.59961H138.938C139.781 7.59961 140.203 7.82812 140.203 8.28516V19.377C140.203 20.7363 140.262 21.7207 140.379 22.3301C140.496 22.9277 140.555 23.2559 140.555 23.3145C140.555 23.5723 140.361 23.7598 139.975 23.877C139.588 23.9824 139.225 24.0352 138.885 24.0352C138.592 24.0352 138.375 23.8711 138.234 23.543C138.094 23.2031 137.988 22.8574 137.918 22.5059C137.859 22.1543 137.818 21.9316 137.795 21.8379C137.139 22.5762 136.377 23.1504 135.51 23.5605C134.654 23.9707 133.787 24.1758 132.908 24.1758ZM162.123 7.47656C163.424 7.47656 164.566 7.8457 165.551 8.58398C166.535 9.32227 167.027 10.6348 167.027 12.5215V23.3672C167.027 23.6016 166.928 23.7773 166.729 23.8945C166.529 24 166.213 24.0527 165.779 24.0527H165.674C165.229 24.0527 164.906 24 164.707 23.8945C164.508 23.7773 164.408 23.6016 164.408 23.3672V12.7852C164.408 11.8359 164.15 11.0918 163.635 10.5527C163.131 10.0137 162.387 9.74414 161.402 9.74414C160.582 9.74414 159.838 9.98438 159.17 10.4648C158.514 10.9336 157.98 11.4258 157.57 11.9414C157.594 12.2227 157.605 12.4336 157.605 12.5742V23.3672C157.605 23.8242 157.184 24.0527 156.34 24.0527H156.217C155.385 24.0527 154.969 23.8242 154.969 23.3672V12.7852C154.969 11.8359 154.711 11.0918 154.195 10.5527C153.691 10.0137 152.947 9.74414 151.963 9.74414C151.283 9.74414 150.662 9.9082 150.1 10.2363C149.537 10.5527 149.068 10.8984 148.693 11.2734C148.33 11.6484 148.148 11.8594 148.148 11.9062V23.3672C148.148 23.6016 148.049 23.7773 147.85 23.8945C147.662 24 147.352 24.0527 146.918 24.0527H146.777C146.344 24.0527 146.027 24 145.828 23.8945C145.641 23.7773 145.547 23.6016 145.547 23.3672V12.3984C145.547 11.0391 145.482 10.0605 145.354 9.46289C145.225 8.85352 145.16 8.51953 145.16 8.46094C145.16 8.20312 145.354 8.02148 145.74 7.91602C146.139 7.79883 146.508 7.74023 146.848 7.74023C147.141 7.74023 147.357 7.89844 147.498 8.21484C147.639 8.53125 147.738 8.85352 147.797 9.18164C147.867 9.50977 147.914 9.7207 147.938 9.81445C148.512 9.14648 149.215 8.58984 150.047 8.14453C150.879 7.69922 151.758 7.47656 152.684 7.47656C153.633 7.47656 154.518 7.66992 155.338 8.05664C156.158 8.43164 156.762 9.09961 157.148 10.0605C157.793 9.29883 158.549 8.67773 159.416 8.19727C160.283 7.7168 161.186 7.47656 162.123 7.47656ZM173.285 24.0527C172.852 24.0527 172.535 24 172.336 23.8945C172.148 23.7773 172.055 23.6016 172.055 23.3672V3.06445C172.055 2.72461 172.125 2.48438 172.266 2.34375C172.418 2.20312 172.658 2.13281 172.986 2.13281H179.314C181.143 2.13281 182.76 2.57227 184.166 3.45117C185.584 4.31836 186.293 5.91797 186.293 8.25C186.293 9.98438 185.889 11.332 185.08 12.293C184.271 13.2422 183.363 13.8809 182.355 14.209C181.348 14.5254 180.439 14.6836 179.631 14.6836H174.779V23.3672C174.779 23.6016 174.68 23.7773 174.48 23.8945C174.281 24 173.971 24.0527 173.549 24.0527H173.285ZM179.666 12.3105C180.193 12.3105 180.744 12.1992 181.318 11.9766C181.893 11.7422 182.391 11.3262 182.812 10.7285C183.234 10.1191 183.445 9.29297 183.445 8.25C183.445 6.85547 183.029 5.88281 182.197 5.33203C181.377 4.78125 180.387 4.50586 179.227 4.50586H174.779V12.3105H179.666ZM191.285 24.0527C190.84 24.0527 190.518 24 190.318 23.8945C190.119 23.7773 190.02 23.6016 190.02 23.3672V12.3984C190.02 11.0391 189.955 10.0605 189.826 9.46289C189.697 8.85352 189.633 8.51953 189.633 8.46094C189.633 8.20312 189.826 8.02148 190.213 7.91602C190.611 7.79883 190.986 7.74023 191.338 7.74023C191.619 7.74023 191.83 7.89258 191.971 8.19727C192.111 8.49023 192.234 8.90625 192.34 9.44531L192.428 9.81445C193.541 8.25586 194.748 7.47656 196.049 7.47656C196.646 7.47656 197.098 7.58789 197.402 7.81055C197.707 8.02148 197.859 8.30859 197.859 8.67188C197.859 9.02344 197.795 9.39844 197.666 9.79688C197.549 10.1836 197.408 10.377 197.244 10.377C197.162 10.377 197.016 10.3418 196.805 10.2715C196.617 10.1895 196.43 10.1309 196.242 10.0957C196.055 10.0488 195.814 10.0254 195.521 10.0254C195.041 10.0254 194.584 10.166 194.15 10.4473C193.729 10.7285 193.371 11.0391 193.078 11.3789C192.785 11.7188 192.639 11.9062 192.639 11.9414V23.3672C192.639 23.6016 192.539 23.7773 192.34 23.8945C192.141 24 191.83 24.0527 191.408 24.0527H191.285ZM207.598 24.1758C205.242 24.1758 203.443 23.4727 202.201 22.0664C200.971 20.6484 200.355 18.5918 200.355 15.8965C200.355 13.2012 200.982 11.127 202.236 9.67383C203.49 8.20898 205.277 7.47656 207.598 7.47656C209.895 7.47656 211.652 8.20312 212.871 9.65625C214.09 11.0977 214.699 13.1777 214.699 15.8965C214.699 18.6035 214.096 20.6602 212.889 22.0664C211.693 23.4727 209.93 24.1758 207.598 24.1758ZM207.51 21.9258C209.033 21.9258 210.158 21.4336 210.885 20.4492C211.611 19.4531 211.975 17.918 211.975 15.8438C211.975 13.7578 211.611 12.2168 210.885 11.2207C210.158 10.2246 209.033 9.72656 207.51 9.72656C205.998 9.72656 204.885 10.2246 204.17 11.2207C203.455 12.2051 203.098 13.7461 203.098 15.8438C203.098 17.9297 203.449 19.4648 204.152 20.4492C204.867 21.4336 205.986 21.9258 207.51 21.9258ZM224.104 24.1758C222.885 24.1758 221.818 23.8242 220.904 23.1211C219.99 22.4062 219.281 21.416 218.777 20.1504C218.285 18.8848 218.039 17.4492 218.039 15.8438C218.039 14.0742 218.303 12.5625 218.83 11.3086C219.369 10.043 220.119 9.08789 221.08 8.44336C222.041 7.79883 223.148 7.47656 224.402 7.47656C225.305 7.47656 226.102 7.61133 226.793 7.88086C227.496 8.15039 228.188 8.54297 228.867 9.05859V1.18359C228.867 0.726562 229.277 0.498047 230.098 0.498047H230.238C231.07 0.498047 231.486 0.726562 231.486 1.18359V19.377C231.486 20.7363 231.551 21.7207 231.68 22.3301C231.809 22.9277 231.873 23.2559 231.873 23.3145C231.873 23.5723 231.674 23.7598 231.275 23.877C230.889 23.9824 230.525 24.0352 230.186 24.0352C229.951 24.0352 229.764 23.9238 229.623 23.7012C229.482 23.4785 229.383 23.2559 229.324 23.0332C229.277 22.7988 229.195 22.4004 229.078 21.8379C227.59 23.3965 225.932 24.1758 224.104 24.1758ZM224.648 21.9082C225.34 21.9082 226.055 21.7207 226.793 21.3457C227.543 20.9707 228.234 20.4375 228.867 19.7461V11.1855C227.742 10.248 226.459 9.7793 225.018 9.7793C223.623 9.81445 222.568 10.3242 221.854 11.3086C221.15 12.293 220.799 13.7227 220.799 15.5977C220.799 17.6133 221.127 19.1719 221.783 20.2734C222.451 21.3633 223.406 21.9082 224.648 21.9082ZM241.541 24.1758C239.947 24.1758 238.699 23.7305 237.797 22.8398C236.895 21.9375 236.443 20.6953 236.443 19.1133V8.28516C236.443 7.82812 236.865 7.59961 237.709 7.59961H237.832C238.664 7.59961 239.08 7.82812 239.08 8.28516V18.8672C239.08 19.8281 239.355 20.5781 239.906 21.1172C240.469 21.6445 241.254 21.9082 242.262 21.9082C242.965 21.9082 243.668 21.7148 244.371 21.3281C245.074 20.9297 245.684 20.3906 246.199 19.7109V8.28516C246.199 7.82812 246.615 7.59961 247.447 7.59961H247.57C248.414 7.59961 248.836 7.82812 248.836 8.28516V19.377C248.836 20.7363 248.895 21.7207 249.012 22.3301C249.129 22.9277 249.188 23.2559 249.188 23.3145C249.188 23.5723 248.994 23.7598 248.607 23.877C248.221 23.9824 247.857 24.0352 247.518 24.0352C247.225 24.0352 247.008 23.8711 246.867 23.543C246.727 23.2031 246.621 22.8574 246.551 22.5059C246.492 22.1543 246.451 21.9316 246.428 21.8379C245.771 22.5762 245.01 23.1504 244.143 23.5605C243.287 23.9707 242.42 24.1758 241.541 24.1758ZM260.824 24.1758C258.234 24.1758 256.301 23.5137 255.023 22.1895C253.758 20.8535 253.125 18.709 253.125 15.7559C253.125 12.7676 253.834 10.6406 255.252 9.375C256.67 8.10938 258.434 7.47656 260.543 7.47656C261.328 7.47656 262.084 7.54688 262.811 7.6875C263.537 7.81641 264.123 7.99219 264.568 8.21484C265.014 8.4375 265.236 8.67188 265.236 8.91797C265.236 9.08203 265.178 9.29883 265.061 9.56836C264.955 9.83789 264.82 10.0781 264.656 10.2891C264.504 10.4883 264.363 10.5879 264.234 10.5879C264.199 10.5879 264.146 10.5762 264.076 10.5527C264.006 10.5176 263.941 10.4883 263.883 10.4648C262.828 9.97266 261.691 9.72656 260.473 9.72656C259.031 9.72656 257.918 10.2012 257.133 11.1504C256.348 12.0879 255.955 13.5996 255.955 15.6855C255.955 17.1621 256.113 18.3574 256.43 19.2715C256.746 20.1738 257.256 20.8418 257.959 21.2754C258.674 21.709 259.623 21.9258 260.807 21.9258C262.107 21.9258 263.279 21.6562 264.322 21.1172C264.428 21.0938 264.504 21.0703 264.551 21.0469C264.609 21.0117 264.65 20.9941 264.674 20.9941C264.803 20.9941 264.949 21.0938 265.113 21.293C265.277 21.4922 265.418 21.7207 265.535 21.9785C265.664 22.2363 265.729 22.4414 265.729 22.5938C265.729 22.8398 265.506 23.0859 265.061 23.332C264.615 23.5781 264.012 23.7832 263.25 23.9473C262.5 24.0996 261.691 24.1758 260.824 24.1758ZM274.043 24.1758C273 24.1758 272.068 23.8594 271.248 23.2266C270.428 22.5938 270.018 21.4746 270.018 19.8691V9.90234H268.453C268.23 9.90234 268.066 9.83203 267.961 9.69141C267.867 9.53906 267.82 9.29883 267.82 8.9707V8.58398C267.82 8.25586 267.867 8.02148 267.961 7.88086C268.066 7.72852 268.23 7.65234 268.453 7.65234H270.018L270.387 4.38281C270.41 3.92578 270.744 3.69727 271.389 3.69727H271.688C272.016 3.69727 272.256 3.75586 272.408 3.87305C272.561 3.97852 272.637 4.14844 272.637 4.38281V7.65234H275.256C275.479 7.65234 275.637 7.72852 275.73 7.88086C275.836 8.02148 275.889 8.25586 275.889 8.58398V8.9707C275.889 9.29883 275.836 9.53906 275.73 9.69141C275.637 9.83203 275.479 9.90234 275.256 9.90234H272.637V19.623C272.637 20.4785 272.783 21.0762 273.076 21.416C273.381 21.7559 273.791 21.9258 274.307 21.9258C274.705 21.9258 275.01 21.9023 275.221 21.8555C275.443 21.8086 275.59 21.7852 275.66 21.7852C275.848 21.7852 276 21.9727 276.117 22.3477C276.246 22.7227 276.311 23.0215 276.311 23.2441C276.311 23.8652 275.555 24.1758 274.043 24.1758Z" fill="#F9FFB9"/>
<path d="M207.51 68.8984C207.123 68.8984 206.818 68.8223 206.596 68.6699C206.385 68.5059 206.279 68.2891 206.279 68.0195C206.279 66.8594 206.461 65.8164 206.824 64.8906C207.199 63.9531 207.645 63.2207 208.16 62.6934C208.676 62.166 209.115 61.9023 209.479 61.9023C209.713 61.9023 209.924 61.9375 210.111 62.0078C210.299 62.0781 210.393 62.2012 210.393 62.377C210.393 62.4824 210.352 62.6289 210.27 62.8164C210.188 62.9922 210.135 63.0977 210.111 63.1328C209.748 63.8125 209.479 64.5391 209.303 65.3125C209.127 66.0742 209.039 66.9355 209.039 67.8965C209.039 68.2012 208.934 68.4473 208.723 68.6348C208.523 68.8105 208.219 68.8984 207.809 68.8984H207.51ZM203.168 68.8984C202.781 68.8984 202.477 68.8223 202.254 68.6699C202.043 68.5059 201.938 68.2891 201.938 68.0195C201.938 66.8594 202.119 65.8164 202.482 64.8906C202.857 63.9531 203.303 63.2207 203.818 62.6934C204.334 62.166 204.773 61.9023 205.137 61.9023C205.371 61.9023 205.582 61.9375 205.77 62.0078C205.957 62.0781 206.051 62.2012 206.051 62.377C206.051 62.4824 206.01 62.6289 205.928 62.8164C205.846 62.9922 205.793 63.0977 205.77 63.1328C205.406 63.8125 205.137 64.5391 204.961 65.3125C204.785 66.0742 204.697 66.9355 204.697 67.8965C204.697 68.2012 204.592 68.4473 204.381 68.6348C204.182 68.8105 203.877 68.8984 203.467 68.8984H203.168ZM212.414 85.0527C211.945 85.0527 211.605 85.0117 211.395 84.9297C211.184 84.8359 211.078 84.7012 211.078 84.5254C211.078 84.4434 211.107 84.3027 211.166 84.1035L218.566 63.5547C218.684 63.2148 219.1 63.0449 219.814 63.0449H220.729C221.443 63.0449 221.859 63.2148 221.977 63.5547L229.377 84.1211C229.436 84.25 229.465 84.3848 229.465 84.5254C229.465 84.877 229.025 85.0527 228.146 85.0527H227.883C227.156 85.0527 226.734 84.8887 226.617 84.5605L224.789 79.4277H215.613L213.82 84.5605C213.715 84.8887 213.299 85.0527 212.572 85.0527H212.414ZM223.945 77.0547L220.676 67.7559C220.582 67.498 220.506 67.2051 220.447 66.877C220.389 66.5488 220.336 66.2324 220.289 65.9277H220.219C220.078 66.7129 219.92 67.3223 219.744 67.7559L216.475 77.0547H223.945ZM236.9 85.0527C236.162 85.0527 235.74 84.8887 235.635 84.5605L230.607 69.5312C230.537 69.3203 230.502 69.1855 230.502 69.127C230.502 68.9629 230.613 68.834 230.836 68.7402C231.059 68.6465 231.398 68.5996 231.855 68.5996H232.014C232.74 68.5996 233.156 68.7637 233.262 69.0918L236.443 79.0586C236.701 79.832 237 80.8867 237.34 82.2227L237.533 82.9609H237.674L237.885 82.0293C238.143 80.7988 238.383 79.832 238.605 79.1289L241.822 69.0918C241.928 68.7637 242.355 68.5996 243.105 68.5996H243.193C243.979 68.5996 244.371 68.7754 244.371 69.127C244.371 69.2441 244.33 69.3848 244.248 69.5488L239.238 84.5605C239.133 84.8887 238.711 85.0527 237.973 85.0527H236.9ZM251.877 85.1758C250.283 85.1758 248.994 84.7832 248.01 83.998C247.025 83.2129 246.533 82.0469 246.533 80.5C246.533 78.8711 247.031 77.6465 248.027 76.8262C249.023 75.9941 250.236 75.4609 251.666 75.2266C253.107 74.9805 254.854 74.8398 256.904 74.8047V73.3281C256.904 72.543 256.635 71.916 256.096 71.4473C255.568 70.9668 254.695 70.7266 253.477 70.7266C252.551 70.7266 251.736 70.8379 251.033 71.0605C250.342 71.2715 249.691 71.5293 249.082 71.834C248.824 71.9629 248.666 72.0273 248.607 72.0273C248.467 72.0273 248.309 71.9277 248.133 71.7285C247.969 71.5176 247.822 71.2832 247.693 71.0254C247.576 70.7676 247.518 70.5801 247.518 70.4629C247.518 70.1934 247.793 69.9004 248.344 69.584C248.906 69.2676 249.639 69.0039 250.541 68.793C251.443 68.582 252.387 68.4766 253.371 68.4766C255.328 68.4766 256.846 68.9043 257.924 69.7598C259.002 70.6152 259.541 71.8164 259.541 73.3633V80.377C259.541 81.7363 259.6 82.7207 259.717 83.3301C259.846 83.9277 259.91 84.2559 259.91 84.3145C259.91 84.5723 259.711 84.7598 259.312 84.877C258.926 84.9824 258.562 85.0352 258.223 85.0352C257.941 85.0352 257.73 84.877 257.59 84.5605C257.461 84.2441 257.332 83.7871 257.203 83.1895L257.133 82.8379C256.488 83.5527 255.727 84.1211 254.848 84.543C253.98 84.9648 252.99 85.1758 251.877 85.1758ZM252.018 82.9082C253.049 82.9082 253.928 82.7207 254.654 82.3457C255.381 81.9707 256.131 81.4375 256.904 80.7461V77.0547C255.357 77.0664 254.086 77.1309 253.09 77.248C252.094 77.3652 251.221 77.6641 250.471 78.1445C249.721 78.6133 249.346 79.3457 249.346 80.3418C249.346 81.1738 249.568 81.8125 250.014 82.2578C250.471 82.6914 251.139 82.9082 252.018 82.9082ZM269.438 85.1758C268.395 85.1758 267.463 84.8594 266.643 84.2266C265.822 83.5938 265.412 82.4746 265.412 80.8691V70.9023H263.848C263.625 70.9023 263.461 70.832 263.355 70.6914C263.262 70.5391 263.215 70.2988 263.215 69.9707V69.584C263.215 69.2559 263.262 69.0215 263.355 68.8809C263.461 68.7285 263.625 68.6523 263.848 68.6523H265.412L265.781 65.3828C265.805 64.9258 266.139 64.6973 266.783 64.6973H267.082C267.41 64.6973 267.65 64.7559 267.803 64.873C267.955 64.9785 268.031 65.1484 268.031 65.3828V68.6523H270.65C270.873 68.6523 271.031 68.7285 271.125 68.8809C271.23 69.0215 271.283 69.2559 271.283 69.584V69.9707C271.283 70.2988 271.23 70.5391 271.125 70.6914C271.031 70.832 270.873 70.9023 270.65 70.9023H268.031V80.623C268.031 81.4785 268.178 82.0762 268.471 82.416C268.775 82.7559 269.186 82.9258 269.701 82.9258C270.1 82.9258 270.404 82.9023 270.615 82.8555C270.838 82.8086 270.984 82.7852 271.055 82.7852C271.242 82.7852 271.395 82.9727 271.512 83.3477C271.641 83.7227 271.705 84.0215 271.705 84.2441C271.705 84.8652 270.949 85.1758 269.438 85.1758ZM279.65 85.1758C278.057 85.1758 276.768 84.7832 275.783 83.998C274.799 83.2129 274.307 82.0469 274.307 80.5C274.307 78.8711 274.805 77.6465 275.801 76.8262C276.797 75.9941 278.01 75.4609 279.439 75.2266C280.881 74.9805 282.627 74.8398 284.678 74.8047V73.3281C284.678 72.543 284.408 71.916 283.869 71.4473C283.342 70.9668 282.469 70.7266 281.25 70.7266C280.324 70.7266 279.51 70.8379 278.807 71.0605C278.115 71.2715 277.465 71.5293 276.855 71.834C276.598 71.9629 276.439 72.0273 276.381 72.0273C276.24 72.0273 276.082 71.9277 275.906 71.7285C275.742 71.5176 275.596 71.2832 275.467 71.0254C275.35 70.7676 275.291 70.5801 275.291 70.4629C275.291 70.1934 275.566 69.9004 276.117 69.584C276.68 69.2676 277.412 69.0039 278.314 68.793C279.217 68.582 280.16 68.4766 281.145 68.4766C283.102 68.4766 284.619 68.9043 285.697 69.7598C286.775 70.6152 287.314 71.8164 287.314 73.3633V80.377C287.314 81.7363 287.373 82.7207 287.49 83.3301C287.619 83.9277 287.684 84.2559 287.684 84.3145C287.684 84.5723 287.484 84.7598 287.086 84.877C286.699 84.9824 286.336 85.0352 285.996 85.0352C285.715 85.0352 285.504 84.877 285.363 84.5605C285.234 84.2441 285.105 83.7871 284.977 83.1895L284.906 82.8379C284.262 83.5527 283.5 84.1211 282.621 84.543C281.754 84.9648 280.764 85.1758 279.65 85.1758ZM279.791 82.9082C280.822 82.9082 281.701 82.7207 282.428 82.3457C283.154 81.9707 283.904 81.4375 284.678 80.7461V77.0547C283.131 77.0664 281.859 77.1309 280.863 77.248C279.867 77.3652 278.994 77.6641 278.244 78.1445C277.494 78.6133 277.119 79.3457 277.119 80.3418C277.119 81.1738 277.342 81.8125 277.787 82.2578C278.244 82.6914 278.912 82.9082 279.791 82.9082ZM293.906 85.0527C293.461 85.0527 293.139 85 292.939 84.8945C292.74 84.7773 292.641 84.6016 292.641 84.3672V73.3984C292.641 72.0391 292.576 71.0605 292.447 70.4629C292.318 69.8535 292.254 69.5195 292.254 69.4609C292.254 69.2031 292.447 69.0215 292.834 68.916C293.232 68.7988 293.607 68.7402 293.959 68.7402C294.24 68.7402 294.451 68.8926 294.592 69.1973C294.732 69.4902 294.855 69.9062 294.961 70.4453L295.049 70.8145C296.162 69.2559 297.369 68.4766 298.67 68.4766C299.268 68.4766 299.719 68.5879 300.023 68.8105C300.328 69.0215 300.48 69.3086 300.48 69.6719C300.48 70.0234 300.416 70.3984 300.287 70.7969C300.17 71.1836 300.029 71.377 299.865 71.377C299.783 71.377 299.637 71.3418 299.426 71.2715C299.238 71.1895 299.051 71.1309 298.863 71.0957C298.676 71.0488 298.436 71.0254 298.143 71.0254C297.662 71.0254 297.205 71.166 296.771 71.4473C296.35 71.7285 295.992 72.0391 295.699 72.3789C295.406 72.7188 295.26 72.9062 295.26 72.9414V84.3672C295.26 84.6016 295.16 84.7773 294.961 84.8945C294.762 85 294.451 85.0527 294.029 85.0527H293.906ZM303.205 85C303.041 85 302.871 84.8066 302.695 84.4199C302.531 84.0215 302.449 83.6641 302.449 83.3477C302.449 83.1836 302.479 83.0547 302.537 82.9609L315.352 65.5059H304.102C303.879 65.5059 303.715 65.4238 303.609 65.2598C303.516 65.084 303.469 64.8086 303.469 64.4336V64.1875C303.469 63.8125 303.516 63.543 303.609 63.3789C303.715 63.2148 303.879 63.1328 304.102 63.1328H318.41C318.48 63.1328 318.568 63.2266 318.674 63.4141C318.791 63.6016 318.891 63.8242 318.973 64.082C319.055 64.3398 319.096 64.5742 319.096 64.7852C319.096 64.9375 319.066 65.0605 319.008 65.1543L306.193 82.627H318.41C318.633 82.627 318.791 82.709 318.885 82.873C318.99 83.0371 319.043 83.3066 319.043 83.6816V83.9277C319.043 84.3027 318.99 84.5781 318.885 84.7539C318.791 84.918 318.633 85 318.41 85H303.205ZM329.484 85.1758C327.129 85.1758 325.33 84.4727 324.088 83.0664C322.857 81.6484 322.242 79.5918 322.242 76.8965C322.242 74.2012 322.869 72.127 324.123 70.6738C325.377 69.209 327.164 68.4766 329.484 68.4766C331.781 68.4766 333.539 69.2031 334.758 70.6562C335.977 72.0977 336.586 74.1777 336.586 76.8965C336.586 79.6035 335.982 81.6602 334.775 83.0664C333.58 84.4727 331.816 85.1758 329.484 85.1758ZM329.396 82.9258C330.92 82.9258 332.045 82.4336 332.771 81.4492C333.498 80.4531 333.861 78.918 333.861 76.8438C333.861 74.7578 333.498 73.2168 332.771 72.2207C332.045 71.2246 330.92 70.7266 329.396 70.7266C327.885 70.7266 326.771 71.2246 326.057 72.2207C325.342 73.2051 324.984 74.7461 324.984 76.8438C324.984 78.9297 325.336 80.4648 326.039 81.4492C326.754 82.4336 327.873 82.9258 329.396 82.9258ZM342.264 85.0527C341.818 85.0527 341.496 85 341.297 84.8945C341.098 84.7773 340.998 84.6016 340.998 84.3672V73.3984C340.998 72.0391 340.934 71.0605 340.805 70.4629C340.676 69.8535 340.611 69.5195 340.611 69.4609C340.611 69.2031 340.805 69.0215 341.191 68.916C341.59 68.7988 341.965 68.7402 342.316 68.7402C342.609 68.7402 342.826 68.8984 342.967 69.2148C343.107 69.5312 343.207 69.8535 343.266 70.1816C343.336 70.5098 343.383 70.7207 343.406 70.8145C344.062 70.0762 344.818 69.502 345.674 69.0918C346.541 68.6816 347.414 68.4766 348.293 68.4766C349.887 68.4766 351.129 68.9277 352.02 69.8301C352.922 70.7207 353.373 71.9512 353.373 73.5215V84.3672C353.373 84.6016 353.273 84.7773 353.074 84.8945C352.875 85 352.559 85.0527 352.125 85.0527H351.984C351.562 85.0527 351.252 85 351.053 84.8945C350.854 84.7773 350.754 84.6016 350.754 84.3672V73.7852C350.754 72.8242 350.473 72.0801 349.91 71.5527C349.359 71.0137 348.58 70.7441 347.572 70.7441C346.869 70.7441 346.16 70.9434 345.445 71.3418C344.742 71.7285 344.133 72.2617 343.617 72.9414V84.3672C343.617 84.6016 343.518 84.7773 343.318 84.8945C343.119 85 342.809 85.0527 342.387 85.0527H342.264ZM365.098 85.1758C362.508 85.1758 360.58 84.502 359.314 83.1543C358.061 81.7949 357.434 79.7207 357.434 76.9316C357.434 74.166 358.049 72.0684 359.279 70.6387C360.51 69.1973 362.32 68.4766 364.711 68.4766C366.844 68.4766 368.449 69.168 369.527 70.5508C370.617 71.9336 371.162 73.9609 371.162 76.6328C371.162 76.75 371.098 76.9141 370.969 77.125C370.852 77.3242 370.705 77.5059 370.529 77.6699C370.365 77.8223 370.225 77.8984 370.107 77.8984H360.246C360.375 79.6445 360.82 80.9219 361.582 81.7305C362.355 82.5273 363.516 82.9258 365.062 82.9258C365.93 82.9258 366.674 82.8203 367.295 82.6094C367.928 82.3984 368.537 82.1406 369.123 81.8359C369.182 81.8125 369.27 81.7715 369.387 81.7129C369.504 81.6543 369.586 81.625 369.633 81.625C369.762 81.625 369.908 81.7305 370.072 81.9414C370.248 82.1406 370.395 82.3691 370.512 82.627C370.641 82.873 370.705 83.0547 370.705 83.1719C370.705 83.4297 370.447 83.7168 369.932 84.0332C369.416 84.3496 368.725 84.6191 367.857 84.8418C367.002 85.0645 366.082 85.1758 365.098 85.1758ZM368.367 75.6484C368.367 72.3672 367.119 70.7266 364.623 70.7266C361.939 70.7266 360.48 72.3672 360.246 75.6484H368.367ZM378.914 68.4414C378.68 68.4414 378.469 68.4062 378.281 68.3359C378.105 68.2656 378.018 68.1426 378.018 67.9668C378.018 67.8145 378.105 67.5625 378.281 67.2109C378.633 66.5078 378.896 65.7754 379.072 65.0137C379.248 64.2402 379.336 63.3848 379.336 62.4473C379.336 62.1426 379.441 61.8965 379.652 61.709C379.875 61.5215 380.191 61.4277 380.602 61.4277H380.865C381.264 61.4277 381.574 61.5098 381.797 61.6738C382.02 61.8379 382.131 62.0547 382.131 62.3242C382.131 63.4844 381.943 64.5332 381.568 65.4707C381.193 66.3965 380.748 67.123 380.232 67.6504C379.729 68.1777 379.289 68.4414 378.914 68.4414ZM374.572 68.4414C374.338 68.4414 374.127 68.4062 373.939 68.3359C373.764 68.2656 373.676 68.1426 373.676 67.9668C373.676 67.8145 373.764 67.5625 373.939 67.2109C374.291 66.5078 374.555 65.7754 374.73 65.0137C374.906 64.2402 374.994 63.3848 374.994 62.4473C374.994 62.1426 375.1 61.8965 375.311 61.709C375.533 61.5215 375.85 61.4277 376.26 61.4277H376.523C376.922 61.4277 377.232 61.5098 377.455 61.6738C377.678 61.8379 377.789 62.0547 377.789 62.3242C377.789 63.4844 377.602 64.5332 377.227 65.4707C376.852 66.3965 376.406 67.123 375.891 67.6504C375.387 68.1777 374.947 68.4414 374.572 68.4414Z" fill="#8ED5D5"/>
<path d="M219.428 150.324C219.1 150.324 218.859 150.248 218.707 150.096C218.566 149.943 218.496 149.703 218.496 149.375V122.938C218.496 122.609 218.566 122.375 218.707 122.234C218.859 122.082 219.1 122.006 219.428 122.006H223.207C223.441 122.006 223.605 122.076 223.699 122.217C223.793 122.346 223.84 122.574 223.84 122.902V123.061C223.84 123.389 223.793 123.623 223.699 123.764C223.605 123.893 223.441 123.957 223.207 123.957H220.816V148.373H223.207C223.43 148.373 223.588 148.443 223.682 148.584C223.787 148.725 223.84 148.959 223.84 149.287V149.41C223.84 149.738 223.793 149.973 223.699 150.113C223.605 150.254 223.441 150.324 223.207 150.324H219.428ZM231.627 129.898C231.24 129.898 230.936 129.822 230.713 129.67C230.502 129.506 230.396 129.289 230.396 129.02C230.396 127.859 230.578 126.816 230.941 125.891C231.316 124.953 231.762 124.221 232.277 123.693C232.793 123.166 233.232 122.902 233.596 122.902C233.83 122.902 234.041 122.938 234.229 123.008C234.416 123.078 234.51 123.201 234.51 123.377C234.51 123.482 234.469 123.629 234.387 123.816C234.305 123.992 234.252 124.098 234.229 124.133C233.865 124.812 233.596 125.539 233.42 126.312C233.244 127.074 233.156 127.936 233.156 128.896C233.156 129.201 233.051 129.447 232.84 129.635C232.641 129.811 232.336 129.898 231.926 129.898H231.627ZM227.285 129.898C226.898 129.898 226.594 129.822 226.371 129.67C226.16 129.506 226.055 129.289 226.055 129.02C226.055 127.859 226.236 126.816 226.6 125.891C226.975 124.953 227.42 124.221 227.936 123.693C228.451 123.166 228.891 122.902 229.254 122.902C229.488 122.902 229.699 122.938 229.887 123.008C230.074 123.078 230.168 123.201 230.168 123.377C230.168 123.482 230.127 123.629 230.045 123.816C229.963 123.992 229.91 124.098 229.887 124.133C229.523 124.812 229.254 125.539 229.078 126.312C228.902 127.074 228.814 127.936 228.814 128.896C228.814 129.201 228.709 129.447 228.498 129.635C228.299 129.811 227.994 129.898 227.584 129.898H227.285ZM244.107 146.176C242.818 146.176 241.664 145.941 240.645 145.473C239.625 144.992 238.822 144.266 238.236 143.293C237.65 142.32 237.357 141.113 237.357 139.672C237.357 138.148 237.656 136.977 238.254 136.156C238.863 135.324 239.719 134.645 240.82 134.117C240.035 133.648 239.408 133.021 238.939 132.236C238.471 131.439 238.236 130.479 238.236 129.354C238.236 128.205 238.494 127.221 239.01 126.4C239.537 125.58 240.246 124.965 241.137 124.555C242.039 124.133 243.047 123.922 244.16 123.922C245.273 123.922 246.281 124.133 247.184 124.555C248.098 124.965 248.818 125.58 249.346 126.4C249.885 127.221 250.154 128.205 250.154 129.354C250.154 131.58 249.146 133.162 247.131 134.1C247.904 134.439 248.561 134.826 249.1 135.26C249.639 135.693 250.066 136.273 250.383 137C250.711 137.715 250.875 138.605 250.875 139.672C250.875 141.113 250.576 142.32 249.979 143.293C249.393 144.266 248.59 144.992 247.57 145.473C246.551 145.941 245.396 146.176 244.107 146.176ZM244.846 133.256C245.678 132.764 246.334 132.207 246.814 131.586C247.295 130.953 247.535 130.209 247.535 129.354C247.535 128.299 247.219 127.508 246.586 126.98C245.953 126.441 245.145 126.172 244.16 126.172C243.188 126.172 242.391 126.436 241.77 126.963C241.16 127.49 240.855 128.287 240.855 129.354C240.855 130.139 241.025 130.777 241.365 131.27C241.717 131.75 242.156 132.125 242.684 132.395C243.223 132.664 243.943 132.951 244.846 133.256ZM244.107 143.926C244.869 143.926 245.561 143.768 246.182 143.451C246.803 143.123 247.295 142.643 247.658 142.01C248.021 141.365 248.203 140.586 248.203 139.672C248.203 138.816 248.01 138.125 247.623 137.598C247.248 137.059 246.779 136.648 246.217 136.367C245.654 136.074 244.887 135.758 243.914 135.418L242.93 135.049C242.027 135.576 241.318 136.203 240.803 136.93C240.299 137.645 240.047 138.559 240.047 139.672C240.047 140.586 240.223 141.365 240.574 142.01C240.938 142.643 241.424 143.123 242.033 143.451C242.654 143.768 243.346 143.926 244.107 143.926ZM260.807 146.176C259.494 146.176 258.305 145.777 257.238 144.98C256.172 144.184 255.316 142.953 254.672 141.289C254.039 139.625 253.723 137.545 253.723 135.049C253.723 132.564 254.039 130.49 254.672 128.826C255.316 127.162 256.172 125.932 257.238 125.135C258.305 124.326 259.494 123.922 260.807 123.922C262.119 123.922 263.314 124.326 264.393 125.135C265.482 125.932 266.35 127.162 266.994 128.826C267.639 130.49 267.961 132.564 267.961 135.049C267.961 137.545 267.639 139.625 266.994 141.289C266.35 142.953 265.482 144.184 264.393 144.98C263.314 145.777 262.119 146.176 260.807 146.176ZM260.807 143.926C261.615 143.926 262.354 143.627 263.021 143.029C263.701 142.432 264.252 141.471 264.674 140.146C265.096 138.822 265.307 137.123 265.307 135.049C265.307 132.986 265.096 131.293 264.674 129.969C264.252 128.645 263.701 127.684 263.021 127.086C262.354 126.477 261.615 126.172 260.807 126.172C260.01 126.172 259.271 126.471 258.592 127.068C257.924 127.666 257.385 128.633 256.975 129.969C256.564 131.293 256.359 132.986 256.359 135.049C256.359 137.123 256.564 138.822 256.975 140.146C257.385 141.471 257.924 142.432 258.592 143.029C259.271 143.627 260.01 143.926 260.807 143.926ZM277.541 146.176C276.229 146.176 275.039 145.777 273.973 144.98C272.906 144.184 272.051 142.953 271.406 141.289C270.773 139.625 270.457 137.545 270.457 135.049C270.457 132.564 270.773 130.49 271.406 128.826C272.051 127.162 272.906 125.932 273.973 125.135C275.039 124.326 276.229 123.922 277.541 123.922C278.854 123.922 280.049 124.326 281.127 125.135C282.217 125.932 283.084 127.162 283.729 128.826C284.373 130.49 284.695 132.564 284.695 135.049C284.695 137.545 284.373 139.625 283.729 141.289C283.084 142.953 282.217 144.184 281.127 144.98C280.049 145.777 278.854 146.176 277.541 146.176ZM277.541 143.926C278.35 143.926 279.088 143.627 279.756 143.029C280.436 142.432 280.986 141.471 281.408 140.146C281.83 138.822 282.041 137.123 282.041 135.049C282.041 132.986 281.83 131.293 281.408 129.969C280.986 128.645 280.436 127.684 279.756 127.086C279.088 126.477 278.35 126.172 277.541 126.172C276.744 126.172 276.006 126.471 275.326 127.068C274.658 127.666 274.119 128.633 273.709 129.969C273.299 131.293 273.094 132.986 273.094 135.049C273.094 137.123 273.299 138.822 273.709 140.146C274.119 141.471 274.658 142.432 275.326 143.029C276.006 143.627 276.744 143.926 277.541 143.926ZM294.627 146.053C294.299 146.053 294.059 146.006 293.906 145.912C293.766 145.818 293.695 145.66 293.695 145.438V139.848H288.088C287.865 139.848 287.701 139.789 287.596 139.672C287.502 139.555 287.455 139.338 287.455 139.021V138.811C287.455 138.471 287.508 138.213 287.613 138.037C287.719 137.85 287.877 137.756 288.088 137.756H293.695V132.148C293.695 131.938 293.766 131.779 293.906 131.674C294.059 131.568 294.299 131.516 294.627 131.516H294.838C295.459 131.516 295.77 131.727 295.77 132.148V137.756H301.342C301.553 137.756 301.711 137.832 301.816 137.984C301.922 138.125 301.975 138.359 301.975 138.688V138.898C301.975 139.531 301.764 139.848 301.342 139.848H295.77V145.438C295.77 145.66 295.693 145.818 295.541 145.912C295.4 146.006 295.166 146.053 294.838 146.053H294.627ZM315.281 146.053C314.438 146.053 314.016 145.824 314.016 145.367V125.064C314.016 124.736 314.092 124.502 314.244 124.361C314.396 124.209 314.637 124.133 314.965 124.133H320.221C322.717 124.133 324.592 124.572 325.846 125.451C327.111 126.33 327.744 127.73 327.744 129.652C327.744 130.953 327.428 132.049 326.795 132.939C326.174 133.818 325.295 134.48 324.158 134.926V135.049C324.768 135.26 325.266 135.67 325.652 136.279C326.051 136.877 326.49 137.768 326.971 138.951L329.414 145.121C329.473 145.332 329.502 145.479 329.502 145.561C329.502 145.889 329.062 146.053 328.184 146.053H327.867C327.551 146.053 327.275 146.012 327.041 145.93C326.818 145.836 326.678 145.713 326.619 145.561L324.246 139.426C323.941 138.629 323.584 138.008 323.174 137.562C322.764 137.117 322.277 136.807 321.715 136.631C321.152 136.455 320.443 136.367 319.588 136.367H316.775V145.367C316.775 145.824 316.359 146.053 315.527 146.053H315.281ZM320.889 133.994C321.627 133.994 322.301 133.818 322.91 133.467C323.531 133.115 324.018 132.646 324.369 132.061C324.732 131.463 324.914 130.83 324.914 130.162C324.914 128.932 324.539 128.018 323.789 127.42C323.039 126.811 322.002 126.506 320.678 126.506H316.775V133.994H320.889ZM339.469 146.176C336.879 146.176 334.951 145.502 333.686 144.154C332.432 142.795 331.805 140.721 331.805 137.932C331.805 135.166 332.42 133.068 333.65 131.639C334.881 130.197 336.691 129.477 339.082 129.477C341.215 129.477 342.82 130.168 343.898 131.551C344.988 132.934 345.533 134.961 345.533 137.633C345.533 137.75 345.469 137.914 345.34 138.125C345.223 138.324 345.076 138.506 344.9 138.67C344.736 138.822 344.596 138.898 344.479 138.898H334.617C334.746 140.645 335.191 141.922 335.953 142.73C336.727 143.527 337.887 143.926 339.434 143.926C340.301 143.926 341.045 143.82 341.666 143.609C342.299 143.398 342.908 143.141 343.494 142.836C343.553 142.812 343.641 142.771 343.758 142.713C343.875 142.654 343.957 142.625 344.004 142.625C344.133 142.625 344.279 142.73 344.443 142.941C344.619 143.141 344.766 143.369 344.883 143.627C345.012 143.873 345.076 144.055 345.076 144.172C345.076 144.43 344.818 144.717 344.303 145.033C343.787 145.35 343.096 145.619 342.229 145.842C341.373 146.064 340.453 146.176 339.469 146.176ZM342.738 136.648C342.738 133.367 341.49 131.727 338.994 131.727C336.311 131.727 334.852 133.367 334.617 136.648H342.738ZM360.633 152.504C359.812 152.504 359.402 152.275 359.402 151.818V144.594C358.723 145.109 358.031 145.502 357.328 145.771C356.637 146.041 355.84 146.176 354.938 146.176C353.684 146.176 352.576 145.854 351.615 145.209C350.666 144.564 349.922 143.621 349.383 142.379C348.844 141.125 348.574 139.625 348.574 137.879C348.574 136.238 348.82 134.785 349.312 133.52C349.805 132.242 350.508 131.252 351.422 130.549C352.348 129.834 353.42 129.477 354.639 129.477C356.467 129.477 358.125 130.256 359.613 131.814C359.766 131.018 359.936 130.396 360.123 129.951C360.182 129.822 360.275 129.734 360.404 129.688C360.545 129.629 360.732 129.6 360.967 129.6H361.09C361.711 129.6 362.021 129.828 362.021 130.285V151.818C362.021 152.275 361.605 152.504 360.773 152.504H360.633ZM355.535 143.873C356.965 143.873 358.254 143.404 359.402 142.467V133.906C358.77 133.215 358.078 132.682 357.328 132.307C356.59 131.932 355.875 131.744 355.184 131.744C353.941 131.744 352.986 132.295 352.318 133.396C351.662 134.486 351.334 136.039 351.334 138.055C351.334 139.93 351.686 141.359 352.389 142.344C353.092 143.328 354.141 143.838 355.535 143.873ZM372.111 146.176C370.518 146.176 369.27 145.73 368.367 144.84C367.465 143.938 367.014 142.695 367.014 141.113V130.285C367.014 129.828 367.436 129.6 368.279 129.6H368.402C369.234 129.6 369.65 129.828 369.65 130.285V140.867C369.65 141.828 369.926 142.578 370.477 143.117C371.039 143.645 371.824 143.908 372.832 143.908C373.535 143.908 374.238 143.715 374.941 143.328C375.645 142.93 376.254 142.391 376.77 141.711V130.285C376.77 129.828 377.186 129.6 378.018 129.6H378.141C378.984 129.6 379.406 129.828 379.406 130.285V141.377C379.406 142.736 379.465 143.721 379.582 144.33C379.699 144.928 379.758 145.256 379.758 145.314C379.758 145.572 379.564 145.76 379.178 145.877C378.791 145.982 378.428 146.035 378.088 146.035C377.795 146.035 377.578 145.871 377.438 145.543C377.297 145.203 377.191 144.857 377.121 144.506C377.062 144.154 377.021 143.932 376.998 143.838C376.342 144.576 375.58 145.15 374.713 145.561C373.857 145.971 372.99 146.176 372.111 146.176ZM391.465 146.176C388.875 146.176 386.947 145.502 385.682 144.154C384.428 142.795 383.801 140.721 383.801 137.932C383.801 135.166 384.416 133.068 385.646 131.639C386.877 130.197 388.688 129.477 391.078 129.477C393.211 129.477 394.816 130.168 395.895 131.551C396.984 132.934 397.529 134.961 397.529 137.633C397.529 137.75 397.465 137.914 397.336 138.125C397.219 138.324 397.072 138.506 396.896 138.67C396.732 138.822 396.592 138.898 396.475 138.898H386.613C386.742 140.645 387.188 141.922 387.949 142.73C388.723 143.527 389.883 143.926 391.43 143.926C392.297 143.926 393.041 143.82 393.662 143.609C394.295 143.398 394.904 143.141 395.49 142.836C395.549 142.812 395.637 142.771 395.754 142.713C395.871 142.654 395.953 142.625 396 142.625C396.129 142.625 396.275 142.73 396.439 142.941C396.615 143.141 396.762 143.369 396.879 143.627C397.008 143.873 397.072 144.055 397.072 144.172C397.072 144.43 396.814 144.717 396.299 145.033C395.783 145.35 395.092 145.619 394.225 145.842C393.369 146.064 392.449 146.176 391.465 146.176ZM394.734 136.648C394.734 133.367 393.486 131.727 390.99 131.727C388.307 131.727 386.848 133.367 386.613 136.648H394.734ZM405.018 146.299C404.139 146.299 403.318 146.188 402.557 145.965C401.795 145.742 401.186 145.473 400.729 145.156C400.283 144.828 400.061 144.541 400.061 144.295C400.061 144.178 400.119 143.99 400.236 143.732C400.365 143.475 400.512 143.246 400.676 143.047C400.852 142.836 401.01 142.73 401.15 142.73C401.186 142.73 401.291 142.789 401.467 142.906C401.936 143.211 402.428 143.469 402.943 143.68C403.471 143.891 404.098 143.996 404.824 143.996C406.863 143.996 407.883 143.152 407.883 141.465C407.883 140.984 407.783 140.58 407.584 140.252C407.396 139.924 407.074 139.637 406.617 139.391C406.172 139.133 405.557 138.887 404.771 138.652C403.646 138.324 402.768 137.949 402.135 137.527C401.514 137.105 401.074 136.613 400.816 136.051C400.559 135.477 400.43 134.785 400.43 133.977C400.43 133.109 400.646 132.33 401.08 131.639C401.525 130.947 402.141 130.408 402.926 130.021C403.723 129.635 404.619 129.441 405.615 129.441C406.307 129.441 406.969 129.506 407.602 129.635C408.246 129.764 408.762 129.934 409.148 130.145C409.547 130.344 409.746 130.555 409.746 130.777C409.746 130.941 409.688 131.164 409.57 131.445C409.465 131.715 409.33 131.955 409.166 132.166C409.002 132.365 408.855 132.465 408.727 132.465C408.703 132.465 408.557 132.395 408.287 132.254C408.018 132.102 407.672 131.967 407.25 131.85C406.84 131.721 406.383 131.656 405.879 131.656C405.082 131.656 404.42 131.838 403.893 132.201C403.377 132.553 403.119 133.027 403.119 133.625C403.119 134.328 403.307 134.891 403.682 135.312C404.057 135.734 404.678 136.08 405.545 136.35C406.881 136.76 407.9 137.17 408.604 137.58C409.307 137.99 409.805 138.494 410.098 139.092C410.402 139.678 410.555 140.451 410.555 141.412C410.555 142.326 410.309 143.158 409.816 143.908C409.324 144.646 408.656 145.232 407.812 145.666C406.969 146.088 406.037 146.299 405.018 146.299ZM419.238 146.176C418.195 146.176 417.264 145.859 416.443 145.227C415.623 144.594 415.213 143.475 415.213 141.869V131.902H413.648C413.426 131.902 413.262 131.832 413.156 131.691C413.062 131.539 413.016 131.299 413.016 130.971V130.584C413.016 130.256 413.062 130.021 413.156 129.881C413.262 129.729 413.426 129.652 413.648 129.652H415.213L415.582 126.383C415.605 125.926 415.939 125.697 416.584 125.697H416.883C417.211 125.697 417.451 125.756 417.604 125.873C417.756 125.979 417.832 126.148 417.832 126.383V129.652H420.451C420.674 129.652 420.832 129.729 420.926 129.881C421.031 130.021 421.084 130.256 421.084 130.584V130.971C421.084 131.299 421.031 131.539 420.926 131.691C420.832 131.832 420.674 131.902 420.451 131.902H417.832V141.623C417.832 142.479 417.979 143.076 418.271 143.416C418.576 143.756 418.986 143.926 419.502 143.926C419.9 143.926 420.205 143.902 420.416 143.855C420.639 143.809 420.785 143.785 420.855 143.785C421.043 143.785 421.195 143.973 421.312 144.348C421.441 144.723 421.506 145.021 421.506 145.244C421.506 145.865 420.75 146.176 419.238 146.176ZM434.074 125.715C433.242 125.715 432.826 125.486 432.826 125.029V123.184C432.826 122.727 433.242 122.498 434.074 122.498H434.443C435.287 122.498 435.709 122.727 435.709 123.184V125.029C435.709 125.486 435.287 125.715 434.443 125.715H434.074ZM434.197 146.053C433.365 146.053 432.949 145.824 432.949 145.367V130.285C432.949 129.828 433.365 129.6 434.197 129.6H434.32C435.164 129.6 435.586 129.828 435.586 130.285V145.367C435.586 145.824 435.164 146.053 434.32 146.053H434.197ZM442.354 146.053C441.908 146.053 441.586 146 441.387 145.895C441.188 145.777 441.088 145.602 441.088 145.367V134.398C441.088 133.039 441.023 132.061 440.895 131.463C440.766 130.854 440.701 130.52 440.701 130.461C440.701 130.203 440.895 130.021 441.281 129.916C441.68 129.799 442.055 129.74 442.406 129.74C442.699 129.74 442.916 129.898 443.057 130.215C443.197 130.531 443.297 130.854 443.355 131.182C443.426 131.51 443.473 131.721 443.496 131.814C444.152 131.076 444.908 130.502 445.764 130.092C446.631 129.682 447.504 129.477 448.383 129.477C449.977 129.477 451.219 129.928 452.109 130.83C453.012 131.721 453.463 132.951 453.463 134.521V145.367C453.463 145.602 453.363 145.777 453.164 145.895C452.965 146 452.648 146.053 452.215 146.053H452.074C451.652 146.053 451.342 146 451.143 145.895C450.943 145.777 450.844 145.602 450.844 145.367V134.785C450.844 133.824 450.562 133.08 450 132.553C449.449 132.014 448.67 131.744 447.662 131.744C446.959 131.744 446.25 131.943 445.535 132.342C444.832 132.729 444.223 133.262 443.707 133.941V145.367C443.707 145.602 443.607 145.777 443.408 145.895C443.209 146 442.898 146.053 442.477 146.053H442.354ZM465.293 146C465.07 146 464.912 145.924 464.818 145.771C464.725 145.619 464.678 145.385 464.678 145.068V144.682C464.678 144.354 464.725 144.119 464.818 143.979C464.912 143.826 465.07 143.75 465.293 143.75H470.725V126.893L465.205 127.842C465.006 127.842 464.848 127.666 464.73 127.314C464.625 126.951 464.572 126.594 464.572 126.242C464.572 126.078 464.619 125.955 464.713 125.873C464.807 125.779 464.953 125.709 465.152 125.662L472.377 124.045C472.623 124.045 472.846 124.115 473.045 124.256C473.256 124.385 473.361 124.537 473.361 124.713V143.75H477.984C478.406 143.75 478.617 144.061 478.617 144.682V145.068C478.617 145.689 478.406 146 477.984 146H465.293ZM491.871 146.053C491.027 146.053 490.605 145.824 490.605 145.367V124.748C490.605 124.279 491.027 124.045 491.871 124.045H492.117C492.949 124.045 493.365 124.279 493.365 124.748V133.59H504.686V124.748C504.686 124.279 505.102 124.045 505.934 124.045H506.18C507.012 124.045 507.428 124.279 507.428 124.748V145.367C507.428 145.602 507.328 145.777 507.129 145.895C506.93 146 506.613 146.053 506.18 146.053H505.934C505.5 146.053 505.184 146 504.984 145.895C504.785 145.777 504.686 145.602 504.686 145.367V135.963H493.365V145.367C493.365 145.824 492.949 146.053 492.117 146.053H491.871ZM519.469 146.176C517.113 146.176 515.314 145.473 514.072 144.066C512.842 142.648 512.227 140.592 512.227 137.896C512.227 135.201 512.854 133.127 514.107 131.674C515.361 130.209 517.148 129.477 519.469 129.477C521.766 129.477 523.523 130.203 524.742 131.656C525.961 133.098 526.57 135.178 526.57 137.896C526.57 140.604 525.967 142.66 524.76 144.066C523.564 145.473 521.801 146.176 519.469 146.176ZM519.381 143.926C520.904 143.926 522.029 143.434 522.756 142.449C523.482 141.453 523.846 139.918 523.846 137.844C523.846 135.758 523.482 134.217 522.756 133.221C522.029 132.225 520.904 131.727 519.381 131.727C517.869 131.727 516.756 132.225 516.041 133.221C515.326 134.205 514.969 135.746 514.969 137.844C514.969 139.93 515.32 141.465 516.023 142.449C516.738 143.434 517.857 143.926 519.381 143.926ZM535.729 146.176C534.135 146.176 532.887 145.73 531.984 144.84C531.082 143.938 530.631 142.695 530.631 141.113V130.285C530.631 129.828 531.053 129.6 531.896 129.6H532.02C532.852 129.6 533.268 129.828 533.268 130.285V140.867C533.268 141.828 533.543 142.578 534.094 143.117C534.656 143.645 535.441 143.908 536.449 143.908C537.152 143.908 537.855 143.715 538.559 143.328C539.262 142.93 539.871 142.391 540.387 141.711V130.285C540.387 129.828 540.803 129.6 541.635 129.6H541.758C542.602 129.6 543.023 129.828 543.023 130.285V141.377C543.023 142.736 543.082 143.721 543.199 144.33C543.316 144.928 543.375 145.256 543.375 145.314C543.375 145.572 543.182 145.76 542.795 145.877C542.408 145.982 542.045 146.035 541.705 146.035C541.412 146.035 541.195 145.871 541.055 145.543C540.914 145.203 540.809 144.857 540.738 144.506C540.68 144.154 540.639 143.932 540.615 143.838C539.959 144.576 539.197 145.15 538.33 145.561C537.475 145.971 536.607 146.176 535.729 146.176ZM549.773 146.053C549.328 146.053 549.006 146 548.807 145.895C548.607 145.777 548.508 145.602 548.508 145.367V134.398C548.508 133.039 548.443 132.061 548.314 131.463C548.186 130.854 548.121 130.52 548.121 130.461C548.121 130.203 548.314 130.021 548.701 129.916C549.1 129.799 549.475 129.74 549.826 129.74C550.107 129.74 550.318 129.893 550.459 130.197C550.6 130.49 550.723 130.906 550.828 131.445L550.916 131.814C552.029 130.256 553.236 129.477 554.537 129.477C555.135 129.477 555.586 129.588 555.891 129.811C556.195 130.021 556.348 130.309 556.348 130.672C556.348 131.023 556.283 131.398 556.154 131.797C556.037 132.184 555.896 132.377 555.732 132.377C555.65 132.377 555.504 132.342 555.293 132.271C555.105 132.189 554.918 132.131 554.73 132.096C554.543 132.049 554.303 132.025 554.01 132.025C553.529 132.025 553.072 132.166 552.639 132.447C552.217 132.729 551.859 133.039 551.566 133.379C551.273 133.719 551.127 133.906 551.127 133.941V145.367C551.127 145.602 551.027 145.777 550.828 145.895C550.629 146 550.318 146.053 549.896 146.053H549.773ZM563.449 129.441C563.215 129.441 563.004 129.406 562.816 129.336C562.641 129.266 562.553 129.143 562.553 128.967C562.553 128.814 562.641 128.562 562.816 128.211C563.168 127.508 563.432 126.775 563.607 126.014C563.783 125.24 563.871 124.385 563.871 123.447C563.871 123.143 563.977 122.896 564.188 122.709C564.41 122.521 564.727 122.428 565.137 122.428H565.4C565.799 122.428 566.109 122.51 566.332 122.674C566.555 122.838 566.666 123.055 566.666 123.324C566.666 124.484 566.479 125.533 566.104 126.471C565.729 127.396 565.283 128.123 564.768 128.65C564.264 129.178 563.824 129.441 563.449 129.441ZM559.107 129.441C558.873 129.441 558.662 129.406 558.475 129.336C558.299 129.266 558.211 129.143 558.211 128.967C558.211 128.814 558.299 128.562 558.475 128.211C558.826 127.508 559.09 126.775 559.266 126.014C559.441 125.24 559.529 124.385 559.529 123.447C559.529 123.143 559.635 122.896 559.846 122.709C560.068 122.521 560.385 122.428 560.795 122.428H561.059C561.457 122.428 561.768 122.51 561.99 122.674C562.213 122.838 562.324 123.055 562.324 123.324C562.324 124.484 562.137 125.533 561.762 126.471C561.387 127.396 560.941 128.123 560.426 128.65C559.922 129.178 559.482 129.441 559.107 129.441ZM569.373 149.621C569.139 149.621 568.928 149.586 568.74 149.516C568.564 149.445 568.477 149.322 568.477 149.146C568.477 149.064 568.512 148.936 568.582 148.76C568.664 148.596 568.717 148.479 568.74 148.408C569.104 147.705 569.373 146.967 569.549 146.193C569.725 145.432 569.812 144.576 569.812 143.627C569.812 143.322 569.918 143.082 570.129 142.906C570.34 142.719 570.65 142.625 571.061 142.625H571.359C571.746 142.625 572.045 142.707 572.256 142.871C572.479 143.023 572.59 143.229 572.59 143.486C572.59 144.646 572.402 145.695 572.027 146.633C571.652 147.57 571.207 148.303 570.691 148.83C570.188 149.357 569.748 149.621 569.373 149.621ZM588.674 129.898C588.287 129.898 587.982 129.822 587.76 129.67C587.549 129.506 587.443 129.289 587.443 129.02C587.443 127.859 587.625 126.816 587.988 125.891C588.363 124.953 588.809 124.221 589.324 123.693C589.84 123.166 590.279 122.902 590.643 122.902C590.877 122.902 591.088 122.938 591.275 123.008C591.463 123.078 591.557 123.201 591.557 123.377C591.557 123.482 591.516 123.629 591.434 123.816C591.352 123.992 591.299 124.098 591.275 124.133C590.912 124.812 590.643 125.539 590.467 126.312C590.291 127.074 590.203 127.936 590.203 128.896C590.203 129.201 590.098 129.447 589.887 129.635C589.688 129.811 589.383 129.898 588.973 129.898H588.674ZM584.332 129.898C583.945 129.898 583.641 129.822 583.418 129.67C583.207 129.506 583.102 129.289 583.102 129.02C583.102 127.859 583.283 126.816 583.646 125.891C584.021 124.953 584.467 124.221 584.982 123.693C585.498 123.166 585.938 122.902 586.301 122.902C586.535 122.902 586.746 122.938 586.934 123.008C587.121 123.078 587.215 123.201 587.215 123.377C587.215 123.482 587.174 123.629 587.092 123.816C587.01 123.992 586.957 124.098 586.934 124.133C586.57 124.812 586.301 125.539 586.125 126.312C585.949 127.074 585.861 127.936 585.861 128.896C585.861 129.201 585.756 129.447 585.545 129.635C585.346 129.811 585.041 129.898 584.631 129.898H584.332ZM597.094 146.053C596.25 146.053 595.828 145.824 595.828 145.367V124.748C595.828 124.279 596.25 124.045 597.094 124.045H597.34C598.172 124.045 598.588 124.279 598.588 124.748V133.59H609.908V124.748C609.908 124.279 610.324 124.045 611.156 124.045H611.402C612.234 124.045 612.65 124.279 612.65 124.748V145.367C612.65 145.602 612.551 145.777 612.352 145.895C612.152 146 611.836 146.053 611.402 146.053H611.156C610.723 146.053 610.406 146 610.207 145.895C610.008 145.777 609.908 145.602 609.908 145.367V135.963H598.588V145.367C598.588 145.824 598.172 146.053 597.34 146.053H597.094ZM624.691 146.176C622.336 146.176 620.537 145.473 619.295 144.066C618.064 142.648 617.449 140.592 617.449 137.896C617.449 135.201 618.076 133.127 619.33 131.674C620.584 130.209 622.371 129.477 624.691 129.477C626.988 129.477 628.746 130.203 629.965 131.656C631.184 133.098 631.793 135.178 631.793 137.896C631.793 140.604 631.189 142.66 629.982 144.066C628.787 145.473 627.023 146.176 624.691 146.176ZM624.604 143.926C626.127 143.926 627.252 143.434 627.979 142.449C628.705 141.453 629.068 139.918 629.068 137.844C629.068 135.758 628.705 134.217 627.979 133.221C627.252 132.225 626.127 131.727 624.604 131.727C623.092 131.727 621.979 132.225 621.264 133.221C620.549 134.205 620.191 135.746 620.191 137.844C620.191 139.93 620.543 141.465 621.246 142.449C621.961 143.434 623.08 143.926 624.604 143.926ZM640.107 146.176C639.064 146.176 638.133 145.859 637.312 145.227C636.492 144.594 636.082 143.475 636.082 141.869V123.184C636.082 122.727 636.498 122.498 637.33 122.498H637.471C638.291 122.498 638.701 122.727 638.701 123.184V141.623C638.701 142.479 638.854 143.076 639.158 143.416C639.463 143.756 639.873 143.926 640.389 143.926C640.775 143.926 641.08 143.902 641.303 143.855C641.525 143.809 641.672 143.785 641.742 143.785C641.93 143.785 642.082 143.973 642.199 144.348C642.328 144.723 642.393 145.021 642.393 145.244C642.393 145.865 641.631 146.176 640.107 146.176ZM650.514 146.176C649.295 146.176 648.229 145.824 647.314 145.121C646.4 144.406 645.691 143.416 645.188 142.15C644.695 140.885 644.449 139.449 644.449 137.844C644.449 136.074 644.713 134.562 645.24 133.309C645.779 132.043 646.529 131.088 647.49 130.443C648.451 129.799 649.559 129.477 650.812 129.477C651.715 129.477 652.512 129.611 653.203 129.881C653.906 130.15 654.598 130.543 655.277 131.059V123.184C655.277 122.727 655.688 122.498 656.508 122.498H656.648C657.48 122.498 657.896 122.727 657.896 123.184V141.377C657.896 142.736 657.961 143.721 658.09 144.33C658.219 144.928 658.283 145.256 658.283 145.314C658.283 145.572 658.084 145.76 657.686 145.877C657.299 145.982 656.936 146.035 656.596 146.035C656.361 146.035 656.174 145.924 656.033 145.701C655.893 145.479 655.793 145.256 655.734 145.033C655.688 144.799 655.605 144.4 655.488 143.838C654 145.396 652.342 146.176 650.514 146.176ZM651.059 143.908C651.75 143.908 652.465 143.721 653.203 143.346C653.953 142.971 654.645 142.438 655.277 141.746V133.186C654.152 132.248 652.869 131.779 651.428 131.779C650.033 131.814 648.979 132.324 648.264 133.309C647.561 134.293 647.209 135.723 647.209 137.598C647.209 139.613 647.537 141.172 648.193 142.273C648.861 143.363 649.816 143.908 651.059 143.908ZM670.008 146C669.785 146 669.627 145.924 669.533 145.771C669.439 145.619 669.393 145.385 669.393 145.068V144.682C669.393 144.354 669.439 144.119 669.533 143.979C669.627 143.826 669.785 143.75 670.008 143.75H675.439V126.893L669.92 127.842C669.721 127.842 669.562 127.666 669.445 127.314C669.34 126.951 669.287 126.594 669.287 126.242C669.287 126.078 669.334 125.955 669.428 125.873C669.521 125.779 669.668 125.709 669.867 125.662L677.092 124.045C677.338 124.045 677.561 124.115 677.76 124.256C677.971 124.385 678.076 124.537 678.076 124.713V143.75H682.699C683.121 143.75 683.332 144.061 683.332 144.682V145.068C683.332 145.689 683.121 146 682.699 146H670.008ZM696.586 146.053C695.742 146.053 695.32 145.824 695.32 145.367V124.748C695.32 124.279 695.742 124.045 696.586 124.045H696.832C697.664 124.045 698.08 124.279 698.08 124.748V133.59H709.4V124.748C709.4 124.279 709.816 124.045 710.648 124.045H710.895C711.727 124.045 712.143 124.279 712.143 124.748V145.367C712.143 145.602 712.043 145.777 711.844 145.895C711.645 146 711.328 146.053 710.895 146.053H710.648C710.215 146.053 709.898 146 709.699 145.895C709.5 145.777 709.4 145.602 709.4 145.367V135.963H698.08V145.367C698.08 145.824 697.664 146.053 696.832 146.053H696.586ZM724.184 146.176C721.828 146.176 720.029 145.473 718.787 144.066C717.557 142.648 716.941 140.592 716.941 137.896C716.941 135.201 717.568 133.127 718.822 131.674C720.076 130.209 721.863 129.477 724.184 129.477C726.48 129.477 728.238 130.203 729.457 131.656C730.676 133.098 731.285 135.178 731.285 137.896C731.285 140.604 730.682 142.66 729.475 144.066C728.279 145.473 726.516 146.176 724.184 146.176ZM724.096 143.926C725.619 143.926 726.744 143.434 727.471 142.449C728.197 141.453 728.561 139.918 728.561 137.844C728.561 135.758 728.197 134.217 727.471 133.221C726.744 132.225 725.619 131.727 724.096 131.727C722.584 131.727 721.471 132.225 720.756 133.221C720.041 134.205 719.684 135.746 719.684 137.844C719.684 139.93 720.035 141.465 720.738 142.449C721.453 143.434 722.572 143.926 724.096 143.926ZM740.443 146.176C738.85 146.176 737.602 145.73 736.699 144.84C735.797 143.938 735.346 142.695 735.346 141.113V130.285C735.346 129.828 735.768 129.6 736.611 129.6H736.734C737.566 129.6 737.982 129.828 737.982 130.285V140.867C737.982 141.828 738.258 142.578 738.809 143.117C739.371 143.645 740.156 143.908 741.164 143.908C741.867 143.908 742.57 143.715 743.273 143.328C743.977 142.93 744.586 142.391 745.102 141.711V130.285C745.102 129.828 745.518 129.6 746.35 129.6H746.473C747.316 129.6 747.738 129.828 747.738 130.285V141.377C747.738 142.736 747.797 143.721 747.914 144.33C748.031 144.928 748.09 145.256 748.09 145.314C748.09 145.572 747.896 145.76 747.51 145.877C747.123 145.982 746.76 146.035 746.42 146.035C746.127 146.035 745.91 145.871 745.77 145.543C745.629 145.203 745.523 144.857 745.453 144.506C745.395 144.154 745.354 143.932 745.33 143.838C744.674 144.576 743.912 145.15 743.045 145.561C742.189 145.971 741.322 146.176 740.443 146.176ZM754.488 146.053C754.043 146.053 753.721 146 753.521 145.895C753.322 145.777 753.223 145.602 753.223 145.367V134.398C753.223 133.039 753.158 132.061 753.029 131.463C752.9 130.854 752.836 130.52 752.836 130.461C752.836 130.203 753.029 130.021 753.416 129.916C753.814 129.799 754.189 129.74 754.541 129.74C754.822 129.74 755.033 129.893 755.174 130.197C755.314 130.49 755.438 130.906 755.543 131.445L755.631 131.814C756.744 130.256 757.951 129.477 759.252 129.477C759.85 129.477 760.301 129.588 760.605 129.811C760.91 130.021 761.062 130.309 761.062 130.672C761.062 131.023 760.998 131.398 760.869 131.797C760.752 132.184 760.611 132.377 760.447 132.377C760.365 132.377 760.219 132.342 760.008 132.271C759.82 132.189 759.633 132.131 759.445 132.096C759.258 132.049 759.018 132.025 758.725 132.025C758.244 132.025 757.787 132.166 757.354 132.447C756.932 132.729 756.574 133.039 756.281 133.379C755.988 133.719 755.842 133.906 755.842 133.941V145.367C755.842 145.602 755.742 145.777 755.543 145.895C755.344 146 755.033 146.053 754.611 146.053H754.488ZM768.164 129.441C767.93 129.441 767.719 129.406 767.531 129.336C767.355 129.266 767.268 129.143 767.268 128.967C767.268 128.814 767.355 128.562 767.531 128.211C767.883 127.508 768.146 126.775 768.322 126.014C768.498 125.24 768.586 124.385 768.586 123.447C768.586 123.143 768.691 122.896 768.902 122.709C769.125 122.521 769.441 122.428 769.852 122.428H770.115C770.514 122.428 770.824 122.51 771.047 122.674C771.27 122.838 771.381 123.055 771.381 123.324C771.381 124.484 771.193 125.533 770.818 126.471C770.443 127.396 769.998 128.123 769.482 128.65C768.979 129.178 768.539 129.441 768.164 129.441ZM763.822 129.441C763.588 129.441 763.377 129.406 763.189 129.336C763.014 129.266 762.926 129.143 762.926 128.967C762.926 128.814 763.014 128.562 763.189 128.211C763.541 127.508 763.805 126.775 763.98 126.014C764.156 125.24 764.244 124.385 764.244 123.447C764.244 123.143 764.35 122.896 764.561 122.709C764.783 122.521 765.1 122.428 765.51 122.428H765.773C766.172 122.428 766.482 122.51 766.705 122.674C766.928 122.838 767.039 123.055 767.039 123.324C767.039 124.484 766.852 125.533 766.477 126.471C766.102 127.396 765.656 128.123 765.141 128.65C764.637 129.178 764.197 129.441 763.822 129.441Z" fill="#8ED4D4" fill-opacity="0.976471"/>
<path d="M774.369 150.324C774.146 150.324 773.982 150.254 773.877 150.113C773.783 149.973 773.736 149.738 773.736 149.41V149.287C773.736 148.959 773.783 148.725 773.877 148.584C773.982 148.443 774.146 148.373 774.369 148.373H776.777V123.957H774.369C774.146 123.957 773.982 123.887 773.877 123.746C773.783 123.605 773.736 123.377 773.736 123.061V122.902C773.736 122.586 773.783 122.357 773.877 122.217C773.982 122.076 774.146 122.006 774.369 122.006H778.148C778.477 122.006 778.717 122.082 778.869 122.234C779.021 122.375 779.098 122.609 779.098 122.938V149.375C779.098 149.703 779.021 149.943 778.869 150.096C778.717 150.248 778.477 150.324 778.148 150.324H774.369ZM204.275 207.053C203.947 207.053 203.707 207 203.555 206.895C203.414 206.777 203.344 206.602 203.344 206.367V201.779H193.834C193.67 201.779 193.5 201.592 193.324 201.217C193.16 200.842 193.078 200.502 193.078 200.197C193.078 199.998 193.102 199.875 193.148 199.828L203.432 185.502C203.537 185.361 203.684 185.25 203.871 185.168C204.07 185.086 204.275 185.045 204.486 185.045H204.996C205.617 185.045 205.928 185.279 205.928 185.748V199.529H208.02C208.441 199.529 208.652 199.84 208.652 200.461V200.848C208.652 201.469 208.441 201.779 208.02 201.779H205.928V206.367C205.928 206.824 205.617 207.053 204.996 207.053H204.275ZM203.344 199.529V189.598L203.221 189.527L196.172 199.529H203.344ZM217.564 207.176C216.252 207.176 215.062 206.777 213.996 205.98C212.93 205.184 212.074 203.953 211.43 202.289C210.797 200.625 210.48 198.545 210.48 196.049C210.48 193.564 210.797 191.49 211.43 189.826C212.074 188.162 212.93 186.932 213.996 186.135C215.062 185.326 216.252 184.922 217.564 184.922C218.877 184.922 220.072 185.326 221.15 186.135C222.24 186.932 223.107 188.162 223.752 189.826C224.396 191.49 224.719 193.564 224.719 196.049C224.719 198.545 224.396 200.625 223.752 202.289C223.107 203.953 222.24 205.184 221.15 205.98C220.072 206.777 218.877 207.176 217.564 207.176ZM217.564 204.926C218.373 204.926 219.111 204.627 219.779 204.029C220.459 203.432 221.01 202.471 221.432 201.146C221.854 199.822 222.064 198.123 222.064 196.049C222.064 193.986 221.854 192.293 221.432 190.969C221.01 189.645 220.459 188.684 219.779 188.086C219.111 187.477 218.373 187.172 217.564 187.172C216.768 187.172 216.029 187.471 215.35 188.068C214.682 188.666 214.143 189.633 213.732 190.969C213.322 192.293 213.117 193.986 213.117 196.049C213.117 198.123 213.322 199.822 213.732 201.146C214.143 202.471 214.682 203.432 215.35 204.029C216.029 204.627 216.768 204.926 217.564 204.926ZM234.299 207.176C232.986 207.176 231.797 206.777 230.73 205.98C229.664 205.184 228.809 203.953 228.164 202.289C227.531 200.625 227.215 198.545 227.215 196.049C227.215 193.564 227.531 191.49 228.164 189.826C228.809 188.162 229.664 186.932 230.73 186.135C231.797 185.326 232.986 184.922 234.299 184.922C235.611 184.922 236.807 185.326 237.885 186.135C238.975 186.932 239.842 188.162 240.486 189.826C241.131 191.49 241.453 193.564 241.453 196.049C241.453 198.545 241.131 200.625 240.486 202.289C239.842 203.953 238.975 205.184 237.885 205.98C236.807 206.777 235.611 207.176 234.299 207.176ZM234.299 204.926C235.107 204.926 235.846 204.627 236.514 204.029C237.193 203.432 237.744 202.471 238.166 201.146C238.588 199.822 238.799 198.123 238.799 196.049C238.799 193.986 238.588 192.293 238.166 190.969C237.744 189.645 237.193 188.684 236.514 188.086C235.846 187.477 235.107 187.172 234.299 187.172C233.502 187.172 232.764 187.471 232.084 188.068C231.416 188.666 230.877 189.633 230.467 190.969C230.057 192.293 229.852 193.986 229.852 196.049C229.852 198.123 230.057 199.822 230.467 201.146C230.877 202.471 231.416 203.432 232.084 204.029C232.764 204.627 233.502 204.926 234.299 204.926ZM254.145 207.176C251.004 207.176 248.613 206.273 246.973 204.469C245.332 202.652 244.512 199.91 244.512 196.242C244.512 188.695 247.881 184.922 254.619 184.922C255.604 184.922 256.559 185.027 257.484 185.238C258.41 185.438 259.16 185.689 259.734 185.994C260.309 186.299 260.596 186.592 260.596 186.873C260.596 187.049 260.531 187.283 260.402 187.576C260.285 187.869 260.145 188.127 259.98 188.35C259.816 188.572 259.67 188.684 259.541 188.684C259.482 188.684 259.318 188.607 259.049 188.455C258.439 188.127 257.801 187.852 257.133 187.629C256.465 187.406 255.65 187.295 254.689 187.295C252.041 187.295 250.154 188.027 249.029 189.492C247.904 190.945 247.342 193.102 247.342 195.961C247.342 198.656 247.863 200.807 248.906 202.412C249.961 204.006 251.777 204.803 254.355 204.803C255.141 204.803 255.896 204.768 256.623 204.697C257.361 204.615 257.947 204.516 258.381 204.398V198.088H254.725C254.502 198.088 254.338 198.018 254.232 197.877C254.139 197.725 254.092 197.484 254.092 197.156V196.646C254.092 196.318 254.139 196.084 254.232 195.943C254.338 195.791 254.502 195.715 254.725 195.715H260.191C260.52 195.715 260.76 195.791 260.912 195.943C261.064 196.084 261.141 196.318 261.141 196.646V204.926C261.141 205.734 260.484 206.314 259.172 206.666C257.859 207.006 256.184 207.176 254.145 207.176ZM267.715 207C267.387 207 267.146 206.924 266.994 206.771C266.842 206.619 266.766 206.385 266.766 206.068V186.064C266.766 185.736 266.842 185.502 266.994 185.361C267.146 185.209 267.387 185.133 267.715 185.133H278.613C278.836 185.133 278.994 185.203 279.088 185.344C279.193 185.484 279.246 185.725 279.246 186.064V186.574C279.246 186.891 279.193 187.125 279.088 187.277C278.994 187.43 278.836 187.506 278.613 187.506H269.525V194.625H277.682C277.904 194.625 278.062 194.701 278.156 194.854C278.262 195.006 278.314 195.246 278.314 195.574V196.049C278.314 196.377 278.262 196.617 278.156 196.77C278.062 196.91 277.904 196.98 277.682 196.98H269.525V204.627H278.648C278.871 204.627 279.029 204.703 279.123 204.855C279.229 204.996 279.281 205.23 279.281 205.559V206.068C279.281 206.385 279.229 206.619 279.123 206.771C279.029 206.924 278.871 207 278.648 207H267.715ZM284.801 207C284.473 207 284.232 206.924 284.08 206.771C283.928 206.619 283.852 206.385 283.852 206.068V185.748C283.852 185.279 284.273 185.045 285.117 185.045H285.363C286.195 185.045 286.611 185.279 286.611 185.748V204.627H295.207C295.43 204.627 295.588 204.703 295.682 204.855C295.775 204.996 295.822 205.23 295.822 205.559V206.068C295.822 206.385 295.775 206.619 295.682 206.771C295.588 206.924 295.43 207 295.207 207H284.801Z" fill="#8ED4D4"/>
</svg>
