<svg width="649" height="273" viewBox="0 0 649 273" fill="none" xmlns="http://www.w3.org/2000/svg">
<path d="M6.5918 24.1758C5.54883 24.1758 4.61719 23.8594 3.79688 23.2266C2.97656 22.5938 2.56641 21.4746 2.56641 19.8691V1.18359C2.56641 0.726562 2.98242 0.498047 3.81445 0.498047H3.95508C4.77539 0.498047 5.18555 0.726562 5.18555 1.18359V19.623C5.18555 20.4785 5.33789 21.0762 5.64258 21.416C5.94727 21.7559 6.35742 21.9258 6.87305 21.9258C7.25977 21.9258 7.56445 21.9023 7.78711 21.8555C8.00977 21.8086 8.15625 21.7852 8.22656 21.7852C8.41406 21.7852 8.56641 21.9727 8.68359 22.3477C8.8125 22.7227 8.87695 23.0215 8.87695 23.2441C8.87695 23.8652 8.11523 24.1758 6.5918 24.1758ZM18.7031 24.1758C16.1133 24.1758 14.1855 23.502 12.9199 22.1543C11.666 20.7949 11.0391 18.7207 11.0391 15.9316C11.0391 13.166 11.6543 11.0684 12.8848 9.63867C14.1152 8.19727 15.9258 7.47656 18.3164 7.47656C20.4492 7.47656 22.0547 8.16797 23.1328 9.55078C24.2227 10.9336 24.7676 12.9609 24.7676 15.6328C24.7676 15.75 24.7031 15.9141 24.5742 16.125C24.457 16.3242 24.3105 16.5059 24.1348 16.6699C23.9707 16.8223 23.8301 16.8984 23.7129 16.8984H13.8516C13.9805 18.6445 14.4258 19.9219 15.1875 20.7305C15.9609 21.5273 17.1211 21.9258 18.668 21.9258C19.5352 21.9258 20.2793 21.8203 20.9004 21.6094C21.5332 21.3984 22.1426 21.1406 22.7285 20.8359C22.7871 20.8125 22.875 20.7715 22.9922 20.7129C23.1094 20.6543 23.1914 20.625 23.2383 20.625C23.3672 20.625 23.5137 20.7305 23.6777 20.9414C23.8535 21.1406 24 21.3691 24.1172 21.627C24.2461 21.873 24.3105 22.0547 24.3105 22.1719C24.3105 22.4297 24.0527 22.7168 23.5371 23.0332C23.0215 23.3496 22.3301 23.6191 21.4629 23.8418C20.6074 24.0645 19.6875 24.1758 18.7031 24.1758ZM21.9727 14.6484C21.9727 11.3672 20.7246 9.72656 18.2285 9.72656C15.5449 9.72656 14.0859 11.3672 13.8516 14.6484H21.9727ZM33.5742 24.1758C32.5312 24.1758 31.5996 23.8594 30.7793 23.2266C29.959 22.5938 29.5488 21.4746 29.5488 19.8691V9.90234H27.9844C27.7617 9.90234 27.5977 9.83203 27.4922 9.69141C27.3984 9.53906 27.3516 9.29883 27.3516 8.9707V8.58398C27.3516 8.25586 27.3984 8.02148 27.4922 7.88086C27.5977 7.72852 27.7617 7.65234 27.9844 7.65234H29.5488L29.918 4.38281C29.9414 3.92578 30.2754 3.69727 30.9199 3.69727H31.2188C31.5469 3.69727 31.7871 3.75586 31.9395 3.87305C32.0918 3.97852 32.168 4.14844 32.168 4.38281V7.65234H34.7871C35.0098 7.65234 35.168 7.72852 35.2617 7.88086C35.3672 8.02148 35.4199 8.25586 35.4199 8.58398V8.9707C35.4199 9.29883 35.3672 9.53906 35.2617 9.69141C35.168 9.83203 35.0098 9.90234 34.7871 9.90234H32.168V19.623C32.168 20.4785 32.3145 21.0762 32.6074 21.416C32.9121 21.7559 33.3223 21.9258 33.8379 21.9258C34.2363 21.9258 34.541 21.9023 34.752 21.8555C34.9746 21.8086 35.1211 21.7852 35.1914 21.7852C35.3789 21.7852 35.5312 21.9727 35.6484 22.3477C35.7773 22.7227 35.8418 23.0215 35.8418 23.2441C35.8418 23.8652 35.0859 24.1758 33.5742 24.1758Z" fill="#C7FFFF"/>
<path d="M209.531 15.5273C209.238 15.5273 209.01 15.4453 208.846 15.2812C208.682 15.1055 208.6 14.8711 208.6 14.5781V14.3672C208.6 14.0625 208.682 13.834 208.846 13.6816C209.01 13.5176 209.238 13.4355 209.531 13.4355H222.17C222.803 13.4355 223.119 13.7461 223.119 14.3672V14.5781C223.119 14.8828 223.037 15.1172 222.873 15.2812C222.709 15.4453 222.475 15.5273 222.17 15.5273H209.531ZM209.531 20.6426C209.238 20.6426 209.01 20.5605 208.846 20.3965C208.682 20.2324 208.6 20.0039 208.6 19.7109V19.4648C208.6 19.1602 208.682 18.9258 208.846 18.7617C209.01 18.5977 209.238 18.5156 209.531 18.5156H222.17C222.475 18.5156 222.709 18.5977 222.873 18.7617C223.037 18.9258 223.119 19.1602 223.119 19.4648V19.7109C223.119 20.0156 223.037 20.25 222.873 20.4141C222.709 20.5664 222.475 20.6426 222.17 20.6426H209.531ZM237.568 28.3242C237.229 28.3242 236.871 28.2188 236.496 28.0078C236.133 27.8086 235.816 27.4336 235.547 26.8828C235.277 26.3438 235.143 25.6113 235.143 24.6855V19.4648C235.143 18.3164 235.037 17.4316 234.826 16.8105C234.615 16.1777 234.188 15.7148 233.543 15.4219C233.273 15.3164 233.074 15.1875 232.945 15.0352C232.828 14.8711 232.77 14.6484 232.77 14.3672V13.9277C232.77 13.6582 232.834 13.4414 232.963 13.2773C233.092 13.1133 233.285 12.9785 233.543 12.873C234.188 12.5801 234.615 12.123 234.826 11.502C235.037 10.8809 235.143 9.99609 235.143 8.84766V3.62695C235.143 2.71289 235.277 1.98633 235.547 1.44727C235.816 0.908203 236.133 0.533203 236.496 0.322266C236.871 0.111328 237.229 0.00585938 237.568 0.00585938H239.15C239.361 0.00585938 239.514 0.0761719 239.607 0.216797C239.713 0.357422 239.766 0.585938 239.766 0.902344V1.02539C239.766 1.3418 239.713 1.57031 239.607 1.71094C239.514 1.85156 239.361 1.92188 239.15 1.92188H238.465C238.043 1.92188 237.756 2.07422 237.604 2.37891C237.463 2.68359 237.393 3.16992 237.393 3.83789V9.33984C237.393 10.6523 237.129 11.6895 236.602 12.4512C236.074 13.2012 235.523 13.7812 234.949 14.1914C235.195 14.2969 235.506 14.5371 235.881 14.9121C236.268 15.2871 236.613 15.8203 236.918 16.5117C237.234 17.2031 237.393 18.0234 237.393 18.9727V24.4395C237.393 25.1074 237.463 25.5938 237.604 25.8984C237.756 26.2148 238.043 26.373 238.465 26.373H239.15C239.361 26.373 239.514 26.4434 239.607 26.584C239.713 26.7363 239.766 26.9707 239.766 27.2871V27.4102C239.766 27.7383 239.713 27.9727 239.607 28.1133C239.514 28.2539 239.361 28.3242 239.15 28.3242H237.568ZM94.2363 85.0527C93.791 85.0527 93.4688 85 93.2695 84.8945C93.0703 84.7773 92.9707 84.6016 92.9707 84.3672V73.3984C92.9707 72.0391 92.9062 71.0605 92.7773 70.4629C92.6484 69.8535 92.584 69.5195 92.584 69.4609C92.584 69.2031 92.7773 69.0215 93.1641 68.916C93.5625 68.7988 93.9375 68.7402 94.2891 68.7402C94.582 68.7402 94.7988 68.8984 94.9395 69.2148C95.0801 69.5312 95.1797 69.8535 95.2383 70.1816C95.3086 70.5098 95.3555 70.7207 95.3789 70.8145C96.0352 70.0762 96.791 69.502 97.6465 69.0918C98.5137 68.6816 99.3867 68.4766 100.266 68.4766C101.859 68.4766 103.102 68.9277 103.992 69.8301C104.895 70.7207 105.346 71.9512 105.346 73.5215V84.3672C105.346 84.6016 105.246 84.7773 105.047 84.8945C104.848 85 104.531 85.0527 104.098 85.0527H103.957C103.535 85.0527 103.225 85 103.025 84.8945C102.826 84.7773 102.727 84.6016 102.727 84.3672V73.7852C102.727 72.8242 102.445 72.0801 101.883 71.5527C101.332 71.0137 100.553 70.7441 99.5449 70.7441C98.8418 70.7441 98.1328 70.9434 97.418 71.3418C96.7148 71.7285 96.1055 72.2617 95.5898 72.9414V84.3672C95.5898 84.6016 95.4902 84.7773 95.291 84.8945C95.0918 85 94.7812 85.0527 94.3594 85.0527H94.2363ZM114.557 85.1758C112.963 85.1758 111.674 84.7832 110.689 83.998C109.705 83.2129 109.213 82.0469 109.213 80.5C109.213 78.8711 109.711 77.6465 110.707 76.8262C111.703 75.9941 112.916 75.4609 114.346 75.2266C115.787 74.9805 117.533 74.8398 119.584 74.8047V73.3281C119.584 72.543 119.314 71.916 118.775 71.4473C118.248 70.9668 117.375 70.7266 116.156 70.7266C115.23 70.7266 114.416 70.8379 113.713 71.0605C113.021 71.2715 112.371 71.5293 111.762 71.834C111.504 71.9629 111.346 72.0273 111.287 72.0273C111.146 72.0273 110.988 71.9277 110.812 71.7285C110.648 71.5176 110.502 71.2832 110.373 71.0254C110.256 70.7676 110.197 70.5801 110.197 70.4629C110.197 70.1934 110.473 69.9004 111.023 69.584C111.586 69.2676 112.318 69.0039 113.221 68.793C114.123 68.582 115.066 68.4766 116.051 68.4766C118.008 68.4766 119.525 68.9043 120.604 69.7598C121.682 70.6152 122.221 71.8164 122.221 73.3633V80.377C122.221 81.7363 122.279 82.7207 122.396 83.3301C122.525 83.9277 122.59 84.2559 122.59 84.3145C122.59 84.5723 122.391 84.7598 121.992 84.877C121.605 84.9824 121.242 85.0352 120.902 85.0352C120.621 85.0352 120.41 84.877 120.27 84.5605C120.141 84.2441 120.012 83.7871 119.883 83.1895L119.812 82.8379C119.168 83.5527 118.406 84.1211 117.527 84.543C116.66 84.9648 115.67 85.1758 114.557 85.1758ZM114.697 82.9082C115.729 82.9082 116.607 82.7207 117.334 82.3457C118.061 81.9707 118.811 81.4375 119.584 80.7461V77.0547C118.037 77.0664 116.766 77.1309 115.77 77.248C114.773 77.3652 113.9 77.6641 113.15 78.1445C112.4 78.6133 112.025 79.3457 112.025 80.3418C112.025 81.1738 112.248 81.8125 112.693 82.2578C113.15 82.6914 113.818 82.9082 114.697 82.9082ZM143.982 68.4766C145.283 68.4766 146.426 68.8457 147.41 69.584C148.395 70.3223 148.887 71.6348 148.887 73.5215V84.3672C148.887 84.6016 148.787 84.7773 148.588 84.8945C148.389 85 148.072 85.0527 147.639 85.0527H147.533C147.088 85.0527 146.766 85 146.566 84.8945C146.367 84.7773 146.268 84.6016 146.268 84.3672V73.7852C146.268 72.8359 146.01 72.0918 145.494 71.5527C144.99 71.0137 144.246 70.7441 143.262 70.7441C142.441 70.7441 141.697 70.9844 141.029 71.4648C140.373 71.9336 139.84 72.4258 139.43 72.9414C139.453 73.2227 139.465 73.4336 139.465 73.5742V84.3672C139.465 84.8242 139.043 85.0527 138.199 85.0527H138.076C137.244 85.0527 136.828 84.8242 136.828 84.3672V73.7852C136.828 72.8359 136.57 72.0918 136.055 71.5527C135.551 71.0137 134.807 70.7441 133.822 70.7441C133.143 70.7441 132.521 70.9082 131.959 71.2363C131.396 71.5527 130.928 71.8984 130.553 72.2734C130.189 72.6484 130.008 72.8594 130.008 72.9062V84.3672C130.008 84.6016 129.908 84.7773 129.709 84.8945C129.521 85 129.211 85.0527 128.777 85.0527H128.637C128.203 85.0527 127.887 85 127.688 84.8945C127.5 84.7773 127.406 84.6016 127.406 84.3672V73.3984C127.406 72.0391 127.342 71.0605 127.213 70.4629C127.084 69.8535 127.02 69.5195 127.02 69.4609C127.02 69.2031 127.213 69.0215 127.6 68.916C127.998 68.7988 128.367 68.7402 128.707 68.7402C129 68.7402 129.217 68.8984 129.357 69.2148C129.498 69.5312 129.598 69.8535 129.656 70.1816C129.727 70.5098 129.773 70.7207 129.797 70.8145C130.371 70.1465 131.074 69.5898 131.906 69.1445C132.738 68.6992 133.617 68.4766 134.543 68.4766C135.492 68.4766 136.377 68.6699 137.197 69.0566C138.018 69.4316 138.621 70.0996 139.008 71.0605C139.652 70.2988 140.408 69.6777 141.275 69.1973C142.143 68.7168 143.045 68.4766 143.982 68.4766ZM160.629 85.1758C158.039 85.1758 156.111 84.502 154.846 83.1543C153.592 81.7949 152.965 79.7207 152.965 76.9316C152.965 74.166 153.58 72.0684 154.811 70.6387C156.041 69.1973 157.852 68.4766 160.242 68.4766C162.375 68.4766 163.98 69.168 165.059 70.5508C166.148 71.9336 166.693 73.9609 166.693 76.6328C166.693 76.75 166.629 76.9141 166.5 77.125C166.383 77.3242 166.236 77.5059 166.061 77.6699C165.896 77.8223 165.756 77.8984 165.639 77.8984H155.777C155.906 79.6445 156.352 80.9219 157.113 81.7305C157.887 82.5273 159.047 82.9258 160.594 82.9258C161.461 82.9258 162.205 82.8203 162.826 82.6094C163.459 82.3984 164.068 82.1406 164.654 81.8359C164.713 81.8125 164.801 81.7715 164.918 81.7129C165.035 81.6543 165.117 81.625 165.164 81.625C165.293 81.625 165.439 81.7305 165.604 81.9414C165.779 82.1406 165.926 82.3691 166.043 82.627C166.172 82.873 166.236 83.0547 166.236 83.1719C166.236 83.4297 165.979 83.7168 165.463 84.0332C164.947 84.3496 164.256 84.6191 163.389 84.8418C162.533 85.0645 161.613 85.1758 160.629 85.1758ZM163.898 75.6484C163.898 72.3672 162.65 70.7266 160.154 70.7266C157.471 70.7266 156.012 72.3672 155.777 75.6484H163.898ZM178.066 76.5273C177.773 76.5273 177.545 76.4453 177.381 76.2812C177.217 76.1055 177.135 75.8711 177.135 75.5781V75.3672C177.135 75.0625 177.217 74.834 177.381 74.6816C177.545 74.5176 177.773 74.4355 178.066 74.4355H190.705C191.338 74.4355 191.654 74.7461 191.654 75.3672V75.5781C191.654 75.8828 191.572 76.1172 191.408 76.2812C191.244 76.4453 191.01 76.5273 190.705 76.5273H178.066ZM178.066 81.6426C177.773 81.6426 177.545 81.5605 177.381 81.3965C177.217 81.2324 177.135 81.0039 177.135 80.7109V80.4648C177.135 80.1602 177.217 79.9258 177.381 79.7617C177.545 79.5977 177.773 79.5156 178.066 79.5156H190.705C191.01 79.5156 191.244 79.5977 191.408 79.7617C191.572 79.9258 191.654 80.1602 191.654 80.4648V80.7109C191.654 81.0156 191.572 81.25 191.408 81.4141C191.244 81.5664 191.01 81.6426 190.705 81.6426H178.066ZM384.838 88.6211C384.604 88.6211 384.393 88.5859 384.205 88.5156C384.029 88.4453 383.941 88.3223 383.941 88.1465C383.941 88.0645 383.977 87.9355 384.047 87.7598C384.129 87.5957 384.182 87.4785 384.205 87.4082C384.568 86.7051 384.838 85.9668 385.014 85.1934C385.189 84.4316 385.277 83.5762 385.277 82.627C385.277 82.3223 385.383 82.082 385.594 81.9062C385.805 81.7188 386.115 81.625 386.525 81.625H386.824C387.211 81.625 387.51 81.707 387.721 81.8711C387.943 82.0234 388.055 82.2285 388.055 82.4863C388.055 83.6465 387.867 84.6953 387.492 85.6328C387.117 86.5703 386.672 87.3027 386.156 87.8301C385.652 88.3574 385.213 88.6211 384.838 88.6211ZM97.9629 146.176C96.7441 146.176 95.6777 145.824 94.7637 145.121C93.8496 144.406 93.1406 143.416 92.6367 142.15C92.1445 140.885 91.8984 139.449 91.8984 137.844C91.8984 136.074 92.1621 134.562 92.6895 133.309C93.2285 132.043 93.9785 131.088 94.9395 130.443C95.9004 129.799 97.0078 129.477 98.2617 129.477C99.1641 129.477 99.9609 129.611 100.652 129.881C101.355 130.15 102.047 130.543 102.727 131.059V123.184C102.727 122.727 103.137 122.498 103.957 122.498H104.098C104.93 122.498 105.346 122.727 105.346 123.184V141.377C105.346 142.736 105.41 143.721 105.539 144.33C105.668 144.928 105.732 145.256 105.732 145.314C105.732 145.572 105.533 145.76 105.135 145.877C104.748 145.982 104.385 146.035 104.045 146.035C103.811 146.035 103.623 145.924 103.482 145.701C103.342 145.479 103.242 145.256 103.184 145.033C103.137 144.799 103.055 144.4 102.938 143.838C101.449 145.396 99.791 146.176 97.9629 146.176ZM98.5078 143.908C99.1992 143.908 99.9141 143.721 100.652 143.346C101.402 142.971 102.094 142.438 102.727 141.746V133.186C101.602 132.248 100.318 131.779 98.877 131.779C97.4824 131.814 96.4277 132.324 95.7129 133.309C95.0098 134.293 94.6582 135.723 94.6582 137.598C94.6582 139.613 94.9863 141.172 95.6426 142.273C96.3105 143.363 97.2656 143.908 98.5078 143.908ZM117.352 146.176C114.762 146.176 112.834 145.502 111.568 144.154C110.314 142.795 109.688 140.721 109.688 137.932C109.688 135.166 110.303 133.068 111.533 131.639C112.764 130.197 114.574 129.477 116.965 129.477C119.098 129.477 120.703 130.168 121.781 131.551C122.871 132.934 123.416 134.961 123.416 137.633C123.416 137.75 123.352 137.914 123.223 138.125C123.105 138.324 122.959 138.506 122.783 138.67C122.619 138.822 122.479 138.898 122.361 138.898H112.5C112.629 140.645 113.074 141.922 113.836 142.73C114.609 143.527 115.77 143.926 117.316 143.926C118.184 143.926 118.928 143.82 119.549 143.609C120.182 143.398 120.791 143.141 121.377 142.836C121.436 142.812 121.523 142.771 121.641 142.713C121.758 142.654 121.84 142.625 121.887 142.625C122.016 142.625 122.162 142.73 122.326 142.941C122.502 143.141 122.648 143.369 122.766 143.627C122.895 143.873 122.959 144.055 122.959 144.172C122.959 144.43 122.701 144.717 122.186 145.033C121.67 145.35 120.979 145.619 120.111 145.842C119.256 146.064 118.336 146.176 117.352 146.176ZM120.621 136.648C120.621 133.367 119.373 131.727 116.877 131.727C114.193 131.727 112.734 133.367 112.5 136.648H120.621ZM132.223 146.176C131.18 146.176 130.248 145.859 129.428 145.227C128.607 144.594 128.197 143.475 128.197 141.869V131.902H126.633C126.41 131.902 126.246 131.832 126.141 131.691C126.047 131.539 126 131.299 126 130.971V130.584C126 130.256 126.047 130.021 126.141 129.881C126.246 129.729 126.41 129.652 126.633 129.652H128.197L128.566 126.383C128.59 125.926 128.924 125.697 129.568 125.697H129.867C130.195 125.697 130.436 125.756 130.588 125.873C130.74 125.979 130.816 126.148 130.816 126.383V129.652H133.436C133.658 129.652 133.816 129.729 133.91 129.881C134.016 130.021 134.068 130.256 134.068 130.584V130.971C134.068 131.299 134.016 131.539 133.91 131.691C133.816 131.832 133.658 131.902 133.436 131.902H130.816V141.623C130.816 142.479 130.963 143.076 131.256 143.416C131.561 143.756 131.971 143.926 132.486 143.926C132.885 143.926 133.189 143.902 133.4 143.855C133.623 143.809 133.77 143.785 133.84 143.785C134.027 143.785 134.18 143.973 134.297 144.348C134.426 144.723 134.49 145.021 134.49 145.244C134.49 145.865 133.734 146.176 132.223 146.176ZM142.436 146.176C140.842 146.176 139.553 145.783 138.568 144.998C137.584 144.213 137.092 143.047 137.092 141.5C137.092 139.871 137.59 138.646 138.586 137.826C139.582 136.994 140.795 136.461 142.225 136.227C143.666 135.98 145.412 135.84 147.463 135.805V134.328C147.463 133.543 147.193 132.916 146.654 132.447C146.127 131.967 145.254 131.727 144.035 131.727C143.109 131.727 142.295 131.838 141.592 132.061C140.9 132.271 140.25 132.529 139.641 132.834C139.383 132.963 139.225 133.027 139.166 133.027C139.025 133.027 138.867 132.928 138.691 132.729C138.527 132.518 138.381 132.283 138.252 132.025C138.135 131.768 138.076 131.58 138.076 131.463C138.076 131.193 138.352 130.9 138.902 130.584C139.465 130.268 140.197 130.004 141.1 129.793C142.002 129.582 142.945 129.477 143.93 129.477C145.887 129.477 147.404 129.904 148.482 130.76C149.561 131.615 150.1 132.816 150.1 134.363V141.377C150.1 142.736 150.158 143.721 150.275 144.33C150.404 144.928 150.469 145.256 150.469 145.314C150.469 145.572 150.27 145.76 149.871 145.877C149.484 145.982 149.121 146.035 148.781 146.035C148.5 146.035 148.289 145.877 148.148 145.561C148.02 145.244 147.891 144.787 147.762 144.189L147.691 143.838C147.047 144.553 146.285 145.121 145.406 145.543C144.539 145.965 143.549 146.176 142.436 146.176ZM142.576 143.908C143.607 143.908 144.486 143.721 145.213 143.346C145.939 142.971 146.689 142.438 147.463 141.746V138.055C145.916 138.066 144.645 138.131 143.648 138.248C142.652 138.365 141.779 138.664 141.029 139.145C140.279 139.613 139.904 140.346 139.904 141.342C139.904 142.174 140.127 142.812 140.572 143.258C141.029 143.691 141.697 143.908 142.576 143.908ZM156.586 125.715C155.754 125.715 155.338 125.486 155.338 125.029V123.184C155.338 122.727 155.754 122.498 156.586 122.498H156.955C157.799 122.498 158.221 122.727 158.221 123.184V125.029C158.221 125.486 157.799 125.715 156.955 125.715H156.586ZM156.709 146.053C155.877 146.053 155.461 145.824 155.461 145.367V130.285C155.461 129.828 155.877 129.6 156.709 129.6H156.832C157.676 129.6 158.098 129.828 158.098 130.285V145.367C158.098 145.824 157.676 146.053 156.832 146.053H156.709ZM167.502 146.176C166.459 146.176 165.527 145.859 164.707 145.227C163.887 144.594 163.477 143.475 163.477 141.869V123.184C163.477 122.727 163.893 122.498 164.725 122.498H164.865C165.686 122.498 166.096 122.727 166.096 123.184V141.623C166.096 142.479 166.248 143.076 166.553 143.416C166.857 143.756 167.268 143.926 167.783 143.926C168.17 143.926 168.475 143.902 168.697 143.855C168.92 143.809 169.066 143.785 169.137 143.785C169.324 143.785 169.477 143.973 169.594 144.348C169.723 144.723 169.787 145.021 169.787 145.244C169.787 145.865 169.025 146.176 167.502 146.176ZM176.291 146.299C175.412 146.299 174.592 146.188 173.83 145.965C173.068 145.742 172.459 145.473 172.002 145.156C171.557 144.828 171.334 144.541 171.334 144.295C171.334 144.178 171.393 143.99 171.51 143.732C171.639 143.475 171.785 143.246 171.949 143.047C172.125 142.836 172.283 142.73 172.424 142.73C172.459 142.73 172.564 142.789 172.74 142.906C173.209 143.211 173.701 143.469 174.217 143.68C174.744 143.891 175.371 143.996 176.098 143.996C178.137 143.996 179.156 143.152 179.156 141.465C179.156 140.984 179.057 140.58 178.857 140.252C178.67 139.924 178.348 139.637 177.891 139.391C177.445 139.133 176.83 138.887 176.045 138.652C174.92 138.324 174.041 137.949 173.408 137.527C172.787 137.105 172.348 136.613 172.09 136.051C171.832 135.477 171.703 134.785 171.703 133.977C171.703 133.109 171.92 132.33 172.354 131.639C172.799 130.947 173.414 130.408 174.199 130.021C174.996 129.635 175.893 129.441 176.889 129.441C177.58 129.441 178.242 129.506 178.875 129.635C179.52 129.764 180.035 129.934 180.422 130.145C180.82 130.344 181.02 130.555 181.02 130.777C181.02 130.941 180.961 131.164 180.844 131.445C180.738 131.715 180.604 131.955 180.439 132.166C180.275 132.365 180.129 132.465 180 132.465C179.977 132.465 179.83 132.395 179.561 132.254C179.291 132.102 178.945 131.967 178.523 131.85C178.113 131.721 177.656 131.656 177.152 131.656C176.355 131.656 175.693 131.838 175.166 132.201C174.65 132.553 174.393 133.027 174.393 133.625C174.393 134.328 174.58 134.891 174.955 135.312C175.33 135.734 175.951 136.08 176.818 136.35C178.154 136.76 179.174 137.17 179.877 137.58C180.58 137.99 181.078 138.494 181.371 139.092C181.676 139.678 181.828 140.451 181.828 141.412C181.828 142.326 181.582 143.158 181.09 143.908C180.598 144.646 179.93 145.232 179.086 145.666C178.242 146.088 177.311 146.299 176.291 146.299ZM193.078 137.527C192.785 137.527 192.557 137.445 192.393 137.281C192.229 137.105 192.146 136.871 192.146 136.578V136.367C192.146 136.062 192.229 135.834 192.393 135.682C192.557 135.518 192.785 135.436 193.078 135.436H205.717C206.35 135.436 206.666 135.746 206.666 136.367V136.578C206.666 136.883 206.584 137.117 206.42 137.281C206.256 137.445 206.021 137.527 205.717 137.527H193.078ZM193.078 142.643C192.785 142.643 192.557 142.561 192.393 142.396C192.229 142.232 192.146 142.004 192.146 141.711V141.465C192.146 141.16 192.229 140.926 192.393 140.762C192.557 140.598 192.785 140.516 193.078 140.516H205.717C206.021 140.516 206.256 140.598 206.42 140.762C206.584 140.926 206.666 141.16 206.666 141.465V141.711C206.666 142.016 206.584 142.25 206.42 142.414C206.256 142.566 206.021 142.643 205.717 142.643H193.078ZM645.451 149.621C645.217 149.621 645.006 149.586 644.818 149.516C644.643 149.445 644.555 149.322 644.555 149.146C644.555 149.064 644.59 148.936 644.66 148.76C644.742 148.596 644.795 148.479 644.818 148.408C645.182 147.705 645.451 146.967 645.627 146.193C645.803 145.432 645.891 144.576 645.891 143.627C645.891 143.322 645.996 143.082 646.207 142.906C646.418 142.719 646.729 142.625 647.139 142.625H647.438C647.824 142.625 648.123 142.707 648.334 142.871C648.557 143.023 648.668 143.229 648.668 143.486C648.668 144.646 648.48 145.695 648.105 146.633C647.73 147.57 647.285 148.303 646.77 148.83C646.266 149.357 645.826 149.621 645.451 149.621ZM94.2363 213.504C93.3926 213.504 92.9707 213.275 92.9707 212.818V195.398C92.9707 194.039 92.9062 193.061 92.7773 192.463C92.6484 191.854 92.584 191.52 92.584 191.461C92.584 191.203 92.7773 191.021 93.1641 190.916C93.5625 190.799 93.9375 190.74 94.2891 190.74C94.582 190.74 94.7988 190.898 94.9395 191.215C95.0801 191.531 95.1797 191.854 95.2383 192.182C95.3086 192.51 95.3555 192.721 95.3789 192.814C96.8672 191.256 98.5254 190.477 100.354 190.477C101.607 190.477 102.691 190.834 103.605 191.549C104.52 192.264 105.217 193.254 105.697 194.52C106.178 195.785 106.418 197.227 106.418 198.844C106.418 200.602 106.148 202.107 105.609 203.361C105.082 204.615 104.338 205.564 103.377 206.209C102.416 206.854 101.309 207.176 100.055 207.176C99.1523 207.176 98.3496 207.041 97.6465 206.771C96.9551 206.502 96.2695 206.109 95.5898 205.594V212.818C95.5898 213.275 95.1797 213.504 94.3594 213.504H94.2363ZM99.457 204.873C100.852 204.838 101.9 204.328 102.604 203.344C103.307 202.359 103.658 200.93 103.658 199.055C103.658 197.039 103.324 195.486 102.656 194.396C102 193.295 101.051 192.744 99.8086 192.744C99.1172 192.744 98.3965 192.932 97.6465 193.307C96.9082 193.682 96.2227 194.215 95.5898 194.906V203.467C96.7383 204.404 98.0273 204.873 99.457 204.873ZM112.289 207.053C111.844 207.053 111.521 207 111.322 206.895C111.123 206.777 111.023 206.602 111.023 206.367V195.398C111.023 194.039 110.959 193.061 110.83 192.463C110.701 191.854 110.637 191.52 110.637 191.461C110.637 191.203 110.83 191.021 111.217 190.916C111.615 190.799 111.99 190.74 112.342 190.74C112.623 190.74 112.834 190.893 112.975 191.197C113.115 191.49 113.238 191.906 113.344 192.445L113.432 192.814C114.545 191.256 115.752 190.477 117.053 190.477C117.65 190.477 118.102 190.588 118.406 190.811C118.711 191.021 118.863 191.309 118.863 191.672C118.863 192.023 118.799 192.398 118.67 192.797C118.553 193.184 118.412 193.377 118.248 193.377C118.166 193.377 118.02 193.342 117.809 193.271C117.621 193.189 117.434 193.131 117.246 193.096C117.059 193.049 116.818 193.025 116.525 193.025C116.045 193.025 115.588 193.166 115.154 193.447C114.732 193.729 114.375 194.039 114.082 194.379C113.789 194.719 113.643 194.906 113.643 194.941V206.367C113.643 206.602 113.543 206.777 113.344 206.895C113.145 207 112.834 207.053 112.412 207.053H112.289ZM123.609 186.715C122.777 186.715 122.361 186.486 122.361 186.029V184.184C122.361 183.727 122.777 183.498 123.609 183.498H123.979C124.822 183.498 125.244 183.727 125.244 184.184V186.029C125.244 186.486 124.822 186.715 123.979 186.715H123.609ZM123.732 207.053C122.9 207.053 122.484 206.824 122.484 206.367V191.285C122.484 190.828 122.9 190.6 123.732 190.6H123.855C124.699 190.6 125.121 190.828 125.121 191.285V206.367C125.121 206.824 124.699 207.053 123.855 207.053H123.732ZM137.25 207.176C134.66 207.176 132.727 206.514 131.449 205.189C130.184 203.854 129.551 201.709 129.551 198.756C129.551 195.768 130.26 193.641 131.678 192.375C133.096 191.109 134.859 190.477 136.969 190.477C137.754 190.477 138.51 190.547 139.236 190.688C139.963 190.816 140.549 190.992 140.994 191.215C141.439 191.438 141.662 191.672 141.662 191.918C141.662 192.082 141.604 192.299 141.486 192.568C141.381 192.838 141.246 193.078 141.082 193.289C140.93 193.488 140.789 193.588 140.66 193.588C140.625 193.588 140.572 193.576 140.502 193.553C140.432 193.518 140.367 193.488 140.309 193.465C139.254 192.973 138.117 192.727 136.898 192.727C135.457 192.727 134.344 193.201 133.559 194.15C132.773 195.088 132.381 196.6 132.381 198.686C132.381 200.162 132.539 201.357 132.855 202.271C133.172 203.174 133.682 203.842 134.385 204.275C135.1 204.709 136.049 204.926 137.232 204.926C138.533 204.926 139.705 204.656 140.748 204.117C140.854 204.094 140.93 204.07 140.977 204.047C141.035 204.012 141.076 203.994 141.1 203.994C141.229 203.994 141.375 204.094 141.539 204.293C141.703 204.492 141.844 204.721 141.961 204.979C142.09 205.236 142.154 205.441 142.154 205.594C142.154 205.84 141.932 206.086 141.486 206.332C141.041 206.578 140.438 206.783 139.676 206.947C138.926 207.1 138.117 207.176 137.25 207.176ZM152.473 207.176C149.883 207.176 147.955 206.502 146.689 205.154C145.436 203.795 144.809 201.721 144.809 198.932C144.809 196.166 145.424 194.068 146.654 192.639C147.885 191.197 149.695 190.477 152.086 190.477C154.219 190.477 155.824 191.168 156.902 192.551C157.992 193.934 158.537 195.961 158.537 198.633C158.537 198.75 158.473 198.914 158.344 199.125C158.227 199.324 158.08 199.506 157.904 199.67C157.74 199.822 157.6 199.898 157.482 199.898H147.621C147.75 201.645 148.195 202.922 148.957 203.73C149.73 204.527 150.891 204.926 152.438 204.926C153.305 204.926 154.049 204.82 154.67 204.609C155.303 204.398 155.912 204.141 156.498 203.836C156.557 203.812 156.645 203.771 156.762 203.713C156.879 203.654 156.961 203.625 157.008 203.625C157.137 203.625 157.283 203.73 157.447 203.941C157.623 204.141 157.77 204.369 157.887 204.627C158.016 204.873 158.08 205.055 158.08 205.172C158.08 205.43 157.822 205.717 157.307 206.033C156.791 206.35 156.1 206.619 155.232 206.842C154.377 207.064 153.457 207.176 152.473 207.176ZM155.742 197.648C155.742 194.367 154.494 192.727 151.998 192.727C149.314 192.727 147.855 194.367 147.621 197.648H155.742ZM169.91 198.527C169.617 198.527 169.389 198.445 169.225 198.281C169.061 198.105 168.979 197.871 168.979 197.578V197.367C168.979 197.062 169.061 196.834 169.225 196.682C169.389 196.518 169.617 196.436 169.91 196.436H182.549C183.182 196.436 183.498 196.746 183.498 197.367V197.578C183.498 197.883 183.416 198.117 183.252 198.281C183.088 198.445 182.854 198.527 182.549 198.527H169.91ZM169.91 203.643C169.617 203.643 169.389 203.561 169.225 203.396C169.061 203.232 168.979 203.004 168.979 202.711V202.465C168.979 202.16 169.061 201.926 169.225 201.762C169.389 201.598 169.617 201.516 169.91 201.516H182.549C182.854 201.516 183.088 201.598 183.252 201.762C183.416 201.926 183.498 202.16 183.498 202.465V202.711C183.498 203.016 183.416 203.25 183.252 203.414C183.088 203.566 182.854 203.643 182.549 203.643H169.91ZM1.56445 272.324C1.3418 272.324 1.17773 272.254 1.07227 272.113C0.978516 271.973 0.931641 271.738 0.931641 271.41V271.287C0.931641 270.959 0.978516 270.725 1.07227 270.584C1.17773 270.443 1.3418 270.373 1.56445 270.373H2.25C2.66016 270.373 2.94141 270.215 3.09375 269.898C3.24609 269.582 3.32227 269.096 3.32227 268.439V262.973C3.32227 262.023 3.47461 261.203 3.7793 260.512C4.0957 259.82 4.44141 259.287 4.81641 258.912C5.19141 258.537 5.50195 258.297 5.74805 258.191C4.13086 257.008 3.32227 255.391 3.32227 253.34V247.838C3.32227 247.182 3.24609 246.701 3.09375 246.396C2.94141 246.08 2.66016 245.922 2.25 245.922H1.56445C1.3418 245.922 1.17773 245.852 1.07227 245.711C0.978516 245.57 0.931641 245.342 0.931641 245.025V244.902C0.931641 244.586 0.978516 244.357 1.07227 244.217C1.17773 244.076 1.3418 244.006 1.56445 244.006H3.12891C3.46875 244.006 3.82617 244.111 4.20117 244.322C4.57617 244.533 4.89844 244.908 5.16797 245.447C5.4375 245.986 5.57227 246.713 5.57227 247.627V252.848C5.57227 253.996 5.67773 254.881 5.88867 255.502C6.09961 256.123 6.52734 256.58 7.17188 256.873C7.42969 256.99 7.62305 257.131 7.75195 257.295C7.88086 257.459 7.94531 257.67 7.94531 257.928V258.367C7.94531 258.637 7.88086 258.854 7.75195 259.018C7.62305 259.17 7.42969 259.305 7.17188 259.422C6.52734 259.715 6.09961 260.178 5.88867 260.811C5.67773 261.432 5.57227 262.316 5.57227 263.465V268.686C5.57227 269.611 5.4375 270.344 5.16797 270.883C4.89844 271.434 4.57617 271.809 4.20117 272.008C3.83789 272.219 3.48047 272.324 3.12891 272.324H1.56445Z" fill="white"/>
<path d="M48.3926 30.5039C47.5488 30.5039 47.127 30.2754 47.127 29.8184V12.3984C47.127 11.0391 47.0625 10.0605 46.9336 9.46289C46.8047 8.85352 46.7402 8.51953 46.7402 8.46094C46.7402 8.20312 46.9336 8.02148 47.3203 7.91602C47.7188 7.79883 48.0938 7.74023 48.4453 7.74023C48.7383 7.74023 48.9551 7.89844 49.0957 8.21484C49.2363 8.53125 49.3359 8.85352 49.3945 9.18164C49.4648 9.50977 49.5117 9.7207 49.5352 9.81445C51.0234 8.25586 52.6816 7.47656 54.5098 7.47656C55.7637 7.47656 56.8477 7.83398 57.7617 8.54883C58.6758 9.26367 59.373 10.2539 59.8535 11.5195C60.334 12.7852 60.5742 14.2266 60.5742 15.8438C60.5742 17.6016 60.3047 19.1074 59.7656 20.3613C59.2383 21.6152 58.4941 22.5645 57.5332 23.209C56.5723 23.8535 55.4648 24.1758 54.2109 24.1758C53.3086 24.1758 52.5059 24.041 51.8027 23.7715C51.1113 23.502 50.4258 23.1094 49.7461 22.5938V29.8184C49.7461 30.2754 49.3359 30.5039 48.5156 30.5039H48.3926ZM53.6133 21.873C55.0078 21.8379 56.0566 21.3281 56.7598 20.3438C57.4629 19.3594 57.8145 17.9297 57.8145 16.0547C57.8145 14.0391 57.4805 12.4863 56.8125 11.3965C56.1562 10.2949 55.207 9.74414 53.9648 9.74414C53.2734 9.74414 52.5527 9.93164 51.8027 10.3066C51.0645 10.6816 50.3789 11.2148 49.7461 11.9062V20.4668C50.8945 21.4043 52.1836 21.873 53.6133 21.873ZM66.4453 24.0527C66 24.0527 65.6777 24 65.4785 23.8945C65.2793 23.7773 65.1797 23.6016 65.1797 23.3672V12.3984C65.1797 11.0391 65.1152 10.0605 64.9863 9.46289C64.8574 8.85352 64.793 8.51953 64.793 8.46094C64.793 8.20312 64.9863 8.02148 65.373 7.91602C65.7715 7.79883 66.1465 7.74023 66.498 7.74023C66.7793 7.74023 66.9902 7.89258 67.1309 8.19727C67.2715 8.49023 67.3945 8.90625 67.5 9.44531L67.5879 9.81445C68.7012 8.25586 69.9082 7.47656 71.209 7.47656C71.8066 7.47656 72.2578 7.58789 72.5625 7.81055C72.8672 8.02148 73.0195 8.30859 73.0195 8.67188C73.0195 9.02344 72.9551 9.39844 72.8262 9.79688C72.709 10.1836 72.5684 10.377 72.4043 10.377C72.3223 10.377 72.1758 10.3418 71.9648 10.2715C71.7773 10.1895 71.5898 10.1309 71.4023 10.0957C71.2148 10.0488 70.9746 10.0254 70.6816 10.0254C70.2012 10.0254 69.7441 10.166 69.3105 10.4473C68.8887 10.7285 68.5312 11.0391 68.2383 11.3789C67.9453 11.7188 67.7988 11.9062 67.7988 11.9414V23.3672C67.7988 23.6016 67.6992 23.7773 67.5 23.8945C67.3008 24 66.9902 24.0527 66.5684 24.0527H66.4453ZM82.7578 24.1758C80.4023 24.1758 78.6035 23.4727 77.3613 22.0664C76.1309 20.6484 75.5156 18.5918 75.5156 15.8965C75.5156 13.2012 76.1426 11.127 77.3965 9.67383C78.6504 8.20898 80.4375 7.47656 82.7578 7.47656C85.0547 7.47656 86.8125 8.20312 88.0312 9.65625C89.25 11.0977 89.8594 13.1777 89.8594 15.8965C89.8594 18.6035 89.2559 20.6602 88.0488 22.0664C86.8535 23.4727 85.0898 24.1758 82.7578 24.1758ZM82.6699 21.9258C84.1934 21.9258 85.3184 21.4336 86.0449 20.4492C86.7715 19.4531 87.1348 17.918 87.1348 15.8438C87.1348 13.7578 86.7715 12.2168 86.0449 11.2207C85.3184 10.2246 84.1934 9.72656 82.6699 9.72656C81.1582 9.72656 80.0449 10.2246 79.3301 11.2207C78.6152 12.2051 78.2578 13.7461 78.2578 15.8438C78.2578 17.9297 78.6094 19.4648 79.3125 20.4492C80.0273 21.4336 81.1465 21.9258 82.6699 21.9258ZM95.4844 24.0527C95.0508 24.0527 94.7344 24 94.5352 23.8945C94.3477 23.7773 94.2539 23.6016 94.2539 23.3672V3.06445C94.2539 2.72461 94.3242 2.48438 94.4648 2.34375C94.6172 2.20312 94.8574 2.13281 95.1855 2.13281H101.514C103.342 2.13281 104.959 2.57227 106.365 3.45117C107.783 4.31836 108.492 5.91797 108.492 8.25C108.492 9.98438 108.088 11.332 107.279 12.293C106.471 13.2422 105.562 13.8809 104.555 14.209C103.547 14.5254 102.639 14.6836 101.83 14.6836H96.9785V23.3672C96.9785 23.6016 96.8789 23.7773 96.6797 23.8945C96.4805 24 96.1699 24.0527 95.748 24.0527H95.4844ZM101.865 12.3105C102.393 12.3105 102.943 12.1992 103.518 11.9766C104.092 11.7422 104.59 11.3262 105.012 10.7285C105.434 10.1191 105.645 9.29297 105.645 8.25C105.645 6.85547 105.229 5.88281 104.396 5.33203C103.576 4.78125 102.586 4.50586 101.426 4.50586H96.9785V12.3105H101.865ZM113.484 24.0527C113.039 24.0527 112.717 24 112.518 23.8945C112.318 23.7773 112.219 23.6016 112.219 23.3672V12.3984C112.219 11.0391 112.154 10.0605 112.025 9.46289C111.896 8.85352 111.832 8.51953 111.832 8.46094C111.832 8.20312 112.025 8.02148 112.412 7.91602C112.811 7.79883 113.186 7.74023 113.537 7.74023C113.818 7.74023 114.029 7.89258 114.17 8.19727C114.311 8.49023 114.434 8.90625 114.539 9.44531L114.627 9.81445C115.74 8.25586 116.947 7.47656 118.248 7.47656C118.846 7.47656 119.297 7.58789 119.602 7.81055C119.906 8.02148 120.059 8.30859 120.059 8.67188C120.059 9.02344 119.994 9.39844 119.865 9.79688C119.748 10.1836 119.607 10.377 119.443 10.377C119.361 10.377 119.215 10.3418 119.004 10.2715C118.816 10.1895 118.629 10.1309 118.441 10.0957C118.254 10.0488 118.014 10.0254 117.721 10.0254C117.24 10.0254 116.783 10.166 116.35 10.4473C115.928 10.7285 115.57 11.0391 115.277 11.3789C114.984 11.7188 114.838 11.9062 114.838 11.9414V23.3672C114.838 23.6016 114.738 23.7773 114.539 23.8945C114.34 24 114.029 24.0527 113.607 24.0527H113.484ZM129.797 24.1758C127.441 24.1758 125.643 23.4727 124.4 22.0664C123.17 20.6484 122.555 18.5918 122.555 15.8965C122.555 13.2012 123.182 11.127 124.436 9.67383C125.689 8.20898 127.477 7.47656 129.797 7.47656C132.094 7.47656 133.852 8.20312 135.07 9.65625C136.289 11.0977 136.898 13.1777 136.898 15.8965C136.898 18.6035 136.295 20.6602 135.088 22.0664C133.893 23.4727 132.129 24.1758 129.797 24.1758ZM129.709 21.9258C131.232 21.9258 132.357 21.4336 133.084 20.4492C133.811 19.4531 134.174 17.918 134.174 15.8438C134.174 13.7578 133.811 12.2168 133.084 11.2207C132.357 10.2246 131.232 9.72656 129.709 9.72656C128.197 9.72656 127.084 10.2246 126.369 11.2207C125.654 12.2051 125.297 13.7461 125.297 15.8438C125.297 17.9297 125.648 19.4648 126.352 20.4492C127.066 21.4336 128.186 21.9258 129.709 21.9258ZM146.303 24.1758C145.084 24.1758 144.018 23.8242 143.104 23.1211C142.189 22.4062 141.48 21.416 140.977 20.1504C140.484 18.8848 140.238 17.4492 140.238 15.8438C140.238 14.0742 140.502 12.5625 141.029 11.3086C141.568 10.043 142.318 9.08789 143.279 8.44336C144.24 7.79883 145.348 7.47656 146.602 7.47656C147.504 7.47656 148.301 7.61133 148.992 7.88086C149.695 8.15039 150.387 8.54297 151.066 9.05859V1.18359C151.066 0.726562 151.477 0.498047 152.297 0.498047H152.438C153.27 0.498047 153.686 0.726562 153.686 1.18359V19.377C153.686 20.7363 153.75 21.7207 153.879 22.3301C154.008 22.9277 154.072 23.2559 154.072 23.3145C154.072 23.5723 153.873 23.7598 153.475 23.877C153.088 23.9824 152.725 24.0352 152.385 24.0352C152.15 24.0352 151.963 23.9238 151.822 23.7012C151.682 23.4785 151.582 23.2559 151.523 23.0332C151.477 22.7988 151.395 22.4004 151.277 21.8379C149.789 23.3965 148.131 24.1758 146.303 24.1758ZM146.848 21.9082C147.539 21.9082 148.254 21.7207 148.992 21.3457C149.742 20.9707 150.434 20.4375 151.066 19.7461V11.1855C149.941 10.248 148.658 9.7793 147.217 9.7793C145.822 9.81445 144.768 10.3242 144.053 11.3086C143.35 12.293 142.998 13.7227 142.998 15.5977C142.998 17.6133 143.326 19.1719 143.982 20.2734C144.65 21.3633 145.605 21.9082 146.848 21.9082ZM163.74 24.1758C162.146 24.1758 160.898 23.7305 159.996 22.8398C159.094 21.9375 158.643 20.6953 158.643 19.1133V8.28516C158.643 7.82812 159.064 7.59961 159.908 7.59961H160.031C160.863 7.59961 161.279 7.82812 161.279 8.28516V18.8672C161.279 19.8281 161.555 20.5781 162.105 21.1172C162.668 21.6445 163.453 21.9082 164.461 21.9082C165.164 21.9082 165.867 21.7148 166.57 21.3281C167.273 20.9297 167.883 20.3906 168.398 19.7109V8.28516C168.398 7.82812 168.814 7.59961 169.646 7.59961H169.77C170.613 7.59961 171.035 7.82812 171.035 8.28516V19.377C171.035 20.7363 171.094 21.7207 171.211 22.3301C171.328 22.9277 171.387 23.2559 171.387 23.3145C171.387 23.5723 171.193 23.7598 170.807 23.877C170.42 23.9824 170.057 24.0352 169.717 24.0352C169.424 24.0352 169.207 23.8711 169.066 23.543C168.926 23.2031 168.82 22.8574 168.75 22.5059C168.691 22.1543 168.65 21.9316 168.627 21.8379C167.971 22.5762 167.209 23.1504 166.342 23.5605C165.486 23.9707 164.619 24.1758 163.74 24.1758ZM183.023 24.1758C180.434 24.1758 178.5 23.5137 177.223 22.1895C175.957 20.8535 175.324 18.709 175.324 15.7559C175.324 12.7676 176.033 10.6406 177.451 9.375C178.869 8.10938 180.633 7.47656 182.742 7.47656C183.527 7.47656 184.283 7.54688 185.01 7.6875C185.736 7.81641 186.322 7.99219 186.768 8.21484C187.213 8.4375 187.436 8.67188 187.436 8.91797C187.436 9.08203 187.377 9.29883 187.26 9.56836C187.154 9.83789 187.02 10.0781 186.855 10.2891C186.703 10.4883 186.562 10.5879 186.434 10.5879C186.398 10.5879 186.346 10.5762 186.275 10.5527C186.205 10.5176 186.141 10.4883 186.082 10.4648C185.027 9.97266 183.891 9.72656 182.672 9.72656C181.23 9.72656 180.117 10.2012 179.332 11.1504C178.547 12.0879 178.154 13.5996 178.154 15.6855C178.154 17.1621 178.312 18.3574 178.629 19.2715C178.945 20.1738 179.455 20.8418 180.158 21.2754C180.873 21.709 181.822 21.9258 183.006 21.9258C184.307 21.9258 185.479 21.6562 186.521 21.1172C186.627 21.0938 186.703 21.0703 186.75 21.0469C186.809 21.0117 186.85 20.9941 186.873 20.9941C187.002 20.9941 187.148 21.0938 187.312 21.293C187.477 21.4922 187.617 21.7207 187.734 21.9785C187.863 22.2363 187.928 22.4414 187.928 22.5938C187.928 22.8398 187.705 23.0859 187.26 23.332C186.814 23.5781 186.211 23.7832 185.449 23.9473C184.699 24.0996 183.891 24.1758 183.023 24.1758ZM196.242 24.1758C195.199 24.1758 194.268 23.8594 193.447 23.2266C192.627 22.5938 192.217 21.4746 192.217 19.8691V9.90234H190.652C190.43 9.90234 190.266 9.83203 190.16 9.69141C190.066 9.53906 190.02 9.29883 190.02 8.9707V8.58398C190.02 8.25586 190.066 8.02148 190.16 7.88086C190.266 7.72852 190.43 7.65234 190.652 7.65234H192.217L192.586 4.38281C192.609 3.92578 192.943 3.69727 193.588 3.69727H193.887C194.215 3.69727 194.455 3.75586 194.607 3.87305C194.76 3.97852 194.836 4.14844 194.836 4.38281V7.65234H197.455C197.678 7.65234 197.836 7.72852 197.93 7.88086C198.035 8.02148 198.088 8.25586 198.088 8.58398V8.9707C198.088 9.29883 198.035 9.53906 197.93 9.69141C197.836 9.83203 197.678 9.90234 197.455 9.90234H194.836V19.623C194.836 20.4785 194.982 21.0762 195.275 21.416C195.58 21.7559 195.99 21.9258 196.506 21.9258C196.904 21.9258 197.209 21.9023 197.42 21.8555C197.643 21.8086 197.789 21.7852 197.859 21.7852C198.047 21.7852 198.199 21.9727 198.316 22.3477C198.445 22.7227 198.51 23.0215 198.51 23.2441C198.51 23.8652 197.754 24.1758 196.242 24.1758Z" fill="#F9FFB9"/>
<path d="M207.51 68.8984C207.123 68.8984 206.818 68.8223 206.596 68.6699C206.385 68.5059 206.279 68.2891 206.279 68.0195C206.279 66.8594 206.461 65.8164 206.824 64.8906C207.199 63.9531 207.645 63.2207 208.16 62.6934C208.676 62.166 209.115 61.9023 209.479 61.9023C209.713 61.9023 209.924 61.9375 210.111 62.0078C210.299 62.0781 210.393 62.2012 210.393 62.377C210.393 62.4824 210.352 62.6289 210.27 62.8164C210.188 62.9922 210.135 63.0977 210.111 63.1328C209.748 63.8125 209.479 64.5391 209.303 65.3125C209.127 66.0742 209.039 66.9355 209.039 67.8965C209.039 68.2012 208.934 68.4473 208.723 68.6348C208.523 68.8105 208.219 68.8984 207.809 68.8984H207.51ZM203.168 68.8984C202.781 68.8984 202.477 68.8223 202.254 68.6699C202.043 68.5059 201.938 68.2891 201.938 68.0195C201.938 66.8594 202.119 65.8164 202.482 64.8906C202.857 63.9531 203.303 63.2207 203.818 62.6934C204.334 62.166 204.773 61.9023 205.137 61.9023C205.371 61.9023 205.582 61.9375 205.77 62.0078C205.957 62.0781 206.051 62.2012 206.051 62.377C206.051 62.4824 206.01 62.6289 205.928 62.8164C205.846 62.9922 205.793 63.0977 205.77 63.1328C205.406 63.8125 205.137 64.5391 204.961 65.3125C204.785 66.0742 204.697 66.9355 204.697 67.8965C204.697 68.2012 204.592 68.4473 204.381 68.6348C204.182 68.8105 203.877 68.8984 203.467 68.8984H203.168ZM212.414 85.0527C211.945 85.0527 211.605 85.0117 211.395 84.9297C211.184 84.8359 211.078 84.7012 211.078 84.5254C211.078 84.4434 211.107 84.3027 211.166 84.1035L218.566 63.5547C218.684 63.2148 219.1 63.0449 219.814 63.0449H220.729C221.443 63.0449 221.859 63.2148 221.977 63.5547L229.377 84.1211C229.436 84.25 229.465 84.3848 229.465 84.5254C229.465 84.877 229.025 85.0527 228.146 85.0527H227.883C227.156 85.0527 226.734 84.8887 226.617 84.5605L224.789 79.4277H215.613L213.82 84.5605C213.715 84.8887 213.299 85.0527 212.572 85.0527H212.414ZM223.945 77.0547L220.676 67.7559C220.582 67.498 220.506 67.2051 220.447 66.877C220.389 66.5488 220.336 66.2324 220.289 65.9277H220.219C220.078 66.7129 219.92 67.3223 219.744 67.7559L216.475 77.0547H223.945ZM236.9 85.0527C236.162 85.0527 235.74 84.8887 235.635 84.5605L230.607 69.5312C230.537 69.3203 230.502 69.1855 230.502 69.127C230.502 68.9629 230.613 68.834 230.836 68.7402C231.059 68.6465 231.398 68.5996 231.855 68.5996H232.014C232.74 68.5996 233.156 68.7637 233.262 69.0918L236.443 79.0586C236.701 79.832 237 80.8867 237.34 82.2227L237.533 82.9609H237.674L237.885 82.0293C238.143 80.7988 238.383 79.832 238.605 79.1289L241.822 69.0918C241.928 68.7637 242.355 68.5996 243.105 68.5996H243.193C243.979 68.5996 244.371 68.7754 244.371 69.127C244.371 69.2441 244.33 69.3848 244.248 69.5488L239.238 84.5605C239.133 84.8887 238.711 85.0527 237.973 85.0527H236.9ZM251.877 85.1758C250.283 85.1758 248.994 84.7832 248.01 83.998C247.025 83.2129 246.533 82.0469 246.533 80.5C246.533 78.8711 247.031 77.6465 248.027 76.8262C249.023 75.9941 250.236 75.4609 251.666 75.2266C253.107 74.9805 254.854 74.8398 256.904 74.8047V73.3281C256.904 72.543 256.635 71.916 256.096 71.4473C255.568 70.9668 254.695 70.7266 253.477 70.7266C252.551 70.7266 251.736 70.8379 251.033 71.0605C250.342 71.2715 249.691 71.5293 249.082 71.834C248.824 71.9629 248.666 72.0273 248.607 72.0273C248.467 72.0273 248.309 71.9277 248.133 71.7285C247.969 71.5176 247.822 71.2832 247.693 71.0254C247.576 70.7676 247.518 70.5801 247.518 70.4629C247.518 70.1934 247.793 69.9004 248.344 69.584C248.906 69.2676 249.639 69.0039 250.541 68.793C251.443 68.582 252.387 68.4766 253.371 68.4766C255.328 68.4766 256.846 68.9043 257.924 69.7598C259.002 70.6152 259.541 71.8164 259.541 73.3633V80.377C259.541 81.7363 259.6 82.7207 259.717 83.3301C259.846 83.9277 259.91 84.2559 259.91 84.3145C259.91 84.5723 259.711 84.7598 259.312 84.877C258.926 84.9824 258.562 85.0352 258.223 85.0352C257.941 85.0352 257.73 84.877 257.59 84.5605C257.461 84.2441 257.332 83.7871 257.203 83.1895L257.133 82.8379C256.488 83.5527 255.727 84.1211 254.848 84.543C253.98 84.9648 252.99 85.1758 251.877 85.1758ZM252.018 82.9082C253.049 82.9082 253.928 82.7207 254.654 82.3457C255.381 81.9707 256.131 81.4375 256.904 80.7461V77.0547C255.357 77.0664 254.086 77.1309 253.09 77.248C252.094 77.3652 251.221 77.6641 250.471 78.1445C249.721 78.6133 249.346 79.3457 249.346 80.3418C249.346 81.1738 249.568 81.8125 250.014 82.2578C250.471 82.6914 251.139 82.9082 252.018 82.9082ZM269.438 85.1758C268.395 85.1758 267.463 84.8594 266.643 84.2266C265.822 83.5938 265.412 82.4746 265.412 80.8691V70.9023H263.848C263.625 70.9023 263.461 70.832 263.355 70.6914C263.262 70.5391 263.215 70.2988 263.215 69.9707V69.584C263.215 69.2559 263.262 69.0215 263.355 68.8809C263.461 68.7285 263.625 68.6523 263.848 68.6523H265.412L265.781 65.3828C265.805 64.9258 266.139 64.6973 266.783 64.6973H267.082C267.41 64.6973 267.65 64.7559 267.803 64.873C267.955 64.9785 268.031 65.1484 268.031 65.3828V68.6523H270.65C270.873 68.6523 271.031 68.7285 271.125 68.8809C271.23 69.0215 271.283 69.2559 271.283 69.584V69.9707C271.283 70.2988 271.23 70.5391 271.125 70.6914C271.031 70.832 270.873 70.9023 270.65 70.9023H268.031V80.623C268.031 81.4785 268.178 82.0762 268.471 82.416C268.775 82.7559 269.186 82.9258 269.701 82.9258C270.1 82.9258 270.404 82.9023 270.615 82.8555C270.838 82.8086 270.984 82.7852 271.055 82.7852C271.242 82.7852 271.395 82.9727 271.512 83.3477C271.641 83.7227 271.705 84.0215 271.705 84.2441C271.705 84.8652 270.949 85.1758 269.438 85.1758ZM279.65 85.1758C278.057 85.1758 276.768 84.7832 275.783 83.998C274.799 83.2129 274.307 82.0469 274.307 80.5C274.307 78.8711 274.805 77.6465 275.801 76.8262C276.797 75.9941 278.01 75.4609 279.439 75.2266C280.881 74.9805 282.627 74.8398 284.678 74.8047V73.3281C284.678 72.543 284.408 71.916 283.869 71.4473C283.342 70.9668 282.469 70.7266 281.25 70.7266C280.324 70.7266 279.51 70.8379 278.807 71.0605C278.115 71.2715 277.465 71.5293 276.855 71.834C276.598 71.9629 276.439 72.0273 276.381 72.0273C276.24 72.0273 276.082 71.9277 275.906 71.7285C275.742 71.5176 275.596 71.2832 275.467 71.0254C275.35 70.7676 275.291 70.5801 275.291 70.4629C275.291 70.1934 275.566 69.9004 276.117 69.584C276.68 69.2676 277.412 69.0039 278.314 68.793C279.217 68.582 280.16 68.4766 281.145 68.4766C283.102 68.4766 284.619 68.9043 285.697 69.7598C286.775 70.6152 287.314 71.8164 287.314 73.3633V80.377C287.314 81.7363 287.373 82.7207 287.49 83.3301C287.619 83.9277 287.684 84.2559 287.684 84.3145C287.684 84.5723 287.484 84.7598 287.086 84.877C286.699 84.9824 286.336 85.0352 285.996 85.0352C285.715 85.0352 285.504 84.877 285.363 84.5605C285.234 84.2441 285.105 83.7871 284.977 83.1895L284.906 82.8379C284.262 83.5527 283.5 84.1211 282.621 84.543C281.754 84.9648 280.764 85.1758 279.65 85.1758ZM279.791 82.9082C280.822 82.9082 281.701 82.7207 282.428 82.3457C283.154 81.9707 283.904 81.4375 284.678 80.7461V77.0547C283.131 77.0664 281.859 77.1309 280.863 77.248C279.867 77.3652 278.994 77.6641 278.244 78.1445C277.494 78.6133 277.119 79.3457 277.119 80.3418C277.119 81.1738 277.342 81.8125 277.787 82.2578C278.244 82.6914 278.912 82.9082 279.791 82.9082ZM293.906 85.0527C293.461 85.0527 293.139 85 292.939 84.8945C292.74 84.7773 292.641 84.6016 292.641 84.3672V73.3984C292.641 72.0391 292.576 71.0605 292.447 70.4629C292.318 69.8535 292.254 69.5195 292.254 69.4609C292.254 69.2031 292.447 69.0215 292.834 68.916C293.232 68.7988 293.607 68.7402 293.959 68.7402C294.24 68.7402 294.451 68.8926 294.592 69.1973C294.732 69.4902 294.855 69.9062 294.961 70.4453L295.049 70.8145C296.162 69.2559 297.369 68.4766 298.67 68.4766C299.268 68.4766 299.719 68.5879 300.023 68.8105C300.328 69.0215 300.48 69.3086 300.48 69.6719C300.48 70.0234 300.416 70.3984 300.287 70.7969C300.17 71.1836 300.029 71.377 299.865 71.377C299.783 71.377 299.637 71.3418 299.426 71.2715C299.238 71.1895 299.051 71.1309 298.863 71.0957C298.676 71.0488 298.436 71.0254 298.143 71.0254C297.662 71.0254 297.205 71.166 296.771 71.4473C296.35 71.7285 295.992 72.0391 295.699 72.3789C295.406 72.7188 295.26 72.9062 295.26 72.9414V84.3672C295.26 84.6016 295.16 84.7773 294.961 84.8945C294.762 85 294.451 85.0527 294.029 85.0527H293.906ZM303.205 85C303.041 85 302.871 84.8066 302.695 84.4199C302.531 84.0215 302.449 83.6641 302.449 83.3477C302.449 83.1836 302.479 83.0547 302.537 82.9609L315.352 65.5059H304.102C303.879 65.5059 303.715 65.4238 303.609 65.2598C303.516 65.084 303.469 64.8086 303.469 64.4336V64.1875C303.469 63.8125 303.516 63.543 303.609 63.3789C303.715 63.2148 303.879 63.1328 304.102 63.1328H318.41C318.48 63.1328 318.568 63.2266 318.674 63.4141C318.791 63.6016 318.891 63.8242 318.973 64.082C319.055 64.3398 319.096 64.5742 319.096 64.7852C319.096 64.9375 319.066 65.0605 319.008 65.1543L306.193 82.627H318.41C318.633 82.627 318.791 82.709 318.885 82.873C318.99 83.0371 319.043 83.3066 319.043 83.6816V83.9277C319.043 84.3027 318.99 84.5781 318.885 84.7539C318.791 84.918 318.633 85 318.41 85H303.205ZM329.484 85.1758C327.129 85.1758 325.33 84.4727 324.088 83.0664C322.857 81.6484 322.242 79.5918 322.242 76.8965C322.242 74.2012 322.869 72.127 324.123 70.6738C325.377 69.209 327.164 68.4766 329.484 68.4766C331.781 68.4766 333.539 69.2031 334.758 70.6562C335.977 72.0977 336.586 74.1777 336.586 76.8965C336.586 79.6035 335.982 81.6602 334.775 83.0664C333.58 84.4727 331.816 85.1758 329.484 85.1758ZM329.396 82.9258C330.92 82.9258 332.045 82.4336 332.771 81.4492C333.498 80.4531 333.861 78.918 333.861 76.8438C333.861 74.7578 333.498 73.2168 332.771 72.2207C332.045 71.2246 330.92 70.7266 329.396 70.7266C327.885 70.7266 326.771 71.2246 326.057 72.2207C325.342 73.2051 324.984 74.7461 324.984 76.8438C324.984 78.9297 325.336 80.4648 326.039 81.4492C326.754 82.4336 327.873 82.9258 329.396 82.9258ZM342.264 85.0527C341.818 85.0527 341.496 85 341.297 84.8945C341.098 84.7773 340.998 84.6016 340.998 84.3672V73.3984C340.998 72.0391 340.934 71.0605 340.805 70.4629C340.676 69.8535 340.611 69.5195 340.611 69.4609C340.611 69.2031 340.805 69.0215 341.191 68.916C341.59 68.7988 341.965 68.7402 342.316 68.7402C342.609 68.7402 342.826 68.8984 342.967 69.2148C343.107 69.5312 343.207 69.8535 343.266 70.1816C343.336 70.5098 343.383 70.7207 343.406 70.8145C344.062 70.0762 344.818 69.502 345.674 69.0918C346.541 68.6816 347.414 68.4766 348.293 68.4766C349.887 68.4766 351.129 68.9277 352.02 69.8301C352.922 70.7207 353.373 71.9512 353.373 73.5215V84.3672C353.373 84.6016 353.273 84.7773 353.074 84.8945C352.875 85 352.559 85.0527 352.125 85.0527H351.984C351.562 85.0527 351.252 85 351.053 84.8945C350.854 84.7773 350.754 84.6016 350.754 84.3672V73.7852C350.754 72.8242 350.473 72.0801 349.91 71.5527C349.359 71.0137 348.58 70.7441 347.572 70.7441C346.869 70.7441 346.16 70.9434 345.445 71.3418C344.742 71.7285 344.133 72.2617 343.617 72.9414V84.3672C343.617 84.6016 343.518 84.7773 343.318 84.8945C343.119 85 342.809 85.0527 342.387 85.0527H342.264ZM365.098 85.1758C362.508 85.1758 360.58 84.502 359.314 83.1543C358.061 81.7949 357.434 79.7207 357.434 76.9316C357.434 74.166 358.049 72.0684 359.279 70.6387C360.51 69.1973 362.32 68.4766 364.711 68.4766C366.844 68.4766 368.449 69.168 369.527 70.5508C370.617 71.9336 371.162 73.9609 371.162 76.6328C371.162 76.75 371.098 76.9141 370.969 77.125C370.852 77.3242 370.705 77.5059 370.529 77.6699C370.365 77.8223 370.225 77.8984 370.107 77.8984H360.246C360.375 79.6445 360.82 80.9219 361.582 81.7305C362.355 82.5273 363.516 82.9258 365.062 82.9258C365.93 82.9258 366.674 82.8203 367.295 82.6094C367.928 82.3984 368.537 82.1406 369.123 81.8359C369.182 81.8125 369.27 81.7715 369.387 81.7129C369.504 81.6543 369.586 81.625 369.633 81.625C369.762 81.625 369.908 81.7305 370.072 81.9414C370.248 82.1406 370.395 82.3691 370.512 82.627C370.641 82.873 370.705 83.0547 370.705 83.1719C370.705 83.4297 370.447 83.7168 369.932 84.0332C369.416 84.3496 368.725 84.6191 367.857 84.8418C367.002 85.0645 366.082 85.1758 365.098 85.1758ZM368.367 75.6484C368.367 72.3672 367.119 70.7266 364.623 70.7266C361.939 70.7266 360.48 72.3672 360.246 75.6484H368.367ZM378.914 68.4414C378.68 68.4414 378.469 68.4062 378.281 68.3359C378.105 68.2656 378.018 68.1426 378.018 67.9668C378.018 67.8145 378.105 67.5625 378.281 67.2109C378.633 66.5078 378.896 65.7754 379.072 65.0137C379.248 64.2402 379.336 63.3848 379.336 62.4473C379.336 62.1426 379.441 61.8965 379.652 61.709C379.875 61.5215 380.191 61.4277 380.602 61.4277H380.865C381.264 61.4277 381.574 61.5098 381.797 61.6738C382.02 61.8379 382.131 62.0547 382.131 62.3242C382.131 63.4844 381.943 64.5332 381.568 65.4707C381.193 66.3965 380.748 67.123 380.232 67.6504C379.729 68.1777 379.289 68.4414 378.914 68.4414ZM374.572 68.4414C374.338 68.4414 374.127 68.4062 373.939 68.3359C373.764 68.2656 373.676 68.1426 373.676 67.9668C373.676 67.8145 373.764 67.5625 373.939 67.2109C374.291 66.5078 374.555 65.7754 374.73 65.0137C374.906 64.2402 374.994 63.3848 374.994 62.4473C374.994 62.1426 375.1 61.8965 375.311 61.709C375.533 61.5215 375.85 61.4277 376.26 61.4277H376.523C376.922 61.4277 377.232 61.5098 377.455 61.6738C377.678 61.8379 377.789 62.0547 377.789 62.3242C377.789 63.4844 377.602 64.5332 377.227 65.4707C376.852 66.3965 376.406 67.123 375.891 67.6504C375.387 68.1777 374.947 68.4414 374.572 68.4414Z" fill="#8ED5D5"/>
<path d="M219.428 150.324C219.1 150.324 218.859 150.248 218.707 150.096C218.566 149.943 218.496 149.703 218.496 149.375V122.938C218.496 122.609 218.566 122.375 218.707 122.234C218.859 122.082 219.1 122.006 219.428 122.006H223.207C223.441 122.006 223.605 122.076 223.699 122.217C223.793 122.346 223.84 122.574 223.84 122.902V123.061C223.84 123.389 223.793 123.623 223.699 123.764C223.605 123.893 223.441 123.957 223.207 123.957H220.816V148.373H223.207C223.43 148.373 223.588 148.443 223.682 148.584C223.787 148.725 223.84 148.959 223.84 149.287V149.41C223.84 149.738 223.793 149.973 223.699 150.113C223.605 150.254 223.441 150.324 223.207 150.324H219.428ZM235.916 146.176C234.1 146.176 232.553 145.895 231.275 145.332C229.998 144.758 229.031 143.932 228.375 142.854C227.719 141.775 227.391 140.486 227.391 138.986V124.748C227.391 124.279 227.807 124.045 228.639 124.045H228.885C229.717 124.045 230.133 124.279 230.133 124.748V139.092C230.133 140.006 230.385 140.82 230.889 141.535C231.393 142.25 232.084 142.807 232.963 143.205C233.842 143.604 234.826 143.803 235.916 143.803C237.018 143.803 238.008 143.604 238.887 143.205C239.766 142.795 240.451 142.232 240.943 141.518C241.447 140.803 241.699 139.994 241.699 139.092V124.748C241.699 124.279 242.115 124.045 242.947 124.045H243.211C244.031 124.045 244.441 124.279 244.441 124.748V138.986C244.441 140.486 244.113 141.775 243.457 142.854C242.801 143.932 241.834 144.758 240.557 145.332C239.279 145.895 237.732 146.176 235.916 146.176ZM250.998 146.053C250.553 146.053 250.23 146 250.031 145.895C249.832 145.777 249.732 145.602 249.732 145.367V134.398C249.732 133.039 249.668 132.061 249.539 131.463C249.41 130.854 249.346 130.52 249.346 130.461C249.346 130.203 249.539 130.021 249.926 129.916C250.324 129.799 250.699 129.74 251.051 129.74C251.344 129.74 251.561 129.898 251.701 130.215C251.842 130.531 251.941 130.854 252 131.182C252.07 131.51 252.117 131.721 252.141 131.814C252.797 131.076 253.553 130.502 254.408 130.092C255.275 129.682 256.148 129.477 257.027 129.477C258.621 129.477 259.863 129.928 260.754 130.83C261.656 131.721 262.107 132.951 262.107 134.521V145.367C262.107 145.602 262.008 145.777 261.809 145.895C261.609 146 261.293 146.053 260.859 146.053H260.719C260.297 146.053 259.986 146 259.787 145.895C259.588 145.777 259.488 145.602 259.488 145.367V134.785C259.488 133.824 259.207 133.08 258.645 132.553C258.094 132.014 257.314 131.744 256.307 131.744C255.604 131.744 254.895 131.943 254.18 132.342C253.477 132.729 252.867 133.262 252.352 133.941V145.367C252.352 145.602 252.252 145.777 252.053 145.895C251.854 146 251.543 146.053 251.121 146.053H250.998ZM268.418 125.715C267.586 125.715 267.17 125.486 267.17 125.029V123.184C267.17 122.727 267.586 122.498 268.418 122.498H268.787C269.631 122.498 270.053 122.727 270.053 123.184V125.029C270.053 125.486 269.631 125.715 268.787 125.715H268.418ZM268.541 146.053C267.709 146.053 267.293 145.824 267.293 145.367V130.285C267.293 129.828 267.709 129.6 268.541 129.6H268.664C269.508 129.6 269.93 129.828 269.93 130.285V145.367C269.93 145.824 269.508 146.053 268.664 146.053H268.541ZM279.334 146.176C278.291 146.176 277.359 145.859 276.539 145.227C275.719 144.594 275.309 143.475 275.309 141.869V123.184C275.309 122.727 275.725 122.498 276.557 122.498H276.697C277.518 122.498 277.928 122.727 277.928 123.184V141.623C277.928 142.479 278.08 143.076 278.385 143.416C278.689 143.756 279.1 143.926 279.615 143.926C280.002 143.926 280.307 143.902 280.529 143.855C280.752 143.809 280.898 143.785 280.969 143.785C281.156 143.785 281.309 143.973 281.426 144.348C281.555 144.723 281.619 145.021 281.619 145.244C281.619 145.865 280.857 146.176 279.334 146.176ZM286.031 125.715C285.199 125.715 284.783 125.486 284.783 125.029V123.184C284.783 122.727 285.199 122.498 286.031 122.498H286.4C287.244 122.498 287.666 122.727 287.666 123.184V125.029C287.666 125.486 287.244 125.715 286.4 125.715H286.031ZM286.154 146.053C285.322 146.053 284.906 145.824 284.906 145.367V130.285C284.906 129.828 285.322 129.6 286.154 129.6H286.277C287.121 129.6 287.543 129.828 287.543 130.285V145.367C287.543 145.824 287.121 146.053 286.277 146.053H286.154ZM309.604 129.477C310.904 129.477 312.047 129.846 313.031 130.584C314.016 131.322 314.508 132.635 314.508 134.521V145.367C314.508 145.602 314.408 145.777 314.209 145.895C314.01 146 313.693 146.053 313.26 146.053H313.154C312.709 146.053 312.387 146 312.188 145.895C311.988 145.777 311.889 145.602 311.889 145.367V134.785C311.889 133.836 311.631 133.092 311.115 132.553C310.611 132.014 309.867 131.744 308.883 131.744C308.062 131.744 307.318 131.984 306.65 132.465C305.994 132.934 305.461 133.426 305.051 133.941C305.074 134.223 305.086 134.434 305.086 134.574V145.367C305.086 145.824 304.664 146.053 303.82 146.053H303.697C302.865 146.053 302.449 145.824 302.449 145.367V134.785C302.449 133.836 302.191 133.092 301.676 132.553C301.172 132.014 300.428 131.744 299.443 131.744C298.764 131.744 298.143 131.908 297.58 132.236C297.018 132.553 296.549 132.898 296.174 133.273C295.811 133.648 295.629 133.859 295.629 133.906V145.367C295.629 145.602 295.529 145.777 295.33 145.895C295.143 146 294.832 146.053 294.398 146.053H294.258C293.824 146.053 293.508 146 293.309 145.895C293.121 145.777 293.027 145.602 293.027 145.367V134.398C293.027 133.039 292.963 132.061 292.834 131.463C292.705 130.854 292.641 130.52 292.641 130.461C292.641 130.203 292.834 130.021 293.221 129.916C293.619 129.799 293.988 129.74 294.328 129.74C294.621 129.74 294.838 129.898 294.979 130.215C295.119 130.531 295.219 130.854 295.277 131.182C295.348 131.51 295.395 131.721 295.418 131.814C295.992 131.146 296.695 130.59 297.527 130.145C298.359 129.699 299.238 129.477 300.164 129.477C301.113 129.477 301.998 129.67 302.818 130.057C303.639 130.432 304.242 131.1 304.629 132.061C305.273 131.299 306.029 130.678 306.896 130.197C307.764 129.717 308.666 129.477 309.604 129.477ZM320.836 125.715C320.004 125.715 319.588 125.486 319.588 125.029V123.184C319.588 122.727 320.004 122.498 320.836 122.498H321.205C322.049 122.498 322.471 122.727 322.471 123.184V125.029C322.471 125.486 322.049 125.715 321.205 125.715H320.836ZM320.959 146.053C320.127 146.053 319.711 145.824 319.711 145.367V130.285C319.711 129.828 320.127 129.6 320.959 129.6H321.082C321.926 129.6 322.348 129.828 322.348 130.285V145.367C322.348 145.824 321.926 146.053 321.082 146.053H320.959ZM332.543 146.176C331.5 146.176 330.568 145.859 329.748 145.227C328.928 144.594 328.518 143.475 328.518 141.869V131.902H326.953C326.73 131.902 326.566 131.832 326.461 131.691C326.367 131.539 326.32 131.299 326.32 130.971V130.584C326.32 130.256 326.367 130.021 326.461 129.881C326.566 129.729 326.73 129.652 326.953 129.652H328.518L328.887 126.383C328.91 125.926 329.244 125.697 329.889 125.697H330.188C330.516 125.697 330.756 125.756 330.908 125.873C331.061 125.979 331.137 126.148 331.137 126.383V129.652H333.756C333.979 129.652 334.137 129.729 334.23 129.881C334.336 130.021 334.389 130.256 334.389 130.584V130.971C334.389 131.299 334.336 131.539 334.23 131.691C334.137 131.832 333.979 131.902 333.756 131.902H331.137V141.623C331.137 142.479 331.283 143.076 331.576 143.416C331.881 143.756 332.291 143.926 332.807 143.926C333.205 143.926 333.51 143.902 333.721 143.855C333.943 143.809 334.09 143.785 334.16 143.785C334.348 143.785 334.5 143.973 334.617 144.348C334.746 144.723 334.811 145.021 334.811 145.244C334.811 145.865 334.055 146.176 332.543 146.176ZM345.27 146.176C342.68 146.176 340.752 145.502 339.486 144.154C338.232 142.795 337.605 140.721 337.605 137.932C337.605 135.166 338.221 133.068 339.451 131.639C340.682 130.197 342.492 129.477 344.883 129.477C347.016 129.477 348.621 130.168 349.699 131.551C350.789 132.934 351.334 134.961 351.334 137.633C351.334 137.75 351.27 137.914 351.141 138.125C351.023 138.324 350.877 138.506 350.701 138.67C350.537 138.822 350.396 138.898 350.279 138.898H340.418C340.547 140.645 340.992 141.922 341.754 142.73C342.527 143.527 343.688 143.926 345.234 143.926C346.102 143.926 346.846 143.82 347.467 143.609C348.1 143.398 348.709 143.141 349.295 142.836C349.354 142.812 349.441 142.771 349.559 142.713C349.676 142.654 349.758 142.625 349.805 142.625C349.934 142.625 350.08 142.73 350.244 142.941C350.42 143.141 350.566 143.369 350.684 143.627C350.812 143.873 350.877 144.055 350.877 144.172C350.877 144.43 350.619 144.717 350.104 145.033C349.588 145.35 348.896 145.619 348.029 145.842C347.174 146.064 346.254 146.176 345.27 146.176ZM348.539 136.648C348.539 133.367 347.291 131.727 344.795 131.727C342.111 131.727 340.652 133.367 340.418 136.648H348.539ZM360.439 146.176C359.221 146.176 358.154 145.824 357.24 145.121C356.326 144.406 355.617 143.416 355.113 142.15C354.621 140.885 354.375 139.449 354.375 137.844C354.375 136.074 354.639 134.562 355.166 133.309C355.705 132.043 356.455 131.088 357.416 130.443C358.377 129.799 359.484 129.477 360.738 129.477C361.641 129.477 362.438 129.611 363.129 129.881C363.832 130.15 364.523 130.543 365.203 131.059V123.184C365.203 122.727 365.613 122.498 366.434 122.498H366.574C367.406 122.498 367.822 122.727 367.822 123.184V141.377C367.822 142.736 367.887 143.721 368.016 144.33C368.145 144.928 368.209 145.256 368.209 145.314C368.209 145.572 368.01 145.76 367.611 145.877C367.225 145.982 366.861 146.035 366.521 146.035C366.287 146.035 366.1 145.924 365.959 145.701C365.818 145.479 365.719 145.256 365.66 145.033C365.613 144.799 365.531 144.4 365.414 143.838C363.926 145.396 362.268 146.176 360.439 146.176ZM360.984 143.908C361.676 143.908 362.391 143.721 363.129 143.346C363.879 142.971 364.57 142.438 365.203 141.746V133.186C364.078 132.248 362.795 131.779 361.354 131.779C359.959 131.814 358.904 132.324 358.189 133.309C357.486 134.293 357.135 135.723 357.135 137.598C357.135 139.613 357.463 141.172 358.119 142.273C358.787 143.363 359.742 143.908 360.984 143.908ZM382.254 146.053C381.41 146.053 380.988 145.824 380.988 145.367V125.064C380.988 124.736 381.064 124.502 381.217 124.361C381.369 124.209 381.609 124.133 381.938 124.133H387.193C389.689 124.133 391.564 124.572 392.818 125.451C394.084 126.33 394.717 127.73 394.717 129.652C394.717 130.953 394.4 132.049 393.768 132.939C393.146 133.818 392.268 134.48 391.131 134.926V135.049C391.74 135.26 392.238 135.67 392.625 136.279C393.023 136.877 393.463 137.768 393.943 138.951L396.387 145.121C396.445 145.332 396.475 145.479 396.475 145.561C396.475 145.889 396.035 146.053 395.156 146.053H394.84C394.523 146.053 394.248 146.012 394.014 145.93C393.791 145.836 393.65 145.713 393.592 145.561L391.219 139.426C390.914 138.629 390.557 138.008 390.146 137.562C389.736 137.117 389.25 136.807 388.688 136.631C388.125 136.455 387.416 136.367 386.561 136.367H383.748V145.367C383.748 145.824 383.332 146.053 382.5 146.053H382.254ZM387.861 133.994C388.6 133.994 389.273 133.818 389.883 133.467C390.504 133.115 390.99 132.646 391.342 132.061C391.705 131.463 391.887 130.83 391.887 130.162C391.887 128.932 391.512 128.018 390.762 127.42C390.012 126.811 388.975 126.506 387.65 126.506H383.748V133.994H387.861ZM406.441 146.176C403.852 146.176 401.924 145.502 400.658 144.154C399.404 142.795 398.777 140.721 398.777 137.932C398.777 135.166 399.393 133.068 400.623 131.639C401.854 130.197 403.664 129.477 406.055 129.477C408.188 129.477 409.793 130.168 410.871 131.551C411.961 132.934 412.506 134.961 412.506 137.633C412.506 137.75 412.441 137.914 412.312 138.125C412.195 138.324 412.049 138.506 411.873 138.67C411.709 138.822 411.568 138.898 411.451 138.898H401.59C401.719 140.645 402.164 141.922 402.926 142.73C403.699 143.527 404.859 143.926 406.406 143.926C407.273 143.926 408.018 143.82 408.639 143.609C409.271 143.398 409.881 143.141 410.467 142.836C410.525 142.812 410.613 142.771 410.73 142.713C410.848 142.654 410.93 142.625 410.977 142.625C411.105 142.625 411.252 142.73 411.416 142.941C411.592 143.141 411.738 143.369 411.855 143.627C411.984 143.873 412.049 144.055 412.049 144.172C412.049 144.43 411.791 144.717 411.275 145.033C410.76 145.35 410.068 145.619 409.201 145.842C408.346 146.064 407.426 146.176 406.441 146.176ZM409.711 136.648C409.711 133.367 408.463 131.727 405.967 131.727C403.283 131.727 401.824 133.367 401.59 136.648H409.711ZM427.605 152.504C426.785 152.504 426.375 152.275 426.375 151.818V144.594C425.695 145.109 425.004 145.502 424.301 145.771C423.609 146.041 422.812 146.176 421.91 146.176C420.656 146.176 419.549 145.854 418.588 145.209C417.639 144.564 416.895 143.621 416.355 142.379C415.816 141.125 415.547 139.625 415.547 137.879C415.547 136.238 415.793 134.785 416.285 133.52C416.777 132.242 417.48 131.252 418.395 130.549C419.32 129.834 420.393 129.477 421.611 129.477C423.439 129.477 425.098 130.256 426.586 131.814C426.738 131.018 426.908 130.396 427.096 129.951C427.154 129.822 427.248 129.734 427.377 129.688C427.518 129.629 427.705 129.6 427.939 129.6H428.062C428.684 129.6 428.994 129.828 428.994 130.285V151.818C428.994 152.275 428.578 152.504 427.746 152.504H427.605ZM422.508 143.873C423.938 143.873 425.227 143.404 426.375 142.467V133.906C425.742 133.215 425.051 132.682 424.301 132.307C423.562 131.932 422.848 131.744 422.156 131.744C420.914 131.744 419.959 132.295 419.291 133.396C418.635 134.486 418.307 136.039 418.307 138.055C418.307 139.93 418.658 141.359 419.361 142.344C420.064 143.328 421.113 143.838 422.508 143.873ZM439.084 146.176C437.49 146.176 436.242 145.73 435.34 144.84C434.438 143.938 433.986 142.695 433.986 141.113V130.285C433.986 129.828 434.408 129.6 435.252 129.6H435.375C436.207 129.6 436.623 129.828 436.623 130.285V140.867C436.623 141.828 436.898 142.578 437.449 143.117C438.012 143.645 438.797 143.908 439.805 143.908C440.508 143.908 441.211 143.715 441.914 143.328C442.617 142.93 443.227 142.391 443.742 141.711V130.285C443.742 129.828 444.158 129.6 444.99 129.6H445.113C445.957 129.6 446.379 129.828 446.379 130.285V141.377C446.379 142.736 446.438 143.721 446.555 144.33C446.672 144.928 446.73 145.256 446.73 145.314C446.73 145.572 446.537 145.76 446.15 145.877C445.764 145.982 445.4 146.035 445.061 146.035C444.768 146.035 444.551 145.871 444.41 145.543C444.27 145.203 444.164 144.857 444.094 144.506C444.035 144.154 443.994 143.932 443.971 143.838C443.314 144.576 442.553 145.15 441.686 145.561C440.83 145.971 439.963 146.176 439.084 146.176ZM458.438 146.176C455.848 146.176 453.92 145.502 452.654 144.154C451.4 142.795 450.773 140.721 450.773 137.932C450.773 135.166 451.389 133.068 452.619 131.639C453.85 130.197 455.66 129.477 458.051 129.477C460.184 129.477 461.789 130.168 462.867 131.551C463.957 132.934 464.502 134.961 464.502 137.633C464.502 137.75 464.438 137.914 464.309 138.125C464.191 138.324 464.045 138.506 463.869 138.67C463.705 138.822 463.564 138.898 463.447 138.898H453.586C453.715 140.645 454.16 141.922 454.922 142.73C455.695 143.527 456.855 143.926 458.402 143.926C459.27 143.926 460.014 143.82 460.635 143.609C461.268 143.398 461.877 143.141 462.463 142.836C462.521 142.812 462.609 142.771 462.727 142.713C462.844 142.654 462.926 142.625 462.973 142.625C463.102 142.625 463.248 142.73 463.412 142.941C463.588 143.141 463.734 143.369 463.852 143.627C463.98 143.873 464.045 144.055 464.045 144.172C464.045 144.43 463.787 144.717 463.271 145.033C462.756 145.35 462.064 145.619 461.197 145.842C460.342 146.064 459.422 146.176 458.438 146.176ZM461.707 136.648C461.707 133.367 460.459 131.727 457.963 131.727C455.279 131.727 453.82 133.367 453.586 136.648H461.707ZM471.99 146.299C471.111 146.299 470.291 146.188 469.529 145.965C468.768 145.742 468.158 145.473 467.701 145.156C467.256 144.828 467.033 144.541 467.033 144.295C467.033 144.178 467.092 143.99 467.209 143.732C467.338 143.475 467.484 143.246 467.648 143.047C467.824 142.836 467.982 142.73 468.123 142.73C468.158 142.73 468.264 142.789 468.439 142.906C468.908 143.211 469.4 143.469 469.916 143.68C470.443 143.891 471.07 143.996 471.797 143.996C473.836 143.996 474.855 143.152 474.855 141.465C474.855 140.984 474.756 140.58 474.557 140.252C474.369 139.924 474.047 139.637 473.59 139.391C473.145 139.133 472.529 138.887 471.744 138.652C470.619 138.324 469.74 137.949 469.107 137.527C468.486 137.105 468.047 136.613 467.789 136.051C467.531 135.477 467.402 134.785 467.402 133.977C467.402 133.109 467.619 132.33 468.053 131.639C468.498 130.947 469.113 130.408 469.898 130.021C470.695 129.635 471.592 129.441 472.588 129.441C473.279 129.441 473.941 129.506 474.574 129.635C475.219 129.764 475.734 129.934 476.121 130.145C476.52 130.344 476.719 130.555 476.719 130.777C476.719 130.941 476.66 131.164 476.543 131.445C476.438 131.715 476.303 131.955 476.139 132.166C475.975 132.365 475.828 132.465 475.699 132.465C475.676 132.465 475.529 132.395 475.26 132.254C474.99 132.102 474.645 131.967 474.223 131.85C473.812 131.721 473.355 131.656 472.852 131.656C472.055 131.656 471.393 131.838 470.865 132.201C470.35 132.553 470.092 133.027 470.092 133.625C470.092 134.328 470.279 134.891 470.654 135.312C471.029 135.734 471.65 136.08 472.518 136.35C473.854 136.76 474.873 137.17 475.576 137.58C476.279 137.99 476.777 138.494 477.07 139.092C477.375 139.678 477.527 140.451 477.527 141.412C477.527 142.326 477.281 143.158 476.789 143.908C476.297 144.646 475.629 145.232 474.785 145.666C473.941 146.088 473.01 146.299 471.99 146.299ZM486.211 146.176C485.168 146.176 484.236 145.859 483.416 145.227C482.596 144.594 482.186 143.475 482.186 141.869V131.902H480.621C480.398 131.902 480.234 131.832 480.129 131.691C480.035 131.539 479.988 131.299 479.988 130.971V130.584C479.988 130.256 480.035 130.021 480.129 129.881C480.234 129.729 480.398 129.652 480.621 129.652H482.186L482.555 126.383C482.578 125.926 482.912 125.697 483.557 125.697H483.855C484.184 125.697 484.424 125.756 484.576 125.873C484.729 125.979 484.805 126.148 484.805 126.383V129.652H487.424C487.646 129.652 487.805 129.729 487.898 129.881C488.004 130.021 488.057 130.256 488.057 130.584V130.971C488.057 131.299 488.004 131.539 487.898 131.691C487.805 131.832 487.646 131.902 487.424 131.902H484.805V141.623C484.805 142.479 484.951 143.076 485.244 143.416C485.549 143.756 485.959 143.926 486.475 143.926C486.873 143.926 487.178 143.902 487.389 143.855C487.611 143.809 487.758 143.785 487.828 143.785C488.016 143.785 488.168 143.973 488.285 144.348C488.414 144.723 488.479 145.021 488.479 145.244C488.479 145.865 487.723 146.176 486.211 146.176ZM501.047 125.715C500.215 125.715 499.799 125.486 499.799 125.029V123.184C499.799 122.727 500.215 122.498 501.047 122.498H501.416C502.26 122.498 502.682 122.727 502.682 123.184V125.029C502.682 125.486 502.26 125.715 501.416 125.715H501.047ZM501.17 146.053C500.338 146.053 499.922 145.824 499.922 145.367V130.285C499.922 129.828 500.338 129.6 501.17 129.6H501.293C502.137 129.6 502.559 129.828 502.559 130.285V145.367C502.559 145.824 502.137 146.053 501.293 146.053H501.17ZM509.326 146.053C508.881 146.053 508.559 146 508.359 145.895C508.16 145.777 508.061 145.602 508.061 145.367V134.398C508.061 133.039 507.996 132.061 507.867 131.463C507.738 130.854 507.674 130.52 507.674 130.461C507.674 130.203 507.867 130.021 508.254 129.916C508.652 129.799 509.027 129.74 509.379 129.74C509.672 129.74 509.889 129.898 510.029 130.215C510.17 130.531 510.27 130.854 510.328 131.182C510.398 131.51 510.445 131.721 510.469 131.814C511.125 131.076 511.881 130.502 512.736 130.092C513.604 129.682 514.477 129.477 515.355 129.477C516.949 129.477 518.191 129.928 519.082 130.83C519.984 131.721 520.436 132.951 520.436 134.521V145.367C520.436 145.602 520.336 145.777 520.137 145.895C519.938 146 519.621 146.053 519.188 146.053H519.047C518.625 146.053 518.314 146 518.115 145.895C517.916 145.777 517.816 145.602 517.816 145.367V134.785C517.816 133.824 517.535 133.08 516.973 132.553C516.422 132.014 515.643 131.744 514.635 131.744C513.932 131.744 513.223 131.943 512.508 132.342C511.805 132.729 511.195 133.262 510.68 133.941V145.367C510.68 145.602 510.58 145.777 510.381 145.895C510.182 146 509.871 146.053 509.449 146.053H509.326ZM532.266 146C532.043 146 531.885 145.924 531.791 145.771C531.697 145.619 531.65 145.385 531.65 145.068V144.682C531.65 144.354 531.697 144.119 531.791 143.979C531.885 143.826 532.043 143.75 532.266 143.75H537.697V126.893L532.178 127.842C531.979 127.842 531.82 127.666 531.703 127.314C531.598 126.951 531.545 126.594 531.545 126.242C531.545 126.078 531.592 125.955 531.686 125.873C531.779 125.779 531.926 125.709 532.125 125.662L539.35 124.045C539.596 124.045 539.818 124.115 540.018 124.256C540.229 124.385 540.334 124.537 540.334 124.713V143.75H544.957C545.379 143.75 545.59 144.061 545.59 144.682V145.068C545.59 145.689 545.379 146 544.957 146H532.266ZM558.844 146.053C558 146.053 557.578 145.824 557.578 145.367V124.748C557.578 124.279 558 124.045 558.844 124.045H559.09C559.922 124.045 560.338 124.279 560.338 124.748V133.59H571.658V124.748C571.658 124.279 572.074 124.045 572.906 124.045H573.152C573.984 124.045 574.4 124.279 574.4 124.748V145.367C574.4 145.602 574.301 145.777 574.102 145.895C573.902 146 573.586 146.053 573.152 146.053H572.906C572.473 146.053 572.156 146 571.957 145.895C571.758 145.777 571.658 145.602 571.658 145.367V135.963H560.338V145.367C560.338 145.824 559.922 146.053 559.09 146.053H558.844ZM586.441 146.176C584.086 146.176 582.287 145.473 581.045 144.066C579.814 142.648 579.199 140.592 579.199 137.896C579.199 135.201 579.826 133.127 581.08 131.674C582.334 130.209 584.121 129.477 586.441 129.477C588.738 129.477 590.496 130.203 591.715 131.656C592.934 133.098 593.543 135.178 593.543 137.896C593.543 140.604 592.939 142.66 591.732 144.066C590.537 145.473 588.773 146.176 586.441 146.176ZM586.354 143.926C587.877 143.926 589.002 143.434 589.729 142.449C590.455 141.453 590.818 139.918 590.818 137.844C590.818 135.758 590.455 134.217 589.729 133.221C589.002 132.225 587.877 131.727 586.354 131.727C584.842 131.727 583.729 132.225 583.014 133.221C582.299 134.205 581.941 135.746 581.941 137.844C581.941 139.93 582.293 141.465 582.996 142.449C583.711 143.434 584.83 143.926 586.354 143.926ZM602.701 146.176C601.107 146.176 599.859 145.73 598.957 144.84C598.055 143.938 597.604 142.695 597.604 141.113V130.285C597.604 129.828 598.025 129.6 598.869 129.6H598.992C599.824 129.6 600.24 129.828 600.24 130.285V140.867C600.24 141.828 600.516 142.578 601.066 143.117C601.629 143.645 602.414 143.908 603.422 143.908C604.125 143.908 604.828 143.715 605.531 143.328C606.234 142.93 606.844 142.391 607.359 141.711V130.285C607.359 129.828 607.775 129.6 608.607 129.6H608.73C609.574 129.6 609.996 129.828 609.996 130.285V141.377C609.996 142.736 610.055 143.721 610.172 144.33C610.289 144.928 610.348 145.256 610.348 145.314C610.348 145.572 610.154 145.76 609.768 145.877C609.381 145.982 609.018 146.035 608.678 146.035C608.385 146.035 608.168 145.871 608.027 145.543C607.887 145.203 607.781 144.857 607.711 144.506C607.652 144.154 607.611 143.932 607.588 143.838C606.932 144.576 606.17 145.15 605.303 145.561C604.447 145.971 603.58 146.176 602.701 146.176ZM616.746 146.053C616.301 146.053 615.979 146 615.779 145.895C615.58 145.777 615.48 145.602 615.48 145.367V134.398C615.48 133.039 615.416 132.061 615.287 131.463C615.158 130.854 615.094 130.52 615.094 130.461C615.094 130.203 615.287 130.021 615.674 129.916C616.072 129.799 616.447 129.74 616.799 129.74C617.08 129.74 617.291 129.893 617.432 130.197C617.572 130.49 617.695 130.906 617.801 131.445L617.889 131.814C619.002 130.256 620.209 129.477 621.51 129.477C622.107 129.477 622.559 129.588 622.863 129.811C623.168 130.021 623.32 130.309 623.32 130.672C623.32 131.023 623.256 131.398 623.127 131.797C623.01 132.184 622.869 132.377 622.705 132.377C622.623 132.377 622.477 132.342 622.266 132.271C622.078 132.189 621.891 132.131 621.703 132.096C621.516 132.049 621.275 132.025 620.982 132.025C620.502 132.025 620.045 132.166 619.611 132.447C619.189 132.729 618.832 133.039 618.539 133.379C618.246 133.719 618.1 133.906 618.1 133.941V145.367C618.1 145.602 618 145.777 617.801 145.895C617.602 146 617.291 146.053 616.869 146.053H616.746ZM630.422 129.441C630.188 129.441 629.977 129.406 629.789 129.336C629.613 129.266 629.525 129.143 629.525 128.967C629.525 128.814 629.613 128.562 629.789 128.211C630.141 127.508 630.404 126.775 630.58 126.014C630.756 125.24 630.844 124.385 630.844 123.447C630.844 123.143 630.949 122.896 631.16 122.709C631.383 122.521 631.699 122.428 632.109 122.428H632.373C632.771 122.428 633.082 122.51 633.305 122.674C633.527 122.838 633.639 123.055 633.639 123.324C633.639 124.484 633.451 125.533 633.076 126.471C632.701 127.396 632.256 128.123 631.74 128.65C631.236 129.178 630.797 129.441 630.422 129.441ZM626.08 129.441C625.846 129.441 625.635 129.406 625.447 129.336C625.271 129.266 625.184 129.143 625.184 128.967C625.184 128.814 625.271 128.562 625.447 128.211C625.799 127.508 626.062 126.775 626.238 126.014C626.414 125.24 626.502 124.385 626.502 123.447C626.502 123.143 626.607 122.896 626.818 122.709C627.041 122.521 627.357 122.428 627.768 122.428H628.031C628.43 122.428 628.74 122.51 628.963 122.674C629.186 122.838 629.297 123.055 629.297 123.324C629.297 124.484 629.109 125.533 628.734 126.471C628.359 127.396 627.914 128.123 627.398 128.65C626.895 129.178 626.455 129.441 626.08 129.441Z" fill="#8ED4D4" fill-opacity="0.976471"/>
<path d="M636.627 150.324C636.404 150.324 636.24 150.254 636.135 150.113C636.041 149.973 635.994 149.738 635.994 149.41V149.287C635.994 148.959 636.041 148.725 636.135 148.584C636.24 148.443 636.404 148.373 636.627 148.373H639.035V123.957H636.627C636.404 123.957 636.24 123.887 636.135 123.746C636.041 123.605 635.994 123.377 635.994 123.061V122.902C635.994 122.586 636.041 122.357 636.135 122.217C636.24 122.076 636.404 122.006 636.627 122.006H640.406C640.734 122.006 640.975 122.082 641.127 122.234C641.279 122.375 641.355 122.609 641.355 122.938V149.375C641.355 149.703 641.279 149.943 641.127 150.096C640.975 150.248 640.734 150.324 640.406 150.324H636.627ZM199.828 207.176C198.738 207.176 197.742 207.082 196.84 206.895C195.949 206.695 195.252 206.449 194.748 206.156C194.244 205.863 193.992 205.576 193.992 205.295C193.992 205.107 194.057 204.891 194.186 204.645C194.314 204.398 194.467 204.188 194.643 204.012C194.818 203.824 194.965 203.73 195.082 203.73C195.199 203.73 195.469 203.824 195.891 204.012C196.5 204.281 197.098 204.504 197.684 204.68C198.281 204.844 198.984 204.926 199.793 204.926C200.66 204.926 201.463 204.756 202.201 204.416C202.939 204.064 203.531 203.543 203.977 202.852C204.422 202.16 204.645 201.322 204.645 200.338C204.645 198.943 204.164 197.883 203.203 197.156C202.242 196.418 200.848 196.049 199.02 196.049H196.365C196.025 196.049 195.791 195.979 195.662 195.838C195.545 195.697 195.486 195.457 195.486 195.117L196.014 186.064C196.025 185.736 196.113 185.502 196.277 185.361C196.441 185.209 196.688 185.133 197.016 185.133H205.33C205.553 185.133 205.711 185.209 205.805 185.361C205.898 185.502 205.945 185.736 205.945 186.064V186.434C205.945 186.762 205.898 187.002 205.805 187.154C205.711 187.307 205.553 187.383 205.33 187.383H198.545L198.141 193.799H199.775C201.029 193.799 202.225 194.01 203.361 194.432C204.51 194.842 205.459 195.533 206.209 196.506C206.959 197.479 207.334 198.756 207.334 200.338C207.334 202.037 206.971 203.396 206.244 204.416C205.529 205.436 204.609 206.15 203.484 206.561C202.371 206.971 201.152 207.176 199.828 207.176ZM216.562 207.176C215.473 207.176 214.477 207.082 213.574 206.895C212.684 206.695 211.986 206.449 211.482 206.156C210.979 205.863 210.727 205.576 210.727 205.295C210.727 205.107 210.791 204.891 210.92 204.645C211.049 204.398 211.201 204.188 211.377 204.012C211.553 203.824 211.699 203.73 211.816 203.73C211.934 203.73 212.203 203.824 212.625 204.012C213.234 204.281 213.832 204.504 214.418 204.68C215.016 204.844 215.719 204.926 216.527 204.926C217.395 204.926 218.197 204.756 218.936 204.416C219.674 204.064 220.266 203.543 220.711 202.852C221.156 202.16 221.379 201.322 221.379 200.338C221.379 198.943 220.898 197.883 219.938 197.156C218.977 196.418 217.582 196.049 215.754 196.049H213.1C212.76 196.049 212.525 195.979 212.396 195.838C212.279 195.697 212.221 195.457 212.221 195.117L212.748 186.064C212.76 185.736 212.848 185.502 213.012 185.361C213.176 185.209 213.422 185.133 213.75 185.133H222.064C222.287 185.133 222.445 185.209 222.539 185.361C222.633 185.502 222.68 185.736 222.68 186.064V186.434C222.68 186.762 222.633 187.002 222.539 187.154C222.445 187.307 222.287 187.383 222.064 187.383H215.279L214.875 193.799H216.51C217.764 193.799 218.959 194.01 220.096 194.432C221.244 194.842 222.193 195.533 222.943 196.506C223.693 197.479 224.068 198.756 224.068 200.338C224.068 202.037 223.705 203.396 222.979 204.416C222.264 205.436 221.344 206.15 220.219 206.561C219.105 206.971 217.887 207.176 216.562 207.176ZM234.299 207.176C232.986 207.176 231.797 206.777 230.73 205.98C229.664 205.184 228.809 203.953 228.164 202.289C227.531 200.625 227.215 198.545 227.215 196.049C227.215 193.564 227.531 191.49 228.164 189.826C228.809 188.162 229.664 186.932 230.73 186.135C231.797 185.326 232.986 184.922 234.299 184.922C235.611 184.922 236.807 185.326 237.885 186.135C238.975 186.932 239.842 188.162 240.486 189.826C241.131 191.49 241.453 193.564 241.453 196.049C241.453 198.545 241.131 200.625 240.486 202.289C239.842 203.953 238.975 205.184 237.885 205.98C236.807 206.777 235.611 207.176 234.299 207.176ZM234.299 204.926C235.107 204.926 235.846 204.627 236.514 204.029C237.193 203.432 237.744 202.471 238.166 201.146C238.588 199.822 238.799 198.123 238.799 196.049C238.799 193.986 238.588 192.293 238.166 190.969C237.744 189.645 237.193 188.684 236.514 188.086C235.846 187.477 235.107 187.172 234.299 187.172C233.502 187.172 232.764 187.471 232.084 188.068C231.416 188.666 230.877 189.633 230.467 190.969C230.057 192.293 229.852 193.986 229.852 196.049C229.852 198.123 230.057 199.822 230.467 201.146C230.877 202.471 231.416 203.432 232.084 204.029C232.764 204.627 233.502 204.926 234.299 204.926ZM254.145 207.176C251.004 207.176 248.613 206.273 246.973 204.469C245.332 202.652 244.512 199.91 244.512 196.242C244.512 188.695 247.881 184.922 254.619 184.922C255.604 184.922 256.559 185.027 257.484 185.238C258.41 185.438 259.16 185.689 259.734 185.994C260.309 186.299 260.596 186.592 260.596 186.873C260.596 187.049 260.531 187.283 260.402 187.576C260.285 187.869 260.145 188.127 259.98 188.35C259.816 188.572 259.67 188.684 259.541 188.684C259.482 188.684 259.318 188.607 259.049 188.455C258.439 188.127 257.801 187.852 257.133 187.629C256.465 187.406 255.65 187.295 254.689 187.295C252.041 187.295 250.154 188.027 249.029 189.492C247.904 190.945 247.342 193.102 247.342 195.961C247.342 198.656 247.863 200.807 248.906 202.412C249.961 204.006 251.777 204.803 254.355 204.803C255.141 204.803 255.896 204.768 256.623 204.697C257.361 204.615 257.947 204.516 258.381 204.398V198.088H254.725C254.502 198.088 254.338 198.018 254.232 197.877C254.139 197.725 254.092 197.484 254.092 197.156V196.646C254.092 196.318 254.139 196.084 254.232 195.943C254.338 195.791 254.502 195.715 254.725 195.715H260.191C260.52 195.715 260.76 195.791 260.912 195.943C261.064 196.084 261.141 196.318 261.141 196.646V204.926C261.141 205.734 260.484 206.314 259.172 206.666C257.859 207.006 256.184 207.176 254.145 207.176ZM267.715 207C267.387 207 267.146 206.924 266.994 206.771C266.842 206.619 266.766 206.385 266.766 206.068V186.064C266.766 185.736 266.842 185.502 266.994 185.361C267.146 185.209 267.387 185.133 267.715 185.133H278.613C278.836 185.133 278.994 185.203 279.088 185.344C279.193 185.484 279.246 185.725 279.246 186.064V186.574C279.246 186.891 279.193 187.125 279.088 187.277C278.994 187.43 278.836 187.506 278.613 187.506H269.525V194.625H277.682C277.904 194.625 278.062 194.701 278.156 194.854C278.262 195.006 278.314 195.246 278.314 195.574V196.049C278.314 196.377 278.262 196.617 278.156 196.77C278.062 196.91 277.904 196.98 277.682 196.98H269.525V204.627H278.648C278.871 204.627 279.029 204.703 279.123 204.855C279.229 204.996 279.281 205.23 279.281 205.559V206.068C279.281 206.385 279.229 206.619 279.123 206.771C279.029 206.924 278.871 207 278.648 207H267.715ZM284.801 207C284.473 207 284.232 206.924 284.08 206.771C283.928 206.619 283.852 206.385 283.852 206.068V185.748C283.852 185.279 284.273 185.045 285.117 185.045H285.363C286.195 185.045 286.611 185.279 286.611 185.748V204.627H295.207C295.43 204.627 295.588 204.703 295.682 204.855C295.775 204.996 295.822 205.23 295.822 205.559V206.068C295.822 206.385 295.775 206.619 295.682 206.771C295.588 206.924 295.43 207 295.207 207H284.801Z" fill="#8ED4D4"/>
</svg>
