<svg width="769" height="273" viewBox="0 0 769 273" fill="none" xmlns="http://www.w3.org/2000/svg">
<path d="M6.5918 24.1758C5.54883 24.1758 4.61719 23.8594 3.79688 23.2266C2.97656 22.5938 2.56641 21.4746 2.56641 19.8691V1.18359C2.56641 0.726562 2.98242 0.498047 3.81445 0.498047H3.95508C4.77539 0.498047 5.18555 0.726562 5.18555 1.18359V19.623C5.18555 20.4785 5.33789 21.0762 5.64258 21.416C5.94727 21.7559 6.35742 21.9258 6.87305 21.9258C7.25977 21.9258 7.56445 21.9023 7.78711 21.8555C8.00977 21.8086 8.15625 21.7852 8.22656 21.7852C8.41406 21.7852 8.56641 21.9727 8.68359 22.3477C8.8125 22.7227 8.87695 23.0215 8.87695 23.2441C8.87695 23.8652 8.11523 24.1758 6.5918 24.1758ZM18.7031 24.1758C16.1133 24.1758 14.1855 23.502 12.9199 22.1543C11.666 20.7949 11.0391 18.7207 11.0391 15.9316C11.0391 13.166 11.6543 11.0684 12.8848 9.63867C14.1152 8.19727 15.9258 7.47656 18.3164 7.47656C20.4492 7.47656 22.0547 8.16797 23.1328 9.55078C24.2227 10.9336 24.7676 12.9609 24.7676 15.6328C24.7676 15.75 24.7031 15.9141 24.5742 16.125C24.457 16.3242 24.3105 16.5059 24.1348 16.6699C23.9707 16.8223 23.8301 16.8984 23.7129 16.8984H13.8516C13.9805 18.6445 14.4258 19.9219 15.1875 20.7305C15.9609 21.5273 17.1211 21.9258 18.668 21.9258C19.5352 21.9258 20.2793 21.8203 20.9004 21.6094C21.5332 21.3984 22.1426 21.1406 22.7285 20.8359C22.7871 20.8125 22.875 20.7715 22.9922 20.7129C23.1094 20.6543 23.1914 20.625 23.2383 20.625C23.3672 20.625 23.5137 20.7305 23.6777 20.9414C23.8535 21.1406 24 21.3691 24.1172 21.627C24.2461 21.873 24.3105 22.0547 24.3105 22.1719C24.3105 22.4297 24.0527 22.7168 23.5371 23.0332C23.0215 23.3496 22.3301 23.6191 21.4629 23.8418C20.6074 24.0645 19.6875 24.1758 18.7031 24.1758ZM21.9727 14.6484C21.9727 11.3672 20.7246 9.72656 18.2285 9.72656C15.5449 9.72656 14.0859 11.3672 13.8516 14.6484H21.9727ZM33.5742 24.1758C32.5312 24.1758 31.5996 23.8594 30.7793 23.2266C29.959 22.5938 29.5488 21.4746 29.5488 19.8691V9.90234H27.9844C27.7617 9.90234 27.5977 9.83203 27.4922 9.69141C27.3984 9.53906 27.3516 9.29883 27.3516 8.9707V8.58398C27.3516 8.25586 27.3984 8.02148 27.4922 7.88086C27.5977 7.72852 27.7617 7.65234 27.9844 7.65234H29.5488L29.918 4.38281C29.9414 3.92578 30.2754 3.69727 30.9199 3.69727H31.2188C31.5469 3.69727 31.7871 3.75586 31.9395 3.87305C32.0918 3.97852 32.168 4.14844 32.168 4.38281V7.65234H34.7871C35.0098 7.65234 35.168 7.72852 35.2617 7.88086C35.3672 8.02148 35.4199 8.25586 35.4199 8.58398V8.9707C35.4199 9.29883 35.3672 9.53906 35.2617 9.69141C35.168 9.83203 35.0098 9.90234 34.7871 9.90234H32.168V19.623C32.168 20.4785 32.3145 21.0762 32.6074 21.416C32.9121 21.7559 33.3223 21.9258 33.8379 21.9258C34.2363 21.9258 34.541 21.9023 34.752 21.8555C34.9746 21.8086 35.1211 21.7852 35.1914 21.7852C35.3789 21.7852 35.5312 21.9727 35.6484 22.3477C35.7773 22.7227 35.8418 23.0215 35.8418 23.2441C35.8418 23.8652 35.0859 24.1758 33.5742 24.1758Z" fill="#C7FFFF"/>
<path d="M277.348 15.5273C277.055 15.5273 276.826 15.4453 276.662 15.2812C276.498 15.1055 276.416 14.8711 276.416 14.5781V14.3672C276.416 14.0625 276.498 13.834 276.662 13.6816C276.826 13.5176 277.055 13.4355 277.348 13.4355H289.986C290.619 13.4355 290.936 13.7461 290.936 14.3672V14.5781C290.936 14.8828 290.854 15.1172 290.689 15.2812C290.525 15.4453 290.291 15.5273 289.986 15.5273H277.348ZM277.348 20.6426C277.055 20.6426 276.826 20.5605 276.662 20.3965C276.498 20.2324 276.416 20.0039 276.416 19.7109V19.4648C276.416 19.1602 276.498 18.9258 276.662 18.7617C276.826 18.5977 277.055 18.5156 277.348 18.5156H289.986C290.291 18.5156 290.525 18.5977 290.689 18.7617C290.854 18.9258 290.936 19.1602 290.936 19.4648V19.7109C290.936 20.0156 290.854 20.25 290.689 20.4141C290.525 20.5664 290.291 20.6426 289.986 20.6426H277.348ZM305.385 28.3242C305.045 28.3242 304.688 28.2188 304.312 28.0078C303.949 27.8086 303.633 27.4336 303.363 26.8828C303.094 26.3438 302.959 25.6113 302.959 24.6855V19.4648C302.959 18.3164 302.854 17.4316 302.643 16.8105C302.432 16.1777 302.004 15.7148 301.359 15.4219C301.09 15.3164 300.891 15.1875 300.762 15.0352C300.645 14.8711 300.586 14.6484 300.586 14.3672V13.9277C300.586 13.6582 300.65 13.4414 300.779 13.2773C300.908 13.1133 301.102 12.9785 301.359 12.873C302.004 12.5801 302.432 12.123 302.643 11.502C302.854 10.8809 302.959 9.99609 302.959 8.84766V3.62695C302.959 2.71289 303.094 1.98633 303.363 1.44727C303.633 0.908203 303.949 0.533203 304.312 0.322266C304.688 0.111328 305.045 0.00585938 305.385 0.00585938H306.967C307.178 0.00585938 307.33 0.0761719 307.424 0.216797C307.529 0.357422 307.582 0.585938 307.582 0.902344V1.02539C307.582 1.3418 307.529 1.57031 307.424 1.71094C307.33 1.85156 307.178 1.92188 306.967 1.92188H306.281C305.859 1.92188 305.572 2.07422 305.42 2.37891C305.279 2.68359 305.209 3.16992 305.209 3.83789V9.33984C305.209 10.6523 304.945 11.6895 304.418 12.4512C303.891 13.2012 303.34 13.7812 302.766 14.1914C303.012 14.2969 303.322 14.5371 303.697 14.9121C304.084 15.2871 304.43 15.8203 304.734 16.5117C305.051 17.2031 305.209 18.0234 305.209 18.9727V24.4395C305.209 25.1074 305.279 25.5938 305.42 25.8984C305.572 26.2148 305.859 26.373 306.281 26.373H306.967C307.178 26.373 307.33 26.4434 307.424 26.584C307.529 26.7363 307.582 26.9707 307.582 27.2871V27.4102C307.582 27.7383 307.529 27.9727 307.424 28.1133C307.33 28.2539 307.178 28.3242 306.967 28.3242H305.385ZM94.2363 85.0527C93.791 85.0527 93.4688 85 93.2695 84.8945C93.0703 84.7773 92.9707 84.6016 92.9707 84.3672V73.3984C92.9707 72.0391 92.9062 71.0605 92.7773 70.4629C92.6484 69.8535 92.584 69.5195 92.584 69.4609C92.584 69.2031 92.7773 69.0215 93.1641 68.916C93.5625 68.7988 93.9375 68.7402 94.2891 68.7402C94.582 68.7402 94.7988 68.8984 94.9395 69.2148C95.0801 69.5312 95.1797 69.8535 95.2383 70.1816C95.3086 70.5098 95.3555 70.7207 95.3789 70.8145C96.0352 70.0762 96.791 69.502 97.6465 69.0918C98.5137 68.6816 99.3867 68.4766 100.266 68.4766C101.859 68.4766 103.102 68.9277 103.992 69.8301C104.895 70.7207 105.346 71.9512 105.346 73.5215V84.3672C105.346 84.6016 105.246 84.7773 105.047 84.8945C104.848 85 104.531 85.0527 104.098 85.0527H103.957C103.535 85.0527 103.225 85 103.025 84.8945C102.826 84.7773 102.727 84.6016 102.727 84.3672V73.7852C102.727 72.8242 102.445 72.0801 101.883 71.5527C101.332 71.0137 100.553 70.7441 99.5449 70.7441C98.8418 70.7441 98.1328 70.9434 97.418 71.3418C96.7148 71.7285 96.1055 72.2617 95.5898 72.9414V84.3672C95.5898 84.6016 95.4902 84.7773 95.291 84.8945C95.0918 85 94.7812 85.0527 94.3594 85.0527H94.2363ZM114.557 85.1758C112.963 85.1758 111.674 84.7832 110.689 83.998C109.705 83.2129 109.213 82.0469 109.213 80.5C109.213 78.8711 109.711 77.6465 110.707 76.8262C111.703 75.9941 112.916 75.4609 114.346 75.2266C115.787 74.9805 117.533 74.8398 119.584 74.8047V73.3281C119.584 72.543 119.314 71.916 118.775 71.4473C118.248 70.9668 117.375 70.7266 116.156 70.7266C115.23 70.7266 114.416 70.8379 113.713 71.0605C113.021 71.2715 112.371 71.5293 111.762 71.834C111.504 71.9629 111.346 72.0273 111.287 72.0273C111.146 72.0273 110.988 71.9277 110.812 71.7285C110.648 71.5176 110.502 71.2832 110.373 71.0254C110.256 70.7676 110.197 70.5801 110.197 70.4629C110.197 70.1934 110.473 69.9004 111.023 69.584C111.586 69.2676 112.318 69.0039 113.221 68.793C114.123 68.582 115.066 68.4766 116.051 68.4766C118.008 68.4766 119.525 68.9043 120.604 69.7598C121.682 70.6152 122.221 71.8164 122.221 73.3633V80.377C122.221 81.7363 122.279 82.7207 122.396 83.3301C122.525 83.9277 122.59 84.2559 122.59 84.3145C122.59 84.5723 122.391 84.7598 121.992 84.877C121.605 84.9824 121.242 85.0352 120.902 85.0352C120.621 85.0352 120.41 84.877 120.27 84.5605C120.141 84.2441 120.012 83.7871 119.883 83.1895L119.812 82.8379C119.168 83.5527 118.406 84.1211 117.527 84.543C116.66 84.9648 115.67 85.1758 114.557 85.1758ZM114.697 82.9082C115.729 82.9082 116.607 82.7207 117.334 82.3457C118.061 81.9707 118.811 81.4375 119.584 80.7461V77.0547C118.037 77.0664 116.766 77.1309 115.77 77.248C114.773 77.3652 113.9 77.6641 113.15 78.1445C112.4 78.6133 112.025 79.3457 112.025 80.3418C112.025 81.1738 112.248 81.8125 112.693 82.2578C113.15 82.6914 113.818 82.9082 114.697 82.9082ZM143.982 68.4766C145.283 68.4766 146.426 68.8457 147.41 69.584C148.395 70.3223 148.887 71.6348 148.887 73.5215V84.3672C148.887 84.6016 148.787 84.7773 148.588 84.8945C148.389 85 148.072 85.0527 147.639 85.0527H147.533C147.088 85.0527 146.766 85 146.566 84.8945C146.367 84.7773 146.268 84.6016 146.268 84.3672V73.7852C146.268 72.8359 146.01 72.0918 145.494 71.5527C144.99 71.0137 144.246 70.7441 143.262 70.7441C142.441 70.7441 141.697 70.9844 141.029 71.4648C140.373 71.9336 139.84 72.4258 139.43 72.9414C139.453 73.2227 139.465 73.4336 139.465 73.5742V84.3672C139.465 84.8242 139.043 85.0527 138.199 85.0527H138.076C137.244 85.0527 136.828 84.8242 136.828 84.3672V73.7852C136.828 72.8359 136.57 72.0918 136.055 71.5527C135.551 71.0137 134.807 70.7441 133.822 70.7441C133.143 70.7441 132.521 70.9082 131.959 71.2363C131.396 71.5527 130.928 71.8984 130.553 72.2734C130.189 72.6484 130.008 72.8594 130.008 72.9062V84.3672C130.008 84.6016 129.908 84.7773 129.709 84.8945C129.521 85 129.211 85.0527 128.777 85.0527H128.637C128.203 85.0527 127.887 85 127.688 84.8945C127.5 84.7773 127.406 84.6016 127.406 84.3672V73.3984C127.406 72.0391 127.342 71.0605 127.213 70.4629C127.084 69.8535 127.02 69.5195 127.02 69.4609C127.02 69.2031 127.213 69.0215 127.6 68.916C127.998 68.7988 128.367 68.7402 128.707 68.7402C129 68.7402 129.217 68.8984 129.357 69.2148C129.498 69.5312 129.598 69.8535 129.656 70.1816C129.727 70.5098 129.773 70.7207 129.797 70.8145C130.371 70.1465 131.074 69.5898 131.906 69.1445C132.738 68.6992 133.617 68.4766 134.543 68.4766C135.492 68.4766 136.377 68.6699 137.197 69.0566C138.018 69.4316 138.621 70.0996 139.008 71.0605C139.652 70.2988 140.408 69.6777 141.275 69.1973C142.143 68.7168 143.045 68.4766 143.982 68.4766ZM160.629 85.1758C158.039 85.1758 156.111 84.502 154.846 83.1543C153.592 81.7949 152.965 79.7207 152.965 76.9316C152.965 74.166 153.58 72.0684 154.811 70.6387C156.041 69.1973 157.852 68.4766 160.242 68.4766C162.375 68.4766 163.98 69.168 165.059 70.5508C166.148 71.9336 166.693 73.9609 166.693 76.6328C166.693 76.75 166.629 76.9141 166.5 77.125C166.383 77.3242 166.236 77.5059 166.061 77.6699C165.896 77.8223 165.756 77.8984 165.639 77.8984H155.777C155.906 79.6445 156.352 80.9219 157.113 81.7305C157.887 82.5273 159.047 82.9258 160.594 82.9258C161.461 82.9258 162.205 82.8203 162.826 82.6094C163.459 82.3984 164.068 82.1406 164.654 81.8359C164.713 81.8125 164.801 81.7715 164.918 81.7129C165.035 81.6543 165.117 81.625 165.164 81.625C165.293 81.625 165.439 81.7305 165.604 81.9414C165.779 82.1406 165.926 82.3691 166.043 82.627C166.172 82.873 166.236 83.0547 166.236 83.1719C166.236 83.4297 165.979 83.7168 165.463 84.0332C164.947 84.3496 164.256 84.6191 163.389 84.8418C162.533 85.0645 161.613 85.1758 160.629 85.1758ZM163.898 75.6484C163.898 72.3672 162.65 70.7266 160.154 70.7266C157.471 70.7266 156.012 72.3672 155.777 75.6484H163.898ZM178.066 76.5273C177.773 76.5273 177.545 76.4453 177.381 76.2812C177.217 76.1055 177.135 75.8711 177.135 75.5781V75.3672C177.135 75.0625 177.217 74.834 177.381 74.6816C177.545 74.5176 177.773 74.4355 178.066 74.4355H190.705C191.338 74.4355 191.654 74.7461 191.654 75.3672V75.5781C191.654 75.8828 191.572 76.1172 191.408 76.2812C191.244 76.4453 191.01 76.5273 190.705 76.5273H178.066ZM178.066 81.6426C177.773 81.6426 177.545 81.5605 177.381 81.3965C177.217 81.2324 177.135 81.0039 177.135 80.7109V80.4648C177.135 80.1602 177.217 79.9258 177.381 79.7617C177.545 79.5977 177.773 79.5156 178.066 79.5156H190.705C191.01 79.5156 191.244 79.5977 191.408 79.7617C191.572 79.9258 191.654 80.1602 191.654 80.4648V80.7109C191.654 81.0156 191.572 81.25 191.408 81.4141C191.244 81.5664 191.01 81.6426 190.705 81.6426H178.066ZM384.838 88.6211C384.604 88.6211 384.393 88.5859 384.205 88.5156C384.029 88.4453 383.941 88.3223 383.941 88.1465C383.941 88.0645 383.977 87.9355 384.047 87.7598C384.129 87.5957 384.182 87.4785 384.205 87.4082C384.568 86.7051 384.838 85.9668 385.014 85.1934C385.189 84.4316 385.277 83.5762 385.277 82.627C385.277 82.3223 385.383 82.082 385.594 81.9062C385.805 81.7188 386.115 81.625 386.525 81.625H386.824C387.211 81.625 387.51 81.707 387.721 81.8711C387.943 82.0234 388.055 82.2285 388.055 82.4863C388.055 83.6465 387.867 84.6953 387.492 85.6328C387.117 86.5703 386.672 87.3027 386.156 87.8301C385.652 88.3574 385.213 88.6211 384.838 88.6211ZM97.9629 146.176C96.7441 146.176 95.6777 145.824 94.7637 145.121C93.8496 144.406 93.1406 143.416 92.6367 142.15C92.1445 140.885 91.8984 139.449 91.8984 137.844C91.8984 136.074 92.1621 134.562 92.6895 133.309C93.2285 132.043 93.9785 131.088 94.9395 130.443C95.9004 129.799 97.0078 129.477 98.2617 129.477C99.1641 129.477 99.9609 129.611 100.652 129.881C101.355 130.15 102.047 130.543 102.727 131.059V123.184C102.727 122.727 103.137 122.498 103.957 122.498H104.098C104.93 122.498 105.346 122.727 105.346 123.184V141.377C105.346 142.736 105.41 143.721 105.539 144.33C105.668 144.928 105.732 145.256 105.732 145.314C105.732 145.572 105.533 145.76 105.135 145.877C104.748 145.982 104.385 146.035 104.045 146.035C103.811 146.035 103.623 145.924 103.482 145.701C103.342 145.479 103.242 145.256 103.184 145.033C103.137 144.799 103.055 144.4 102.938 143.838C101.449 145.396 99.791 146.176 97.9629 146.176ZM98.5078 143.908C99.1992 143.908 99.9141 143.721 100.652 143.346C101.402 142.971 102.094 142.438 102.727 141.746V133.186C101.602 132.248 100.318 131.779 98.877 131.779C97.4824 131.814 96.4277 132.324 95.7129 133.309C95.0098 134.293 94.6582 135.723 94.6582 137.598C94.6582 139.613 94.9863 141.172 95.6426 142.273C96.3105 143.363 97.2656 143.908 98.5078 143.908ZM117.352 146.176C114.762 146.176 112.834 145.502 111.568 144.154C110.314 142.795 109.688 140.721 109.688 137.932C109.688 135.166 110.303 133.068 111.533 131.639C112.764 130.197 114.574 129.477 116.965 129.477C119.098 129.477 120.703 130.168 121.781 131.551C122.871 132.934 123.416 134.961 123.416 137.633C123.416 137.75 123.352 137.914 123.223 138.125C123.105 138.324 122.959 138.506 122.783 138.67C122.619 138.822 122.479 138.898 122.361 138.898H112.5C112.629 140.645 113.074 141.922 113.836 142.73C114.609 143.527 115.77 143.926 117.316 143.926C118.184 143.926 118.928 143.82 119.549 143.609C120.182 143.398 120.791 143.141 121.377 142.836C121.436 142.812 121.523 142.771 121.641 142.713C121.758 142.654 121.84 142.625 121.887 142.625C122.016 142.625 122.162 142.73 122.326 142.941C122.502 143.141 122.648 143.369 122.766 143.627C122.895 143.873 122.959 144.055 122.959 144.172C122.959 144.43 122.701 144.717 122.186 145.033C121.67 145.35 120.979 145.619 120.111 145.842C119.256 146.064 118.336 146.176 117.352 146.176ZM120.621 136.648C120.621 133.367 119.373 131.727 116.877 131.727C114.193 131.727 112.734 133.367 112.5 136.648H120.621ZM132.223 146.176C131.18 146.176 130.248 145.859 129.428 145.227C128.607 144.594 128.197 143.475 128.197 141.869V131.902H126.633C126.41 131.902 126.246 131.832 126.141 131.691C126.047 131.539 126 131.299 126 130.971V130.584C126 130.256 126.047 130.021 126.141 129.881C126.246 129.729 126.41 129.652 126.633 129.652H128.197L128.566 126.383C128.59 125.926 128.924 125.697 129.568 125.697H129.867C130.195 125.697 130.436 125.756 130.588 125.873C130.74 125.979 130.816 126.148 130.816 126.383V129.652H133.436C133.658 129.652 133.816 129.729 133.91 129.881C134.016 130.021 134.068 130.256 134.068 130.584V130.971C134.068 131.299 134.016 131.539 133.91 131.691C133.816 131.832 133.658 131.902 133.436 131.902H130.816V141.623C130.816 142.479 130.963 143.076 131.256 143.416C131.561 143.756 131.971 143.926 132.486 143.926C132.885 143.926 133.189 143.902 133.4 143.855C133.623 143.809 133.77 143.785 133.84 143.785C134.027 143.785 134.18 143.973 134.297 144.348C134.426 144.723 134.49 145.021 134.49 145.244C134.49 145.865 133.734 146.176 132.223 146.176ZM142.436 146.176C140.842 146.176 139.553 145.783 138.568 144.998C137.584 144.213 137.092 143.047 137.092 141.5C137.092 139.871 137.59 138.646 138.586 137.826C139.582 136.994 140.795 136.461 142.225 136.227C143.666 135.98 145.412 135.84 147.463 135.805V134.328C147.463 133.543 147.193 132.916 146.654 132.447C146.127 131.967 145.254 131.727 144.035 131.727C143.109 131.727 142.295 131.838 141.592 132.061C140.9 132.271 140.25 132.529 139.641 132.834C139.383 132.963 139.225 133.027 139.166 133.027C139.025 133.027 138.867 132.928 138.691 132.729C138.527 132.518 138.381 132.283 138.252 132.025C138.135 131.768 138.076 131.58 138.076 131.463C138.076 131.193 138.352 130.9 138.902 130.584C139.465 130.268 140.197 130.004 141.1 129.793C142.002 129.582 142.945 129.477 143.93 129.477C145.887 129.477 147.404 129.904 148.482 130.76C149.561 131.615 150.1 132.816 150.1 134.363V141.377C150.1 142.736 150.158 143.721 150.275 144.33C150.404 144.928 150.469 145.256 150.469 145.314C150.469 145.572 150.27 145.76 149.871 145.877C149.484 145.982 149.121 146.035 148.781 146.035C148.5 146.035 148.289 145.877 148.148 145.561C148.02 145.244 147.891 144.787 147.762 144.189L147.691 143.838C147.047 144.553 146.285 145.121 145.406 145.543C144.539 145.965 143.549 146.176 142.436 146.176ZM142.576 143.908C143.607 143.908 144.486 143.721 145.213 143.346C145.939 142.971 146.689 142.438 147.463 141.746V138.055C145.916 138.066 144.645 138.131 143.648 138.248C142.652 138.365 141.779 138.664 141.029 139.145C140.279 139.613 139.904 140.346 139.904 141.342C139.904 142.174 140.127 142.812 140.572 143.258C141.029 143.691 141.697 143.908 142.576 143.908ZM156.586 125.715C155.754 125.715 155.338 125.486 155.338 125.029V123.184C155.338 122.727 155.754 122.498 156.586 122.498H156.955C157.799 122.498 158.221 122.727 158.221 123.184V125.029C158.221 125.486 157.799 125.715 156.955 125.715H156.586ZM156.709 146.053C155.877 146.053 155.461 145.824 155.461 145.367V130.285C155.461 129.828 155.877 129.6 156.709 129.6H156.832C157.676 129.6 158.098 129.828 158.098 130.285V145.367C158.098 145.824 157.676 146.053 156.832 146.053H156.709ZM167.502 146.176C166.459 146.176 165.527 145.859 164.707 145.227C163.887 144.594 163.477 143.475 163.477 141.869V123.184C163.477 122.727 163.893 122.498 164.725 122.498H164.865C165.686 122.498 166.096 122.727 166.096 123.184V141.623C166.096 142.479 166.248 143.076 166.553 143.416C166.857 143.756 167.268 143.926 167.783 143.926C168.17 143.926 168.475 143.902 168.697 143.855C168.92 143.809 169.066 143.785 169.137 143.785C169.324 143.785 169.477 143.973 169.594 144.348C169.723 144.723 169.787 145.021 169.787 145.244C169.787 145.865 169.025 146.176 167.502 146.176ZM176.291 146.299C175.412 146.299 174.592 146.188 173.83 145.965C173.068 145.742 172.459 145.473 172.002 145.156C171.557 144.828 171.334 144.541 171.334 144.295C171.334 144.178 171.393 143.99 171.51 143.732C171.639 143.475 171.785 143.246 171.949 143.047C172.125 142.836 172.283 142.73 172.424 142.73C172.459 142.73 172.564 142.789 172.74 142.906C173.209 143.211 173.701 143.469 174.217 143.68C174.744 143.891 175.371 143.996 176.098 143.996C178.137 143.996 179.156 143.152 179.156 141.465C179.156 140.984 179.057 140.58 178.857 140.252C178.67 139.924 178.348 139.637 177.891 139.391C177.445 139.133 176.83 138.887 176.045 138.652C174.92 138.324 174.041 137.949 173.408 137.527C172.787 137.105 172.348 136.613 172.09 136.051C171.832 135.477 171.703 134.785 171.703 133.977C171.703 133.109 171.92 132.33 172.354 131.639C172.799 130.947 173.414 130.408 174.199 130.021C174.996 129.635 175.893 129.441 176.889 129.441C177.58 129.441 178.242 129.506 178.875 129.635C179.52 129.764 180.035 129.934 180.422 130.145C180.82 130.344 181.02 130.555 181.02 130.777C181.02 130.941 180.961 131.164 180.844 131.445C180.738 131.715 180.604 131.955 180.439 132.166C180.275 132.365 180.129 132.465 180 132.465C179.977 132.465 179.83 132.395 179.561 132.254C179.291 132.102 178.945 131.967 178.523 131.85C178.113 131.721 177.656 131.656 177.152 131.656C176.355 131.656 175.693 131.838 175.166 132.201C174.65 132.553 174.393 133.027 174.393 133.625C174.393 134.328 174.58 134.891 174.955 135.312C175.33 135.734 175.951 136.08 176.818 136.35C178.154 136.76 179.174 137.17 179.877 137.58C180.58 137.99 181.078 138.494 181.371 139.092C181.676 139.678 181.828 140.451 181.828 141.412C181.828 142.326 181.582 143.158 181.09 143.908C180.598 144.646 179.93 145.232 179.086 145.666C178.242 146.088 177.311 146.299 176.291 146.299ZM193.078 137.527C192.785 137.527 192.557 137.445 192.393 137.281C192.229 137.105 192.146 136.871 192.146 136.578V136.367C192.146 136.062 192.229 135.834 192.393 135.682C192.557 135.518 192.785 135.436 193.078 135.436H205.717C206.35 135.436 206.666 135.746 206.666 136.367V136.578C206.666 136.883 206.584 137.117 206.42 137.281C206.256 137.445 206.021 137.527 205.717 137.527H193.078ZM193.078 142.643C192.785 142.643 192.557 142.561 192.393 142.396C192.229 142.232 192.146 142.004 192.146 141.711V141.465C192.146 141.16 192.229 140.926 192.393 140.762C192.557 140.598 192.785 140.516 193.078 140.516H205.717C206.021 140.516 206.256 140.598 206.42 140.762C206.584 140.926 206.666 141.16 206.666 141.465V141.711C206.666 142.016 206.584 142.25 206.42 142.414C206.256 142.566 206.021 142.643 205.717 142.643H193.078ZM765.686 149.621C765.451 149.621 765.24 149.586 765.053 149.516C764.877 149.445 764.789 149.322 764.789 149.146C764.789 149.064 764.824 148.936 764.895 148.76C764.977 148.596 765.029 148.479 765.053 148.408C765.416 147.705 765.686 146.967 765.861 146.193C766.037 145.432 766.125 144.576 766.125 143.627C766.125 143.322 766.23 143.082 766.441 142.906C766.652 142.719 766.963 142.625 767.373 142.625H767.672C768.059 142.625 768.357 142.707 768.568 142.871C768.791 143.023 768.902 143.229 768.902 143.486C768.902 144.646 768.715 145.695 768.34 146.633C767.965 147.57 767.52 148.303 767.004 148.83C766.5 149.357 766.061 149.621 765.686 149.621ZM94.2363 213.504C93.3926 213.504 92.9707 213.275 92.9707 212.818V195.398C92.9707 194.039 92.9062 193.061 92.7773 192.463C92.6484 191.854 92.584 191.52 92.584 191.461C92.584 191.203 92.7773 191.021 93.1641 190.916C93.5625 190.799 93.9375 190.74 94.2891 190.74C94.582 190.74 94.7988 190.898 94.9395 191.215C95.0801 191.531 95.1797 191.854 95.2383 192.182C95.3086 192.51 95.3555 192.721 95.3789 192.814C96.8672 191.256 98.5254 190.477 100.354 190.477C101.607 190.477 102.691 190.834 103.605 191.549C104.52 192.264 105.217 193.254 105.697 194.52C106.178 195.785 106.418 197.227 106.418 198.844C106.418 200.602 106.148 202.107 105.609 203.361C105.082 204.615 104.338 205.564 103.377 206.209C102.416 206.854 101.309 207.176 100.055 207.176C99.1523 207.176 98.3496 207.041 97.6465 206.771C96.9551 206.502 96.2695 206.109 95.5898 205.594V212.818C95.5898 213.275 95.1797 213.504 94.3594 213.504H94.2363ZM99.457 204.873C100.852 204.838 101.9 204.328 102.604 203.344C103.307 202.359 103.658 200.93 103.658 199.055C103.658 197.039 103.324 195.486 102.656 194.396C102 193.295 101.051 192.744 99.8086 192.744C99.1172 192.744 98.3965 192.932 97.6465 193.307C96.9082 193.682 96.2227 194.215 95.5898 194.906V203.467C96.7383 204.404 98.0273 204.873 99.457 204.873ZM112.289 207.053C111.844 207.053 111.521 207 111.322 206.895C111.123 206.777 111.023 206.602 111.023 206.367V195.398C111.023 194.039 110.959 193.061 110.83 192.463C110.701 191.854 110.637 191.52 110.637 191.461C110.637 191.203 110.83 191.021 111.217 190.916C111.615 190.799 111.99 190.74 112.342 190.74C112.623 190.74 112.834 190.893 112.975 191.197C113.115 191.49 113.238 191.906 113.344 192.445L113.432 192.814C114.545 191.256 115.752 190.477 117.053 190.477C117.65 190.477 118.102 190.588 118.406 190.811C118.711 191.021 118.863 191.309 118.863 191.672C118.863 192.023 118.799 192.398 118.67 192.797C118.553 193.184 118.412 193.377 118.248 193.377C118.166 193.377 118.02 193.342 117.809 193.271C117.621 193.189 117.434 193.131 117.246 193.096C117.059 193.049 116.818 193.025 116.525 193.025C116.045 193.025 115.588 193.166 115.154 193.447C114.732 193.729 114.375 194.039 114.082 194.379C113.789 194.719 113.643 194.906 113.643 194.941V206.367C113.643 206.602 113.543 206.777 113.344 206.895C113.145 207 112.834 207.053 112.412 207.053H112.289ZM123.609 186.715C122.777 186.715 122.361 186.486 122.361 186.029V184.184C122.361 183.727 122.777 183.498 123.609 183.498H123.979C124.822 183.498 125.244 183.727 125.244 184.184V186.029C125.244 186.486 124.822 186.715 123.979 186.715H123.609ZM123.732 207.053C122.9 207.053 122.484 206.824 122.484 206.367V191.285C122.484 190.828 122.9 190.6 123.732 190.6H123.855C124.699 190.6 125.121 190.828 125.121 191.285V206.367C125.121 206.824 124.699 207.053 123.855 207.053H123.732ZM137.25 207.176C134.66 207.176 132.727 206.514 131.449 205.189C130.184 203.854 129.551 201.709 129.551 198.756C129.551 195.768 130.26 193.641 131.678 192.375C133.096 191.109 134.859 190.477 136.969 190.477C137.754 190.477 138.51 190.547 139.236 190.688C139.963 190.816 140.549 190.992 140.994 191.215C141.439 191.438 141.662 191.672 141.662 191.918C141.662 192.082 141.604 192.299 141.486 192.568C141.381 192.838 141.246 193.078 141.082 193.289C140.93 193.488 140.789 193.588 140.66 193.588C140.625 193.588 140.572 193.576 140.502 193.553C140.432 193.518 140.367 193.488 140.309 193.465C139.254 192.973 138.117 192.727 136.898 192.727C135.457 192.727 134.344 193.201 133.559 194.15C132.773 195.088 132.381 196.6 132.381 198.686C132.381 200.162 132.539 201.357 132.855 202.271C133.172 203.174 133.682 203.842 134.385 204.275C135.1 204.709 136.049 204.926 137.232 204.926C138.533 204.926 139.705 204.656 140.748 204.117C140.854 204.094 140.93 204.07 140.977 204.047C141.035 204.012 141.076 203.994 141.1 203.994C141.229 203.994 141.375 204.094 141.539 204.293C141.703 204.492 141.844 204.721 141.961 204.979C142.09 205.236 142.154 205.441 142.154 205.594C142.154 205.84 141.932 206.086 141.486 206.332C141.041 206.578 140.438 206.783 139.676 206.947C138.926 207.1 138.117 207.176 137.25 207.176ZM152.473 207.176C149.883 207.176 147.955 206.502 146.689 205.154C145.436 203.795 144.809 201.721 144.809 198.932C144.809 196.166 145.424 194.068 146.654 192.639C147.885 191.197 149.695 190.477 152.086 190.477C154.219 190.477 155.824 191.168 156.902 192.551C157.992 193.934 158.537 195.961 158.537 198.633C158.537 198.75 158.473 198.914 158.344 199.125C158.227 199.324 158.08 199.506 157.904 199.67C157.74 199.822 157.6 199.898 157.482 199.898H147.621C147.75 201.645 148.195 202.922 148.957 203.73C149.73 204.527 150.891 204.926 152.438 204.926C153.305 204.926 154.049 204.82 154.67 204.609C155.303 204.398 155.912 204.141 156.498 203.836C156.557 203.812 156.645 203.771 156.762 203.713C156.879 203.654 156.961 203.625 157.008 203.625C157.137 203.625 157.283 203.73 157.447 203.941C157.623 204.141 157.77 204.369 157.887 204.627C158.016 204.873 158.08 205.055 158.08 205.172C158.08 205.43 157.822 205.717 157.307 206.033C156.791 206.35 156.1 206.619 155.232 206.842C154.377 207.064 153.457 207.176 152.473 207.176ZM155.742 197.648C155.742 194.367 154.494 192.727 151.998 192.727C149.314 192.727 147.855 194.367 147.621 197.648H155.742ZM169.91 198.527C169.617 198.527 169.389 198.445 169.225 198.281C169.061 198.105 168.979 197.871 168.979 197.578V197.367C168.979 197.062 169.061 196.834 169.225 196.682C169.389 196.518 169.617 196.436 169.91 196.436H182.549C183.182 196.436 183.498 196.746 183.498 197.367V197.578C183.498 197.883 183.416 198.117 183.252 198.281C183.088 198.445 182.854 198.527 182.549 198.527H169.91ZM169.91 203.643C169.617 203.643 169.389 203.561 169.225 203.396C169.061 203.232 168.979 203.004 168.979 202.711V202.465C168.979 202.16 169.061 201.926 169.225 201.762C169.389 201.598 169.617 201.516 169.91 201.516H182.549C182.854 201.516 183.088 201.598 183.252 201.762C183.416 201.926 183.498 202.16 183.498 202.465V202.711C183.498 203.016 183.416 203.25 183.252 203.414C183.088 203.566 182.854 203.643 182.549 203.643H169.91ZM1.56445 272.324C1.3418 272.324 1.17773 272.254 1.07227 272.113C0.978516 271.973 0.931641 271.738 0.931641 271.41V271.287C0.931641 270.959 0.978516 270.725 1.07227 270.584C1.17773 270.443 1.3418 270.373 1.56445 270.373H2.25C2.66016 270.373 2.94141 270.215 3.09375 269.898C3.24609 269.582 3.32227 269.096 3.32227 268.439V262.973C3.32227 262.023 3.47461 261.203 3.7793 260.512C4.0957 259.82 4.44141 259.287 4.81641 258.912C5.19141 258.537 5.50195 258.297 5.74805 258.191C4.13086 257.008 3.32227 255.391 3.32227 253.34V247.838C3.32227 247.182 3.24609 246.701 3.09375 246.396C2.94141 246.08 2.66016 245.922 2.25 245.922H1.56445C1.3418 245.922 1.17773 245.852 1.07227 245.711C0.978516 245.57 0.931641 245.342 0.931641 245.025V244.902C0.931641 244.586 0.978516 244.357 1.07227 244.217C1.17773 244.076 1.3418 244.006 1.56445 244.006H3.12891C3.46875 244.006 3.82617 244.111 4.20117 244.322C4.57617 244.533 4.89844 244.908 5.16797 245.447C5.4375 245.986 5.57227 246.713 5.57227 247.627V252.848C5.57227 253.996 5.67773 254.881 5.88867 255.502C6.09961 256.123 6.52734 256.58 7.17188 256.873C7.42969 256.99 7.62305 257.131 7.75195 257.295C7.88086 257.459 7.94531 257.67 7.94531 257.928V258.367C7.94531 258.637 7.88086 258.854 7.75195 259.018C7.62305 259.17 7.42969 259.305 7.17188 259.422C6.52734 259.715 6.09961 260.178 5.88867 260.811C5.67773 261.432 5.57227 262.316 5.57227 263.465V268.686C5.57227 269.611 5.4375 270.344 5.16797 270.883C4.89844 271.434 4.57617 271.809 4.20117 272.008C3.83789 272.219 3.48047 272.324 3.12891 272.324H1.56445Z" fill="white"/>
<path d="M50.502 24.2988C49.623 24.2988 48.8027 24.1875 48.041 23.9648C47.2793 23.7422 46.6699 23.4727 46.2129 23.1562C45.7676 22.8281 45.5449 22.541 45.5449 22.2949C45.5449 22.1777 45.6035 21.9902 45.7207 21.7324C45.8496 21.4746 45.9961 21.2461 46.1602 21.0469C46.3359 20.8359 46.4941 20.7305 46.6348 20.7305C46.6699 20.7305 46.7754 20.7891 46.9512 20.9062C47.4199 21.2109 47.9121 21.4688 48.4277 21.6797C48.9551 21.8906 49.582 21.9961 50.3086 21.9961C52.3477 21.9961 53.3672 21.1523 53.3672 19.4648C53.3672 18.9844 53.2676 18.5801 53.0684 18.252C52.8809 17.9238 52.5586 17.6367 52.1016 17.3906C51.6562 17.1328 51.041 16.8867 50.2559 16.6523C49.1309 16.3242 48.252 15.9492 47.6191 15.5273C46.998 15.1055 46.5586 14.6133 46.3008 14.0508C46.043 13.4766 45.9141 12.7852 45.9141 11.9766C45.9141 11.1094 46.1309 10.3301 46.5645 9.63867C47.0098 8.94727 47.625 8.4082 48.4102 8.02148C49.207 7.63477 50.1035 7.44141 51.0996 7.44141C51.791 7.44141 52.4531 7.50586 53.0859 7.63477C53.7305 7.76367 54.2461 7.93359 54.6328 8.14453C55.0312 8.34375 55.2305 8.55469 55.2305 8.77734C55.2305 8.94141 55.1719 9.16406 55.0547 9.44531C54.9492 9.71484 54.8145 9.95508 54.6504 10.166C54.4863 10.3652 54.3398 10.4648 54.2109 10.4648C54.1875 10.4648 54.041 10.3945 53.7715 10.2539C53.502 10.1016 53.1562 9.9668 52.7344 9.84961C52.3242 9.7207 51.8672 9.65625 51.3633 9.65625C50.5664 9.65625 49.9043 9.83789 49.377 10.2012C48.8613 10.5527 48.6035 11.0273 48.6035 11.625C48.6035 12.3281 48.791 12.8906 49.166 13.3125C49.541 13.7344 50.1621 14.0801 51.0293 14.3496C52.3652 14.7598 53.3848 15.1699 54.0879 15.5801C54.791 15.9902 55.2891 16.4941 55.582 17.0918C55.8867 17.6777 56.0391 18.4512 56.0391 19.4121C56.0391 20.3262 55.793 21.1582 55.3008 21.9082C54.8086 22.6465 54.1406 23.2324 53.2969 23.666C52.4531 24.0879 51.5215 24.2988 50.502 24.2988ZM64.7227 24.1758C63.6797 24.1758 62.748 23.8594 61.9277 23.2266C61.1074 22.5938 60.6973 21.4746 60.6973 19.8691V9.90234H59.1328C58.9102 9.90234 58.7461 9.83203 58.6406 9.69141C58.5469 9.53906 58.5 9.29883 58.5 8.9707V8.58398C58.5 8.25586 58.5469 8.02148 58.6406 7.88086C58.7461 7.72852 58.9102 7.65234 59.1328 7.65234H60.6973L61.0664 4.38281C61.0898 3.92578 61.4238 3.69727 62.0684 3.69727H62.3672C62.6953 3.69727 62.9355 3.75586 63.0879 3.87305C63.2402 3.97852 63.3164 4.14844 63.3164 4.38281V7.65234H65.9355C66.1582 7.65234 66.3164 7.72852 66.4102 7.88086C66.5156 8.02148 66.5684 8.25586 66.5684 8.58398V8.9707C66.5684 9.29883 66.5156 9.53906 66.4102 9.69141C66.3164 9.83203 66.1582 9.90234 65.9355 9.90234H63.3164V19.623C63.3164 20.4785 63.4629 21.0762 63.7559 21.416C64.0605 21.7559 64.4707 21.9258 64.9863 21.9258C65.3848 21.9258 65.6895 21.9023 65.9004 21.8555C66.123 21.8086 66.2695 21.7852 66.3398 21.7852C66.5273 21.7852 66.6797 21.9727 66.7969 22.3477C66.9258 22.7227 66.9902 23.0215 66.9902 23.2441C66.9902 23.8652 66.2344 24.1758 64.7227 24.1758ZM74.9355 24.1758C73.3418 24.1758 72.0527 23.7832 71.0684 22.998C70.084 22.2129 69.5918 21.0469 69.5918 19.5C69.5918 17.8711 70.0898 16.6465 71.0859 15.8262C72.082 14.9941 73.2949 14.4609 74.7246 14.2266C76.166 13.9805 77.9121 13.8398 79.9629 13.8047V12.3281C79.9629 11.543 79.6934 10.916 79.1543 10.4473C78.627 9.9668 77.7539 9.72656 76.5352 9.72656C75.6094 9.72656 74.7949 9.83789 74.0918 10.0605C73.4004 10.2715 72.75 10.5293 72.1406 10.834C71.8828 10.9629 71.7246 11.0273 71.666 11.0273C71.5254 11.0273 71.3672 10.9277 71.1914 10.7285C71.0273 10.5176 70.8809 10.2832 70.752 10.0254C70.6348 9.76758 70.5762 9.58008 70.5762 9.46289C70.5762 9.19336 70.8516 8.90039 71.4023 8.58398C71.9648 8.26758 72.6973 8.00391 73.5996 7.79297C74.502 7.58203 75.4453 7.47656 76.4297 7.47656C78.3867 7.47656 79.9043 7.9043 80.9824 8.75977C82.0605 9.61523 82.5996 10.8164 82.5996 12.3633V19.377C82.5996 20.7363 82.6582 21.7207 82.7754 22.3301C82.9043 22.9277 82.9688 23.2559 82.9688 23.3145C82.9688 23.5723 82.7695 23.7598 82.3711 23.877C81.9844 23.9824 81.6211 24.0352 81.2812 24.0352C81 24.0352 80.7891 23.877 80.6484 23.5605C80.5195 23.2441 80.3906 22.7871 80.2617 22.1895L80.1914 21.8379C79.5469 22.5527 78.7852 23.1211 77.9062 23.543C77.0391 23.9648 76.0488 24.1758 74.9355 24.1758ZM75.0762 21.9082C76.1074 21.9082 76.9863 21.7207 77.7129 21.3457C78.4395 20.9707 79.1895 20.4375 79.9629 19.7461V16.0547C78.416 16.0664 77.1445 16.1309 76.1484 16.248C75.1523 16.3652 74.2793 16.6641 73.5293 17.1445C72.7793 17.6133 72.4043 18.3457 72.4043 19.3418C72.4043 20.1738 72.627 20.8125 73.0723 21.2578C73.5293 21.6914 74.1973 21.9082 75.0762 21.9082ZM89.0684 24.0527C88.623 24.0527 88.3008 24 88.1016 23.8945C87.9023 23.7773 87.8027 23.6016 87.8027 23.3672V12.3984C87.8027 11.0391 87.7383 10.0605 87.6094 9.46289C87.4805 8.85352 87.416 8.51953 87.416 8.46094C87.416 8.20312 87.6094 8.02148 87.9961 7.91602C88.3945 7.79883 88.7695 7.74023 89.1211 7.74023C89.4141 7.74023 89.6309 7.89844 89.7715 8.21484C89.9121 8.53125 90.0117 8.85352 90.0703 9.18164C90.1406 9.50977 90.1875 9.7207 90.2109 9.81445C90.8672 9.07617 91.623 8.50195 92.4785 8.0918C93.3457 7.68164 94.2188 7.47656 95.0977 7.47656C96.6914 7.47656 97.9336 7.92773 98.8242 8.83008C99.7266 9.7207 100.178 10.9512 100.178 12.5215V23.3672C100.178 23.6016 100.078 23.7773 99.8789 23.8945C99.6797 24 99.3633 24.0527 98.9297 24.0527H98.7891C98.3672 24.0527 98.0566 24 97.8574 23.8945C97.6582 23.7773 97.5586 23.6016 97.5586 23.3672V12.7852C97.5586 11.8242 97.2773 11.0801 96.7148 10.5527C96.1641 10.0137 95.3848 9.74414 94.377 9.74414C93.6738 9.74414 92.9648 9.94336 92.25 10.3418C91.5469 10.7285 90.9375 11.2617 90.4219 11.9414V23.3672C90.4219 23.6016 90.3223 23.7773 90.123 23.8945C89.9238 24 89.6133 24.0527 89.1914 24.0527H89.0684ZM110.197 24.1758C108.979 24.1758 107.912 23.8242 106.998 23.1211C106.084 22.4062 105.375 21.416 104.871 20.1504C104.379 18.8848 104.133 17.4492 104.133 15.8438C104.133 14.0742 104.396 12.5625 104.924 11.3086C105.463 10.043 106.213 9.08789 107.174 8.44336C108.135 7.79883 109.242 7.47656 110.496 7.47656C111.398 7.47656 112.195 7.61133 112.887 7.88086C113.59 8.15039 114.281 8.54297 114.961 9.05859V1.18359C114.961 0.726562 115.371 0.498047 116.191 0.498047H116.332C117.164 0.498047 117.58 0.726562 117.58 1.18359V19.377C117.58 20.7363 117.645 21.7207 117.773 22.3301C117.902 22.9277 117.967 23.2559 117.967 23.3145C117.967 23.5723 117.768 23.7598 117.369 23.877C116.982 23.9824 116.619 24.0352 116.279 24.0352C116.045 24.0352 115.857 23.9238 115.717 23.7012C115.576 23.4785 115.477 23.2559 115.418 23.0332C115.371 22.7988 115.289 22.4004 115.172 21.8379C113.684 23.3965 112.025 24.1758 110.197 24.1758ZM110.742 21.9082C111.434 21.9082 112.148 21.7207 112.887 21.3457C113.637 20.9707 114.328 20.4375 114.961 19.7461V11.1855C113.836 10.248 112.553 9.7793 111.111 9.7793C109.717 9.81445 108.662 10.3242 107.947 11.3086C107.244 12.293 106.893 13.7227 106.893 15.5977C106.893 17.6133 107.221 19.1719 107.877 20.2734C108.545 21.3633 109.5 21.9082 110.742 21.9082ZM127.072 24.1758C125.479 24.1758 124.189 23.7832 123.205 22.998C122.221 22.2129 121.729 21.0469 121.729 19.5C121.729 17.8711 122.227 16.6465 123.223 15.8262C124.219 14.9941 125.432 14.4609 126.861 14.2266C128.303 13.9805 130.049 13.8398 132.1 13.8047V12.3281C132.1 11.543 131.83 10.916 131.291 10.4473C130.764 9.9668 129.891 9.72656 128.672 9.72656C127.746 9.72656 126.932 9.83789 126.229 10.0605C125.537 10.2715 124.887 10.5293 124.277 10.834C124.02 10.9629 123.861 11.0273 123.803 11.0273C123.662 11.0273 123.504 10.9277 123.328 10.7285C123.164 10.5176 123.018 10.2832 122.889 10.0254C122.771 9.76758 122.713 9.58008 122.713 9.46289C122.713 9.19336 122.988 8.90039 123.539 8.58398C124.102 8.26758 124.834 8.00391 125.736 7.79297C126.639 7.58203 127.582 7.47656 128.566 7.47656C130.523 7.47656 132.041 7.9043 133.119 8.75977C134.197 9.61523 134.736 10.8164 134.736 12.3633V19.377C134.736 20.7363 134.795 21.7207 134.912 22.3301C135.041 22.9277 135.105 23.2559 135.105 23.3145C135.105 23.5723 134.906 23.7598 134.508 23.877C134.121 23.9824 133.758 24.0352 133.418 24.0352C133.137 24.0352 132.926 23.877 132.785 23.5605C132.656 23.2441 132.527 22.7871 132.398 22.1895L132.328 21.8379C131.684 22.5527 130.922 23.1211 130.043 23.543C129.176 23.9648 128.186 24.1758 127.072 24.1758ZM127.213 21.9082C128.244 21.9082 129.123 21.7207 129.85 21.3457C130.576 20.9707 131.326 20.4375 132.1 19.7461V16.0547C130.553 16.0664 129.281 16.1309 128.285 16.248C127.289 16.3652 126.416 16.6641 125.666 17.1445C124.916 17.6133 124.541 18.3457 124.541 19.3418C124.541 20.1738 124.764 20.8125 125.209 21.2578C125.666 21.6914 126.334 21.9082 127.213 21.9082ZM141.328 24.0527C140.883 24.0527 140.561 24 140.361 23.8945C140.162 23.7773 140.062 23.6016 140.062 23.3672V12.3984C140.062 11.0391 139.998 10.0605 139.869 9.46289C139.74 8.85352 139.676 8.51953 139.676 8.46094C139.676 8.20312 139.869 8.02148 140.256 7.91602C140.654 7.79883 141.029 7.74023 141.381 7.74023C141.662 7.74023 141.873 7.89258 142.014 8.19727C142.154 8.49023 142.277 8.90625 142.383 9.44531L142.471 9.81445C143.584 8.25586 144.791 7.47656 146.092 7.47656C146.689 7.47656 147.141 7.58789 147.445 7.81055C147.75 8.02148 147.902 8.30859 147.902 8.67188C147.902 9.02344 147.838 9.39844 147.709 9.79688C147.592 10.1836 147.451 10.377 147.287 10.377C147.205 10.377 147.059 10.3418 146.848 10.2715C146.66 10.1895 146.473 10.1309 146.285 10.0957C146.098 10.0488 145.857 10.0254 145.564 10.0254C145.084 10.0254 144.627 10.166 144.193 10.4473C143.771 10.7285 143.414 11.0391 143.121 11.3789C142.828 11.7188 142.682 11.9062 142.682 11.9414V23.3672C142.682 23.6016 142.582 23.7773 142.383 23.8945C142.184 24 141.873 24.0527 141.451 24.0527H141.328ZM156.059 24.1758C155.016 24.1758 154.084 23.8594 153.264 23.2266C152.443 22.5938 152.033 21.4746 152.033 19.8691V9.90234H150.469C150.246 9.90234 150.082 9.83203 149.977 9.69141C149.883 9.53906 149.836 9.29883 149.836 8.9707V8.58398C149.836 8.25586 149.883 8.02148 149.977 7.88086C150.082 7.72852 150.246 7.65234 150.469 7.65234H152.033L152.402 4.38281C152.426 3.92578 152.76 3.69727 153.404 3.69727H153.703C154.031 3.69727 154.271 3.75586 154.424 3.87305C154.576 3.97852 154.652 4.14844 154.652 4.38281V7.65234H157.271C157.494 7.65234 157.652 7.72852 157.746 7.88086C157.852 8.02148 157.904 8.25586 157.904 8.58398V8.9707C157.904 9.29883 157.852 9.53906 157.746 9.69141C157.652 9.83203 157.494 9.90234 157.271 9.90234H154.652V19.623C154.652 20.4785 154.799 21.0762 155.092 21.416C155.396 21.7559 155.807 21.9258 156.322 21.9258C156.721 21.9258 157.025 21.9023 157.236 21.8555C157.459 21.8086 157.605 21.7852 157.676 21.7852C157.863 21.7852 158.016 21.9727 158.133 22.3477C158.262 22.7227 158.326 23.0215 158.326 23.2441C158.326 23.8652 157.57 24.1758 156.059 24.1758ZM163.301 24.0527C162.867 24.0527 162.551 24 162.352 23.8945C162.164 23.7773 162.07 23.6016 162.07 23.3672V3.06445C162.07 2.72461 162.141 2.48438 162.281 2.34375C162.434 2.20312 162.674 2.13281 163.002 2.13281H169.33C171.158 2.13281 172.775 2.57227 174.182 3.45117C175.6 4.31836 176.309 5.91797 176.309 8.25C176.309 9.98438 175.904 11.332 175.096 12.293C174.287 13.2422 173.379 13.8809 172.371 14.209C171.363 14.5254 170.455 14.6836 169.646 14.6836H164.795V23.3672C164.795 23.6016 164.695 23.7773 164.496 23.8945C164.297 24 163.986 24.0527 163.564 24.0527H163.301ZM169.682 12.3105C170.209 12.3105 170.76 12.1992 171.334 11.9766C171.908 11.7422 172.406 11.3262 172.828 10.7285C173.25 10.1191 173.461 9.29297 173.461 8.25C173.461 6.85547 173.045 5.88281 172.213 5.33203C171.393 4.78125 170.402 4.50586 169.242 4.50586H164.795V12.3105H169.682ZM181.301 24.0527C180.855 24.0527 180.533 24 180.334 23.8945C180.135 23.7773 180.035 23.6016 180.035 23.3672V12.3984C180.035 11.0391 179.971 10.0605 179.842 9.46289C179.713 8.85352 179.648 8.51953 179.648 8.46094C179.648 8.20312 179.842 8.02148 180.229 7.91602C180.627 7.79883 181.002 7.74023 181.354 7.74023C181.635 7.74023 181.846 7.89258 181.986 8.19727C182.127 8.49023 182.25 8.90625 182.355 9.44531L182.443 9.81445C183.557 8.25586 184.764 7.47656 186.064 7.47656C186.662 7.47656 187.113 7.58789 187.418 7.81055C187.723 8.02148 187.875 8.30859 187.875 8.67188C187.875 9.02344 187.811 9.39844 187.682 9.79688C187.564 10.1836 187.424 10.377 187.26 10.377C187.178 10.377 187.031 10.3418 186.82 10.2715C186.633 10.1895 186.445 10.1309 186.258 10.0957C186.07 10.0488 185.83 10.0254 185.537 10.0254C185.057 10.0254 184.6 10.166 184.166 10.4473C183.744 10.7285 183.387 11.0391 183.094 11.3789C182.801 11.7188 182.654 11.9062 182.654 11.9414V23.3672C182.654 23.6016 182.555 23.7773 182.355 23.8945C182.156 24 181.846 24.0527 181.424 24.0527H181.301ZM197.613 24.1758C195.258 24.1758 193.459 23.4727 192.217 22.0664C190.986 20.6484 190.371 18.5918 190.371 15.8965C190.371 13.2012 190.998 11.127 192.252 9.67383C193.506 8.20898 195.293 7.47656 197.613 7.47656C199.91 7.47656 201.668 8.20312 202.887 9.65625C204.105 11.0977 204.715 13.1777 204.715 15.8965C204.715 18.6035 204.111 20.6602 202.904 22.0664C201.709 23.4727 199.945 24.1758 197.613 24.1758ZM197.525 21.9258C199.049 21.9258 200.174 21.4336 200.9 20.4492C201.627 19.4531 201.99 17.918 201.99 15.8438C201.99 13.7578 201.627 12.2168 200.9 11.2207C200.174 10.2246 199.049 9.72656 197.525 9.72656C196.014 9.72656 194.9 10.2246 194.186 11.2207C193.471 12.2051 193.113 13.7461 193.113 15.8438C193.113 17.9297 193.465 19.4648 194.168 20.4492C194.883 21.4336 196.002 21.9258 197.525 21.9258ZM214.119 24.1758C212.9 24.1758 211.834 23.8242 210.92 23.1211C210.006 22.4062 209.297 21.416 208.793 20.1504C208.301 18.8848 208.055 17.4492 208.055 15.8438C208.055 14.0742 208.318 12.5625 208.846 11.3086C209.385 10.043 210.135 9.08789 211.096 8.44336C212.057 7.79883 213.164 7.47656 214.418 7.47656C215.32 7.47656 216.117 7.61133 216.809 7.88086C217.512 8.15039 218.203 8.54297 218.883 9.05859V1.18359C218.883 0.726562 219.293 0.498047 220.113 0.498047H220.254C221.086 0.498047 221.502 0.726562 221.502 1.18359V19.377C221.502 20.7363 221.566 21.7207 221.695 22.3301C221.824 22.9277 221.889 23.2559 221.889 23.3145C221.889 23.5723 221.689 23.7598 221.291 23.877C220.904 23.9824 220.541 24.0352 220.201 24.0352C219.967 24.0352 219.779 23.9238 219.639 23.7012C219.498 23.4785 219.398 23.2559 219.34 23.0332C219.293 22.7988 219.211 22.4004 219.094 21.8379C217.605 23.3965 215.947 24.1758 214.119 24.1758ZM214.664 21.9082C215.355 21.9082 216.07 21.7207 216.809 21.3457C217.559 20.9707 218.25 20.4375 218.883 19.7461V11.1855C217.758 10.248 216.475 9.7793 215.033 9.7793C213.639 9.81445 212.584 10.3242 211.869 11.3086C211.166 12.293 210.814 13.7227 210.814 15.5977C210.814 17.6133 211.143 19.1719 211.799 20.2734C212.467 21.3633 213.422 21.9082 214.664 21.9082ZM231.557 24.1758C229.963 24.1758 228.715 23.7305 227.812 22.8398C226.91 21.9375 226.459 20.6953 226.459 19.1133V8.28516C226.459 7.82812 226.881 7.59961 227.725 7.59961H227.848C228.68 7.59961 229.096 7.82812 229.096 8.28516V18.8672C229.096 19.8281 229.371 20.5781 229.922 21.1172C230.484 21.6445 231.27 21.9082 232.277 21.9082C232.98 21.9082 233.684 21.7148 234.387 21.3281C235.09 20.9297 235.699 20.3906 236.215 19.7109V8.28516C236.215 7.82812 236.631 7.59961 237.463 7.59961H237.586C238.43 7.59961 238.852 7.82812 238.852 8.28516V19.377C238.852 20.7363 238.91 21.7207 239.027 22.3301C239.145 22.9277 239.203 23.2559 239.203 23.3145C239.203 23.5723 239.01 23.7598 238.623 23.877C238.236 23.9824 237.873 24.0352 237.533 24.0352C237.24 24.0352 237.023 23.8711 236.883 23.543C236.742 23.2031 236.637 22.8574 236.566 22.5059C236.508 22.1543 236.467 21.9316 236.443 21.8379C235.787 22.5762 235.025 23.1504 234.158 23.5605C233.303 23.9707 232.436 24.1758 231.557 24.1758ZM250.84 24.1758C248.25 24.1758 246.316 23.5137 245.039 22.1895C243.773 20.8535 243.141 18.709 243.141 15.7559C243.141 12.7676 243.85 10.6406 245.268 9.375C246.686 8.10938 248.449 7.47656 250.559 7.47656C251.344 7.47656 252.1 7.54688 252.826 7.6875C253.553 7.81641 254.139 7.99219 254.584 8.21484C255.029 8.4375 255.252 8.67188 255.252 8.91797C255.252 9.08203 255.193 9.29883 255.076 9.56836C254.971 9.83789 254.836 10.0781 254.672 10.2891C254.52 10.4883 254.379 10.5879 254.25 10.5879C254.215 10.5879 254.162 10.5762 254.092 10.5527C254.021 10.5176 253.957 10.4883 253.898 10.4648C252.844 9.97266 251.707 9.72656 250.488 9.72656C249.047 9.72656 247.934 10.2012 247.148 11.1504C246.363 12.0879 245.971 13.5996 245.971 15.6855C245.971 17.1621 246.129 18.3574 246.445 19.2715C246.762 20.1738 247.271 20.8418 247.975 21.2754C248.689 21.709 249.639 21.9258 250.822 21.9258C252.123 21.9258 253.295 21.6562 254.338 21.1172C254.443 21.0938 254.52 21.0703 254.566 21.0469C254.625 21.0117 254.666 20.9941 254.689 20.9941C254.818 20.9941 254.965 21.0938 255.129 21.293C255.293 21.4922 255.434 21.7207 255.551 21.9785C255.68 22.2363 255.744 22.4414 255.744 22.5938C255.744 22.8398 255.521 23.0859 255.076 23.332C254.631 23.5781 254.027 23.7832 253.266 23.9473C252.516 24.0996 251.707 24.1758 250.84 24.1758ZM264.059 24.1758C263.016 24.1758 262.084 23.8594 261.264 23.2266C260.443 22.5938 260.033 21.4746 260.033 19.8691V9.90234H258.469C258.246 9.90234 258.082 9.83203 257.977 9.69141C257.883 9.53906 257.836 9.29883 257.836 8.9707V8.58398C257.836 8.25586 257.883 8.02148 257.977 7.88086C258.082 7.72852 258.246 7.65234 258.469 7.65234H260.033L260.402 4.38281C260.426 3.92578 260.76 3.69727 261.404 3.69727H261.703C262.031 3.69727 262.271 3.75586 262.424 3.87305C262.576 3.97852 262.652 4.14844 262.652 4.38281V7.65234H265.271C265.494 7.65234 265.652 7.72852 265.746 7.88086C265.852 8.02148 265.904 8.25586 265.904 8.58398V8.9707C265.904 9.29883 265.852 9.53906 265.746 9.69141C265.652 9.83203 265.494 9.90234 265.271 9.90234H262.652V19.623C262.652 20.4785 262.799 21.0762 263.092 21.416C263.396 21.7559 263.807 21.9258 264.322 21.9258C264.721 21.9258 265.025 21.9023 265.236 21.8555C265.459 21.8086 265.605 21.7852 265.676 21.7852C265.863 21.7852 266.016 21.9727 266.133 22.3477C266.262 22.7227 266.326 23.0215 266.326 23.2441C266.326 23.8652 265.57 24.1758 264.059 24.1758Z" fill="#F9FFB9"/>
<path d="M207.51 68.8984C207.123 68.8984 206.818 68.8223 206.596 68.6699C206.385 68.5059 206.279 68.2891 206.279 68.0195C206.279 66.8594 206.461 65.8164 206.824 64.8906C207.199 63.9531 207.645 63.2207 208.16 62.6934C208.676 62.166 209.115 61.9023 209.479 61.9023C209.713 61.9023 209.924 61.9375 210.111 62.0078C210.299 62.0781 210.393 62.2012 210.393 62.377C210.393 62.4824 210.352 62.6289 210.27 62.8164C210.188 62.9922 210.135 63.0977 210.111 63.1328C209.748 63.8125 209.479 64.5391 209.303 65.3125C209.127 66.0742 209.039 66.9355 209.039 67.8965C209.039 68.2012 208.934 68.4473 208.723 68.6348C208.523 68.8105 208.219 68.8984 207.809 68.8984H207.51ZM203.168 68.8984C202.781 68.8984 202.477 68.8223 202.254 68.6699C202.043 68.5059 201.938 68.2891 201.938 68.0195C201.938 66.8594 202.119 65.8164 202.482 64.8906C202.857 63.9531 203.303 63.2207 203.818 62.6934C204.334 62.166 204.773 61.9023 205.137 61.9023C205.371 61.9023 205.582 61.9375 205.77 62.0078C205.957 62.0781 206.051 62.2012 206.051 62.377C206.051 62.4824 206.01 62.6289 205.928 62.8164C205.846 62.9922 205.793 63.0977 205.77 63.1328C205.406 63.8125 205.137 64.5391 204.961 65.3125C204.785 66.0742 204.697 66.9355 204.697 67.8965C204.697 68.2012 204.592 68.4473 204.381 68.6348C204.182 68.8105 203.877 68.8984 203.467 68.8984H203.168ZM212.414 85.0527C211.945 85.0527 211.605 85.0117 211.395 84.9297C211.184 84.8359 211.078 84.7012 211.078 84.5254C211.078 84.4434 211.107 84.3027 211.166 84.1035L218.566 63.5547C218.684 63.2148 219.1 63.0449 219.814 63.0449H220.729C221.443 63.0449 221.859 63.2148 221.977 63.5547L229.377 84.1211C229.436 84.25 229.465 84.3848 229.465 84.5254C229.465 84.877 229.025 85.0527 228.146 85.0527H227.883C227.156 85.0527 226.734 84.8887 226.617 84.5605L224.789 79.4277H215.613L213.82 84.5605C213.715 84.8887 213.299 85.0527 212.572 85.0527H212.414ZM223.945 77.0547L220.676 67.7559C220.582 67.498 220.506 67.2051 220.447 66.877C220.389 66.5488 220.336 66.2324 220.289 65.9277H220.219C220.078 66.7129 219.92 67.3223 219.744 67.7559L216.475 77.0547H223.945ZM236.9 85.0527C236.162 85.0527 235.74 84.8887 235.635 84.5605L230.607 69.5312C230.537 69.3203 230.502 69.1855 230.502 69.127C230.502 68.9629 230.613 68.834 230.836 68.7402C231.059 68.6465 231.398 68.5996 231.855 68.5996H232.014C232.74 68.5996 233.156 68.7637 233.262 69.0918L236.443 79.0586C236.701 79.832 237 80.8867 237.34 82.2227L237.533 82.9609H237.674L237.885 82.0293C238.143 80.7988 238.383 79.832 238.605 79.1289L241.822 69.0918C241.928 68.7637 242.355 68.5996 243.105 68.5996H243.193C243.979 68.5996 244.371 68.7754 244.371 69.127C244.371 69.2441 244.33 69.3848 244.248 69.5488L239.238 84.5605C239.133 84.8887 238.711 85.0527 237.973 85.0527H236.9ZM251.877 85.1758C250.283 85.1758 248.994 84.7832 248.01 83.998C247.025 83.2129 246.533 82.0469 246.533 80.5C246.533 78.8711 247.031 77.6465 248.027 76.8262C249.023 75.9941 250.236 75.4609 251.666 75.2266C253.107 74.9805 254.854 74.8398 256.904 74.8047V73.3281C256.904 72.543 256.635 71.916 256.096 71.4473C255.568 70.9668 254.695 70.7266 253.477 70.7266C252.551 70.7266 251.736 70.8379 251.033 71.0605C250.342 71.2715 249.691 71.5293 249.082 71.834C248.824 71.9629 248.666 72.0273 248.607 72.0273C248.467 72.0273 248.309 71.9277 248.133 71.7285C247.969 71.5176 247.822 71.2832 247.693 71.0254C247.576 70.7676 247.518 70.5801 247.518 70.4629C247.518 70.1934 247.793 69.9004 248.344 69.584C248.906 69.2676 249.639 69.0039 250.541 68.793C251.443 68.582 252.387 68.4766 253.371 68.4766C255.328 68.4766 256.846 68.9043 257.924 69.7598C259.002 70.6152 259.541 71.8164 259.541 73.3633V80.377C259.541 81.7363 259.6 82.7207 259.717 83.3301C259.846 83.9277 259.91 84.2559 259.91 84.3145C259.91 84.5723 259.711 84.7598 259.312 84.877C258.926 84.9824 258.562 85.0352 258.223 85.0352C257.941 85.0352 257.73 84.877 257.59 84.5605C257.461 84.2441 257.332 83.7871 257.203 83.1895L257.133 82.8379C256.488 83.5527 255.727 84.1211 254.848 84.543C253.98 84.9648 252.99 85.1758 251.877 85.1758ZM252.018 82.9082C253.049 82.9082 253.928 82.7207 254.654 82.3457C255.381 81.9707 256.131 81.4375 256.904 80.7461V77.0547C255.357 77.0664 254.086 77.1309 253.09 77.248C252.094 77.3652 251.221 77.6641 250.471 78.1445C249.721 78.6133 249.346 79.3457 249.346 80.3418C249.346 81.1738 249.568 81.8125 250.014 82.2578C250.471 82.6914 251.139 82.9082 252.018 82.9082ZM269.438 85.1758C268.395 85.1758 267.463 84.8594 266.643 84.2266C265.822 83.5938 265.412 82.4746 265.412 80.8691V70.9023H263.848C263.625 70.9023 263.461 70.832 263.355 70.6914C263.262 70.5391 263.215 70.2988 263.215 69.9707V69.584C263.215 69.2559 263.262 69.0215 263.355 68.8809C263.461 68.7285 263.625 68.6523 263.848 68.6523H265.412L265.781 65.3828C265.805 64.9258 266.139 64.6973 266.783 64.6973H267.082C267.41 64.6973 267.65 64.7559 267.803 64.873C267.955 64.9785 268.031 65.1484 268.031 65.3828V68.6523H270.65C270.873 68.6523 271.031 68.7285 271.125 68.8809C271.23 69.0215 271.283 69.2559 271.283 69.584V69.9707C271.283 70.2988 271.23 70.5391 271.125 70.6914C271.031 70.832 270.873 70.9023 270.65 70.9023H268.031V80.623C268.031 81.4785 268.178 82.0762 268.471 82.416C268.775 82.7559 269.186 82.9258 269.701 82.9258C270.1 82.9258 270.404 82.9023 270.615 82.8555C270.838 82.8086 270.984 82.7852 271.055 82.7852C271.242 82.7852 271.395 82.9727 271.512 83.3477C271.641 83.7227 271.705 84.0215 271.705 84.2441C271.705 84.8652 270.949 85.1758 269.438 85.1758ZM279.65 85.1758C278.057 85.1758 276.768 84.7832 275.783 83.998C274.799 83.2129 274.307 82.0469 274.307 80.5C274.307 78.8711 274.805 77.6465 275.801 76.8262C276.797 75.9941 278.01 75.4609 279.439 75.2266C280.881 74.9805 282.627 74.8398 284.678 74.8047V73.3281C284.678 72.543 284.408 71.916 283.869 71.4473C283.342 70.9668 282.469 70.7266 281.25 70.7266C280.324 70.7266 279.51 70.8379 278.807 71.0605C278.115 71.2715 277.465 71.5293 276.855 71.834C276.598 71.9629 276.439 72.0273 276.381 72.0273C276.24 72.0273 276.082 71.9277 275.906 71.7285C275.742 71.5176 275.596 71.2832 275.467 71.0254C275.35 70.7676 275.291 70.5801 275.291 70.4629C275.291 70.1934 275.566 69.9004 276.117 69.584C276.68 69.2676 277.412 69.0039 278.314 68.793C279.217 68.582 280.16 68.4766 281.145 68.4766C283.102 68.4766 284.619 68.9043 285.697 69.7598C286.775 70.6152 287.314 71.8164 287.314 73.3633V80.377C287.314 81.7363 287.373 82.7207 287.49 83.3301C287.619 83.9277 287.684 84.2559 287.684 84.3145C287.684 84.5723 287.484 84.7598 287.086 84.877C286.699 84.9824 286.336 85.0352 285.996 85.0352C285.715 85.0352 285.504 84.877 285.363 84.5605C285.234 84.2441 285.105 83.7871 284.977 83.1895L284.906 82.8379C284.262 83.5527 283.5 84.1211 282.621 84.543C281.754 84.9648 280.764 85.1758 279.65 85.1758ZM279.791 82.9082C280.822 82.9082 281.701 82.7207 282.428 82.3457C283.154 81.9707 283.904 81.4375 284.678 80.7461V77.0547C283.131 77.0664 281.859 77.1309 280.863 77.248C279.867 77.3652 278.994 77.6641 278.244 78.1445C277.494 78.6133 277.119 79.3457 277.119 80.3418C277.119 81.1738 277.342 81.8125 277.787 82.2578C278.244 82.6914 278.912 82.9082 279.791 82.9082ZM293.906 85.0527C293.461 85.0527 293.139 85 292.939 84.8945C292.74 84.7773 292.641 84.6016 292.641 84.3672V73.3984C292.641 72.0391 292.576 71.0605 292.447 70.4629C292.318 69.8535 292.254 69.5195 292.254 69.4609C292.254 69.2031 292.447 69.0215 292.834 68.916C293.232 68.7988 293.607 68.7402 293.959 68.7402C294.24 68.7402 294.451 68.8926 294.592 69.1973C294.732 69.4902 294.855 69.9062 294.961 70.4453L295.049 70.8145C296.162 69.2559 297.369 68.4766 298.67 68.4766C299.268 68.4766 299.719 68.5879 300.023 68.8105C300.328 69.0215 300.48 69.3086 300.48 69.6719C300.48 70.0234 300.416 70.3984 300.287 70.7969C300.17 71.1836 300.029 71.377 299.865 71.377C299.783 71.377 299.637 71.3418 299.426 71.2715C299.238 71.1895 299.051 71.1309 298.863 71.0957C298.676 71.0488 298.436 71.0254 298.143 71.0254C297.662 71.0254 297.205 71.166 296.771 71.4473C296.35 71.7285 295.992 72.0391 295.699 72.3789C295.406 72.7188 295.26 72.9062 295.26 72.9414V84.3672C295.26 84.6016 295.16 84.7773 294.961 84.8945C294.762 85 294.451 85.0527 294.029 85.0527H293.906ZM303.205 85C303.041 85 302.871 84.8066 302.695 84.4199C302.531 84.0215 302.449 83.6641 302.449 83.3477C302.449 83.1836 302.479 83.0547 302.537 82.9609L315.352 65.5059H304.102C303.879 65.5059 303.715 65.4238 303.609 65.2598C303.516 65.084 303.469 64.8086 303.469 64.4336V64.1875C303.469 63.8125 303.516 63.543 303.609 63.3789C303.715 63.2148 303.879 63.1328 304.102 63.1328H318.41C318.48 63.1328 318.568 63.2266 318.674 63.4141C318.791 63.6016 318.891 63.8242 318.973 64.082C319.055 64.3398 319.096 64.5742 319.096 64.7852C319.096 64.9375 319.066 65.0605 319.008 65.1543L306.193 82.627H318.41C318.633 82.627 318.791 82.709 318.885 82.873C318.99 83.0371 319.043 83.3066 319.043 83.6816V83.9277C319.043 84.3027 318.99 84.5781 318.885 84.7539C318.791 84.918 318.633 85 318.41 85H303.205ZM329.484 85.1758C327.129 85.1758 325.33 84.4727 324.088 83.0664C322.857 81.6484 322.242 79.5918 322.242 76.8965C322.242 74.2012 322.869 72.127 324.123 70.6738C325.377 69.209 327.164 68.4766 329.484 68.4766C331.781 68.4766 333.539 69.2031 334.758 70.6562C335.977 72.0977 336.586 74.1777 336.586 76.8965C336.586 79.6035 335.982 81.6602 334.775 83.0664C333.58 84.4727 331.816 85.1758 329.484 85.1758ZM329.396 82.9258C330.92 82.9258 332.045 82.4336 332.771 81.4492C333.498 80.4531 333.861 78.918 333.861 76.8438C333.861 74.7578 333.498 73.2168 332.771 72.2207C332.045 71.2246 330.92 70.7266 329.396 70.7266C327.885 70.7266 326.771 71.2246 326.057 72.2207C325.342 73.2051 324.984 74.7461 324.984 76.8438C324.984 78.9297 325.336 80.4648 326.039 81.4492C326.754 82.4336 327.873 82.9258 329.396 82.9258ZM342.264 85.0527C341.818 85.0527 341.496 85 341.297 84.8945C341.098 84.7773 340.998 84.6016 340.998 84.3672V73.3984C340.998 72.0391 340.934 71.0605 340.805 70.4629C340.676 69.8535 340.611 69.5195 340.611 69.4609C340.611 69.2031 340.805 69.0215 341.191 68.916C341.59 68.7988 341.965 68.7402 342.316 68.7402C342.609 68.7402 342.826 68.8984 342.967 69.2148C343.107 69.5312 343.207 69.8535 343.266 70.1816C343.336 70.5098 343.383 70.7207 343.406 70.8145C344.062 70.0762 344.818 69.502 345.674 69.0918C346.541 68.6816 347.414 68.4766 348.293 68.4766C349.887 68.4766 351.129 68.9277 352.02 69.8301C352.922 70.7207 353.373 71.9512 353.373 73.5215V84.3672C353.373 84.6016 353.273 84.7773 353.074 84.8945C352.875 85 352.559 85.0527 352.125 85.0527H351.984C351.562 85.0527 351.252 85 351.053 84.8945C350.854 84.7773 350.754 84.6016 350.754 84.3672V73.7852C350.754 72.8242 350.473 72.0801 349.91 71.5527C349.359 71.0137 348.58 70.7441 347.572 70.7441C346.869 70.7441 346.16 70.9434 345.445 71.3418C344.742 71.7285 344.133 72.2617 343.617 72.9414V84.3672C343.617 84.6016 343.518 84.7773 343.318 84.8945C343.119 85 342.809 85.0527 342.387 85.0527H342.264ZM365.098 85.1758C362.508 85.1758 360.58 84.502 359.314 83.1543C358.061 81.7949 357.434 79.7207 357.434 76.9316C357.434 74.166 358.049 72.0684 359.279 70.6387C360.51 69.1973 362.32 68.4766 364.711 68.4766C366.844 68.4766 368.449 69.168 369.527 70.5508C370.617 71.9336 371.162 73.9609 371.162 76.6328C371.162 76.75 371.098 76.9141 370.969 77.125C370.852 77.3242 370.705 77.5059 370.529 77.6699C370.365 77.8223 370.225 77.8984 370.107 77.8984H360.246C360.375 79.6445 360.82 80.9219 361.582 81.7305C362.355 82.5273 363.516 82.9258 365.062 82.9258C365.93 82.9258 366.674 82.8203 367.295 82.6094C367.928 82.3984 368.537 82.1406 369.123 81.8359C369.182 81.8125 369.27 81.7715 369.387 81.7129C369.504 81.6543 369.586 81.625 369.633 81.625C369.762 81.625 369.908 81.7305 370.072 81.9414C370.248 82.1406 370.395 82.3691 370.512 82.627C370.641 82.873 370.705 83.0547 370.705 83.1719C370.705 83.4297 370.447 83.7168 369.932 84.0332C369.416 84.3496 368.725 84.6191 367.857 84.8418C367.002 85.0645 366.082 85.1758 365.098 85.1758ZM368.367 75.6484C368.367 72.3672 367.119 70.7266 364.623 70.7266C361.939 70.7266 360.48 72.3672 360.246 75.6484H368.367ZM378.914 68.4414C378.68 68.4414 378.469 68.4062 378.281 68.3359C378.105 68.2656 378.018 68.1426 378.018 67.9668C378.018 67.8145 378.105 67.5625 378.281 67.2109C378.633 66.5078 378.896 65.7754 379.072 65.0137C379.248 64.2402 379.336 63.3848 379.336 62.4473C379.336 62.1426 379.441 61.8965 379.652 61.709C379.875 61.5215 380.191 61.4277 380.602 61.4277H380.865C381.264 61.4277 381.574 61.5098 381.797 61.6738C382.02 61.8379 382.131 62.0547 382.131 62.3242C382.131 63.4844 381.943 64.5332 381.568 65.4707C381.193 66.3965 380.748 67.123 380.232 67.6504C379.729 68.1777 379.289 68.4414 378.914 68.4414ZM374.572 68.4414C374.338 68.4414 374.127 68.4062 373.939 68.3359C373.764 68.2656 373.676 68.1426 373.676 67.9668C373.676 67.8145 373.764 67.5625 373.939 67.2109C374.291 66.5078 374.555 65.7754 374.73 65.0137C374.906 64.2402 374.994 63.3848 374.994 62.4473C374.994 62.1426 375.1 61.8965 375.311 61.709C375.533 61.5215 375.85 61.4277 376.26 61.4277H376.523C376.922 61.4277 377.232 61.5098 377.455 61.6738C377.678 61.8379 377.789 62.0547 377.789 62.3242C377.789 63.4844 377.602 64.5332 377.227 65.4707C376.852 66.3965 376.406 67.123 375.891 67.6504C375.387 68.1777 374.947 68.4414 374.572 68.4414Z" fill="#B6C5F9"/>
<path d="M219.428 150.324C219.1 150.324 218.859 150.248 218.707 150.096C218.566 149.943 218.496 149.703 218.496 149.375V122.938C218.496 122.609 218.566 122.375 218.707 122.234C218.859 122.082 219.1 122.006 219.428 122.006H223.207C223.441 122.006 223.605 122.076 223.699 122.217C223.793 122.346 223.84 122.574 223.84 122.902V123.061C223.84 123.389 223.793 123.623 223.699 123.764C223.605 123.893 223.441 123.957 223.207 123.957H220.816V148.373H223.207C223.43 148.373 223.588 148.443 223.682 148.584C223.787 148.725 223.84 148.959 223.84 149.287V149.41C223.84 149.738 223.793 149.973 223.699 150.113C223.605 150.254 223.441 150.324 223.207 150.324H219.428ZM231.627 129.898C231.24 129.898 230.936 129.822 230.713 129.67C230.502 129.506 230.396 129.289 230.396 129.02C230.396 127.859 230.578 126.816 230.941 125.891C231.316 124.953 231.762 124.221 232.277 123.693C232.793 123.166 233.232 122.902 233.596 122.902C233.83 122.902 234.041 122.938 234.229 123.008C234.416 123.078 234.51 123.201 234.51 123.377C234.51 123.482 234.469 123.629 234.387 123.816C234.305 123.992 234.252 124.098 234.229 124.133C233.865 124.812 233.596 125.539 233.42 126.312C233.244 127.074 233.156 127.936 233.156 128.896C233.156 129.201 233.051 129.447 232.84 129.635C232.641 129.811 232.336 129.898 231.926 129.898H231.627ZM227.285 129.898C226.898 129.898 226.594 129.822 226.371 129.67C226.16 129.506 226.055 129.289 226.055 129.02C226.055 127.859 226.236 126.816 226.6 125.891C226.975 124.953 227.42 124.221 227.936 123.693C228.451 123.166 228.891 122.902 229.254 122.902C229.488 122.902 229.699 122.938 229.887 123.008C230.074 123.078 230.168 123.201 230.168 123.377C230.168 123.482 230.127 123.629 230.045 123.816C229.963 123.992 229.91 124.098 229.887 124.133C229.523 124.812 229.254 125.539 229.078 126.312C228.902 127.074 228.814 127.936 228.814 128.896C228.814 129.201 228.709 129.447 228.498 129.635C228.299 129.811 227.994 129.898 227.584 129.898H227.285ZM237.973 146C237.797 146 237.65 145.854 237.533 145.561C237.416 145.268 237.357 144.957 237.357 144.629C237.357 144.336 237.398 144.154 237.48 144.084L245.531 133.977C246.188 133.121 246.662 132.447 246.955 131.955C247.26 131.451 247.453 131.029 247.535 130.689C247.617 130.35 247.658 129.934 247.658 129.441C247.658 128.434 247.307 127.637 246.604 127.051C245.912 126.465 244.963 126.172 243.756 126.172C242.889 126.172 242.15 126.289 241.541 126.523C240.932 126.758 240.346 127.057 239.783 127.42C239.432 127.654 239.197 127.771 239.08 127.771C238.975 127.771 238.84 127.678 238.676 127.49C238.512 127.291 238.365 127.068 238.236 126.822C238.119 126.564 238.061 126.359 238.061 126.207C238.061 125.797 238.383 125.422 239.027 125.082C239.672 124.73 240.445 124.449 241.348 124.238C242.25 124.027 243.035 123.922 243.703 123.922C245.051 123.922 246.223 124.139 247.219 124.572C248.227 125.006 249 125.621 249.539 126.418C250.09 127.215 250.365 128.158 250.365 129.248C250.365 130.279 250.207 131.188 249.891 131.973C249.574 132.746 248.977 133.713 248.098 134.873C247.23 136.021 245.596 138.061 243.193 140.99L240.908 143.785H249.908C250.131 143.785 250.289 143.855 250.383 143.996C250.488 144.137 250.541 144.377 250.541 144.717V145.068C250.541 145.385 250.488 145.619 250.383 145.771C250.289 145.924 250.131 146 249.908 146H237.973ZM260.807 146.176C259.494 146.176 258.305 145.777 257.238 144.98C256.172 144.184 255.316 142.953 254.672 141.289C254.039 139.625 253.723 137.545 253.723 135.049C253.723 132.564 254.039 130.49 254.672 128.826C255.316 127.162 256.172 125.932 257.238 125.135C258.305 124.326 259.494 123.922 260.807 123.922C262.119 123.922 263.314 124.326 264.393 125.135C265.482 125.932 266.35 127.162 266.994 128.826C267.639 130.49 267.961 132.564 267.961 135.049C267.961 137.545 267.639 139.625 266.994 141.289C266.35 142.953 265.482 144.184 264.393 144.98C263.314 145.777 262.119 146.176 260.807 146.176ZM260.807 143.926C261.615 143.926 262.354 143.627 263.021 143.029C263.701 142.432 264.252 141.471 264.674 140.146C265.096 138.822 265.307 137.123 265.307 135.049C265.307 132.986 265.096 131.293 264.674 129.969C264.252 128.645 263.701 127.684 263.021 127.086C262.354 126.477 261.615 126.172 260.807 126.172C260.01 126.172 259.271 126.471 258.592 127.068C257.924 127.666 257.385 128.633 256.975 129.969C256.564 131.293 256.359 132.986 256.359 135.049C256.359 137.123 256.564 138.822 256.975 140.146C257.385 141.471 257.924 142.432 258.592 143.029C259.271 143.627 260.01 143.926 260.807 143.926ZM277.541 146.176C276.229 146.176 275.039 145.777 273.973 144.98C272.906 144.184 272.051 142.953 271.406 141.289C270.773 139.625 270.457 137.545 270.457 135.049C270.457 132.564 270.773 130.49 271.406 128.826C272.051 127.162 272.906 125.932 273.973 125.135C275.039 124.326 276.229 123.922 277.541 123.922C278.854 123.922 280.049 124.326 281.127 125.135C282.217 125.932 283.084 127.162 283.729 128.826C284.373 130.49 284.695 132.564 284.695 135.049C284.695 137.545 284.373 139.625 283.729 141.289C283.084 142.953 282.217 144.184 281.127 144.98C280.049 145.777 278.854 146.176 277.541 146.176ZM277.541 143.926C278.35 143.926 279.088 143.627 279.756 143.029C280.436 142.432 280.986 141.471 281.408 140.146C281.83 138.822 282.041 137.123 282.041 135.049C282.041 132.986 281.83 131.293 281.408 129.969C280.986 128.645 280.436 127.684 279.756 127.086C279.088 126.477 278.35 126.172 277.541 126.172C276.744 126.172 276.006 126.471 275.326 127.068C274.658 127.666 274.119 128.633 273.709 129.969C273.299 131.293 273.094 132.986 273.094 135.049C273.094 137.123 273.299 138.822 273.709 140.146C274.119 141.471 274.658 142.432 275.326 143.029C276.006 143.627 276.744 143.926 277.541 143.926ZM297.773 146.053C296.93 146.053 296.508 145.824 296.508 145.367V125.064C296.508 124.736 296.584 124.502 296.736 124.361C296.889 124.209 297.129 124.133 297.457 124.133H302.713C305.209 124.133 307.084 124.572 308.338 125.451C309.604 126.33 310.236 127.73 310.236 129.652C310.236 130.953 309.92 132.049 309.287 132.939C308.666 133.818 307.787 134.48 306.65 134.926V135.049C307.26 135.26 307.758 135.67 308.145 136.279C308.543 136.877 308.982 137.768 309.463 138.951L311.906 145.121C311.965 145.332 311.994 145.479 311.994 145.561C311.994 145.889 311.555 146.053 310.676 146.053H310.359C310.043 146.053 309.768 146.012 309.533 145.93C309.311 145.836 309.17 145.713 309.111 145.561L306.738 139.426C306.434 138.629 306.076 138.008 305.666 137.562C305.256 137.117 304.77 136.807 304.207 136.631C303.645 136.455 302.936 136.367 302.08 136.367H299.268V145.367C299.268 145.824 298.852 146.053 298.02 146.053H297.773ZM303.381 133.994C304.119 133.994 304.793 133.818 305.402 133.467C306.023 133.115 306.51 132.646 306.861 132.061C307.225 131.463 307.406 130.83 307.406 130.162C307.406 128.932 307.031 128.018 306.281 127.42C305.531 126.811 304.494 126.506 303.17 126.506H299.268V133.994H303.381ZM321.961 146.176C319.371 146.176 317.443 145.502 316.178 144.154C314.924 142.795 314.297 140.721 314.297 137.932C314.297 135.166 314.912 133.068 316.143 131.639C317.373 130.197 319.184 129.477 321.574 129.477C323.707 129.477 325.312 130.168 326.391 131.551C327.48 132.934 328.025 134.961 328.025 137.633C328.025 137.75 327.961 137.914 327.832 138.125C327.715 138.324 327.568 138.506 327.393 138.67C327.229 138.822 327.088 138.898 326.971 138.898H317.109C317.238 140.645 317.684 141.922 318.445 142.73C319.219 143.527 320.379 143.926 321.926 143.926C322.793 143.926 323.537 143.82 324.158 143.609C324.791 143.398 325.4 143.141 325.986 142.836C326.045 142.812 326.133 142.771 326.25 142.713C326.367 142.654 326.449 142.625 326.496 142.625C326.625 142.625 326.771 142.73 326.936 142.941C327.111 143.141 327.258 143.369 327.375 143.627C327.504 143.873 327.568 144.055 327.568 144.172C327.568 144.43 327.311 144.717 326.795 145.033C326.279 145.35 325.588 145.619 324.721 145.842C323.865 146.064 322.945 146.176 321.961 146.176ZM325.23 136.648C325.23 133.367 323.982 131.727 321.486 131.727C318.803 131.727 317.344 133.367 317.109 136.648H325.23ZM343.125 152.504C342.305 152.504 341.895 152.275 341.895 151.818V144.594C341.215 145.109 340.523 145.502 339.82 145.771C339.129 146.041 338.332 146.176 337.43 146.176C336.176 146.176 335.068 145.854 334.107 145.209C333.158 144.564 332.414 143.621 331.875 142.379C331.336 141.125 331.066 139.625 331.066 137.879C331.066 136.238 331.312 134.785 331.805 133.52C332.297 132.242 333 131.252 333.914 130.549C334.84 129.834 335.912 129.477 337.131 129.477C338.959 129.477 340.617 130.256 342.105 131.814C342.258 131.018 342.428 130.396 342.615 129.951C342.674 129.822 342.768 129.734 342.896 129.688C343.037 129.629 343.225 129.6 343.459 129.6H343.582C344.203 129.6 344.514 129.828 344.514 130.285V151.818C344.514 152.275 344.098 152.504 343.266 152.504H343.125ZM338.027 143.873C339.457 143.873 340.746 143.404 341.895 142.467V133.906C341.262 133.215 340.57 132.682 339.82 132.307C339.082 131.932 338.367 131.744 337.676 131.744C336.434 131.744 335.479 132.295 334.811 133.396C334.154 134.486 333.826 136.039 333.826 138.055C333.826 139.93 334.178 141.359 334.881 142.344C335.584 143.328 336.633 143.838 338.027 143.873ZM354.604 146.176C353.01 146.176 351.762 145.73 350.859 144.84C349.957 143.938 349.506 142.695 349.506 141.113V130.285C349.506 129.828 349.928 129.6 350.771 129.6H350.895C351.727 129.6 352.143 129.828 352.143 130.285V140.867C352.143 141.828 352.418 142.578 352.969 143.117C353.531 143.645 354.316 143.908 355.324 143.908C356.027 143.908 356.73 143.715 357.434 143.328C358.137 142.93 358.746 142.391 359.262 141.711V130.285C359.262 129.828 359.678 129.6 360.51 129.6H360.633C361.477 129.6 361.898 129.828 361.898 130.285V141.377C361.898 142.736 361.957 143.721 362.074 144.33C362.191 144.928 362.25 145.256 362.25 145.314C362.25 145.572 362.057 145.76 361.67 145.877C361.283 145.982 360.92 146.035 360.58 146.035C360.287 146.035 360.07 145.871 359.93 145.543C359.789 145.203 359.684 144.857 359.613 144.506C359.555 144.154 359.514 143.932 359.49 143.838C358.834 144.576 358.072 145.15 357.205 145.561C356.35 145.971 355.482 146.176 354.604 146.176ZM373.957 146.176C371.367 146.176 369.439 145.502 368.174 144.154C366.92 142.795 366.293 140.721 366.293 137.932C366.293 135.166 366.908 133.068 368.139 131.639C369.369 130.197 371.18 129.477 373.57 129.477C375.703 129.477 377.309 130.168 378.387 131.551C379.477 132.934 380.021 134.961 380.021 137.633C380.021 137.75 379.957 137.914 379.828 138.125C379.711 138.324 379.564 138.506 379.389 138.67C379.225 138.822 379.084 138.898 378.967 138.898H369.105C369.234 140.645 369.68 141.922 370.441 142.73C371.215 143.527 372.375 143.926 373.922 143.926C374.789 143.926 375.533 143.82 376.154 143.609C376.787 143.398 377.396 143.141 377.982 142.836C378.041 142.812 378.129 142.771 378.246 142.713C378.363 142.654 378.445 142.625 378.492 142.625C378.621 142.625 378.768 142.73 378.932 142.941C379.107 143.141 379.254 143.369 379.371 143.627C379.5 143.873 379.564 144.055 379.564 144.172C379.564 144.43 379.307 144.717 378.791 145.033C378.275 145.35 377.584 145.619 376.717 145.842C375.861 146.064 374.941 146.176 373.957 146.176ZM377.227 136.648C377.227 133.367 375.979 131.727 373.482 131.727C370.799 131.727 369.34 133.367 369.105 136.648H377.227ZM387.51 146.299C386.631 146.299 385.811 146.188 385.049 145.965C384.287 145.742 383.678 145.473 383.221 145.156C382.775 144.828 382.553 144.541 382.553 144.295C382.553 144.178 382.611 143.99 382.729 143.732C382.857 143.475 383.004 143.246 383.168 143.047C383.344 142.836 383.502 142.73 383.643 142.73C383.678 142.73 383.783 142.789 383.959 142.906C384.428 143.211 384.92 143.469 385.436 143.68C385.963 143.891 386.59 143.996 387.316 143.996C389.355 143.996 390.375 143.152 390.375 141.465C390.375 140.984 390.275 140.58 390.076 140.252C389.889 139.924 389.566 139.637 389.109 139.391C388.664 139.133 388.049 138.887 387.264 138.652C386.139 138.324 385.26 137.949 384.627 137.527C384.006 137.105 383.566 136.613 383.309 136.051C383.051 135.477 382.922 134.785 382.922 133.977C382.922 133.109 383.139 132.33 383.572 131.639C384.018 130.947 384.633 130.408 385.418 130.021C386.215 129.635 387.111 129.441 388.107 129.441C388.799 129.441 389.461 129.506 390.094 129.635C390.738 129.764 391.254 129.934 391.641 130.145C392.039 130.344 392.238 130.555 392.238 130.777C392.238 130.941 392.18 131.164 392.062 131.445C391.957 131.715 391.822 131.955 391.658 132.166C391.494 132.365 391.348 132.465 391.219 132.465C391.195 132.465 391.049 132.395 390.779 132.254C390.51 132.102 390.164 131.967 389.742 131.85C389.332 131.721 388.875 131.656 388.371 131.656C387.574 131.656 386.912 131.838 386.385 132.201C385.869 132.553 385.611 133.027 385.611 133.625C385.611 134.328 385.799 134.891 386.174 135.312C386.549 135.734 387.17 136.08 388.037 136.35C389.373 136.76 390.393 137.17 391.096 137.58C391.799 137.99 392.297 138.494 392.59 139.092C392.895 139.678 393.047 140.451 393.047 141.412C393.047 142.326 392.801 143.158 392.309 143.908C391.816 144.646 391.148 145.232 390.305 145.666C389.461 146.088 388.529 146.299 387.51 146.299ZM401.73 146.176C400.688 146.176 399.756 145.859 398.936 145.227C398.115 144.594 397.705 143.475 397.705 141.869V131.902H396.141C395.918 131.902 395.754 131.832 395.648 131.691C395.555 131.539 395.508 131.299 395.508 130.971V130.584C395.508 130.256 395.555 130.021 395.648 129.881C395.754 129.729 395.918 129.652 396.141 129.652H397.705L398.074 126.383C398.098 125.926 398.432 125.697 399.076 125.697H399.375C399.703 125.697 399.943 125.756 400.096 125.873C400.248 125.979 400.324 126.148 400.324 126.383V129.652H402.943C403.166 129.652 403.324 129.729 403.418 129.881C403.523 130.021 403.576 130.256 403.576 130.584V130.971C403.576 131.299 403.523 131.539 403.418 131.691C403.324 131.832 403.166 131.902 402.943 131.902H400.324V141.623C400.324 142.479 400.471 143.076 400.764 143.416C401.068 143.756 401.479 143.926 401.994 143.926C402.393 143.926 402.697 143.902 402.908 143.855C403.131 143.809 403.277 143.785 403.348 143.785C403.535 143.785 403.688 143.973 403.805 144.348C403.934 144.723 403.998 145.021 403.998 145.244C403.998 145.865 403.242 146.176 401.73 146.176ZM416.566 125.715C415.734 125.715 415.318 125.486 415.318 125.029V123.184C415.318 122.727 415.734 122.498 416.566 122.498H416.936C417.779 122.498 418.201 122.727 418.201 123.184V125.029C418.201 125.486 417.779 125.715 416.936 125.715H416.566ZM416.689 146.053C415.857 146.053 415.441 145.824 415.441 145.367V130.285C415.441 129.828 415.857 129.6 416.689 129.6H416.812C417.656 129.6 418.078 129.828 418.078 130.285V145.367C418.078 145.824 417.656 146.053 416.812 146.053H416.689ZM424.846 146.053C424.4 146.053 424.078 146 423.879 145.895C423.68 145.777 423.58 145.602 423.58 145.367V134.398C423.58 133.039 423.516 132.061 423.387 131.463C423.258 130.854 423.193 130.52 423.193 130.461C423.193 130.203 423.387 130.021 423.773 129.916C424.172 129.799 424.547 129.74 424.898 129.74C425.191 129.74 425.408 129.898 425.549 130.215C425.689 130.531 425.789 130.854 425.848 131.182C425.918 131.51 425.965 131.721 425.988 131.814C426.645 131.076 427.4 130.502 428.256 130.092C429.123 129.682 429.996 129.477 430.875 129.477C432.469 129.477 433.711 129.928 434.602 130.83C435.504 131.721 435.955 132.951 435.955 134.521V145.367C435.955 145.602 435.855 145.777 435.656 145.895C435.457 146 435.141 146.053 434.707 146.053H434.566C434.145 146.053 433.834 146 433.635 145.895C433.436 145.777 433.336 145.602 433.336 145.367V134.785C433.336 133.824 433.055 133.08 432.492 132.553C431.941 132.014 431.162 131.744 430.154 131.744C429.451 131.744 428.742 131.943 428.027 132.342C427.324 132.729 426.715 133.262 426.199 133.941V145.367C426.199 145.602 426.1 145.777 425.9 145.895C425.701 146 425.391 146.053 424.969 146.053H424.846ZM447.785 146C447.562 146 447.404 145.924 447.311 145.771C447.217 145.619 447.17 145.385 447.17 145.068V144.682C447.17 144.354 447.217 144.119 447.311 143.979C447.404 143.826 447.562 143.75 447.785 143.75H453.217V126.893L447.697 127.842C447.498 127.842 447.34 127.666 447.223 127.314C447.117 126.951 447.064 126.594 447.064 126.242C447.064 126.078 447.111 125.955 447.205 125.873C447.299 125.779 447.445 125.709 447.645 125.662L454.869 124.045C455.115 124.045 455.338 124.115 455.537 124.256C455.748 124.385 455.854 124.537 455.854 124.713V143.75H460.477C460.898 143.75 461.109 144.061 461.109 144.682V145.068C461.109 145.689 460.898 146 460.477 146H447.785ZM474.363 146.053C473.52 146.053 473.098 145.824 473.098 145.367V124.748C473.098 124.279 473.52 124.045 474.363 124.045H474.609C475.441 124.045 475.857 124.279 475.857 124.748V133.59H487.178V124.748C487.178 124.279 487.594 124.045 488.426 124.045H488.672C489.504 124.045 489.92 124.279 489.92 124.748V145.367C489.92 145.602 489.82 145.777 489.621 145.895C489.422 146 489.105 146.053 488.672 146.053H488.426C487.992 146.053 487.676 146 487.477 145.895C487.277 145.777 487.178 145.602 487.178 145.367V135.963H475.857V145.367C475.857 145.824 475.441 146.053 474.609 146.053H474.363ZM501.961 146.176C499.605 146.176 497.807 145.473 496.564 144.066C495.334 142.648 494.719 140.592 494.719 137.896C494.719 135.201 495.346 133.127 496.6 131.674C497.854 130.209 499.641 129.477 501.961 129.477C504.258 129.477 506.016 130.203 507.234 131.656C508.453 133.098 509.062 135.178 509.062 137.896C509.062 140.604 508.459 142.66 507.252 144.066C506.057 145.473 504.293 146.176 501.961 146.176ZM501.873 143.926C503.396 143.926 504.521 143.434 505.248 142.449C505.975 141.453 506.338 139.918 506.338 137.844C506.338 135.758 505.975 134.217 505.248 133.221C504.521 132.225 503.396 131.727 501.873 131.727C500.361 131.727 499.248 132.225 498.533 133.221C497.818 134.205 497.461 135.746 497.461 137.844C497.461 139.93 497.812 141.465 498.516 142.449C499.23 143.434 500.35 143.926 501.873 143.926ZM518.221 146.176C516.627 146.176 515.379 145.73 514.477 144.84C513.574 143.938 513.123 142.695 513.123 141.113V130.285C513.123 129.828 513.545 129.6 514.389 129.6H514.512C515.344 129.6 515.76 129.828 515.76 130.285V140.867C515.76 141.828 516.035 142.578 516.586 143.117C517.148 143.645 517.934 143.908 518.941 143.908C519.645 143.908 520.348 143.715 521.051 143.328C521.754 142.93 522.363 142.391 522.879 141.711V130.285C522.879 129.828 523.295 129.6 524.127 129.6H524.25C525.094 129.6 525.516 129.828 525.516 130.285V141.377C525.516 142.736 525.574 143.721 525.691 144.33C525.809 144.928 525.867 145.256 525.867 145.314C525.867 145.572 525.674 145.76 525.287 145.877C524.9 145.982 524.537 146.035 524.197 146.035C523.904 146.035 523.688 145.871 523.547 145.543C523.406 145.203 523.301 144.857 523.23 144.506C523.172 144.154 523.131 143.932 523.107 143.838C522.451 144.576 521.689 145.15 520.822 145.561C519.967 145.971 519.1 146.176 518.221 146.176ZM532.266 146.053C531.82 146.053 531.498 146 531.299 145.895C531.1 145.777 531 145.602 531 145.367V134.398C531 133.039 530.936 132.061 530.807 131.463C530.678 130.854 530.613 130.52 530.613 130.461C530.613 130.203 530.807 130.021 531.193 129.916C531.592 129.799 531.967 129.74 532.318 129.74C532.6 129.74 532.811 129.893 532.951 130.197C533.092 130.49 533.215 130.906 533.32 131.445L533.408 131.814C534.521 130.256 535.729 129.477 537.029 129.477C537.627 129.477 538.078 129.588 538.383 129.811C538.688 130.021 538.84 130.309 538.84 130.672C538.84 131.023 538.775 131.398 538.646 131.797C538.529 132.184 538.389 132.377 538.225 132.377C538.143 132.377 537.996 132.342 537.785 132.271C537.598 132.189 537.41 132.131 537.223 132.096C537.035 132.049 536.795 132.025 536.502 132.025C536.021 132.025 535.564 132.166 535.131 132.447C534.709 132.729 534.352 133.039 534.059 133.379C533.766 133.719 533.619 133.906 533.619 133.941V145.367C533.619 145.602 533.52 145.777 533.32 145.895C533.121 146 532.811 146.053 532.389 146.053H532.266ZM545.941 129.441C545.707 129.441 545.496 129.406 545.309 129.336C545.133 129.266 545.045 129.143 545.045 128.967C545.045 128.814 545.133 128.562 545.309 128.211C545.66 127.508 545.924 126.775 546.1 126.014C546.275 125.24 546.363 124.385 546.363 123.447C546.363 123.143 546.469 122.896 546.68 122.709C546.902 122.521 547.219 122.428 547.629 122.428H547.893C548.291 122.428 548.602 122.51 548.824 122.674C549.047 122.838 549.158 123.055 549.158 123.324C549.158 124.484 548.971 125.533 548.596 126.471C548.221 127.396 547.775 128.123 547.26 128.65C546.756 129.178 546.316 129.441 545.941 129.441ZM541.6 129.441C541.365 129.441 541.154 129.406 540.967 129.336C540.791 129.266 540.703 129.143 540.703 128.967C540.703 128.814 540.791 128.562 540.967 128.211C541.318 127.508 541.582 126.775 541.758 126.014C541.934 125.24 542.021 124.385 542.021 123.447C542.021 123.143 542.127 122.896 542.338 122.709C542.561 122.521 542.877 122.428 543.287 122.428H543.551C543.949 122.428 544.26 122.51 544.482 122.674C544.705 122.838 544.816 123.055 544.816 123.324C544.816 124.484 544.629 125.533 544.254 126.471C543.879 127.396 543.434 128.123 542.918 128.65C542.414 129.178 541.975 129.441 541.6 129.441ZM551.865 149.621C551.631 149.621 551.42 149.586 551.232 149.516C551.057 149.445 550.969 149.322 550.969 149.146C550.969 149.064 551.004 148.936 551.074 148.76C551.156 148.596 551.209 148.479 551.232 148.408C551.596 147.705 551.865 146.967 552.041 146.193C552.217 145.432 552.305 144.576 552.305 143.627C552.305 143.322 552.41 143.082 552.621 142.906C552.832 142.719 553.143 142.625 553.553 142.625H553.852C554.238 142.625 554.537 142.707 554.748 142.871C554.971 143.023 555.082 143.229 555.082 143.486C555.082 144.646 554.895 145.695 554.52 146.633C554.145 147.57 553.699 148.303 553.184 148.83C552.68 149.357 552.24 149.621 551.865 149.621ZM571.166 129.898C570.779 129.898 570.475 129.822 570.252 129.67C570.041 129.506 569.936 129.289 569.936 129.02C569.936 127.859 570.117 126.816 570.48 125.891C570.855 124.953 571.301 124.221 571.816 123.693C572.332 123.166 572.771 122.902 573.135 122.902C573.369 122.902 573.58 122.938 573.768 123.008C573.955 123.078 574.049 123.201 574.049 123.377C574.049 123.482 574.008 123.629 573.926 123.816C573.844 123.992 573.791 124.098 573.768 124.133C573.404 124.812 573.135 125.539 572.959 126.312C572.783 127.074 572.695 127.936 572.695 128.896C572.695 129.201 572.59 129.447 572.379 129.635C572.18 129.811 571.875 129.898 571.465 129.898H571.166ZM566.824 129.898C566.438 129.898 566.133 129.822 565.91 129.67C565.699 129.506 565.594 129.289 565.594 129.02C565.594 127.859 565.775 126.816 566.139 125.891C566.514 124.953 566.959 124.221 567.475 123.693C567.99 123.166 568.43 122.902 568.793 122.902C569.027 122.902 569.238 122.938 569.426 123.008C569.613 123.078 569.707 123.201 569.707 123.377C569.707 123.482 569.666 123.629 569.584 123.816C569.502 123.992 569.449 124.098 569.426 124.133C569.062 124.812 568.793 125.539 568.617 126.312C568.441 127.074 568.354 127.936 568.354 128.896C568.354 129.201 568.248 129.447 568.037 129.635C567.838 129.811 567.533 129.898 567.123 129.898H566.824ZM579.586 146.053C578.742 146.053 578.32 145.824 578.32 145.367V124.748C578.32 124.279 578.742 124.045 579.586 124.045H579.832C580.664 124.045 581.08 124.279 581.08 124.748V133.59H592.4V124.748C592.4 124.279 592.816 124.045 593.648 124.045H593.895C594.727 124.045 595.143 124.279 595.143 124.748V145.367C595.143 145.602 595.043 145.777 594.844 145.895C594.645 146 594.328 146.053 593.895 146.053H593.648C593.215 146.053 592.898 146 592.699 145.895C592.5 145.777 592.4 145.602 592.4 145.367V135.963H581.08V145.367C581.08 145.824 580.664 146.053 579.832 146.053H579.586ZM607.184 146.176C604.828 146.176 603.029 145.473 601.787 144.066C600.557 142.648 599.941 140.592 599.941 137.896C599.941 135.201 600.568 133.127 601.822 131.674C603.076 130.209 604.863 129.477 607.184 129.477C609.48 129.477 611.238 130.203 612.457 131.656C613.676 133.098 614.285 135.178 614.285 137.896C614.285 140.604 613.682 142.66 612.475 144.066C611.279 145.473 609.516 146.176 607.184 146.176ZM607.096 143.926C608.619 143.926 609.744 143.434 610.471 142.449C611.197 141.453 611.561 139.918 611.561 137.844C611.561 135.758 611.197 134.217 610.471 133.221C609.744 132.225 608.619 131.727 607.096 131.727C605.584 131.727 604.471 132.225 603.756 133.221C603.041 134.205 602.684 135.746 602.684 137.844C602.684 139.93 603.035 141.465 603.738 142.449C604.453 143.434 605.572 143.926 607.096 143.926ZM622.6 146.176C621.557 146.176 620.625 145.859 619.805 145.227C618.984 144.594 618.574 143.475 618.574 141.869V123.184C618.574 122.727 618.99 122.498 619.822 122.498H619.963C620.783 122.498 621.193 122.727 621.193 123.184V141.623C621.193 142.479 621.346 143.076 621.65 143.416C621.955 143.756 622.365 143.926 622.881 143.926C623.268 143.926 623.572 143.902 623.795 143.855C624.018 143.809 624.164 143.785 624.234 143.785C624.422 143.785 624.574 143.973 624.691 144.348C624.82 144.723 624.885 145.021 624.885 145.244C624.885 145.865 624.123 146.176 622.6 146.176ZM633.006 146.176C631.787 146.176 630.721 145.824 629.807 145.121C628.893 144.406 628.184 143.416 627.68 142.15C627.188 140.885 626.941 139.449 626.941 137.844C626.941 136.074 627.205 134.562 627.732 133.309C628.271 132.043 629.021 131.088 629.982 130.443C630.943 129.799 632.051 129.477 633.305 129.477C634.207 129.477 635.004 129.611 635.695 129.881C636.398 130.15 637.09 130.543 637.77 131.059V123.184C637.77 122.727 638.18 122.498 639 122.498H639.141C639.973 122.498 640.389 122.727 640.389 123.184V141.377C640.389 142.736 640.453 143.721 640.582 144.33C640.711 144.928 640.775 145.256 640.775 145.314C640.775 145.572 640.576 145.76 640.178 145.877C639.791 145.982 639.428 146.035 639.088 146.035C638.854 146.035 638.666 145.924 638.525 145.701C638.385 145.479 638.285 145.256 638.227 145.033C638.18 144.799 638.098 144.4 637.98 143.838C636.492 145.396 634.834 146.176 633.006 146.176ZM633.551 143.908C634.242 143.908 634.957 143.721 635.695 143.346C636.445 142.971 637.137 142.438 637.77 141.746V133.186C636.645 132.248 635.361 131.779 633.92 131.779C632.525 131.814 631.471 132.324 630.756 133.309C630.053 134.293 629.701 135.723 629.701 137.598C629.701 139.613 630.029 141.172 630.686 142.273C631.354 143.363 632.309 143.908 633.551 143.908ZM652.5 146C652.277 146 652.119 145.924 652.025 145.771C651.932 145.619 651.885 145.385 651.885 145.068V144.682C651.885 144.354 651.932 144.119 652.025 143.979C652.119 143.826 652.277 143.75 652.5 143.75H657.932V126.893L652.412 127.842C652.213 127.842 652.055 127.666 651.938 127.314C651.832 126.951 651.779 126.594 651.779 126.242C651.779 126.078 651.826 125.955 651.92 125.873C652.014 125.779 652.16 125.709 652.359 125.662L659.584 124.045C659.83 124.045 660.053 124.115 660.252 124.256C660.463 124.385 660.568 124.537 660.568 124.713V143.75H665.191C665.613 143.75 665.824 144.061 665.824 144.682V145.068C665.824 145.689 665.613 146 665.191 146H652.5ZM679.078 146.053C678.234 146.053 677.812 145.824 677.812 145.367V124.748C677.812 124.279 678.234 124.045 679.078 124.045H679.324C680.156 124.045 680.572 124.279 680.572 124.748V133.59H691.893V124.748C691.893 124.279 692.309 124.045 693.141 124.045H693.387C694.219 124.045 694.635 124.279 694.635 124.748V145.367C694.635 145.602 694.535 145.777 694.336 145.895C694.137 146 693.82 146.053 693.387 146.053H693.141C692.707 146.053 692.391 146 692.191 145.895C691.992 145.777 691.893 145.602 691.893 145.367V135.963H680.572V145.367C680.572 145.824 680.156 146.053 679.324 146.053H679.078ZM706.676 146.176C704.32 146.176 702.521 145.473 701.279 144.066C700.049 142.648 699.434 140.592 699.434 137.896C699.434 135.201 700.061 133.127 701.314 131.674C702.568 130.209 704.355 129.477 706.676 129.477C708.973 129.477 710.73 130.203 711.949 131.656C713.168 133.098 713.777 135.178 713.777 137.896C713.777 140.604 713.174 142.66 711.967 144.066C710.771 145.473 709.008 146.176 706.676 146.176ZM706.588 143.926C708.111 143.926 709.236 143.434 709.963 142.449C710.689 141.453 711.053 139.918 711.053 137.844C711.053 135.758 710.689 134.217 709.963 133.221C709.236 132.225 708.111 131.727 706.588 131.727C705.076 131.727 703.963 132.225 703.248 133.221C702.533 134.205 702.176 135.746 702.176 137.844C702.176 139.93 702.527 141.465 703.23 142.449C703.945 143.434 705.064 143.926 706.588 143.926ZM722.936 146.176C721.342 146.176 720.094 145.73 719.191 144.84C718.289 143.938 717.838 142.695 717.838 141.113V130.285C717.838 129.828 718.26 129.6 719.104 129.6H719.227C720.059 129.6 720.475 129.828 720.475 130.285V140.867C720.475 141.828 720.75 142.578 721.301 143.117C721.863 143.645 722.648 143.908 723.656 143.908C724.359 143.908 725.062 143.715 725.766 143.328C726.469 142.93 727.078 142.391 727.594 141.711V130.285C727.594 129.828 728.01 129.6 728.842 129.6H728.965C729.809 129.6 730.23 129.828 730.23 130.285V141.377C730.23 142.736 730.289 143.721 730.406 144.33C730.523 144.928 730.582 145.256 730.582 145.314C730.582 145.572 730.389 145.76 730.002 145.877C729.615 145.982 729.252 146.035 728.912 146.035C728.619 146.035 728.402 145.871 728.262 145.543C728.121 145.203 728.016 144.857 727.945 144.506C727.887 144.154 727.846 143.932 727.822 143.838C727.166 144.576 726.404 145.15 725.537 145.561C724.682 145.971 723.814 146.176 722.936 146.176ZM736.98 146.053C736.535 146.053 736.213 146 736.014 145.895C735.814 145.777 735.715 145.602 735.715 145.367V134.398C735.715 133.039 735.65 132.061 735.521 131.463C735.393 130.854 735.328 130.52 735.328 130.461C735.328 130.203 735.521 130.021 735.908 129.916C736.307 129.799 736.682 129.74 737.033 129.74C737.314 129.74 737.525 129.893 737.666 130.197C737.807 130.49 737.93 130.906 738.035 131.445L738.123 131.814C739.236 130.256 740.443 129.477 741.744 129.477C742.342 129.477 742.793 129.588 743.098 129.811C743.402 130.021 743.555 130.309 743.555 130.672C743.555 131.023 743.49 131.398 743.361 131.797C743.244 132.184 743.104 132.377 742.939 132.377C742.857 132.377 742.711 132.342 742.5 132.271C742.312 132.189 742.125 132.131 741.938 132.096C741.75 132.049 741.51 132.025 741.217 132.025C740.736 132.025 740.279 132.166 739.846 132.447C739.424 132.729 739.066 133.039 738.773 133.379C738.48 133.719 738.334 133.906 738.334 133.941V145.367C738.334 145.602 738.234 145.777 738.035 145.895C737.836 146 737.525 146.053 737.104 146.053H736.98ZM750.656 129.441C750.422 129.441 750.211 129.406 750.023 129.336C749.848 129.266 749.76 129.143 749.76 128.967C749.76 128.814 749.848 128.562 750.023 128.211C750.375 127.508 750.639 126.775 750.814 126.014C750.99 125.24 751.078 124.385 751.078 123.447C751.078 123.143 751.184 122.896 751.395 122.709C751.617 122.521 751.934 122.428 752.344 122.428H752.607C753.006 122.428 753.316 122.51 753.539 122.674C753.762 122.838 753.873 123.055 753.873 123.324C753.873 124.484 753.686 125.533 753.311 126.471C752.936 127.396 752.49 128.123 751.975 128.65C751.471 129.178 751.031 129.441 750.656 129.441ZM746.314 129.441C746.08 129.441 745.869 129.406 745.682 129.336C745.506 129.266 745.418 129.143 745.418 128.967C745.418 128.814 745.506 128.562 745.682 128.211C746.033 127.508 746.297 126.775 746.473 126.014C746.648 125.24 746.736 124.385 746.736 123.447C746.736 123.143 746.842 122.896 747.053 122.709C747.275 122.521 747.592 122.428 748.002 122.428H748.266C748.664 122.428 748.975 122.51 749.197 122.674C749.42 122.838 749.531 123.055 749.531 123.324C749.531 124.484 749.344 125.533 748.969 126.471C748.594 127.396 748.148 128.123 747.633 128.65C747.129 129.178 746.689 129.441 746.314 129.441Z" fill="#B8B6C5" fill-opacity="0.976471"/>
<path d="M756.861 150.324C756.639 150.324 756.475 150.254 756.369 150.113C756.275 149.973 756.229 149.738 756.229 149.41V149.287C756.229 148.959 756.275 148.725 756.369 148.584C756.475 148.443 756.639 148.373 756.861 148.373H759.27V123.957H756.861C756.639 123.957 756.475 123.887 756.369 123.746C756.275 123.605 756.229 123.377 756.229 123.061V122.902C756.229 122.586 756.275 122.357 756.369 122.217C756.475 122.076 756.639 122.006 756.861 122.006H760.641C760.969 122.006 761.209 122.082 761.361 122.234C761.514 122.375 761.59 122.609 761.59 122.938V149.375C761.59 149.703 761.514 149.943 761.361 150.096C761.209 150.248 760.969 150.324 760.641 150.324H756.861ZM194.73 207C194.555 207 194.408 206.854 194.291 206.561C194.174 206.268 194.115 205.957 194.115 205.629C194.115 205.336 194.156 205.154 194.238 205.084L202.289 194.977C202.945 194.121 203.42 193.447 203.713 192.955C204.018 192.451 204.211 192.029 204.293 191.689C204.375 191.35 204.416 190.934 204.416 190.441C204.416 189.434 204.064 188.637 203.361 188.051C202.67 187.465 201.721 187.172 200.514 187.172C199.646 187.172 198.908 187.289 198.299 187.523C197.689 187.758 197.104 188.057 196.541 188.42C196.189 188.654 195.955 188.771 195.838 188.771C195.732 188.771 195.598 188.678 195.434 188.49C195.27 188.291 195.123 188.068 194.994 187.822C194.877 187.564 194.818 187.359 194.818 187.207C194.818 186.797 195.141 186.422 195.785 186.082C196.43 185.73 197.203 185.449 198.105 185.238C199.008 185.027 199.793 184.922 200.461 184.922C201.809 184.922 202.98 185.139 203.977 185.572C204.984 186.006 205.758 186.621 206.297 187.418C206.848 188.215 207.123 189.158 207.123 190.248C207.123 191.279 206.965 192.188 206.648 192.973C206.332 193.746 205.734 194.713 204.855 195.873C203.988 197.021 202.354 199.061 199.951 201.99L197.666 204.785H206.666C206.889 204.785 207.047 204.855 207.141 204.996C207.246 205.137 207.299 205.377 207.299 205.717V206.068C207.299 206.385 207.246 206.619 207.141 206.771C207.047 206.924 206.889 207 206.666 207H194.73ZM216.562 207.176C215.473 207.176 214.477 207.082 213.574 206.895C212.684 206.695 211.986 206.449 211.482 206.156C210.979 205.863 210.727 205.576 210.727 205.295C210.727 205.107 210.791 204.891 210.92 204.645C211.049 204.398 211.201 204.188 211.377 204.012C211.553 203.824 211.699 203.73 211.816 203.73C211.934 203.73 212.203 203.824 212.625 204.012C213.234 204.281 213.832 204.504 214.418 204.68C215.016 204.844 215.719 204.926 216.527 204.926C217.395 204.926 218.197 204.756 218.936 204.416C219.674 204.064 220.266 203.543 220.711 202.852C221.156 202.16 221.379 201.322 221.379 200.338C221.379 198.943 220.898 197.883 219.938 197.156C218.977 196.418 217.582 196.049 215.754 196.049H213.1C212.76 196.049 212.525 195.979 212.396 195.838C212.279 195.697 212.221 195.457 212.221 195.117L212.748 186.064C212.76 185.736 212.848 185.502 213.012 185.361C213.176 185.209 213.422 185.133 213.75 185.133H222.064C222.287 185.133 222.445 185.209 222.539 185.361C222.633 185.502 222.68 185.736 222.68 186.064V186.434C222.68 186.762 222.633 187.002 222.539 187.154C222.445 187.307 222.287 187.383 222.064 187.383H215.279L214.875 193.799H216.51C217.764 193.799 218.959 194.01 220.096 194.432C221.244 194.842 222.193 195.533 222.943 196.506C223.693 197.479 224.068 198.756 224.068 200.338C224.068 202.037 223.705 203.396 222.979 204.416C222.264 205.436 221.344 206.15 220.219 206.561C219.105 206.971 217.887 207.176 216.562 207.176ZM234.299 207.176C232.986 207.176 231.797 206.777 230.73 205.98C229.664 205.184 228.809 203.953 228.164 202.289C227.531 200.625 227.215 198.545 227.215 196.049C227.215 193.564 227.531 191.49 228.164 189.826C228.809 188.162 229.664 186.932 230.73 186.135C231.797 185.326 232.986 184.922 234.299 184.922C235.611 184.922 236.807 185.326 237.885 186.135C238.975 186.932 239.842 188.162 240.486 189.826C241.131 191.49 241.453 193.564 241.453 196.049C241.453 198.545 241.131 200.625 240.486 202.289C239.842 203.953 238.975 205.184 237.885 205.98C236.807 206.777 235.611 207.176 234.299 207.176ZM234.299 204.926C235.107 204.926 235.846 204.627 236.514 204.029C237.193 203.432 237.744 202.471 238.166 201.146C238.588 199.822 238.799 198.123 238.799 196.049C238.799 193.986 238.588 192.293 238.166 190.969C237.744 189.645 237.193 188.684 236.514 188.086C235.846 187.477 235.107 187.172 234.299 187.172C233.502 187.172 232.764 187.471 232.084 188.068C231.416 188.666 230.877 189.633 230.467 190.969C230.057 192.293 229.852 193.986 229.852 196.049C229.852 198.123 230.057 199.822 230.467 201.146C230.877 202.471 231.416 203.432 232.084 204.029C232.764 204.627 233.502 204.926 234.299 204.926ZM254.145 207.176C251.004 207.176 248.613 206.273 246.973 204.469C245.332 202.652 244.512 199.91 244.512 196.242C244.512 188.695 247.881 184.922 254.619 184.922C255.604 184.922 256.559 185.027 257.484 185.238C258.41 185.438 259.16 185.689 259.734 185.994C260.309 186.299 260.596 186.592 260.596 186.873C260.596 187.049 260.531 187.283 260.402 187.576C260.285 187.869 260.145 188.127 259.98 188.35C259.816 188.572 259.67 188.684 259.541 188.684C259.482 188.684 259.318 188.607 259.049 188.455C258.439 188.127 257.801 187.852 257.133 187.629C256.465 187.406 255.65 187.295 254.689 187.295C252.041 187.295 250.154 188.027 249.029 189.492C247.904 190.945 247.342 193.102 247.342 195.961C247.342 198.656 247.863 200.807 248.906 202.412C249.961 204.006 251.777 204.803 254.355 204.803C255.141 204.803 255.896 204.768 256.623 204.697C257.361 204.615 257.947 204.516 258.381 204.398V198.088H254.725C254.502 198.088 254.338 198.018 254.232 197.877C254.139 197.725 254.092 197.484 254.092 197.156V196.646C254.092 196.318 254.139 196.084 254.232 195.943C254.338 195.791 254.502 195.715 254.725 195.715H260.191C260.52 195.715 260.76 195.791 260.912 195.943C261.064 196.084 261.141 196.318 261.141 196.646V204.926C261.141 205.734 260.484 206.314 259.172 206.666C257.859 207.006 256.184 207.176 254.145 207.176ZM267.715 207C267.387 207 267.146 206.924 266.994 206.771C266.842 206.619 266.766 206.385 266.766 206.068V186.064C266.766 185.736 266.842 185.502 266.994 185.361C267.146 185.209 267.387 185.133 267.715 185.133H278.613C278.836 185.133 278.994 185.203 279.088 185.344C279.193 185.484 279.246 185.725 279.246 186.064V186.574C279.246 186.891 279.193 187.125 279.088 187.277C278.994 187.43 278.836 187.506 278.613 187.506H269.525V194.625H277.682C277.904 194.625 278.062 194.701 278.156 194.854C278.262 195.006 278.314 195.246 278.314 195.574V196.049C278.314 196.377 278.262 196.617 278.156 196.77C278.062 196.91 277.904 196.98 277.682 196.98H269.525V204.627H278.648C278.871 204.627 279.029 204.703 279.123 204.855C279.229 204.996 279.281 205.23 279.281 205.559V206.068C279.281 206.385 279.229 206.619 279.123 206.771C279.029 206.924 278.871 207 278.648 207H267.715ZM284.801 207C284.473 207 284.232 206.924 284.08 206.771C283.928 206.619 283.852 206.385 283.852 206.068V185.748C283.852 185.279 284.273 185.045 285.117 185.045H285.363C286.195 185.045 286.611 185.279 286.611 185.748V204.627H295.207C295.43 204.627 295.588 204.703 295.682 204.855C295.775 204.996 295.822 205.23 295.822 205.559V206.068C295.822 206.385 295.775 206.619 295.682 206.771C295.588 206.924 295.43 207 295.207 207H284.801Z" fill="#B6C5F9"/>
</svg>
